<svg version="1" xmlns="http://www.w3.org/2000/svg" width="933.333" height="933.333" viewBox="0 0 700.000000 700.000000"><path d="M162 4.2c-.8 2.4-1.4 5.4-1.5 6.8-.1 1.4-.5 4.4-.9 6.5-.5 2.2-1 5.3-1.2 7-.5 4.2-.9 5.8-1.6 7-.3.5-1.6 5.7-2.8 11.5-1.1 5.8-3.2 14.5-4.5 19.5-1.3 4.9-2.7 10.6-3 12.5-.7 4.6-2.5 10.2-3.7 11.7-.5.6-1.1 4.2-1.2 8-.2 3.7-.6 7.6-1.1 8.6-.4.9-.4 3.1-.1 4.7.3 1.7.9 4.3 1.2 5.9.3 1.6 1.5 3.9 2.5 5s1.9 2.6 1.9 3.2c0 .7.3 1 .6.6.3-.3 2.7 1.7 5.3 4.5 5.9 6.6 6.4 7.1 13.6 12.4 3.2 2.5 7.2 4.8 8.7 5.1 1.5.3 2.8.9 2.8 1.4 0 .7 4.2 2.5 4.8 2 .2-.2 1.4.5 2.8 1.4 1.4.9 3.2 1.4 4 1.1.9-.3 1.2-.1.9.4-.3.6.6 1.5 2.2 2 1.5.6 3.6 1.5 4.5 2 1 .6 2.5 1 3.3 1 .9 0 1.4.4 1.1.9-.4.5 1.8 1.7 4.6 2.6 5 1.7 6.9 2.5 13.7 6 1.6.8 3.4 1.5 4 1.5.5 0 4.3 1.6 8.4 3.5 4.1 1.9 8 3.5 8.7 3.5.7 0 2.1.7 3 1.5 1 .9 2.6 1.7 3.6 1.9 4.8 1 7.4 1.9 7.4 2.6 0 .4 1.8 1.2 4.1 1.9 2.2.7 5.6 2.1 7.5 3.2 1.9 1 4.5 1.9 5.9 1.9 1.3 0 2.7.4 3 1 .3.5 1.6 1 2.9 1 1.2 0 2.6.3 3 .7.4.5 1.1.8 1.4.8.4.1 1.8.7 3.1 1.4 1.4.8 2.1.9 1.7.2-.4-.6-.3-1.1.3-1.1s1.5.9 2 1.9c1.2 2.1 6.8 4.4 8.4 3.4.6-.3.7-.1.3.5-.5.8 0 1.2 1.2 1.2 1.1 0 2.5.6 3.1 1.4.7.8 2.2 1.7 3.4 2 2.2.5 9.3 9.3 8.9 10.8-.1.5.3.8.9.8.8 0 .8.4-.1 1.5-.7.8-.9 2.3-.5 3.6.8 2.5.8 21.3 0 24.6-1.3 5.8-1.4 6.7-.4 8 .8.9.8 1.7.1 2.5-2.2 2.8-3.2 20-4.4 75.1-.1 6.5-.5 12-.9 12.2-.3.2-.7 3.4-.8 7-.2 6.5-1.6 11.5-3.3 11.5-.4 0-.7.5-.5 1.1.1.6-1.6 1.7-3.7 2.5-3.9 1.4-4.2 1.3-12.3-2.7-8.9-4.3-10.4-4.8-17-5.4-7.6-.7-12.1 1.6-12.9 6.7-.5 3-.3 3.8 1.8 5.2 1.3.8 3.5 1.7 4.8 1.8 1.4.2 2.7.6 3 1 1.1 1.4 20.6 4 24.2 3.3 2-.5 5 .5 11.5 3.6 4.8 2.4 9.4 4.9 10 5.5.7.7 2.6 1.5 4.3 1.9 1.7.4 2.8 1 2.5 1.5-.3.4.6 1 1.8 1.4 2 .5 2.4 1.3 2.6 5.3.1 2.6.5 5 .9 5.3 1 .6.9 2.6 0 3.6-.7.6-.3 9.8.7 17.6.2 2.2-.2 2.9-2.8 3.7-2.4.9-3.5.8-5.4-.4-2.8-1.8-3.8-4.1-5.1-11.6-.6-3-1.2-6.1-1.4-6.9-.2-.8-1.9-2.7-4-4.2-2-1.4-3.9-3.1-4.3-3.7-.3-.6-1.5-1.1-2.6-1.1-1 0-1.9-.5-1.9-1.2 0-.6-.3-.8-.6-.5-.4.3-1.4.2-2.3-.2-1.9-1.1-9.9-2.1-19.6-2.7-8.9-.5-11.9-.9-13.5-1.9-.7-.4-2.9-.9-5-1-2-.1-4.2-.5-4.9-.9-.6-.4-1.5-.5-1.9-.2-.5.3-2.9-.5-5.5-1.8-2.5-1.3-4.8-2.1-5.1-1.8-.4.3-.6-.1-.6-.8 0-.7-.9-2-2-3-1.1-.9-2.6-4-3.3-6.9-.7-2.8-1.6-4.9-1.9-4.5-.4.3-.4-.4-.1-1.7.4-1.5.3-2-.5-1.5s-1-.2-.5-2.5l.6-3.1-2.7 1.7c-1.5 1-2.9 1.5-3.3 1.1-.3-.3 0-.6.7-.6 1 0 1.1-.3.3-1.1-1.8-1.8-.3-4.7 2.7-5.4 2.9-.6 2.9-.6 2.8-9 0-2.2 0-6.8.1-10.2.1-3.4-.3-6.4-.9-6.8-1.3-.8-3.5.6-3.5 2.2 0 2.3-2 1.4-2.1-.9-.2-3.9.5-4.9 2.7-3.5 3.4 2 4.5-.8 3.9-10.2-.3-4.5-.2-9.1.2-10.1.4-1.1.3-2.2-.1-2.4-.5-.3-.6-1.7-.3-3.1.3-2 0-2.5-1.7-2.5-1.2 0-1.9-.4-1.6-1 .3-.6 1.5-1 2.6-1 1.6 0 1.8-.4 1.2-2.8-.4-1.5-.6-7.2-.5-12.7.1-5.5.2-12 .1-14.5v-6c.1-.8.2-3.8.2-6.5v-22.3c.2-9.7-2.3-24.2-4.3-24.2-.4 0-.5-.6-.2-1.4.3-.9-.3-1.7-1.5-2.1-1.2-.3-2.1-1.3-2.1-2.1 0-2.9-11.9-11.4-16-11.4-1.1 0-2-.4-2-.9 0-1.8-6.5-2.9-22.5-3.6-12.3-.5-17.6-2.2-21.5-6.7-1.4-1.6-3.4-3.1-4.5-3.2-1.1-.2-1.9-.9-1.7-1.5.1-.6-.4-1.1-1.1-1.1-.7 0-1.8-.9-2.5-2-.7-1.2-1.7-1.8-2.2-1.5-.6.3-1-.1-1-.9 0-2.4-7.1-6.6-9.3-5.4-1.1.6-1.6.5-1.5-.1.3-1.2-6.2-7.1-7.8-7.1-.6 0-1.7-.6-2.3-1.4-.7-.8-2.6-1.8-4.2-2.1-1.6-.4-3.3-1.3-3.7-2.2-.5-.8-1.1-1.4-1.3-1.3-.2.1-2.4-.3-4.9-1-5-1.4-15.9-2.2-17.3-1.3-.5.3-2.6.6-4.6.8-5.4.3-16.8 6.2-21.5 11.1-8.9 9.5-11.7 12.7-14.4 17-1.8 2.8-3.2 5.8-3.2 6.6 0 .9-.7 1.9-1.6 2.2-.8.3-1.2 1-.9 1.6.3.5 0 1.9-.8 3.1-.8 1.1-1.3 2.9-1 3.9.3 1-.3 2.9-1.2 4.3-1.2 1.9-1.7 5.3-1.8 14.4-.2 6.5-.5 12.2-.8 12.8-1.2 2.5 1 20.9 3.1 26 .4 1.1 1.4 4.2 2.1 6.8.6 2.7 1.8 5.1 2.6 5.4.7.3 1.3 1.1 1.3 1.9 0 .8.8 1.4 1.8 1.5 1 0 1.2.3.5.6-.7.2-1.3.9-1.3 1.5s.7.7 1.5.4c1.7-.6 2.7 1.2 2.9 4.8.1 1.2.4 2.5.8 3.1.3.5.9 2.6 1.3 4.5s2 6.2 3.6 9.6c1.6 3.4 2.9 6.5 2.9 7s.9 2 2 3.4c3.5 4.4 2.2 5.6-1.8 1.7-2.5-2.4-3.8-4.6-3.7-6 .3-2.6-2.1-7.7-3.6-7.7-.6 0-.9.6-.7 1.2.2.7 1 3.4 1.7 6 .9 3.2 2.8 6.3 6 9.6 2.8 2.7 5.6 6.9 6.6 9.8 1.1 2.7 2.1 5.1 2.4 5.4 1.6 1.4 3.1 5.3 3.1 8 0 1.6.5 3 1 3 .6 0 1 .7 1 1.5s.4 1.5 1 1.5.6-.9 0-2.5c-.5-1.4-.6-2.5-.2-2.5.4 0 1.5 2.1 2.5 4.8 1.3 3.7 1.4 4.3.2 2.8-2.1-2.7-1.9-1.3.5 4 1.7 3.5 2.1 6.6 2.2 15.1 0 5.9.4 11.4.9 12.2.4.9 2.4 5.6 4.4 10.6 1.9 4.9 4.8 10.8 6.5 13.1 2.6 3.6 2.7 4.3 1.6 6.5-2.3 4.5-6.9 10.9-7.7 10.9-1.5 0-5.9 7.8-5.9 10.4 0 1.4 1 3.6 2.3 4.9 5 5.3 16.6 10.3 21.2 9.1 2.8-.7 7.5-4.8 7.5-6.4 0-.6.5-1 1-1 .6 0 1-.6 1-1.4 0-.8.9-2.4 2-3.7 2.2-2.7 1.9-3.4 2.4 6.2.4 8.2 3.6 9.5 15.7 6.4 3.5-.9 7.2-1.9 8.3-2.1 4.8-.9 5.3-5.6 1.5-16.2-1-2.8-1.7-5.2-1.5-5.2.2 0-.5-2.4-1.4-5.3l-1.7-5.2 6.1-5.6c9.2-8.6 13.1-20.3 10.6-32.3-.8-4-.8-6.1 0-7.6.9-1.6.8-2-.4-2-2.5 0-4.8 4.4-4 7.6 1.8 7.2 1.1 12.3-2.9 21.9-3.3 7.8-15.5 15.9-24.4 16.4-5.4.3-19.3-3.4-19.3-5 0-.5-.5-.9-1.2-.9-2.8 0-9.5-9.8-11.3-16.5-.5-1.7-.9-3.2-1-3.5-.7-2.1-1.5-8.9-2-16-.5-8.2-1-11.8-2.2-15-.3-.8-.8-2.3-1-3.4-.4-2.1-12.2-29.6-13.3-31.1-1.2-1.5-11.6-26.6-12.5-30-.5-1.7-1-3.5-1.1-4-2.3-6.9-4.6-17.5-5-23.5-.2-4.1-.7-10.9-1.1-15-1-10.5-1-14.8 0-20 1.2-6.5 1.6-9 2.1-13.7.5-4.8 2.7-11.5 4.1-12.5.5-.4.6-.8.2-.8-1 0 6.5-10.9 9.4-13.7 1.3-1.2 5.1-3.4 8.4-5 4.9-2.3 7.4-2.8 13.5-2.8 6.9 0 8 .3 13.6 3.8 3.4 2 7.8 5.6 9.8 8 2 2.3 4.3 4.9 5.1 5.8.8.9 1.5 1.9 1.5 2.3 0 .7 3.9 5.1 12.5 14.2 5.9 6.2 13.2 8.1 17.5 4.6l2.2-1.8-6.7-3.5c-3.7-1.9-7.6-4.3-8.6-5.4-3.7-4.2-6.5-7.4-9.4-11.1-1.6-2.1-4.5-5.3-6.2-7.1-3.2-3.1-7.3-9.1-7.3-10.5 0-1.7 8.9 3.4 14.8 8.4 1.8 1.6 3.7 2.6 4.3 2.3.5-.4 1.2.1 1.5.9.3.9 1 1.6 1.6 1.6.5 0 .6-.5.2-1.1-.4-.7-.1-1 .7-.7.8.3 1.4 1.1 1.4 1.9 0 .8.4 2 .9 2.7 1.3 2.2 8.7 6.4 10.2 5.8.8-.3 1.4-.1 1.4.4 0 .6-.7 1-1.5 1s-1.5.4-1.5.9c0 1.1 6.9 3.5 7.7 2.7.3-.3 1.1.2 1.8 1 .6.9 2.2 1.8 3.6 2 1.3.2 4.3.6 6.6 1 2.7.4 4.8.2 5.7-.5 1-.8 1.6-.9 2.1-.1.9 1.4 5.5 1.3 5.5-.2 0-.6.7-.3 1.5.8 1.4 1.8 1.4 1.7 1.5-1.2 0-1.9.6-3.4 1.6-3.8 1-.4 1.3-.2.7.6-2.2 3.7-.8 5.3 4.5 5.1.6-.1 1.2.4 1.2.9 0 .6.7.8 1.5.5.8-.4 1.7-.2 2 .4 1 1.5 6.8 4.2 9.5 4.3 1.5.1 2.5.7 2.5 1.6 0 .8.6 2.1 1.3 2.8.7.8 1 1.8.7 2.3-.4.5-.1.9.6.9s.9.3.6.7c-.4.3.3 1.8 1.5 3.1 1.7 1.8 1.9 2.6 1 2.9-1 .4-1 .8.2 1.7 1.4 1 1.4 1.4.2 3.8-.9 1.7-1.1 3-.5 3.4.5.3.7.9.5 1.3-.3.4-.1 1.3.4 2.1.5.9.5 1.9-.2 2.7-.8 1 0 1.3 3.8 1.3 3.8.1 4.5.3 3.1 1.1-.9.5-2.1.8-2.6.4-.5-.3-2.1 0-3.6.7-2.1.9-2.4 1.4-1.3 2.3 1.5 1.2 2 4.5.7 4.5-.6 0-.5.9.1 2s.7 3.7.4 6.2c-.4 2.4-.8 6.1-.9 8.3-.1 2.2-.3 4.4-.5 5-.3 1.2-.3.8.4 7 .3 3 .1 5.4-.6 6.3-.9 1-.9 1.5 0 2 .7.5.9 2.8.6 6.2-.6 8.2-.5 11.2.8 12.7.6.8.7 1.3 0 1.3-1.3 0-2.1 3.4-1.2 5.1 1.1 2.1 1.9 9.9.9 9.9-.4 0-.7.9-.6 2 .1 1.1.5 2 .9 2s.8.4.8 1c0 .5-.6 1-1.4 1-1.6 0-1.5 2.8 0 3.8 1.4 1 1.2 10.4-.3 12-1 1-1 1.8.2 3.6 1.4 2.1 1.4 2.5 0 3.6-1.3 1.1-1.3 1.5.1 4.2 1.2 2.4 1.3 3.2.3 4.5-1.9 2.3-2.1 5.3-.4 5.3 2.1 0 1.9 2.6-.2 3.4-1.5.6-1.3 1 1.2 3.2 1.7 1.5 2.3 2.3 1.3 2-2.1-.6-2.3.5-.6 2.2.9.9.9 1.5 0 2.4-1.1 1.1 0 4.6 2 5.9.5.3 1 1.5 1.1 2.7 0 1.1.5 1.8.9 1.6.4-.3.8.2.8 1s.9 2.1 2 2.9c1.1.8 1.7 1.7 1.4 2-.4.4.1.9 1 1.3.9.3 1.6 1.2 1.6 2 0 .9 1.1 1.4 2.9 1.4 1.6 0 3.4.7 4.1 1.5.7.8 2.7 1.4 4.6 1.3 2.2-.1 3.9.5 4.7 1.5.8 1.1 3.1 1.8 6.9 2.1 3.1.2 6.1.7 6.6 1 .6.3 1.3.2 1.6-.3.3-.5 2.4-.5 4.8.1 2.4.5 7 1 10.3 1.2 6.7.3 11.3 1.3 13.4 3 .8.6 1.6 1 1.8.8.6-.5 5.3 3.5 5.3 4.6 0 .6.7 1.7 1.5 2.6.8.8 1.7 3.4 2 5.8.3 2.4.6 4.9.7 5.5.1.7.7 1.3 1.4 1.3.6 0 1.5 1.1 1.8 2.4.9 3.7 5.4 6.4 10.6 6.4 2.5 0 5.5 0 6.6.1 2.5.1 4.1 3.1 2.3 4.1-1.5 1-.6 13.9 1.2 16.7 1.1 1.8 1 2.4-.2 3.9-.9 1.1-.9 1.5-.1 1 .7-.4 1.2-.1 1.2.9 0 .9-.4 1.3-1 1-1.4-.9-1.2.2.6 2.9 1 1.6 1.2 2.6.5 3.1-.6.3-1.1 2.5-1.1 4.9 0 7.3-4.3 8.9-16.9 6.2-3.4-.8-9.1 2.5-16.5 9.5-8.2 7.6-18 20.4-17 22 .4.7.3 1-.3.6-1.3-.8-3.7 3.7-3 5.6.3.8-.3 2.3-1.3 3.2-1.1 1-1.9 2.7-1.8 3.9.3 2.8-2.1 8.6-3.4 8.6-.6 0-.5-.7.2-1.5s.9-1.5.6-1.5c-.4 0-.3-.8.3-1.8.6-1.1.5-2.1-.4-2.9-1.2-1.1-2.1-.3-2.5 2.2-.1.3-.7 2-1.5 3.9-1 2.3-1.2 4.3-.6 6.4.5 1.7.7 3.3.4 3.5-1 1 1.8 4.6 5 6.6 2.9 1.8 5.6 2.7 8.9 3 .9.1 8.1 15.1 9.8 20.5.7 2.2 2.8 5.4 4.6 7.3 1.9 1.9 3.4 3.7 3.4 4.1 0 1.2 7.8 8.2 10.5 9.4 1.4.6 2.5 1.5 2.5 2 0 .4.4.8.9.8s3.1 1.3 5.8 3c10.1 6.2 20.3 8.1 45.3 8.4 4.7.1 9 .4 9.5.7.6.3 3 .6 5.5.7 6.9 0 12.3 2.2 13.4 5.4 2.1 6-2 6.9-31.5 7.3-13.5.2-23.5.7-24.7 1.4-1 .6-2.2.8-2.5.5-1.2-1.3-9.7 5.2-9.7 7.5 0 .6-.4 1.1-.9 1.1s-1.4 1.5-2 3.2c-1.5 4.8.1 10.6 4.1 14.4 4.3 4 7.7 5.1 18.8 5.9 2.5.2 6 .6 7.8 1 2.2.5 3.2.4 3.2-.4 0-.7.5-.9 1.1-.6.5.4 4.9.9 9.7 1.2 4.8.3 9.8 1 11.2 1.6 1.4.5 3.6 1.2 5 1.4 1.4.2 3.2 1.1 4.1 1.9.8.8 1.9 1.4 2.4 1.4 1.2 0 4.5 4.1 4.5 5.7 0 .8.5 1.1 1.2.7.8-.5.9-.2.3 1.2-.4 1-.9 3-1 4.4-.1 1.4-.4 2.6-.5 2.7-.1.2-.4.7-.5 1.3-.1.5-.4 1.2-.5 1.5-.1.3-.3.8-.4 1.2-.3 1.5-6.7 10.3-7.4 10.1-1.6-.3-4.2 1.5-4.2 3.1 0 1.2-.2 1.3-.9.3-.6-1.1-1.4-.8-3.5 1.2-1.5 1.3-3.3 2.3-4 2-.7-.3-5.5.1-10.7.9-5.1.7-13.8 1.2-19.1 1-5.6-.2-10.6.1-11.7.7-1.1.5-2.2.6-2.5.1-.5-.8-6.7-1.7-17.6-2.6-12.2-.9-16.2-1.5-19.6-3-1.9-.8-3.8-1.4-4.2-1.3-2 .5-15.1-5.6-16.4-7.6-.3-.6-1.8-2.5-3.3-4.1-3.2-3.7-7.6-12-6.8-12.9.4-.3.2-.6-.3-.6s-1-2-1.2-4.4c-.1-2.4-.5-5.9-.7-7.7-.3-1.9-.8-7.9-1.1-13.4-.3-5.5-.9-10.2-1.3-10.5-.5-.3-.7-1.9-.6-3.5 0-1.7-.2-4.8-.6-7-.4-2.2-1-5.8-1.3-8-.4-2.2-1.3-6.4-2.1-9.4s-1.2-5.8-.9-6.2c.2-.4 0-.9-.5-1.1-.4-.1-1.1-3.5-1.4-7.3-.8-9-.7-8.6-5.1-17.8-2.7-5.8-4.5-8.3-6.8-9.5-1.7-.9-4.2-2.8-5.5-4.1-1.3-1.3-2.3-2.1-2.3-1.7 0 .4-1-.2-2.2-1.4-1.2-1.1-2.8-2-3.5-2-.7 0-1.3-.4-1.3-.9 0-1-9-5.7-10.2-5.3-.5.1-.8-.3-.8-.8 0-.6-.5-1-1-1-.6 0-2.9-.8-5.3-1.9-2.3-1-5.8-2.4-7.7-3.1-1.9-.7-6.4-2.7-10-4.4-3.6-1.7-6.7-3.1-7-3.1-3.5-.4-26-14-26-15.7 0-.5-.4-.8-1-.8-1.7 0-4.8-3.7-7.7-9-1.5-2.7-3-5-3.4-5-1 0-.4-5.2 1-7.8 1.2-2.2 5-3.6 10.1-3.6 1.4 0 2.8-.4 3.2-1 1-1.5 6.9-1.6 9.8-.1 1.4.7 3.4 1.1 4.5.9 1.1-.2 3.7-.6 5.9-.8 2.1-.2 4.5-1.1 5.4-1.9 1.1-1.1 2.1-1.3 3.9-.6 1.8.6 2.2.6 1.7-.3-.5-.8.2-.9 2.3-.5 1.7.3 3.5.1 4.1-.5 1.3-1.3 5.4-1.9 4.6-.6-.8 1.2.3 1 3.6-.7 1.7-.9 3-1.3 3-1.1 0 .7 9.8-2.2 13.7-4 5.7-2.6 7.4-8.2 3.8-11.9-2.1-2.1-6.2-2.4-21-1.3-11.2.8-13.7-1.3-14.9-12.1-.6-5.7-2.1-9.1-3.8-9.1-.6 0-2-.8-3-1.7-2.7-2.4-19.8-3.2-19.8-.9 0 1.3-.5 1.4-2.7.5-3.7-1.4-11.3 2.4-13.3 6.8-1.7 3.6-3 4.2-3.1 1.5 0-.9-.1-3.3-.2-5.2-.3-5.6-2-5-5.3 1.9-2.8 5.9-3 6.7-1.7 9.2.8 1.5 2.3 3.1 3.3 3.4 2.4.8 10.1-.3 11.7-1.7.9-.7 2.3-.5 4.8.6 4.1 2 13.4 2.7 15.4 1.2 1.4-1.1 3.7-1.7 6.4-1.7.9 0 1.7-.7 1.7-1.5s.7-1.7 1.5-2c.8-.4 1.5-1.4 1.6-2.3 0-.9.8 1.4 1.8 5.1 2.1 8.1 3.8 10.2 10.2 12.3 4.8 1.6 9 1.6 21.1-.1 6.2-.9 8.2-.1 6.8 2.6-1.2 2.3-6.8 5.5-8.8 5.1-.8-.1-1.9.2-2.5.7-.7.6-3.4 1.2-6.2 1.5-2.7.3-7 1-9.5 1.6-9.5 2-14 2.4-30 2.6-9.1.1-17.4.5-18.5.8-1.1.3-2.3.6-2.7.6-.3.1-2 1.5-3.7 3.2-2.7 2.6-3.1 3.8-3.1 8.3 0 10 8.1 20.7 23.7 31.1 3.7 2.5 7.3 5 8 5.5 1.9 1.6 30.7 15.3 32.1 15.3.6 0 1.2.4 1.2.9 0 .4.6.8 1.3.8.8 0 2.7.6 4.3 1.4 2.9 1.5 8.4 3.8 9.4 4 .3.1 3.3 1.7 6.7 3.5 9.8 5.3 13.7 9.1 16.4 16.3 1.3 3.5 2.4 6.7 2.5 7.3.1 1.5 1.3 7.9 4 21 1.4 6.6 2.7 12.9 2.8 14 .2 1.1.6 3.3.9 5 1.3 6.6 2.3 15.9 3.2 29.6.4 6.4 1.9 14.5 3.5 18.4 3 7.7 4.4 10.5 5.2 10.5.4 0 .8.6.8 1.3 0 .7 2.3 3.6 5 6.5 4.6 4.9 10.8 8.5 16.3 9.6 1.2.3 5.4 1.2 9.3 2 5.8 1.3 13.1 1.5 40 1.2 18.1-.2 34.5-.6 36.4-.9 3.2-.6 3.2-.5.5.2-2.6.8-2.3.9 2.3 1 6 .1 14.3-2 18.3-4.7 3.7-2.4 7.1-6.7 10.9-13.6 4.7-8.9 4.3-18.1-1.2-25.8-1.7-2.4-10.7-9-12.8-9.4-.3 0-1.2-.3-2-.7-2.5-.9-13.6-1.8-29-2.3-13.3-.4-26.2-2.5-24.7-4.1.4-.3 0-1.2-.8-1.9-.7-.8-1.2-2.2-1-3.1.2-1 .4-2.3.4-2.9.2-1.9 3.6-5.2 7.9-7.4 4.2-2.2 13.1-2.9 22.5-1.6 2 .3 3.7.1 3.7-.4 0-.6.4-1 1-1 .5 0 .7.6.4 1.3-.5 1.4.1 1.5 8.1 1.7 5 .1 11.8-.5 16.3-1.4 1.3-.3 4-2 6-3.8 3.4-3.1 3.7-3.7 3.5-8.3-.2-2.7-.7-5.1-1.3-5.3-1.3-.5-1.3-2.2 0-2.2.5 0 2.9 3.1 5.4 6.9 2.5 3.8 5.5 7.5 6.7 8.2 3.1 1.6 13.7 1.2 16.6-.7 1.3-.8 2.8-1.2 3.2-.9.5.3 1.7-.2 2.5-1.1.9-.8 1.6-1.3 1.6-.9 0 .3 1.1-.2 2.5-1.1 1.4-.9 2.5-1.3 2.5-1 0 .4.9.2 2-.4 1.6-.8 2-2 1.8-4.6-.3-4.7-2.3-6.1-8.6-6.1-3.5 0-5.7-.4-6.2-1.4-.5-.7-.7-1.5-.6-1.7 1.1-1 7-.9 9.8.2 3.9 1.6 5.4 1.2 9-2.2 1.6-1.4 4.3-2.6 6.5-2.9 2-.2 4.5-1.1 5.4-1.9.9-.8 3-1.6 4.7-1.9 1.7-.2 3.6-.6 4.2-1 1.6-1 1.2-2.5-.7-2.2-1 .1-1.8-.3-1.8-.8 0-.6.7-.9 1.5-.7 9.7 2 30.4-1.4 31.6-5.2.8-2.4 2.2-3.9 5.2-5.5 1.2-.6 2.2-1.9 2.2-2.8 0-.9.3-1.3.6-1 1.2 1.1 6.3-5.7 5.9-7.8-.2-1.1-.4-2.3-.4-2.7-.1-.3-1.3-1.1-2.8-1.6l-2.8-1 3.7-1.6c2-.9 3.9-2 4.3-2.6 1.3-2 2.4-.9 4 4.2 2.7 8.2 5.7 14.8 6.7 14.8.5 0 .6.4.3 1-.3.5-.1 1 .4 1 .6 0 1.1.7 1.1 1.5s.5 1.5 1 1.5c.6 0 1 .6 1 1.3 0 1.9 10.1 12.1 13.3 13.5 3.9 1.7 9.3 1.5 13.3-.4 4.5-2.2 7-8.4 5.5-14.1-.7-2.4-.7-5.1-.2-7 2.1-7.4-5.3-24-12.5-28.1-1.6-.9-1.2-1.1 2.3-.9 3.2.1 4.8-.5 6.8-2.3 3.1-2.9 3.3-4.7.3-2.6-1.2.9-3 1.6-4 1.6-1.4 0-1.3-.4.7-2.4 1.3-1.3 2.7-3.6 3.1-5 .3-1.4 1-2.6 1.6-2.6.5 0 .6.5.3 1-.3.6-.1 1 .4 1 1.4 0 1.4-4.7.1-5.5-.8-.5-.7-1.1 0-2 .6-.8 1-2.4.9-3.7-.3-2.2 4.5-12.8 5.7-12.8.4 0 3.7 2.2 7.4 5 3.7 2.7 7.2 5 7.8 5 .6 0 1.2.5 1.4 1.2.2.6 2.8 1.1 6.4 1.2 4.8.1 6.6-.4 9.4-2.4 5.2-3.6 10.7-9.7 15.6-17.1 5.5-8.4 7-12.3 8.8-23.4.8-5 1.7-10.4 2.1-12 1.4-6.4 2-17.3 1.2-24.5-.9-8.7-1-17.5-.3-20.9.5-2.4 1.1-8.6 2.1-23.9.7-9.2 4.2-21.1 8-27.2 1.4-2.2 2.5-4.3 2.5-4.6 0-.4.8-1.4 1.8-2.3 3.6-3.1 14.2-23 15.8-29.6.4-1.7.8-3.2.9-3.5.1-.3.5-3 .9-6s.9-6.6 1.1-8c3.4-22.7 3.8-56 .8-74.5-.3-2.2-.7-4.9-.9-6-.1-1.1-.3-2-.4-2-.5 0-1-6.8-.9-13 .2-16.3.1-19.7-1.1-23.5-.2-.6.1-10.8.4-16.5.1-2.2-.3-4.3-.8-4.7-.7-.5-.7-.8.2-.8.6 0 1.2-.7 1.2-1.5s-.5-1.5-1.1-1.5c-.5 0-.7-.5-.4-1.1.4-.5.9-4.4 1.1-8.4.2-4.1.7-8.3 1.2-9.2.5-1 .8-3.2.8-4.8-.1-1.7.1-3.2.5-3.5 1-.8 1.9-11.4 1.1-12.6-.4-.6-1.4-1.3-2.3-1.6-1.7-.7-1.7-2-.3-13.1.4-3.1.4-5.7 0-5.7s-1.6.9-2.8 2c-1.3 1.2-1.7 2-.9 2 1 0 1.1.8.6 2.7-.3 1.6-.8 5.9-.9 9.8-.2 3.8-.6 8.1-.9 9.5-.4 1.4-.9 7.7-1.2 14-.2 6.3-.8 12.8-1.1 14.5-1 4.4-.2 37 1.2 46 .7 4.4.7 7.8.2 26.8-.2 7.1 0 13.1.4 13.3.5.3.5 1.1.1 1.7-1 1.6-1.3 3.7-.5 3.7.9 0 .6 10.5-.2 11.9-.4.6-.3 1.9.3 2.9.6 1.1.6 2.4 0 3.5-.6.9-.6 1.7-.1 1.7.9 0 1.1 5.9.1 7.5-.8 1.5-.4 17.8.4 19.3.5.6.6 1.6.2 2.1-.3.5-.7 3.1-1 5.8-.2 2.6-1.1 7.3-1.9 10.3-1 3.8-1.1 5.9-.4 6.7.6.7.6 1.3.2 1.3-1.1 0-2.8 3.8-4.5 10-.7 2.5-2.1 5.5-3.2 6.7-1.1 1.3-1.8 2.3-1.4 2.3.3 0-.5 1.2-1.9 2.7-1.3 1.4-2.7 3.7-3 5-.4 1.3-1 2.3-1.5 2.3-1 0-6.3 10.9-6.1 12.2.1.5-.3.8-.8.8-.6 0-1 .6-1 1.4 0 .8-.4 1.6-.9 1.8-.9.3-3 9.5-3.6 15.8-.1 1.4-.5 3.6-.9 5-.8 3.2-1.7 17.2-2 31.5-.7 30.6-1 39.3-1.7 42-.4 1.6-1 5-1.2 7.5-.2 2.5-.9 5.6-1.4 7-.6 1.4-.8 3.1-.6 3.7.3.7.1 1.3-.4 1.3-.4 0-1.7 1.7-2.8 3.7-1.1 2.1-3 5.4-4.2 7.3-1.7 2.5-2 3.6-1 4.2.9.6.9.8-.1.8-.7 0-1 .4-.7 1 .3.5-.3 1-1.3 1-2.1 0-5.8 4.7-5.4 6.7.2.7-.4 1.4-1.3 1.4-3.5.3-4 .5-3.7 1.7.2 1-.3 1-1.7.3-1-.6-2.1-.8-2.4-.5-.8.8-7.7-1.6-7.7-2.7 0-.5-.5-.9-1-.9-1.4 0-13-11.1-13-12.4 0-2.1-4.1-9.2-6-10.4-3.9-2.4-11.5-2.5-16.7-.2-6.3 2.7-16.5 13.5-20.8 21.9-1.8 3.6-4.4 8.1-5.8 9.8-1.3 1.8-3.2 5.2-4.2 7.7l-1.8 4.4-5.1-4.9c-10.4-9.9-11.9-11.2-15.9-13.4-8.3-4.5-14.2-7.9-14.7-8.4-.3-.3-3.9-2.3-8-4.3-12.7-6.2-31.5-11.9-50.5-15.2-7.9-1.3-8.5-1.6-7.2-3.9.7-1.2 1.5-2.4 1.8-2.7 1.7-1.5 2.8-6 1.9-7.9-.4-.8.1-2.2 1.1-3.2 1.7-1.7 1.7-2-1.3-7.8-2.1-4.1-3.8-6.1-5.4-6.5-1.3-.4-2.4-1.1-2.4-1.6 0-.6-.9-1-2-1-2.4 0-2.5.8-.3 3.2 1.5 1.7 1.5 1.8.1 1.3-.9-.4-2.7-.1-4 .6-2.2 1.2-2.3 1.1-.5-.8 2.4-2.8 2.1-3.8-.5-1.3-1.3 1.2-3.7 2-6 2.1-2.1.1-4.4.2-5 .3-.7 0-2.9 3.2-4.8 7-1.9 3.7-5.2 8.5-7.3 10.6-2 2.1-3.7 4.6-3.6 5.6 0 1.6.2 1.6 1.1-.3.6-1.3 1.5-2.3 2-2.3s2-1.2 3.5-2.6c3.5-3.5 4-2.4 1.4 3.3-3.2 7.2-3.7 7.8-5.7 7.9-2.4.2-13.3 3-19.9 5.1-2.7.9-6.6 1.7-8.5 1.8-7.2.4-13.1 1.7-18 4.1-2.7 1.3-5.4 2.4-6 2.4-.5 0-1 .4-1 .8 0 .5-1 1.4-2.2 1.9-2.7 1.3-9.7 7.3-14.7 12.6-9.9 10.6-22.3 31.2-16.8 28.1.6-.4.8-.3.4.2-1.1 1.1-5.7 1.3-8.4.3-2.4-.9-4.9-5-5.4-8.9-.3-1.9 0-2.5 1.6-2.5 1.5 0 2.3-1.1 3.2-4.5.6-2.5 1.2-4.6 1.3-4.8.2-.1.3-.5.5-1 .6-2.4 2.3-5.4 6.2-11.2 2.4-3.6 4.9-7.3 5.6-8.3 1.5-2.3 16.1-17.1 19.4-19.7 1.3-1 3.4-1.7 4.6-1.4 5.9 1.1 11.7 1.5 12.9.8.7-.5 1.9-.9 2.6-.9.8 0 2.5-1.9 3.8-4.3 2.3-4 2.4-4.8 1.7-16-.3-6.4-.6-15.5-.7-20.2l-.1-8.5 4.8-.3c4.4-.3 6.2-1.5 3.5-2.4-1.7-.6 0-2.8 2.2-2.8 1.3 0 2 .8 2.2 2.7.3 2.7.4 2.8 7.3 2.9 3.9 0 7.5-.2 8-.5.6-.3 1.9-.7 3-.8 9-1.2 12.7-5.7 13.9-17.1 1.1-9.9 2.1-11.8 8-15.6 2.4-1.5 4.7-1.9 12-1.8 5 .1 11.1.5 13.6 1 5.1.8 9.6.8 12.6-.2 1.6-.6 2-1.4 1.7-3.4-1.1-7.2-.7-6.8-8-7.1-14.6-.7-28.9-.5-30.8.3-2.4 1.1-2.3 1.1-5.7 2-3.3 1-9.5 7.5-11.4 12.2-.8 1.8-1.4 5.5-1.4 8.2 0 4.7-1.7 11.8-2.7 10.9-.2-.3-2.3.1-4.6.7-2.3.7-9.6 1.1-16.2 1.1l-12-.1-.1-3.5c-.8-18-1.5-28.1-2.4-30.3-1.1-2.9-7.8-9.6-9.6-9.6-.7 0-1.9-.6-2.6-1.3-.7-.7-3.2-2.1-5.5-3.1-2.4-1.1-4.3-2.3-4.3-2.7 0-.4-.9-1.1-2-1.4-2-.6-1.9-.9 1.5-4.3 1.9-2 3.4-3.9 3.3-4.2-.1-.3.4-1.5 1-2.7 2.5-4.6 4.3-31 5.3-76.8.2-5.5.8-12.3 1.5-15 2.8-11.2 3.8-39.8 1.8-53.4-1.9-12.8-3.9-15.4-16.9-22-12.1-6-23.3-11.1-24.6-11.1-.5 0-2.7-.9-4.8-2-2.1-1-4.9-2.1-6.2-2.4-2.8-.5-10.5-3.2-13.4-4.6-5.2-2.5-17.2-7.2-18.7-7.3-.9-.1-1.5-.4-1.2-.8.3-.5-1.3-1.1-6.4-2-.4-.1-2.8-1-5.4-2-2.5-1-5.7-2-7-2.1-1.3-.2-2.9-.7-3.5-1.1-.7-.5-1.3-.6-1.3-.2 0 .3-1.6-.1-3.5-.9-2-.9-3.8-1.5-4-1.6-.3 0-.6 0-.7-.1-.2 0-1.1-.2-2-.4-.9-.2-4.2-1.5-7.2-2.9s-5.9-2.6-6.4-2.6-1.7-.9-2.7-2c-1-1.1-2.1-1.7-2.6-1.4-.4.2-1.3-.6-2-1.8-1.2-2.2-1.2-2.2-2-.3-.7 1.9-.8 1.9-.8-.2-.1-1.5-1.7-3.1-5.8-5.4-3.2-1.8-6.1-3.7-6.4-4.1-.3-.5-2.3-1.8-4.3-2.9-8.9-4.8-14.1-13.8-14.1-24.6 0-4.7.4-7.4 1.2-7.7 1.4-.6.5-4.6-1.1-4.6-.6 0-.5-.4.3-.9s1.5-2 1.7-3.3c.3-3 .8-5 1.6-6.3.3-.6.9-3.3 1.3-6 .4-2.8 1.8-8.3 3.1-12.4s2.7-8.8 3-10.5c.3-1.7 1.3-4.9 2.4-7.1 1-2.2 2.2-6.1 2.5-8.8.4-2.6 1.1-5 1.6-5.3 1.2-.7 0-5.7-1.5-6.6-.9-.5-1.5-9.3-.6-9.3.2 0 .5-1.8 1.6-8.5.4-2.5.8-5.1 1-5.8.1-.6-.3-1.2-1-1.2s-1.9 1.9-2.6 4.2zM99.7 157.6c-.3.3-1.2.4-1.9.1-.8-.3-.5-.6.6-.6 1.1-.1 1.7.2 1.3.5zm7.7.2c.3.5-.1.9-.9.9s-1.5-.4-1.5-.9c0-.4.4-.8.9-.8.6 0 1.2.4 1.5.8zm7.8 2.6c4.2 1.8 7.1 4.8 3.9 3.9-1.2-.3-2.1-.9-2.1-1.4 0-.5-.6-.9-1.2-.9-.7-.1-2.6-.7-4.3-1.5-4-1.8-.7-1.9 3.7-.1zm108.8 2c0 .3-.4.8-1 1.1-.5.3-1 .1-1-.4 0-.6.5-1.1 1-1.1.6 0 1 .2 1 .4zm6.7 1.7c1.5.7 4.7 2 7 3 2.4 1.1 5 1.9 5.9 1.9.9 0 4 1.3 6.9 2.9 2.9 1.6 5.6 2.7 5.9 2.4.3-.4.6-.2.6.3s1 1.1 2.3 1.2c4.3.4 5.5.8 7.1 2.1.8.7 2 1 2.6.6.5-.3 1.3 0 1.6.8.5 1.3 5.6 3.2 7.7 2.8.4 0 .7.3.7.9 0 .5.7 1 1.5 1 .9 0 3.4.9 5.5 2 2.2 1.1 4 1.8 4 1.5 0-.3 1 0 2.3.7 1.2.6 2.8 1.3 3.6 1.4.8.2 1.7.6 2 1.1.3.4 3.1 2 6.1 3.5 8.9 4.5 14.6 10.7 13.7 15.1-.4 1.8-.5 1.7-.6-.6 0-1.5-.5-2.7-1.1-2.7-.5 0-1-.7-1-1.5s-.4-1.5-.9-1.5-2.2-1.3-3.7-2.9c-1.5-1.7-3.1-2.8-3.5-2.6-.4.3-1.2-.2-1.9-1-.6-.7-1.9-1.1-2.8-.8-1.5.4-1.5.3-.2-.6 1.2-.9 1-1.1-1.1-1.1-1.5 0-3.2-.7-3.9-1.5-.7-.8-2.1-1.5-3.1-1.5s-3.3-.9-5.1-2c-1.8-1.1-4.2-2-5.3-2-1.1 0-3.1-.7-4.3-1.6-1.2-.8-2.2-1.3-2.2-1.1 0 .9-15.3-4.3-20.1-6.9-1.6-.8-3.2-1.5-3.6-1.5-.5 0-1.6-.8-2.7-1.7-1-.9-2.1-1.6-2.5-1.6-.3.1-1.7-.3-3.1-.8-1.4-.5-2.5-.8-2.5-.6-.1.2-1.3-.5-2.9-1.5-1.5-1-3.4-1.6-4.2-1.3-.8.3-1.3.2-1-.3.6-1-2.1-2.4-3.3-1.7-.3.3-1.8-.4-3.1-1.5-2.8-2.1-1.5-2.5 2.7-.8zM191.3 189c-.3 1.2-.8 1.9-1.1 1.6-.5-.6.5-3.6 1.2-3.6.2 0 .2.9-.1 2zm-5.3 1c0 .5-.5 1-1.1 1-.5 0-.7-.5-.4-1 .3-.6.8-1 1.1-1 .2 0 .4.4.4 1zm133.4 29.5c.5 2.2.4 2.6-.4 1.5-.5-.8-1-2.4-1-3.4 0-2.6.6-1.8 1.4 1.9zM228 224c0 .5-.2 1-.4 1-.3 0-.8-.5-1.1-1-.3-.6-.1-1 .4-1 .6 0 1.1.4 1.1 1zm91.7 5.7c-.2 1.6-.4.5-.4-2.2 0-2.8.2-4 .4-2.8.2 1.3.2 3.5 0 5zm.1 13.4c-.1 3.8-.7 7.4-1.3 7.9-.8.7-.9-1.1-.3-6.2.4-3.9.5-7.5.2-8-.3-.4 0-.8.6-.8.8 0 1 2.3.8 7.1zm334.7 4.1c.5 3.5.8 8.7.8 11.5.1 2.9.5 5.3.9 5.3.5 0 .6.6.1 1.2-.4.7-.9 4.9-1 9.3-.2 4.4-.5 12.6-.7 18.3-.2 5.7-.7 10.6-1 10.9-.7.7-.9-3.9-.7-13.2.1-5.8.1-13.9 0-25.5v-11.5c0-3.3-.1-7.7-.3-9.7-.5-6.1 1.1-3.3 1.9 3.4zm-427-1.2c.3.6-.1.7-.9.4-1.8-.7-2.1-1.4-.7-1.4.6 0 1.3.4 1.6 1zm90.5 11.6c0 2.5-.4 4.3-.8 4-.7-.4-.4-8.6.4-8.6.2 0 .4 2.1.4 4.6zm-89-2.6c0 .5-.5 1-1.1 1-.5 0-.7-.5-.4-1 .3-.6.8-1 1.1-1 .2 0 .4.4.4 1zm.4 18.1c-.7 1.1-3.4 1.2-3.4.1 0-1.4 1.1-2.1 2.6-1.5.8.3 1.1.9.8 1.4zm.6 13.7c0 .4-1.1.9-2.5 1-1.4.1-2.5-.3-2.5-.8 0-.6 1.1-1 2.5-1s2.5.4 2.5.8zm1 6.6c0 1.1-1.9 1.5-2.5.6-.3-.5.1-1 .9-1 .9 0 1.6.2 1.6.4zm421.7 14.8c-.3.8-.6.5-.6-.6-.1-1.1.2-1.7.5-1.3.3.3.4 1.2.1 1.9zm0 5c-.3.8-.6.5-.6-.6-.1-1.1.2-1.7.5-1.3.3.3.4 1.2.1 1.9zm-423 .4c-.3.3-1.2.4-1.9.1-.8-.3-.5-.6.6-.6 1.1-.1 1.7.2 1.3.5zm420.8 13.9c-2 6.6-2.9 7-1.4.5 1.5-6.3 1.7-7.3 2-9 .1-.8.4-.5.6.7.2 1.1-.3 4.7-1.2 7.8zm-421.8 20c0 .8-.6 1.5-1.3 1.5-.8 0-1.1-.6-.8-1.5.4-.8.9-1.5 1.3-1.5s.8.7.8 1.5zm48.2 10c1.9.4 4.5 1.3 5.7 2.2 1.3.8 2.4 1.1 2.4.7 0-.5.4-.4.8.1.4.6 2.3 1.8 4.2 2.8 2.7 1.2 3 1.7 1.5 1.8-1.1.1-2.7.2-3.5.3-.8.1-2.3-.5-3.2-1.2-.9-.8-3.4-1.8-5.5-2.3-2.1-.5-4.7-1.2-5.8-1.5-4.8-1.3-10.3-1.6-10.9-.5-.4.6-1.2 1.1-1.8 1.1-.6 0-.3-.9.6-1.9 2.5-2.7 7-3.2 15.5-1.6zm-5.4 9c2.2.4 4.7 1.2 5.5 1.6 2.2 1.4-5.8-.1-10.5-1.9-2.2-.8-4.7-2.1-5.5-2.9-.9-.9.1-.7 2.5.5 2.3 1.1 5.9 2.4 8 2.7zm18.7 3.4c1.1 1-8.1.3-10-.8-1.2-.7 0-.8 3.8-.4 3 .3 5.8.8 6.2 1.2zm15.9 1.1c2.5 1.4 2.4 2.5-.1 2.7-1.1.1-2-.3-2-.8s-.7-.9-1.6-.7c-1 .2-1.9-.3-2.1-1-.6-1.5 3.1-1.6 5.8-.2zm9.2 5.6c1 .6 1.4 1.5.9 1.8-1.3.8-6.2-1.6-6.2-3.1 0-1.3 2.3-.8 5.3 1.3zm6.3 4.6c1.9 2.3 1.9 2.3-.2.5-1.1-.9-2.3-1.4-2.6-1.1-.3.3-.9.1-1.3-.5-1.2-2.1 2.2-1.1 4.1 1.1zm6.4 4.8c.6 1.1.7 2 .2 2-.6 0-1.2-.9-1.5-2-.3-1.1-.3-2-.1-2 .2 0 .8.9 1.4 2zm-81.2 2.5c.1 1.7-.3 2.5-1.3 2.5-2.1 0-3.1-3-1.4-4.1 2.1-1.3 2.4-1.1 2.7 1.6zm83.3 1.2c.4 4 .3 7-.2 6.7-1-.6-1.6-7.4-.7-7.4.4 0 .8.3.9.7zm-76.1 1.7c0 .3-.4.8-1 1.1-.5.3-1 .1-1-.4 0-.6.5-1.1 1-1.1.6 0 1 .2 1 .4zm15.7 3.8c-.3.7-.5.2-.5-1.2s.2-1.9.5-1.3c.2.7.2 1.9 0 2.5zm18.3-.5c0 1.4-2 3.9-2 2.5 0-.6-.9-1.2-1.9-1.2-1.1 0-2.3-.5-2.6-1-.4-.6.8-1 2.9-1 2 0 3.6.3 3.6.7zm15 4.8c0 .8.5 1.5 1.2 1.5.6 0 .9.2.6.5-1 1-5.6-.6-6.2-2.1-.4-1 .2-1.4 1.9-1.4 1.6 0 2.5.6 2.5 1.5zm318.1 1.8c-1 .9-1.1.8-.5-.6.3-1 .9-1.5 1.2-1.2.3.3 0 1.1-.7 1.8zm-290.7 2.2c-.4.8-.7 1.5-.9 1.5-.2 0-.5-.7-.9-1.5-.3-.9 0-1.5.9-1.5s1.2.6.9 1.5zm291.1 3.7c-.2 2.4-.8 7.2-1.3 10.8-.5 3.6-.9 7.6-.7 9 .1 1.4.6 6.3 1 11 .5 4.7.8 8.9.6 9.4-.1.5-.4 4.5-.7 9-.5 8.1-1.7 11.5-3 8.3-.3-.9-.3-2.5.2-3.5.4-.9.6-2.2.5-2.7-.8-2.7.4-41.9 1.2-43.2.4-.5.7-3.6.8-6.7.1-3.1.5-5.6.9-5.6s.6 1.9.5 4.2zm-290.5 3c0 2.6-.4 3.8-.9 3.2-1.7-1.7-1.7-7.4-.1-7.4.6 0 1 1.9 1 4.2zm-17 14.4c0 .8-.4 1.2-1 .9-.5-.3-1-1-1-1.6 0-.5.5-.9 1-.9.6 0 1 .7 1 1.6zm12.7 1.9c0 .8-.6 1.5-1.4 1.5-1.4 0-1.7-1.2-.6-2.3 1.1-1.1 2-.8 2 .8zm-159.6 22.7c-3.1 2-5.1 1.7-5.1-.7 0-1.6 2.5-2.3 5.8-1.7 2.4.5 2.3.5-.7 2.4zm223.6 10.1c-.2.6-1.2 1.5-2.3 2.1-1 .6-2.2 1.5-2.6 2.1-.4.5-1.4 1.9-2.2 3-1.5 1.9-1.5 1.8-.5-1.1.5-1.7 1.8-4 2.8-5.1 1.9-2 5.4-2.7 4.8-1zm12.6 5.2c-.3.9-.8 1.4-1 1.1-.3-.3-.2-.9.2-1.5.9-1.6 1.5-1.3.8.4zm7.7 1.6c0 .5-.4.9-1 .9-.5 0-1-.7-1-1.6 0-.8.5-1.2 1-.9.6.3 1 1 1 1.6zm-13.9 2.6c-.5 1-1.9 3.9-3.2 6.5-1.3 2.6-2.5 4.6-2.6 4.4-.6-.5 5.1-12.6 5.9-12.6.4 0 .4.8-.1 1.7zm221.2.8c-.5 1.3-2.3 2.2-2.3 1.1 0-1.5 1.4-3.5 2.1-3.1.4.3.6 1.2.2 2zm-214.4 2.9c-.9.8-1 .7-.5-.7.3-1 .7-2.4.7-3 .1-.7.3-.4.6.7.3 1-.1 2.3-.8 3zm213.6.5c.3.5 0 1.3-.6 1.7-.7.4-.9.3-.5-.4.3-.5 0-1.3-.6-1.5-.9-.4-1-.6-.1-.6.6-.1 1.4.3 1.8.8zm-219.2 2.8c-.9 1.6-1.8 3-2 3.2-.2.2-.3-.3-.3-1.2 0-1.4 2.5-4.7 3.6-4.7.2 0-.3 1.2-1.3 2.7zm3.3 1.1c-1.8 1.6-1.8 1.6-.6-.6.6-1.3 1.4-2.1 1.8-1.8.3.4-.2 1.4-1.2 2.4zm214.8 5c0 1.5-.6 3.7-1.3 4.7-.9 1.7-1 1.4-.5-2 .6-3.6 1.2-5.5 1.7-5.5.1 0 .2 1.3.1 2.8zM146 485.5c0 .8-.2 1.5-.4 1.5s-.6-.7-1-1.5c-.3-.8-.1-1.5.4-1.5.6 0 1 .7 1 1.5zm-7 2c0 .3-.7 1.7-1.6 3-.9 1.4-1.4 3.2-1 4 .3.8.1 1.5-.4 1.5-1.4 0-1.2-4.7.2-7 1.2-1.9 2.8-2.7 2.8-1.5zm266.5 1c8.5.8 19.7 3.7 21.9 5.7 1.7 1.6 1.8 2.1.6 4.2-.8 1.7-2.3 2.6-4.4 2.8-2.6.3-3.1.7-3.2 3.1-.1 2.9 2.6 5.3 5.1 4.4 1.9-.8 5.5 2.1 4.9 3.8-.3.8-.9 1.4-1.2 1.3-3.7-1-8.4 5.1-6.1 7.8 1.5 1.9 6.3 1.8 7.9-.1 1.1-1.3 1.4-1.3 2.6.2 2.1 2.8 1.7 4-1.9 6.5-2.7 1.9-3.2 2.8-2.7 4.8.6 2.6 2.9 3 7.7 1.5 1.8-.6 2.5-.2 3.3 1.9 1 2.7.3 8.6-1 8.6-.4 0-1.1 1.2-1.4 2.6-.5 2-1.1 2.4-2.8 1.9-6.3-2-9.8-.6-9.8 4.1 0 4.9 3.9 7.8 9.5 7.1 1.5-.1 2.1.5 2.3 2.6.2 1.6.1 3.5-.2 4.3-.5 1.3-.9 1.3-3-.1-4-2.7-6.6-2.6-9.3.1-4.5 4.5-1.3 11.7 5.3 11.7 2.8 0 3.4.4 3.4 2.2 0 2.3-3.5 6.1-8.5 9.1-1.6 1-3.8 2.6-4.8 3.6-2.3 2.3-6.7 2.4-6.7.2 0-.9 1.6-3.1 3.6-4.9 1.9-1.8 3.9-4.5 4.3-6.1.8-2.9-.4-8.4-1.9-8.4-.4 0-1.1-.7-1.4-1.6-.4-1-.2-1.3.6-.8s.9.2.5-.9c-.3-1-.2-1.7.2-1.7 1.3 0-.5-7.2-2.1-8.1-.7-.5-1.9-.7-2.5-.4-1.8.6-1.7.1 1.7-5.2 3.2-5 3.7-8.1 1.9-11.6-1.8-3.3-12.5-15.1-25.9-28.5l-12-11.9 4.6.1c5.4.1 8.4 2.8 5.8 5.3-1.9 1.9-1.8 2.5 1 4.5 2.3 1.6 2.4 1.6 4.6-.7 2.4-2.5 3.6-10 2-12-.4-.5-.9-1.3-.9-1.8-.1-.4-.4-.7-.8-.6-.3 0-1-.6-1.5-1.5s-1.8-1.6-2.9-1.6c-1.3 0-2-.6-1.8-1.8.3-3.3-.3-4.7-1.1-2.2l-.7 2.5-.8-2.7c-.4-1.5-1.2-2.9-1.8-3.1-.7-.2-.5-.3.4-.2.9.1 2.2-.1 2.9-.5 1.1-.7 4.9-.6 16.5.5zm-29.5 1.4c0 .5 1.6 1.9 3.6 3.2 3.3 2 3.4 2.3 1.8 3.2-2.7 1.5-4.4 4-3.9 5.5.3.8-.7.5-2.4-.7-3.3-2.4-15.3-8.1-17.3-8.2-2.3-.2 11.6-3.7 15-3.8 1.7-.1 3.2.3 3.2.8zm236.3 2.6c-.9 1.9-2 3.5-2.5 3.5-1.3 0-.9-1.7.8-3.4.8-.9 1.2-1.6.7-1.6-.7 0 1.7-1.9 2.4-2 .2 0-.5 1.6-1.4 3.5zm-56.5-.5c3.1 1.9 4.3 4 2.2 4-.5 0-1-.5-1-1 0-.6-.6-1-1.4-1-.8 0-3.3-.9-5.7-2l-4.4-2h3.5c1.9 0 5 .9 6.8 2zm-111.7 5.2c.3.6 1 .9 1.5.9 1.9-.2 4.8 1.2 7.4 3.6 3.9 3.4 3.5 8.7-.9 12.4-2.6 2.2-2.9 2.8-1.8 4.3.7.9 2.4 1.8 3.7 1.9 4.9.3 6.7 6 2.5 7.9-5.1 2.3-3.8 8.5 1.6 7.4 2.1-.4 2.8 0 3.8 2 2.6 5.8.6 11.9-3.5 10.4-2.6-1-8.4 1.6-8.5 3.9-.4 5.1 1.5 7.3 6.5 7.4 3.3.1 3.5.3 2.9 2.6-.9 3.8-1.4 4.4-2.6 3.2-2.9-2.9-9.7.3-9.7 4.6 0 3 3.5 7.3 6 7.3 2.6 0 3 1 1.4 3.5-1.7 2.6-5.1 4.2-10.9 5.1-2.2.3-4.4.8-4.9 1.1-.4.3-.5-.5 0-1.8.4-1.3.8-4 .8-5.9.1-2.1 1-4.7 2.4-6.4 2.8-3.7 3.2-7.9 1.1-14.8-1-3.2-.9-4 1-6.7 4.4-6.1 4-15.2-.8-19.7-2.5-2.3-2.7-3-1.8-5.4.9-2.3.6-3.2-1.8-6.5-2.3-3-2.8-4.6-2.6-8 .2-3.5-.1-4.6-1.8-5.5-1.2-.6-2.1-1.5-2.1-2.1 0-.6.5-.7 1.2-.3.8.5.9.2.5-.9-.3-1-.3-1.7.2-1.7.4 0 .6-1.4.3-3l-.4-3.1 4.3.7c2.4.4 4.7 1.1 5 1.6zM336 499.1c0 .5.5.7 1.2.3.8-.5.9-.2.5 1-.5 1.3-.3 1.5 1.2.7 1-.6 2-.8 2.3-.6.9.9 8.8 1.1 8.8.3 0-.5.9-.6 2-.3 1.5.5 2 .2 2.1-1.2 0-1.1.3-1.3.6-.5.4 1 .8 1 2.1 0 1.2-1 1.4-1 .8-.1-.4.8-.2 1.3.6 1.4 2.7.3 3.4.4 5.4 1.6 1.2.7 2.4.9 2.8.6.3-.3.6-.1.6.6s1.4 1.7 3 2.2c1.7.6 3 1.5 3 2.1 0 .5.4.7.9.4.5-.3 1.2.1 1.5 1 .4.9 1.3 1.4 2.1 1 1-.4 1.5.1 1.5 1.4 0 1.3.9 2.2 2.5 2.6 1.4.3 2.5 1.3 2.5 2.1s.4 1.2.9.8c.6-.3 1.5.3 2.1 1.4.7 1.5.7 2.2-.2 2.7-.9.6-.5 1 1.2 1.4 1.7.4 2.4 1.2 2.2 2.5-.2 1 .6 2.7 2 3.8 1.2 1 1.6 1.5.8 1.1-1.2-.6-1.3-.5-.2.7s1.4 1.2 2.3-.1c.9-1.2 1-1.1.5.4-.4 1.2.1 2.7 1.5 4.2l2.1 2.2-2.1.7c-1.1.3-4.8.8-8.3 1.1-3.5.2-8.9.6-12.2.9-3.2.2-6.3.8-7 1.3-.6.5-3.1 1.5-5.6 2.2-2.5.7-5 1.7-5.6 2.2-.6.4-1.4.5-1.7.1-.4-.3-.7-.1-.7.7 0 1-.4 1-1.7-.1-.9-.8-1.4-.9-1-.3.7 1.2-16.6 1.4-17.8.2-.4-.4-1.3-.4-2-.2-.8.3-1.8-.3-2.4-1.4-.6-1.1-2.4-2.3-4-2.7-1.6-.3-3.5-1.3-4.2-2.1-.6-.8-1.9-1.4-2.9-1.4-.9 0-2-.3-2.4-.8-.4-.4-1.1-.7-1.4-.8-.4 0-1.6-.4-2.6-.9-1.1-.5-5-.9-8.7-.9-3.7-.1-6.5-.4-6.2-.9.2-.4-.1-.7-.6-.7-.6 0-1.1 1-1.2 2.2 0 2.1-.1 2.1-.8.4-.7-1.9-.8-1.9-1.4-.1-.4 1-1 1.5-1.4 1.2-.3-.4-1.6.4-2.7 1.6-2.4 2.6-5.7 3.2-4.9 1 .3-.7.8-1.3 1.2-1.3.4 0 1.5-1.5 2.6-3.3 1-1.7 2.8-4.4 3.9-5.9 1.2-1.4 2.9-3.7 3.9-5 3.6-4.7 12-12.8 13.3-12.8.8 0 1.4-.6 1.4-1.3 0-1.9 4.7-4 5.4-2.4.2.7.5.2.5-1.1.1-2 .6-2.3 2.9-2.1 1.5.2 3.8-.4 5.2-1.4 1.5-1.1 1.9-1.7 1-1.7-1.3 0-1.3-.2 0-1 2.2-1.4 3.3-1.2 2.6.5-.3.9 0 1.5.9 1.5.8 0 1.5-.5 1.5-1 0-.6.7-1 1.6-1 .8 0 1.2-.5.9-1-.3-.6-.1-1 .4-1 .6 0 1.1.5 1.1 1.1zm197.1 6.8c-2.3 3.4-4.4 6.1-4.6 6.1-1.1 0 1.8-5.4 4.5-8.3 1.6-1.8 3-3.6 3-4.1 0-.5.3-.7.6-.3.3.3-1.3 3.3-3.5 6.6zM139 504.3c0 .5 1 1.8 2.2 2.8 1.1 1.1 1.7 1.9 1.3 1.9-.5 0 .2 1.1 1.5 2.5s2 2.5 1.6 2.5c-1.2 0-7-7.2-8.4-10.3-1.1-2.6-1-2.8.3-1.7.8.7 1.5 1.7 1.5 2.3zm419.2 3c-1.9 4.6-2.8 3-1.7-3 .5-2.7.9-3.2 2-2.3 1.1.9 1 1.8-.3 5.3zm-19.1-1.2c-2.6 3.7-7.1 7.8-7.1 6.6 0-.6 9.2-10.7 9.8-10.7.2 0-1 1.9-2.7 4.1zm-70.4 1.6c2.3 1.5 4 3 3.7 3.4-.2.4.4 1 1.5 1.4 1.8.5 3.1 3.2 3.1 6.7 0 .9-1.4 3.1-3.2 4.8-3.8 3.8-3 6.3 2.1 6.8 3.9.4 7.4 4.8 5 6.3-.8.5-2 .9-2.6.9-1.9 0-2.7 4.8-1.3 6.5.7.9 2.2 1.4 3.3 1.3 1.4-.2 2.1.4 2.3 1.9.2 1.2.5 2.6.6 3 .1.4-.1 1.8-.5 3-.7 1.8-1.2 2-3.7 1.3-3.4-1-6.8-.3-9.2 1.8-1.6 1.3-1.8 1.2-2.8-1.2-1.3-3.6-1.3-4.1.6-5.7.8-.7 1.3-2.1 1.1-3.1-.3-1.1-.1-1.5.6-1.1.7.4.8-.2.3-1.8-.3-1.3-.9-3.8-1.3-5.4-.3-1.7-1.5-4.2-2.5-5.8-1.4-1.9-1.8-3.6-1.3-5.5.7-3.3-.5-7.1-3.1-9.6-1.4-1.5-1.5-2.2-.6-3.7.7-1 1.2-3.5 1.2-5.4 0-4.3 1.2-4.4 6.7-.8zm56.7.7c-.9 1.5-1.9 2.5-2.1 2.2-.3-.2.3-1.6 1.3-3 .9-1.5 1.9-2.5 2.1-2.2.3.2-.3 1.6-1.3 3zm16.1 6.8c-4.4 4-9.5 7.6-7 5 2.2-2.3 10.7-9.2 11.2-9.2.3 0-1.6 1.9-4.2 4.2zM537 514c-1.1 2-5 4.6-5 3.3 0-.6 5-5.2 5.8-5.3.1 0-.2.9-.8 2zm-14.8.7c-2.1 4-6 13-7.1 16.5-1.5 4.6-2.7 5.5-4 2.9-1.3-2.3 2-9.4 6.9-15 1.7-1.8 3-4 3-4.7 0-.8.5-1.4 1-1.4.7 0 .7.6.2 1.7zm26.8 1.6c0 1-10.9 7.7-12.6 7.7-1.1 0 .8-1.6 4.6-4 5.9-3.6 8-4.6 8-3.7zM154.9 520c.6 0 1.1.4 1.1 1 0 .5-.3 1-.7 1-1.1 0-4.3-3.3-4.3-4.4 0-.6.7-.3 1.4.6.7 1 1.8 1.8 2.5 1.8zm336.2 1.7c5.4 5.1 10.2 13.4 8.1 14.1-.6.2-1.5.4-1.9.4-1.6.1-3.2 3.5-2.7 5.5.4 1.3 1.7 2.3 3.5 2.7 3.4.6 3.9 3.3 1.2 5.9-6.5 6.1-8.5 7.7-9.5 7.7-.7 0-.6-.5.2-1.5.7-.8 1-3.2.8-5.4-.2-2.2-.1-3.8.3-3.5.3.2.4-.8.1-2.1-.2-1.4-.8-2.2-1.3-1.9-.5.3-.6-.2-.3-1 .4-.9 0-1.8-.9-2.2-1-.3-1.4-1.6-1.3-3.7.3-4.1-1.4-8.7-3.4-8.7-1.3 0-1.3-.2 0-1.1 1.2-.9 1.1-1-.7-.6-2.1.5-2.1.4-.8-3.4.8-2.2 1.2-3.9.9-3.9-.3 0-.2-.5.1-1 1.1-1.8 2.5-1.1 7.6 3.7zm-328 3.3c.5 0 .9.7.9 1.6 0 1.3-.3 1.4-1.3.5-.8-.6-1.7-.8-2-.4-.4.3-.9-.2-1.3-1.1-.3-.9-1-1.3-1.5-1-.5.3-.9.1-.9-.5 0-1.6 2.4-1.9 3.8-.4.7.7 1.8 1.3 2.3 1.3zm374.9 2c0 .5-.5 1-1.1 1-.5 0-.7-.5-.4-1 .3-.6.8-1 1.1-1 .2 0 .4.4.4 1zm-368.5 2c0 .1.8.3 1.8.5s2.8 1.1 3.8 2.1c1.1 1 2.9 1.9 4 2.1 1.1.2 3 .9 4.2 1.7 1.2.7 3.2 1.3 4.5 1.1 1.2-.1 2.2.2 2.2.7 0 .4.6.8 1.4.8.8 0 1.6.5 1.8 1.2.2.6 1.3 1.2 2.4 1.4 3.6.4 6.4 1.6 6.4 2.7 0 .6.3.8.6.4.7-.6 5.7 1.6 8.2 3.6.8.6 2.2 1.2 3.2 1.4 1 .1 3 1.3 4.3 2.5 1.3 1.3 4.3 3.4 6.7 4.8 4.2 2.4 14.3 12 13.6 12.7-.2.3-2.5-1.8-5-4.5-4.6-4.9-12-9.5-22.6-14-8.1-3.4-9.4-3.9-10.2-4.1-.4-.1-4.4-1.9-8.7-4.1-4.4-2.2-8.3-4-8.7-4-1.7 0-16.4-7.6-16.8-8.7-.3-.6.3-1 1.2-.8.9.2 1.7.4 1.7.5zm378.6.7c1.3 1.6 1.2 1.7-.3.5-.9-.8-2.3-1-2.9-.6-.8.4-.9.3-.5-.4 1-1.7 2.1-1.5 3.7.5zm-12.6 2.3c-2.8 1.2-3.7 1.2-3 0 .3-.6 1.6-1 2.8-.9 2.1 0 2.1.1.2.9zm4.3 3.5c-.9 1-10.8 1.3-10.2.4.3-.5 2.8-.9 5.6-.9s4.9.2 4.6.5zm-135.8 2c0 .2-.9.3-1.9.2-1.1 0-1.8-.5-1.5-.9.4-.6 3.4 0 3.4.7zm105.3 4.2c-.3.7-.7 1.3-.9 1.3-.8 0-2.2-4.5-1.7-5.3.7-1.2 3.1 2.5 2.6 4zm-214.3-.6c0 1.4-1.7 1-2.3-.5-.4-1-.1-1.3.9-.9.7.3 1.4.9 1.4 1.4zm11.8 1.5c1.2.8 2.2 1.3 2.2 1 0-.3.9.2 1.9 1.1 1.1.9 1.8 2 1.5 2.5-.3.5.5.6 1.8.3 2.6-.7 7.3 2.9 6.2 4.7-.4.6.1.6 1.4-.1 1.4-.7 2.3-.8 2.7-.1.4.6 1.1.8 1.6.5.5-.4.9-.1.9.5s.4.9.9.5c.5-.3 1.2-.1 1.6.5.3.5 1.5 1 2.6 1 1 0 1.9.5 1.9 1.2 0 .6.3.8.6.5.4-.3 1.4-.2 2.4.3s2 .6 2.4.2c.4-.3 1.9-.7 3.4-.8 2.3-.2 6.3-.7 12.2-1.7.8-.1 2-.6 2.7-1 .6-.4 1.9 0 2.8.9 1.5 1.6 1.6 1.6 1.3-.1-.2-1.3.5-1.9 2.7-2.2 1.7-.2 3.2-.8 3.3-1.4.6-1.5 2.2-1 2.2.7 0 .8.5 1.2 1 .9.6-.4.8-1 .5-1.5-.3-.5.8-.8 2.4-.8 2.2.1 2.8.5 2.4 1.7-.4.9-.3 1.3.1.9.4-.3.9-1.4 1.1-2.5.2-1 .4-2 .4-2.2.1-.2.8.2 1.6.9 1.2 1 1.8 1 3 0s1.6-.8 2.4 1.1c.7 1.7 1 1.9 1 .7.1-.9.6-2 1.3-2.4.7-.5.8-.2.3.7-.6 1.1-.5 1.1.5.2 1-.9 2-.9 4.6.2 3.1 1.3 6.9 1.3 8.2 0 .3-.3 1.4.2 2.4 1.2 1.3 1.2 1.8 1.3 1.8.3 0-2.4 1.4 0 1.6 2.6 0 1.6-.6 2.9-1.9 3.6-1.6.8-1.7 1.2-.6 1.9s1 .9-.3.9c-1 0-1.8.3-1.8.7 0 .5-1.5 1.6-3.2 2.6-3.1 1.8-3.2 2-1.5 3.2 1.8 1.3 1.8 1.4-.2 3.4-1.2 1.2-2.1 2.6-2.1 3.2 0 .6-.7 1.8-1.6 2.7-1.5 1.5-1.5 1.6.2 2.2 1.6.6 1.6.7-.4 1.2-1.4.4-2 .2-1.6-.4.4-.6.1-.9-.7-.6-.8.3-1.4 1.4-1.3 2.6 0 1.3-.4 1.8-1.3 1.5-.7-.3-1.3 0-1.3.6s-.6 1-1.2.8c-.7-.1-1.2.6-1 1.5.2 1.1-1.6 3.1-4.7 5.4-5.6 4.2-6.3 4.4-14.1 5.1-3 .3-6 .9-6.7 1.4-.7.7-1.4.6-1.8-.1-.4-.7-1.1-.8-1.8-.2-.7.5-2.1.7-3.2.5-1.1-.2-5.8-.6-10.5-.8-7.6-.4-9.3-.9-16.8-4.7-5.8-3-10.8-6.7-16.7-12.4-4.7-4.5-8.5-7.9-8.5-7.6 0 .3-.9-.5-2-1.8-3.7-4.3-8.4-15.3-8.6-20.3-.2-4.3 0-4.7 2-4.7 1.3 0 2.6-.3 3-.8 1-.9 6.7-3 8.6-3.1.9-.1 2.6.6 3.8 1.5zm227.2-.2c0 1.2-.7 1.3-3.1.6-1.8-.5-3.5-.7-3.9-.5-.4.2-2 0-3.6-.5-2.4-.7-1.6-.8 3.9-.9 5.2-.1 6.7.2 6.7 1.3zm-22.2 6.8c-.2.6-1.4 1.8-2.6 2.6-2.1 1.4-2.2 1.3-1.5-.4 1-2.8 5-5 4.1-2.2zm25.7 7.6c.6.7 2.8 2.3 5 3.7 2.2 1.3 3.5 2.5 2.8 2.5-2.1 0-8.7-4.3-13.3-8.8l-4.5-4.4 4.5 2.8c2.5 1.6 5 3.5 5.5 4.2zm6-5.8c.3.5.2 1-.4 1-.5 0-1.3-.5-1.6-1-.3-.6-.2-1 .4-1 .5 0 1.3.4 1.6 1zm-4 2c.3.5 2.4 1.4 4.5 2 4.5 1.2 5.6 3.4 1.3 2.4-3.7-.9-5.7-2-7.3-3.8-.7-1-.8-1.6-.2-1.6.6 0 1.4.4 1.7 1zm1.5 15.9c5.3 5.3 5.4 5.4 1.4 2.7-2.3-1.5-6.1-5.1-8.5-7.9-4.8-5.9-2.3-4 7.1 5.2zm-128.6-.4c-.4.8-1.4 1.5-2.5 1.5-1 0-2.3.9-2.9 2.1-1 1.8-.7 2.2 2.9 3.6 3.1 1.2 4.1 2.2 4.1 3.8 0 3.7-2.2 4.7-6.2 3.1-4.5-1.9-8.8-.8-10.7 2.6-1.3 2.3-1.3 2.9.3 5.3 1 1.5 2.7 3 3.7 3.2 2 .6 2.6 3.8.9 4.8-2 1.2-19.8.9-21.3-.3-.8-.7-1.6-1.1-1.8-.9-.6.3 2.2-1.8 11.1-8.4 7.2-5.3 14-13.2 19.5-22.7 1.8-3 2-3.1 2.7-1.2.4 1.1.5 2.7.2 3.5zm58.2-2c1.4 1.4 3 2.3 3.5 2 .5-.4.9-.1.9.5s-1.1 1.6-2.5 2.2c-1.4.6-2.5 1.7-2.5 2.3 0 1-5 4.1-5.4 3.3-.1-.2-.7-1-1.4-1.9-1-1.3-.8-2.1 1.2-4.4 1.4-1.6 2.3-3.2 2-3.7-.3-.4 0-.8.6-.8s.8-.5.5-1c-1.1-1.9.6-1 3.1 1.5zm67.4 5.8l5.5 6-4.9-3.4c-2.7-1.9-5.8-4.9-6.7-6.6-2.5-4.5-.4-3.1 6.1 4zm-42.1-4.9c-.2.2-1.5.9-2.9 1.6-2.3 1.2-2.4 1.2-1.1-.3.7-1 2-1.7 2.9-1.7.8 0 1.3.2 1.1.4zm40.5 10.2c3.2 3.5 5.6 6.8 5.5 7.3-.4 1.2-13.7-14-14.6-16.7-.3-1 .2-.7 1.3.7 1.1 1.3 4.5 5.3 7.8 8.7zm11.4-9c1.8.8 3.2 2 3.2 2.5 0 1.3-.2 1.2-4-1.6-3.9-2.9-3.6-3.2.8-.9zm-306.9 6.6c1.5 6.1 3.3 16.9 2.8 17.4-.2.3-1.2-3.7-2.1-8.7-.9-5.1-2.1-10-2.7-11.1-.5-1-.6-1.8-.1-1.8s1.4 1.9 2.1 4.2zM489 574c0 .5-.5 1-1.1 1-.5 0-.7-.5-.4-1 .3-.6.8-1 1.1-1 .2 0 .4.4.4 1zm-14.5 7c-.3.5-1.4 1-2.3.9-1.4 0-1.3-.2.3-.9 2.7-1.1 2.7-1.1 2 0zm4.2-.4c-.3.3-1.2.4-1.9.1-.8-.3-.5-.6.6-.6 1.1-.1 1.7.2 1.3.5zM437 590c0 .5-.5 1-1.1 1-.5 0-.7-.5-.4-1 .3-.6.8-1 1.1-1 .2 0 .4.4.4 1zm2.9 5.4c-.2.2-1.5.7-2.9 1l-2.5.7 2.5-1.5c2.1-1.2 4.2-1.4 2.9-.2zm-195 2.3c0 2.5-.1 2.6-.9.8-1.2-2.7-1.2-3.5 0-3.5.6 0 1 1.2.9 2.7zm2 8.8v2l-.9-2c-.5-1.1-.9-2.9-.9-4v-2l.9 2c.5 1.1.9 2.9.9 4zm174.6 4.5c1.2 2-5-.8-6.3-2.9l-1.5-2.2 3.6 2.1c2.1 1.2 3.9 2.6 4.2 3zm1-4c.3.5.1 1-.4 1-.6 0-1.1-.5-1.1-1 0-.6.2-1 .4-1 .3 0 .8.4 1.1 1zm13 0c.4.7-.6 1-2.5.8-4.1-.3-5-1.8-1.1-1.8 1.6 0 3.3.5 3.6 1zm-21 5.8c-.7.7-3.4-1.8-4.7-4.2-.8-1.6-.3-1.4 2.1.8 1.7 1.6 2.9 3.2 2.6 3.4zm-166.3-.3c.3 1.4.1 2.5-.3 2.5-.5 0-.9-1.1-.9-2.5s.2-2.5.4-2.5.6 1.1.8 2.5zm128.2 9.1c.3.8.2 1.2-.4.9-.6-.3-1-1-1-1.6 0-1.4.7-1.1 1.4.7zM326 641.4c0 .3-.4.8-1 1.1-.5.3-1 .1-1-.4 0-.6.5-1.1 1-1.1.6 0 1 .2 1 .4zm14.3 4.4c3.7.5 6.9.6 7.2.4.8-.9 5.8-1.1 6.9-.4.6.4 5.4.8 10.6.9 12 .2 13.4.5 19.5 3.7 9.8 5.3 14.8 12.8 13.9 20.8-.3 2.3-.8 4.7-1.2 5.2-.4.6-.7 1.3-.7 1.6-.2 1.4-4.6 8.8-5.9 9.9-.9.7-1.3 1.8-.9 2.5.3.6.2.8-.2.3-.5-.4-1.8.1-2.9 1.1-2.6 2.3-7.6 4.4-7.6 3.3 0-.5 1.4-1.4 3-2.1 1.7-.7 3-1.6 3-2.1s1.1-1.5 2.5-2.1c1.4-.6 2.8-2.2 3.1-3.5.4-1.3 1-2.3 1.4-2.3.4 0 1.3-1.5 2-3.3.6-1.7 1.6-4 2.1-5 .6-1 .7-4.2.4-7.1-.6-4.2-1.4-6-4.5-9.3-6.3-6.5-14-8.6-38-9.9-4.1-.2-10-.7-13-1-3-.3-6.5-.6-7.7-.6-1.3 0-2.3-.4-2.3-.9s-.7-.9-1.5-.9-1.5-.4-1.5-.9c0-.6 1-.6 2.8-.1 1.5.5 5.7 1.3 9.5 1.8zm-87.6 11.4c-.3.8-.6.5-.6-.6-.1-1.1.2-1.7.5-1.3.3.3.4 1.2.1 1.9zM378 696c0 .5-1 1-2.2.9-2.2 0-2.2-.1-.3-.9 1.1-.5 2.1-.9 2.3-.9.1-.1.2.3.2.9z"/><path d="M405.7 500.7c-1.7.4-1.7.6-.2 3 1.2 1.8 1.4 2.8.5 3.8-2 2.4-.8 6 2.2 6.3 1.4.2 2.9 1 3.2 1.8.7 1.8-1 5.4-2.4 5.4-1.3 0-1.3 5.7 0 6.5.6.4 2.7-.4 4.8-1.6 4-2.5 5.3-3.9 4.6-5-.2-.4 0-1 .6-1.4.5-.3 1-.1 1 .6s.3 1 .6.7c.3-.4.1-1.6-.6-2.7-.6-1.3-.7-2.1-.1-2.1s.6-1.1 0-3c-.6-1.7-1.7-3-2.4-3-1.6 0-3.8-2.7-4.2-5.2-.6-3.6-3.5-5.1-7.6-4.1zM521 65.1c-2.5 1.6-4.2 1.8-9.8 1.3-3.7-.3-6.9-.8-7.1-1-.2-.1-1.2.6-2.4 1.7-2.4 2.2-4.7 2.5-4.7.6 0-.8-.3-.8-.9.2-1 1.6-6.1 2.2-6.1.8 0-.5-1.6.1-3.6 1.2-1.9 1.2-4 1.9-4.5 1.6-.5-.4-.9 1.3-.9 3.7 0 2.9-.3 3.8-.9 2.9-.5-.8-.7-1.9-.5-2.6.7-1.7-2.5-4.2-3.4-2.8-.4.7-1.9 1.3-3.4 1.5-1.4.2-3.2.9-4 1.5-.7.7-3.8 1.3-6.8 1.5-3 .1-6.5.8-7.7 1.6-1.2.7-3 1.2-4 1-1-.1-2.4.1-3 .5-.7.5-1.3.6-1.3.3s-1.6.3-3.6 1.5c-2 1.1-4.4 1.7-5.4 1.4-1-.3-2.1-.1-2.5.5-.3.6-1.1.8-1.6.5-.5-.4-.9-.2-.9.3 0 1.1-3.8 2.5-6 2.2-2.1-.3-9 2.2-9 3.2 0 .5-1.1.6-2.4.4-1.5-.3-4.7.7-7.9 2.4-4 2.1-5.8 2.5-6.6 1.7-.8-.8-1.1-.8-1.1.2 0 .7-.4 1-.9.7-.5-.3-1.2.2-1.6 1.2-.6 1.6-.7 1.6-1.6 0-1.1-1.9-3.9-1.3-3.9.8 0 .8-.8 1.4-1.9 1.4-1 0-3.5.7-5.6 1.6-2.1.8-4.3 1.3-5 1-1.8-.6-4.5 2.5-4.5 5.2 0 1.2-.9 2.6-2 3.2-2.3 1.2-2.5 3.2-.8 5.9.9 1.5.8 2.6-.5 5.2-1.5 3.1-1.5 3.5.1 5.3 1.6 1.7 1.6 1.9.1 2.9-1.4.9-1.3 1.3 1 3.4 2.6 2.4 2.6 2.5.3 2-1.9-.5-2.1-.3-1.1.9.8 1 .8 1.8.1 2.7-1.2 1.4-1.2 5.7-.1 5.7.4 0 .6 2.6.4 5.7-.2 3.2-.4 5.8-.5 5.8-.7 0-.8 5.5-.1 5.9.6.4.6 1.8.1 3.5-.5 2-.4 3.3.5 4.2 1 1.1 1 2 .2 3.9-1.4 3.5-1.7 8.3-.5 9.7.7.9.7 1.7.1 2.5-.6.7-.8 2.2-.6 3.3.3 1.1.4 3.8.4 6-.1 4.3-.1 14 0 16.5.1 2.3-1.2 16.3-1.6 17.7-.3.7 0 1.3.5 1.3s.7 1.3.4 3c-.4 1.6-.2 3.6.4 4.2 1 1.3 1 5.3 0 6.3-.3.3-.2 2.4.2 4.8.5 2.3.5 4.9 0 5.7-.4.8-.7 4.1-.5 7.3.1 3.2-.2 6-.7 6.3-.4.3-.4 1.3 0 2.2.5.9.8 4.6.7 8.2-.2 7.5.1 8.5 2 7 1.8-1.5 3.4-.5 3.2 2-.1 1.5-.9 2-2.8 2-2.6 0-2.7.1-3.1 7.7-.2 4.3-.2 7.9.1 8.1.4.1.5 5.5.3 12-.5 25.5-.1 33 2.2 36.1.6.8 3.2 3.6 5.8 6.2 5.4 5.5 9.5 7 19.6 7.1 8.4.1 11.2-.4 14-2.4 2-1.3 2.1-1.8 1-4.9-1.4-4.3-2.6-5.1-6.3-4.3-4.6 1-14.7.7-18-.6-6.1-2.3-7.7-5.7-8.2-17.5-.3-8.8-.3-8.1.1-38 .1-11.6-.2-21.5-.7-22.2-.5-.7-.5-1.8-.1-2.5.5-.7.9-19.3 1.1-41.3.3-53.2.3-60.7 0-69.3-.2-3.9.1-7.2.6-7.2.4 0 .5-.6.1-1.2-.9-1.4-1.3-8.8-.5-10.2.8-1.7.6-7.6-.4-7.6-.5 0-.4-.5.3-1.2.9-.9.7-1.4-.6-2.4-1.4-1.1-1.5-1.5-.3-2.3.7-.5 1-1.4.6-2-.5-.9-1.3-.8-3 .3-1.3.9-2.6 1.2-3 .7-.3-.5.1-1.2.7-1.5 1-.5 1-.7.1-1.2-1.9-.9.2-4 3.1-4.8 2-.5 2.5-1.4 3.1-6.2.4-3.4 1.2-5.7 2.1-6 .8-.2 2.2-.7 3.1-1.1 1-.3 2.2-.5 2.6-.4.5.1.7-.6.5-1.6-.2-1-1.3-1.9-2.6-2.1-1.2-.2-2.2-1-2.2-1.9 0-.9.3-1.3.6-1 .4.3 1.4.2 2.3-.3 2.3-1.2 3.6-.1 3.6 3 0 2.5 1.3 3 4.5 1.8 4.3-1.7 12.9-4.1 15.4-4.4 1.7-.2 3.3-.9 3.6-1.5.4-.5 1.1-.9 1.6-.8 2.9.5 3.6-.2 2.9-2.8-.4-1.6-.3-2.5.1-2.1.4.4 1.3.3 2.1-.3 1.5-1.3 1.8.2.3 1.7-.5.5-.6 1.5-.1 2.2.6 1.1 1.1 1 2.4-.3.9-.9 2.1-1.3 2.7-1 .5.3 1 .2 1-.2 0-.5 1-1 2.3-1.1 3.9-.5 5.1-.8 7.8-2 1.5-.6 4.4-1.4 6.5-1.7 2.2-.4 4.8-1 5.9-1.5 4-1.7 6.1-2.3 9-2.6 4.6-.6 9.5-2.4 9.5-3.5 0-.6.4-.8.9-.5.5.3 3.1 0 5.7-.8 2.7-.8 7.4-2 10.4-2.6 3-.7 7.3-1.6 9.5-2.1 8.6-2 24.6-3.4 36.5-3.2 19.5.3 35.2 1.3 37.1 2.4 1 .5 2.9.9 4.3.9s4.1.9 6.1 2c4.1 2.3 6.5 2.6 6.5.7 0-.7.4-.5 1 .4.9 1.5 5.5 3.5 7.3 3.1.4-.1.7.3.7.8 0 1.4 9.4 5.4 9.8 4.2.1-.5 3.7 2.5 7.9 6.5s7.3 7.6 7 7.9c-.3.4 0 1.3.8 2.1 1.5 1.5 1.4 3.8-.4 10-.5 1.8-.7 3.3-.3 3.3.3 0-.3.6-1.4 1.4-1 .8-1.9 1.8-1.9 2.3-.1.4-.9 2.2-1.8 4-.9 1.8-1.7 3.9-1.7 4.7 0 .9-.9 3-1.9 4.8-1.1 1.7-1.8 3.5-1.5 4 .3.4 0 .8-.5.8-.6 0-1.1 1.1-1.1 2.4 0 1.3-.7 2.9-1.5 3.6-.8.7-1.5 1.7-1.5 2.2 0 1.6-10.2 15.8-11.3 15.8-.6 0-3 2-5.4 4.5-2.3 2.5-4.7 4.5-5.3 4.5-.6 0 .7-1.7 2.9-3.8 2.1-2 3.9-3.9 3.8-4.2 0-.3.4-2 1.1-3.7.9-2.8 4.8-6.2 8.7-7.7.6-.2.6-.8-.1-1.5-.8-.9-1.4-.8-2.4.4-2.4 2.9-2.9 1.5-1.1-2.9 1.9-4.4 2.4-7.3 2.2-13.6-.1-3-1.2-4.6-7.9-11-15.8-15.3-31.3-23.4-54.7-28.5-6-1.3-31.4-1.4-34.5-.2-.8.3-2.8.8-4.5 1-4.8.7-11.4 2.6-20.3 5.9-6.1 2.2-8.7 2.7-9.5 1.9-2.2-2.2-4.7-1.2-5.4 1.9-.4 2.3-1.6 3.6-4.7 5.2-4.4 2.2-20.9 13-23.9 15.6-1.7 1.5-2 1.4-4-.9-3.1-3.6-7.4-6.2-8.1-5-.4.6-1.4.7-2.3.4-1.3-.5-1.5-.2-.9 2.2.4 1.6 1.6 3.5 2.7 4.3 1.1.7 1.7 1.7 1.4 2.2-.3.5.3 1.3 1.2 1.9 1 .5 1.6 1.1 1.3 1.4-3.2 2.6-18.9 13.8-22.4 15.9-7.7 4.6-8.1 9.7-1.4 17.3 6.6 7.5 25.6 20.1 42.3 28 11.8 5.5 16.8 9.3 19.4 14.7 2.3 4.9 2.7 12.4 1 19.8-.6 2.5-1.2 11.9-1.5 21-.7 23.2-.7 23.3-7.9 38.4-2.9 6.1-6 13.3-6.8 16.1-1.8 5.4-4.2 19.2-5.2 29.5-.4 3.6-.8 7.2-1 8-.1.8-.6 5.1-1 9.5s-.9 8.7-1 9.5c-.1.8-.5 5.1-1 9.5-.4 4.4-.9 8.7-1 9.6-.4 2.2-2.4 19.3-2.9 24.9-.3 2.5-.7 6.5-1.1 9-.9 7-1.4 11.8-2 21-.6 7.3-.4 9 1.3 12 3.3 6 13.5 8.3 16.4 3.7.4-.7 1.5-3.7 2.3-6.7.9-3 2.1-7 2.6-8.8.6-1.9.9-3.6.6-3.9-.3-.2-.1-1.9.4-3.6 1.7-5.4 2-7.7 1-7.7-.5 0-1.2.8-1.4 1.7-.3 1-.5.3-.6-1.5 0-1.8.3-3.1.8-2.7.5.3 1.2.1 1.6-.5.3-.5-.2-1-1.2-1-1.2 0-1.4-.3-.6-.8.8-.5 1.1-2.3.9-4.7-.3-2.2-.1-4.4.2-5 .4-.5.7-1.5.8-2 .1-.6.9-3.8 1.7-7.2.8-3.4 1.3-6.4 1-6.6-2-2.1.7-30.1 3.2-32.5.4-.4.4 7.2 0 16.8-.4 9.6-.9 20.2-1 23.5-.1 3.3-.5 10.9-.9 17-.3 6-.7 16.8-.8 23.8-.3 12.8-.3 12.9 2.4 15.2 4.9 4.2 11.9 2 15.6-5 1.8-3.6 2.2-26.2.7-46.5-2.1-29.8-.6-51.4 4.1-57.5 1.3-1.8 3-2 18.2-2.5 9.2-.3 23-.3 30.7 0 14.7.6 20.7 2.3 24.9 6.9 5.2 5.7 7.3 24.2 3.7 31.7-1.6 3.1-1.8 6.8-1.1 12.9.2 1.1.6-.7 1-4 .9-7.2 4.5-17.1 4.2-11.5-.3 7-1.6 24.3-2.2 30-.4 4.1-.6 8.3-.4 9.3.2 1-.1 1.5-.8 1.1-.7-.5-.9-4.4-.5-11.8l.5-11-1.9 3.4c-2.6 5-2.6 16.3.1 21.3 2.4 4.5 2.5 7.5.4 10.5-1.1 1.7-1.3 2.6-.5 3.6.6.7 1.5 3.5 2.1 6.3 1.4 6.2 5.3 10.4 9.9 10.5 6.6.2 10.6-7.8 9.6-18.9-.4-4.1-.9-13.1-2-34.8-.1-2.8-.5-9.1-.9-14-2.1-28.2-1.6-35.5 2.6-36.3 3.2-.6 4.6 3.8 5.2 15.8 1.4 30.3 1.6 37 2.1 57.2.6 24 1.3 27.5 6.6 30.7 4.2 2.5 9.7 2 12.1-1.1 1.4-1.9 2.3-6.4 2-9.9-.1-.3-.3-4.6-.6-9.5-.4-4.9-.9-10.3-1.2-11.9-.3-1.7-.7-5-.9-7.5-.3-5-1.3-14.3-2-20.5-.5-3.9-.8-6.9-2.1-21-.3-3.9-.7-8.1-.9-9.5-.1-1.4-.6-5.9-.9-10-.9-8.6-1.2-11.3-2.7-19-1.7-9.3-2-10.3-2.7-11.4-.3-.6-.7-1.6-.8-2.2-.3-1.9-3.7-8.7-6.1-12.3-2.6-3.9-2.9-7.3-.9-13.3.7-2.4 2.1-6.7 3-9.6 1.7-5.5 5.1-10.2 7.2-10.2 1.8 0 3.5 3.5 4 7.9.4 4.3 1.1 8.5 2 12.6.7 3.1.8 4.4.6 16-.2 10.9.8 46.8 1.3 49.1.6 2.7 3.4 3.9 5.1 2.2.8-.7 1.5-4.2 1.6-7.9.3-6.1.4-6.5 2.5-6.1 2.8.5 3.5 2.7 3.9 11.4.2 5-.1 7.2-1.2 8.3-2.1 2.1-3.9 1.9-5.6-.7-2.8-4.2-6.6 1.7-4.2 6.4 3.8 7.5 15.7 2.6 15.7-6.4.1-2.7-1.7-15.6-2.6-18.8-.1-.5.6-1.5 1.6-2.2 2.3-1.7 3.6-7.3 3.2-14-.4-6.9-1.5-22.7-2.1-30.3-.3-3.3-.5-6.5-.5-7-.1-3.8 1.2-30.7 1.6-33.5.9-6.5-.6-13-3.6-16.1-1.6-1.6-3.2-2.9-3.7-2.9s-1.7-.9-2.7-2c-1-1.1-2.2-1.7-2.6-1.4-.5.3-.9-.1-.9-.8 0-.9-.3-.9-1 .2-.6 1-1 1.1-1 .2 0-.8-1.6-1.2-4.7-1.2-5.4 0-11.2 2.9-12 6.1-.3 1-1.1 1.9-1.9 1.9-.7 0-1.6 1.6-2 3.5-.3 1.9-1.2 3.9-2 4.6-.8.6-1.4 1.7-1.4 2.4s-.8 1.5-1.8 1.7c-2.9.8-7.1 11-8.8 21.5-1.2 8-2 10.1-4.1 12.1-1.9 1.8-3.2 2.2-5.2 1.7-1.4-.4-5-.8-8-1.1-3.6-.2-6.7-1.2-9.2-2.9-3.1-2-4.3-2.3-6.4-1.5-2.5 1-13.2.9-15.1-.1-1.1-.7-2.8-.6-8.1.5-3.7.7-4.7.4-7.5-1.7-1.8-1.4-5.1-2.8-7.3-3.1-9.5-1.3-9.9-1.5-12.1-6.1-.9-1.9-2-3.5-2.5-3.5-1.2 0-1.2.1.6 4.4 2 4.8 6.4 7.3 14.5 8.1.8.1 2.3.2 3.3.3.9.1 1.7.7 1.7 1.3 0 2-11.7-.5-16.3-3.6-2.7-1.7-5.2-6.3-6.1-11-1.3-6.7-1.8-48-.7-52.2 1.6-5.9 5.4-10 11.1-12 5.1-1.8 6-3.7 1.1-2.3-1.6.4-3.2.6-3.4.3-.8-.7-6.4 2.5-8.7 5-2.8 2.9-4.9 7.9-5.2 12.3-.2 3.3-.4 3.5-3 3.2-1.8-.3-2.9.1-3.3 1.1-.4.9-.7 1.8-.8 2-.1.2.6.5 1.6.7 4.7.7 4.7.7 4.7 14.8 0 12.9-.1 13.4-2 12.9-1.1-.3-2-.1-2 .5s-1.1 2.2-2.5 3.6c-1.5 1.5-2.2 3.1-1.9 4 1.1 2.8 4 1.7 5.9-2.2l1.8-3.7 1.3 8.5c.7 4.7 1.5 9.7 1.9 11.2.5 1.9.3 2.8-.5 2.8-.7 0-1 .6-.7 1.4.3.8-.3 2.4-1.4 3.7-2.2 2.5-2.2 2.8-.9 4.9 1.5 2.3 4.3 0 5.6-4.5.6-2.4 1.3-3.4 1.8-2.7 1.4 2.2 9.3 6.2 14.2 7.1 2.7.5 8.7 1.2 13.4 1.5 4.7.3 12.8.8 18 1.2 5.2.3 12 .7 15 .9 9.7.4 18.4 1.7 22.5 3.3 5.6 2.1 12 7.5 15 12.6 3.3 5.6 7 16.1 7.4 20.8.2 3.3 0 3.8-1.8 3.8-1.6 0-2.1.6-2.1 2.5 0 2.3.2 2.5 2.1 1.4 2.4-1.2 3.8 0 4 3.6.4 7.3.7 10.6 1.2 11.9.6 1.6-1.9 4.3-3 3.2-.4-.3-.7-1.9-.8-3.4-.4-7.6-4.1-12.2-9.6-12.2-2.1 0-4.5.7-5.3 1.5-1.7 1.8-7.6 2.9-7.6 1.5 0-.5-.7-.7-1.5-.4-.8.4-1.5 1.3-1.5 2.2 0 1.3-.4 1.2-1.9-.5-6.7-7.2-15.7-9.4-38-9.4-15.4.1-17.2-.1-16.1-1.5 2.1-2.5-.4-4.2-7-4.7-1.6-.1-2.6.4-2.8 1.5-.2 1.2.6 1.9 3.2 2.4 6.9 1.2 4.5 2.2-6.7 2.5-10.5.4-11.6.6-14.9 3.1-2 1.5-3.9 3.9-4.2 5.3-1 3.8-2.6 3-2.7-1.5-.1-2.2-.3-4.9-.4-6-.1-1.1-.3-2.6-.4-3.4-.2-2.5-4.4-6.5-7.2-7-1.5-.2-3.8.1-5.1.8-1.9 1-2.6 1-3.6 0-.6-.7-2.1-1.9-3.2-2.7-2.6-1.8-2.7-3.3-.6-12.8 1.5-7.3 4-14.2 8.5-24.2l2.2-4.7 3.1 1.6c2.7 1.4 3.2 1.4 4.5.1 2-2 1-3.3-3.1-4.1l-3.4-.7 1.5-5.7c.9-3.1 1.6-9.9 1.7-14.9.1-6.3.5-9.3 1.2-9.3s2.2-1.1 3.5-2.5c1.3-1.3 3-2.5 3.8-2.5.8 0 1.1-.6.7-1.6-.3-.9-.6-1.8-.6-2 0-1.4-4 0-5.6 2-1 1.4-2.1 2.3-2.4 2.1-.8-.5-.4-11.5.8-19.3.5-3.5.8-7.7.7-9.3-.2-2.5 0-2.9 1.6-2.4 1.3.4 1.9.1 1.9-.9 0-.8 1.1-2.3 2.4-3.3 1.8-1.5 2.2-2.3 1.4-3.6-1.4-2.6-3.2-2-5.2 1.8l-1.9 3.5-1.9-4.2c-1.1-2.4-2.9-5.3-4-6.6-1.6-1.6-1.8-2.2-.7-2.2.8 0 2.1.6 2.7 1.2 1.5 1.5 32.6 2.1 37.3.8 1.6-.5 3.1-.4 3.7.2.9.9 2.1.8 8.2-.7.3-.1 3.7-1.1 7.5-2.3 3.9-1.2 7.3-2 7.6-1.9.4.1 1.6-.7 2.8-1.7 1.2-1.1 2.1-1.6 2.1-1.2 0 .8 23-11 24-12.3.3-.3 2.1-1.5 4-2.5 5.5-3.1 17.1-11.5 21.4-15.5 2.6-2.5 3.5-2.9 2.7-1.4-.6 1.2-2.3 3.1-3.8 4.2-1.6 1.2-4 3.2-5.6 4.6-1.5 1.4-3.4 2.5-4.1 2.5-.8 0-2.5 1.5-3.8 3.2l-2.3 3.3 2.9-2.3c3.1-2.4 5.6-2.9 5.6-1 0 .6-.3.9-.6.5-.3-.3-1.4.3-2.5 1.4-1 1-2.8 1.9-3.9 1.9-1.2 0-3.3.9-4.9 2.1-1.5 1.1-4.8 2.5-7.2 3-2.4.6-6.4 2.2-8.9 3.7-2.5 1.4-4.7 2.7-5 2.8-.3 0-2.1.8-4 1.6-4.4 1.9-7.4 3.1-8 3.2-.3.1-1.6.9-3 1.8-1.4 1-5 2.2-8 2.9-3 .6-6.2 1.6-7 2.1-1.2.7-1.1.8.5.4 1.1-.3 3.7-.8 5.8-1.2 3.1-.5 3.6-.4 3.1 1-.9 2.3 4.1 4.4 6.6 2.8 1.2-.7 2.1-.8 2.5-.2.4.6.9.8 1.3.6 1-.6 8.4-1.8 10.5-1.8 1 .1 3.6-.6 5.9-1.4 2.2-.8 4.9-1.4 6-1.4 1.1 0 5.5-1.6 9.7-3.5 8.5-3.9 7.7-3.5 16-9.3 3.3-2.3 6.5-4.2 7.1-4.2.5 0 1-.4 1-.8s1.4-1.6 3.1-2.6c1.6-1 5.8-4.7 9.2-8.3 3.4-3.6 7.3-7.6 8.6-8.9 1.3-1.3 2-2.4 1.6-2.4-.5 0 .1-1 1.2-2.3 2.3-2.6 7.3-13 9.7-20.5 1-2.9 2.3-5.8 3-6.5.7-.7 1.5-3 1.9-5.2.4-2.2 1.5-5.1 2.6-6.6 2.1-2.9 3.9-11 3.6-16.2-.2-3.6-6.1-16.7-7.5-16.7-.5 0-1.5-.6-2.2-1.3-3-2.8-10.8-8.8-10.8-8.3 0 .4-1.9-.7-4.2-2.4-2.2-1.6-5.3-3-6.8-3-1.4 0-3.1-.5-3.8-1.2-.7-.7-1.2-.8-1.2-.2 0 .6-.7 1.1-1.5 1.1-.9 0-1.4-.5-1.2-1.1.6-1.8-6.4-4.4-11.1-4.2-2.3.1-3.7-.1-3.1-.5 2-1.2 0-2.7-3.4-2.7-1.7.1-3.9-.2-4.7-.5-1.7-.6-8.7-2-11-2.2-.8-.1-2.2.2-3 .6-.8.4-2.4.1-3.4-.6-1.2-.9-2.5-1.1-4.1-.5-1.6.6-2.5.5-2.8-.3-.3-.9-.8-.9-1.7-.1-.8.8-.8 1.4-.1 1.8 1.2.8.3 3.6-1.2 3.6-.6 0-.7-.3-.4-.6.3-.4.2-1.5-.4-2.6-.6-1.1-1.3-1.7-1.6-1.4-.4.3-1.3 0-2.1-.7-1.2-.9-1.6-.9-1.9 0-.3.9-1 1-2.2.3-1-.5-2-.7-2.3-.5-.3.3-2.5.1-5.1-.4-3.8-.7-5.2-.5-7.7 1zm28.4 7.4c-.4.8-1 1.5-1.5 1.5-.4 0-.6-.7-.3-1.5.4-.8 1-1.5 1.5-1.5.4 0 .6.7.3 1.5zm-57.4.9c0 .3-.4.8-1 1.1-.5.3-1 .1-1-.4 0-.6.5-1.1 1-1.1.6 0 1 .2 1 .4zM469 79c0 .5-.2 1-.4 1-.3 0-.8-.5-1.1-1-.3-.6-.1-1 .4-1 .6 0 1.1.4 1.1 1zm-25.3 8.5c0 .8-.6 1.5-1.4 1.5-.7 0-1.3-.7-1.3-1.5s.6-1.5 1.3-1.5c.8 0 1.4.7 1.4 1.5zm-13.8 5.8c.1.4-.8.2-1.8-.5-1.6-1-1.7-1.5-.8-2.6.9-1.2 1.2-1.1 1.8.5.4 1 .8 2.1.8 2.6zm104.1 9.1c1.4.2 2.9.5 3.3.5 1.2.1-1.3 2.3-5.5 4.9-2.4 1.5-3.5 2.8-3.1 3.8.5 1.5 4.3 2 4.3.6 0-.9 7.6-4.7 9.3-4.7.4 0 1.2-.6 1.6-1.4 1-1.5 4.6-.6 14.1 3.7 11.7 5.2 28.1 16.7 34.3 24.1 5 5.9 1.6 18.8-7.4 27.9-6.1 6.3-15.8 13.5-17.3 12.9-.8-.3-1.7-1.9-2.1-3.5-.3-1.7-1.2-3.3-2-3.6-1.7-.6-4.1 1.9-2.5 2.9.5.3 1 2.2 1 4.1 0 2 .5 3.4 1.3 3.4 1 0-3 2.7-15.9 10.7-4.1 2.6-19 9.6-25.2 12-5.4 2-7 2.2-8.8 1.3-1.5-.8-5.5-1.1-12.3-.7-10.5.5-11.6.1-8.5-3.4.9-1 1.4-2.5 1.1-3.4-.8-1.9-3.7-2-3.7-.1 0 .8-1.6 2.8-3.6 4.5-3.4 3.1-3.8 3.2-9.7 2.5-9.2-1-21.4-4.3-25.4-6.9-1.4-.9-3.4-1.8-4.6-1.9-2.5-.3-12.2-4.4-11.6-5 .2-.2 1.9-1.1 3.6-2 2.7-1.3 3.1-1.4 2.7-.2-.4 1.1.2 1.4 2.3 1.1 1.5-.1 3.7.1 4.8.5 1.1.4 2.8.4 3.8.1 1.4-.5 1.2-.8-1.3-1.8-2-.7-3-.8-3-.1 0 .6-.6.5-1.5-.2s-1.3-1.5-1-1.8c.2-.3-.3-1.1-1.3-1.8-1.4-1.2 2.6.3 10.3 3.6 1.9.8 5.9 2.1 8 2.6.6.1 3 .9 5.4 1.8 2.7 1 7.6 1.6 12.9 1.6 7.9 0 11-.6 19.7-4 1.1-.4 4.5-1.3 7.5-2 3.1-.7 8.1-3.1 11.5-5.3 3.3-2.3 7.2-4.9 8.6-5.8 1.5-1 3.9-2.1 5.3-2.5 4.1-1 5.1-2.9 3.1-6.1l-1.8-2.6 3.5 2.1c4.4 2.7 6 2.7 8.3.2.9-1 4-2.7 6.9-3.6 5.5-1.8 15.6-7.4 15.6-8.6 0-.5.5-.8 1.2-.8 1.4 0 6.8-5 6.8-6.2 0-1.2-6-.9-10 .5-1.9.6-5 2.2-6.7 3.5-1.8 1.3-4.2 2.4-5.3 2.5-1.1.1-2 .6-2 1.1 0 .5-.3.7-.6.4-.3-.3-2.8.2-5.7 1.2-4.4 1.6-5.3 1.6-7.2.4-1.2-.8-4.5-2.1-7.3-2.9-6.3-1.9-7.3-3.2-4.1-5.7 1.3-1.1 3.2-2.6 4.2-3.3.9-.8 1.7-1.2 1.7-1 0 .3 1.4-.9 3.1-2.6l3.2-3.3 1.7 2.2c1.5 1.8 1.9 1.9 2.4.6.3-.8 1.1-1.2 1.7-.8.7.4 1 .1.7-.7-.3-.8-1.2-1.3-2-1.1-2.5.4-2.7-2.1-.7-6.3 1-2.1 1.9-4.2 1.9-4.7 0-1.8-2.8-.6-6.7 2.7-2.9 2.4-4.3 3.1-4.7 2.3-.5-1-.7-1-1.2-.1-.3.7-1.2.9-2 .6-1.6-.6-1.9 1.3-.3 2.3 1.3.8-3.8 6.4-5.8 6.4-.8 0-2.8 1.3-4.5 2.9-3 2.7-3.3 2.8-6.7 1.6-3.6-1.2-13.9-3.1-15.3-2.7-1.2.3.1-6.3 2-10.2l1.8-3.6 2.9 3 2.9 3 1.3-2.2c1.1-2 1.2-2.1 1.3-.4 0 1.5.2 1.6 1.5.6 1.2-1 1.9-1 2.7-.2 1.8 1.8 3.7 1.4 3.5-.8-.1-1.1-.5-2-.9-2s-.8-.4-.8-1c0-.5.7-.7 1.5-.4 2.2.9 1.8-1-.5-3.1-1.6-1.4-2.3-1.6-3.2-.7-.9.9-.9 1.2 0 1.2.7 0 1.2.7 1.2 1.5 0 2.1-2 1.9-2.1-.3-.1-.9-.1-2 0-2.5 0-.4-.3-.8-.9-.8-.5-.1-1.4-.3-2-.4-.5-.1-1.9-.3-3.1-.4-1.9-.1-2-.5-1.4-4.1.5-2.7.3-4.6-.5-5.5-.7-.8-.8-1.5-.3-1.5.6 0 2.9 2.3 5.3 5.1 4.2 5 4.2 5 5.8 2.8 1.5-2.1 1.3-2.4-2.7-5.8-2.2-2-4.1-4.2-4.1-4.9 0-1.7-2.9-1.5-3.6.2-.3.8-1.1 1.3-1.7 1-.7-.2-2.6 2.2-4.3 5.4-2.1 3.9-3.8 5.8-5.2 6-1.2.2-2.2-.1-2.2-.6s-3.2-1-7-1c-6 0-7 .2-6.8 1.6.2.9-.5 1.8-1.4 2-1.3.2-1.8-.3-1.8-1.7 0-1.2-.4-2.1-1-2.1-.5 0-.9.3-.9.7.5 2.9-.3 3.2-2.7 1-1.8-1.7-2.5-3.2-2.2-5.3.3-2.5 1.1-3.2 7.3-5.6 3.9-1.5 7.4-2.7 7.9-2.8 1.1 0-.3 5.4-1.5 5.8-1.2.5.9 3.2 2.5 3.2 1.1 0 4-5.7 3.7-7.3 0-.4.4-.7 1-.7s.9-.6.6-1.4c-.6-1.6 4.5-3.2 13.9-4.2 3.2-.3 6.1-.8 6.3-1 .5-.4 19.2.4 23.1 1zm-157 14.1c0 .8-.7 1.5-1.5 1.5-1.3 0-1.4-.3-.3-1.5 1.6-1.8 1.8-1.8 1.8 0zm83.8 5.2c.3 3 .2 3.1-3.3 2.8-3.5-.3-3.7-.2-3.2 2.1.3 1.6 0 2.3-.7 2.1-.6-.2-1-1.6-.8-3.1.3-2.5.1-2.6-1.8-1.4-2.4 1.5-2.6 2.6-.5 3.4.8.4 1.5 1.3 1.5 2.1 0 1.4-.2 1.4-2.2 0-1.3-.8-2.3-2.2-2.3-3 0-1.7 10.2-8.7 12-8.3.6.2 1.1 1.6 1.3 3.3zm21.6-.2c.3.8.1 1.5-.4 1.5-.6 0-1-.7-1-1.5s.2-1.5.4-1.5.6.7 1 1.5zm3.6 3c0 1.4-.4 2.5-.9 2.5-.4 0-.6-1.1-.3-2.5.2-1.4.6-2.5.8-2.5.2 0 .4 1.1.4 2.5zm-11.3 3.5c1.3 0 2.3.4 2.3.9s.6 1.1 1.3 1.4c1 .4 1.3-.2.9-2.1-.4-2-.2-2.4 1.2-1.9.9.4 1.6.1 1.7-.6 0-.7.5-.2 1.1 1 .8 1.7 1.7 2.1 3.4 1.7 1.5-.4 2.4-.2 2.4.5 0 .8.5.9 1.9.1 2.9-1.5 3.2.8.8 5.3-2 3.7-2.3 3.8-6.2 3.3-2.2-.3-6.8-.5-10.1-.5-6.8-.1-8.1-1.2-6-5.3 1-1.9 1-2.6-.1-3.6-2.2-2.1-1.5-3.4.9-1.8 1.2.9 3.3 1.6 4.5 1.6zm-29.2 0c.3.5.1 1-.4 1-.6 0-1.1-.5-1.1-1 0-.6.2-1 .4-1 .3 0 .8.4 1.1 1zm3.7 3.8c-.9.3-.8.7.2 1.8 1.9 1.9 3.3 1.8 4.5-.4.8-1.3 1-1.4 1.1-.2 0 .9.3 1.1.8.5.4-.6 1.7-1.6 3-2.3 2.1-1.2 2.2-1.1 1.6 1.4-.4 1.5-.7 3.5-.8 4.6-.1 1.3-1.9 2.6-6.1 4.4-11.1 4.7-12.6 5-14 3-.8-1-1.1-2.5-.8-3.3.3-.8.2-1.8-.3-2.2-1.3-.9-3.7-5.4-2.5-4.7.5.4 1.2.2 1.6-.4.4-.6 1.1-.7 1.7-.4.7.4.6.9-.2 1.4-1 .6-.9 1.3.4 3.1l1.6 2.3v-2.5c0-1.5.6-2.6 1.4-2.6.8 0 1.2.6.9 1.3-.2.6 0 1.5.6 1.9.7.4 1.1-.4 1.1-2.1 0-3.1 2.7-6.7 4.3-5.7.8.5.7.8-.1 1.1zm16.3 5.2c.3.5.1 1-.4 1-.6 0-1.1-.5-1.1-1 0-.6.2-1 .4-1 .3 0 .8.4 1.1 1zm-34.8 5.2c.4.7.8 1.9.9 2.6.2.8 1 2.2 1.9 3.2 1.7 1.9 1.3 4-.6 4-.6 0-2.5 1.1-4.2 2.4l-3.2 2.4-2.4-1.9c-2.4-2-2.4-2-.3-2.6 1.7-.4 2-.9 1.2-2.3-1.3-2.4 0-3.4 1.6-1.2 1.3 1.5 1.3 1.5 1-.7-.1-1.4-.8-2.7-1.4-2.9-.7-.2-1.2-.8-1.2-1.3 0-.6.4-.8.9-.4.6.3 1.6-.1 2.3-.9 1.6-1.9 2.5-2 3.5-.4zM418 149c0 .5-.2 1-.4 1-.3 0-.8-.5-1.1-1-.3-.6-.1-1 .4-1 .6 0 1.1.4 1.1 1zm60.8.7c-1 .2-2.6.2-3.5 0-1-.3-.2-.5 1.7-.5s2.7.2 1.8.5zm4.7 1.3c.3.6-.1.7-.9.4-1.8-.7-2.1-1.4-.7-1.4.6 0 1.3.4 1.6 1zm-30.5 6.8c-1.1 3.6-1.8 8.2-1.6 10.7.4 5.3 0 5.4-7.4 1.9-3-1.4-7.7-3.4-10.4-4.3l-4.8-1.7 5.8-3.6c5.1-3.1 19.5-9.8 20.1-9.4.1.1-.7 3-1.7 6.4zm57-2.8c3 1.5 7.8 3.2 10.5 3.8 2.8.6 6.7 1.7 8.9 2.5l3.8 1.3-4.3 1.3c-2.4.7-6.5 2.6-9 4.2s-7.2 3.7-10.5 4.8c-3.2 1-6.6 2.2-7.5 2.6-1.4.5-1.6.1-.9-3.3.9-5.3.3-10.3-2-16.2l-1.9-4.9 3.7.6c2 .3 6.2 1.8 9.2 3.3zm-101.4.2c-1.6.9-1.6 1.1 0 2.9 1.8 2 4.4 2.6 4.4.9 0-.7.7-.7 2.1.1 1.7.9 2.4.8 3.1-.2.7-1 .8-.9.4.5-.6 1.6-.4 1.7.9.6 1.9-1.5 3.2-.6 1.7 1.2-1.5 1.8-1.4 2.4.3 5.8 1.7 3.3 2 6.4.5 5.5-.5-.3-1-.1-1 .4 0 .6.7 1.1 1.6 1.1.8 0 1.2.4.9 1-.4.7.2.7 1.9 0 2-.7 2.4-.6 1.9.5-.3.8-.9 1.2-1.4.9-.5-.3-.9-.3-.9.1 0 1.2 4.5 2.2 5.2 1.1.6-.8.8-.7.8.1 0 1.8 3.8 5.4 4.4 4.2.2-.5.3-.4.2.3-.1.6-1.4 1.6-2.9 2.1-2.2.7-3.9 0-11.5-4.9-7.8-5-8.8-6-8.5-8.3.3-1.8-.4-3.5-2.1-5.3-1.5-1.5-2.6-3.1-2.6-3.7 0-.5-.9-.7-2-.4-1.1.3-2 1.4-2 2.5 0 1 .4 1.7.9 1.4.9-.6 2.5 2.3 1.7 3.1-1 1-6.5-8-5.8-9.3 1.2-2.1 7.6-6.3 8.6-5.7.5.3.1 1-.8 1.5zm73 1.7c3.3 2 5.1 6.8 3.3 8.6-.7.7-.8.5-.5-.5.4-.8-.3-2.9-1.3-4.6-3.8-6.3-12.6-4.5-13.8 2.9-.3 2.1-.8 3.5-1.1 3.3-.2-.3-.1-2.1.2-4.1.5-2.6 1.6-4.1 3.9-5.5 4-2.5 5.4-2.5 9.3-.1zm17.1 4.3c-.3.8-.6.5-.6-.6-.1-1.1.2-1.7.5-1.3.3.3.4 1.2.1 1.9zm-6.4.3c.4.8.2 1.7-.3 2-.6.4-1-.3-1-1.4 0-2.5.6-2.7 1.3-.6zm7.4 7.2c-.5 6.4-1.4 9.3-2.8 9.3-.6 0-.5-.8 0-1.9.6-1 1.4-4.4 1.7-7.5.9-7.4 1.7-7.2 1.1.1zm-121.8-3.4c.8 1.1.5 1.6-1.4 2.5-2.3 1.1-2.5 1-2.5-1.3 0-2.7 2.1-3.3 3.9-1.2zm98.5.6c.3.4.3 1.1 0 1.4-.8.8-3.4-.3-3.4-1.4 0-1.1 2.7-1.2 3.4 0zM376 175c0 .5-.4 1-1 1-.5 0-1-.5-1-1 0-.6.5-1 1-1 .6 0 1 .4 1 1zm61.4 1.6c.9.3 1.6 1.4 1.5 2.3 0 1-.2 1.1-.6.3-.2-.6-1-.9-1.5-.6-.6.4-.8.2-.4-.4.3-.5 0-1.3-.6-1.5-.7-.3-1-.6-.6-.6.3-.1 1.3.2 2.2.5zM376.5 192c-.3.5-1 1-1.6 1-.5 0-.9-.5-.9-1 0-.6.7-1 1.6-1 .8 0 1.2.4.9 1zm.3 14.8c-.1 1 .1 2.3.5 2.9.6.9.2 1.3-1.1 1.3s-1.8-.6-1.6-2.3c.1-1.2.3-2.8.3-3.5.1-.7.6-1 1.1-.7.6.4 1 1.4.8 2.3zm150.2.1c0 .6-.4 1.3-1 1.6-.5.3-1-.1-1-.9 0-.9.5-1.6 1-1.6.6 0 1 .4 1 .9zm-150.9 16.3c.1.7.3 2.3.4 3.5.1 1.3-.3 2.3-1 2.3-1.3 0-2.4-3.7-1.7-5.8.5-1.6 2.2-1.6 2.3 0zM603 240.8c0 .4-.9.8-2 .9-1.1.1-1.8-.2-1.5-.8.7-1.1 3.5-1.2 3.5-.1zm8.6 2.7c1.7 1.3 1.6 1.4-1.3.4-3.4-1.1-4.2-1.9-2-1.9.7 0 2.2.7 3.3 1.5zm-2.2 1.6c7.7 3.6 8.4 5.2 7.1 16.9-.3 3.6-.8 7.6-.9 9-.1 1.4.1 4 .5 5.8.4 1.7.3 3.5-.2 3.8-.5.3-.9 2.4-.9 4.6 0 5.9-.7 4.4-1.5-3.2-.4-3.6-.9-6.8-1-7.1-.2-.3-.6-3.6-1-7.4-.5-6.7-2.4-11.3-4.8-11.9-.7-.2-2.7-.8-4.4-1.4-2-.6-3.5-.7-3.9-.1-.3.5-.9.7-1.4.4-.8-.5-10.2 6.1-10.8 7.7-.2.4-.8.8-1.3.8-1.1 0-1.2-2.7-.1-3.2.6-.3 4.5-8 4.3-8.6-.2-.4 4.3-4.7 6.6-6.2 3.3-2.4 8.7-2.3 13.7.1zm10.6 7c0 1.1-.4 1.7-1 1.4-.5-.3-1-1.3-1-2.1s.5-1.4 1-1.4c.6 0 1 .9 1 2.1zm-244.4 2.6c-1 1-1.9-.5-1-1.8.6-1.1.8-1.1 1.2 0 .2.7.1 1.5-.2 1.8zm244.7 8.9c-.5 9.9-.8 12-1.9 11.4-1.1-.6-.8-11.9.5-19.8.1-.2.5-.1.9.2.5.3.7 4 .5 8.2zm-19.3-4.1c1.7.9 3 1.3 3 1 0-.3.9-.1 1.9.4 2.7 1.5 3.4 9.1.9 9.1-1 0-1.8-.4-1.8-.9 0-2.1-6.2-4.8-11.3-5-1.7-.1-1.6-.4.5-3 2.7-3.5 3-3.6 6.8-1.6zm-20.9 6.5c-.9 2.7-1.9 5-2.3 5-.7 0 1.4-7 2.7-9.1 1.2-1.9 1.1-.8-.4 4.1zM377 268.8c0 1-.7 1.9-1.5 1.9s-1.5-.9-1.5-1.9c0-1 .7-1.8 1.5-1.8s1.5.8 1.5 1.8zm219.3 2.3c.4 1.7.3 1.9-.6 1-.6-.6-1.4-1.1-1.9-1.1-1.3 0-6.7 8.6-9.4 15.4-1.5 3.6-3.1 6.6-3.6 6.6-1.6 0-.8-7.1 1.4-11.6 4.3-9.3 12.8-15.4 14.1-10.3zm8.1 4.2c2.1 4.8 3.3 13.2 1.9 14-.5.3-1-.6-1.1-2.1-.1-1.4-.8-2.9-1.5-3.4-.9-.6-.9-.8.1-.8 1.6 0 .5-5-1.4-6.6-.8-.6-1.4-1.8-1.4-2.7 0-.9-.9-1.9-2-2.2-1.1-.3-2-1-2-1.5s1.2-.5 2.8.1c1.8.6 3.4 2.3 4.6 5.2zm14.3 4.9c-.3.7-.5.2-.5-1.2s.2-1.9.5-1.3c.2.7.2 1.9 0 2.5zm-6.7 6.9c.3 3.7.1 6.3-.6 5.7-.3-.4-.7-3.2-.8-6.4-.3-5.5.9-4.9 1.4.7zm6.7.1c-.2 1.3-.4.5-.4-1.7-.1-2.2.1-3.2.4-2.3.2 1 .2 2.8 0 4zm-15.7.1c0 1.8-.2 1.9-1 .7-1.3-2-1.3-4.3 0-3.5.6.3 1 1.6 1 2.8zm-80 2.3c0 .2-1.5.4-3.2.3-2.7 0-2.9-.2-1.3-.8 1.8-.8 4.5-.4 4.5.5zm21.2 1.2c1 1 .7 1.2-1.2.9-1.3-.2-2.6-.9-2.8-1.5-.4-1.4 2.5-.9 4 .6zm58.5 1.4c-.3.8-.6.5-.6-.6-.1-1.1.2-1.7.5-1.3.3.3.4 1.2.1 1.9zm15 4c-.3.7-.5.2-.5-1.2s.2-1.9.5-1.3c.2.7.2 1.9 0 2.5zm-14 0c-.3.8-.6.5-.6-.6-.1-1.1.2-1.7.5-1.3.3.3.4 1.2.1 1.9zm9.3-.7c0 .8-.4 1.5-1 1.5-.5 0-1-.7-1-1.5s.5-1.5 1-1.5c.6 0 1 .7 1 1.5zm-36.5.4c.3.5.2 1.2-.3 1.5-.5.3-.9-.1-.9-.9 0-1.7.3-1.9 1.2-.6zm4.5 1.3c0 .7-.5 2-1 2.8-.8 1.2-1 .9-1-1.3 0-1.5.5-2.7 1-2.7.6 0 1 .6 1 1.2zm24 8.8c0 .5-.2 1-.4 1-.3 0-.8-.5-1.1-1-.3-.6-.1-1 .4-1 .6 0 1.1.4 1.1 1zm9.9 29.7c.1 4-.3 7.3-.8 7.3-1.2 0-1.7-1.9-1.5-6 .1-1.9.3-6.9.4-11l.3-7.5.7 5c.5 2.7.9 8.3.9 12.2zm-3.6-14.2c-.3.9-.8 1.4-1 1.1-.3-.3-.2-.9.2-1.5.9-1.6 1.5-1.3.8.4zm-.6 8.7c-.3.8-.6.5-.6-.6-.1-1.1.2-1.7.5-1.3.3.3.4 1.2.1 1.9zm-157.3 3.4c1.4 1.4 1.4 1.8.1 4.4-.8 1.6-1.5 3.8-1.5 4.9 0 1.1-.4 2.2-.9 2.5-.4.3-.6-.6-.3-2 .3-1.5-.1-2.9-.7-3.4-.8-.5-1-1.9-.6-4.4.8-4 1.6-4.4 3.9-2zM611 336c0 .5-.4 1-1 1-.5 0-1-.5-1-1 0-.6.5-1 1-1 .6 0 1 .4 1 1zm-149.8 21.7c-.8 1.3-.9.9-.7-1.8.7-6.9.8-7.3 1.2-3.7.2 2.1 0 4.5-.5 5.5zm108.9-3.7c-.3 1.4-.2 9.4.3 19.2.1 2.7-.1 4.8-.5 4.8s-.8-4.4-1.1-9.9c-.2-5.4-.8-10.5-1.4-11.2-.6-.8-1.4-2.2-1.7-3.2-.6-1.5-.2-1.8 2.1-1.5 1.8.2 2.6.8 2.3 1.8zm-120.5-.2c-.3.5-.7 3.2-1 6.1-.6 6.2-1.6 8-1.6 2.9 0-5 1.1-9.8 2.2-9.8.5 0 .7.4.4.8zm23.7 5.3c-.6.6-.9.1-.7-1.3.3-3.3.6-3.6 1.1-1.4.3 1 .1 2.2-.4 2.7zm90.4 7.1c-.3.7-.5.2-.5-1.2s.2-1.9.5-1.3c.2.7.2 1.9 0 2.5zm30.8 2.6c.1 1.7-.2 2.9-.6 2.7-.4-.3-.9 1.1-1.1 3-.3 2.5.1 3.9 1.3 4.8 1.1.8 1.9 3.3 2.3 7.5.5 5.8.4 6.2-1 4.7-1.2-1.2-1.9-1.3-3-.4-.8.6-1.4 1-1.5.8 0-.2-.3-6.6-.5-14.1l-.5-13.8 2.2.8c1.6.6 2.3 1.8 2.4 4zM447 373.7c0 2.1-.3 2.4-.9 1.4-.5-.8-.7-2-.4-2.8.8-2.1 1.3-1.5 1.3 1.4zm25.5 11.9c.1 6.3-.1 7.7-1.7 8.5-1.3.7-1.6.6-1.2-.5.4-1.2.7-4 1.3-15 .1-1.1.4-1.6.8-1.2.4.4.8 4.1.8 8.2zm99.1 8.7c-.1 6.6-.3 7.2-2.2 7.5-2.1.3-2.2 0-1.9-5.5.2-3.2.4-6.5.4-7.3.1-.9.9-1.6 1.9-1.7 1.6-.1 1.8.7 1.8 7zm25.9 5.8c0 4.9-.2 5.4-2.2 5.3-1.4 0-2.5.7-2.9 1.8-.9 2.8.3 3.9 3.3 2.7 1.4-.5 2.7-.8 2.9-.6.4.3.6 3.2 2.4 23.9 1.3 15 .7 18.1-3.1 17.1-2.3-.6-4.7-3.9-5.4-7.2-.5-2.6.3-2.7 3-.1 2.2 2.1 5.5 1.8 5.5-.4 0-1.6-5.8-4.9-7.6-4.2-1.1.4-1.4-.4-1.4-3.9 0-2.5.5-4.5 1-4.5.6 0 1-.6 1-1.3 0-.7.9-2.3 1.9-3.4 2-2.1 2-2.1-.1-3.9-1.5-1.4-2.2-1.6-2.5-.7-1.2 3.4-1.9.4-2.1-9.1-.3-10.1.2-12.8 3.2-16.2 2-2.4 3.1-.8 3.1 4.7zm-124.3 9.7c.3 8.3.1 10.1-1 9.7-.8-.3-2.2.5-3.2 1.7-1.8 2.2-1.8 2.2-1.5-1.7.2-2.2.4-4.8.4-5.8.1-1 .5-1.6 1-1.3.5.3 1.5-.1 2.2-1 1.1-1.3 1-1.7-.4-2.5-2.4-1.4-2.4-9.6.1-10.1.9-.2 1.8-.1 1.9.2.1.3.4 5.1.5 10.8zm99.5 1.1c.3 3.8-.1 4.9-2.6 7.5-2.6 2.7-2.8 3.3-1.6 4.9 1.2 1.7 1.4 1.7 2.8-.3s1.5-2 1.9 1.7c.3 2.1.6 7.5.7 12 .2 7.2 0 8.4-2 10.4-2.1 2.1-2.1 2.1-4 .2-1.1-1.1-2.2-3.6-2.6-5.6-.5-3.6-.4-3.7 2.4-3.7 2.3 0 2.9-.5 3.1-2.5.2-2.7-.8-3.1-3.9-1.4-2 1-2.1.9-1.5-10.8.8-16.3 1.2-17.5 4.4-17.1 2.2.3 2.6.8 2.9 4.7zm-99.5 20.8c-.2 4.9-.5 9.8-.5 11-.1 1.6-.4 2-1.1 1.2-.6-.5-1.1-1.3-1.2-1.7-.2-2.1-1.8-4.2-3-4.2-1.5 0-1.8-3.6-.8-8.9.5-2.3 1-2.9 1.9-2.1.8.7 1.5.3 2.3-1.5 2.1-4.6 2.9-2.5 2.4 6.2zm-31.6 1.1c-1.1 1-1.4-.3-.7-3.8l.6-3.5.3 3.3c.2 1.9.1 3.6-.2 4zm-.5 8.9c-.9 1.5-1 1.2-1.1-1.8 0-2 .3-3.9.8-4.3 1.1-1.2 1.4 4.2.3 6.1zm26 2.5c.1 1.3.1 2.7 0 3.1-.1.5.7 1.1 1.8 1.4 2.7.7 1.5 3.3-1.6 3.3-2.3 0-2.4-.3-2.2-5 .3-5 1.8-7.1 2-2.8z"/><path d="M546.2 119.3c-1.3 1.6-.4 3.1 2.2 3.5 1.1.2 3 1.1 4.3 1.9 1.8 1.2 2.6 1.3 3.7.3 2.1-1.7.9-3.7-2.7-4.5-1.8-.4-3.5-.7-3.9-.6-.5 0-.8-.4-.8-.9 0-1.4-1.6-1.2-2.8.3zM520.7 127c-.3 1.1-.1 2 .4 2s.9-.9.9-2-.2-2-.4-2-.6.9-.9 2zM574.5 128c-2.2 1.6-4.6 2.9-5.4 3-.8 0-1.1.6-.7 1.6.3.9.6 1.8.6 2 0 .2.9.4 2 .4s2-.4 2-.8c0-1 6.5-4.2 8.6-4.2 1 0 1.4-.8 1.2-2.3-.4-3.2-3.6-3.1-8.3.3zM524.8 129.3c-.6 3.3 2.1 7 4.5 6.1 1.3-.5 1.4-.9.4-2.5-1-1.6-.9-2.1.3-2.9 1.2-.8 1.2-1-.4-1.6-1.1-.4-2.1-.2-2.6.6-.6 1-.9.8-1.2-.6-.3-1.5-.5-1.3-1 .9zM553.8 141.3c-.6 1.4.1 3.7 1.1 3.7s1.1-3.9.1-4.5c-.4-.3-1 .1-1.2.8zM543.7 142.7c-1 .9-.9 2.3.2 2.3.5 0 1.1-.7 1.5-1.5.5-1.5-.5-2-1.7-.8zM547.8 142.7c-.9 1.6-.7 6.3.2 6.3.5 0 1.4-.8 2-1.8 1-1.5 1-1.4.5.4-.3 1.4 0 2.4.8 2.7 1 .4 1.3-.2.9-2.1-.6-2.9-3.7-6.8-4.4-5.5zM568.4 160.6c.3.9.6 2 .6 2.5s.4.9.9.9.8-1.1.7-2.5c0-1.4-.7-2.5-1.5-2.5s-1.1.6-.7 1.6zM544.5 179.9c-1.1.5-2.4.6-2.8.4-.4-.3-1.4.1-2.3.7-2.5 2.1 0 3.5 5.6 3.1 4.6-.3 5.1-.5 4.8-2.4-.3-2.4-2.2-3-5.3-1.8zM518.3 188.1c-.9.9-.8 1.7.2 3.3 1.5 2.2 1.5 2.3 1.5 5.6 0 1.3.7 2 1.9 2 2.7 0 3.6-1.7 2.2-4.3-.6-1.2-1.5-3.4-2.1-5-1-2.9-2-3.3-3.7-1.6zM453 190.1c0 1.1.4 1.8 1 1.4.5-.3.7-1.2.3-2-.7-2.1-1.3-1.9-1.3.6zM448 190.1c0 .5.5.7 1 .4.6-.3 1-.8 1-1.1 0-.2-.4-.4-1-.4-.5 0-1 .5-1 1.1zM460.3 191.7c-1.4.5-1.8 3.5-.5 3.1.4-.1 1.7.4 3 1.1 1.8 1 2.6 1 3.8 0 1.9-1.5 1.8-2.6-.3-3.2-1-.2-2.5-.7-3.3-1-.8-.3-2.1-.3-2.7 0zM428.5 144c-.4.6-1.2.7-1.8.3-.8-.5-.8-.2 0 .9.7.8 1 1.8.6 2.1-.3.4 0 .7.8.7s1.5-1.1 1.5-2.5c.2-2.7-.1-3.1-1.1-1.5zM414.5 161c.3.5 1.1 1 1.6 1 .6 0 .7-.5.4-1-.3-.6-1.1-1-1.6-1-.6 0-.7.4-.4 1zM110.1 205.4c-.7.9-3.8 1.4-9.1 1.5-14.3.4-16.3 1.5-19.7 11.7-1.3 3.8-2.7 7.6-3 8.4-1.1 2.6-1.1 17.7-.1 22.2 1.4 6.1 1.6 9.8.7 13.5-.8 3.6.3 9.9 1.7 9.6.5-.1.8 1.5.7 3.5-.6 7.3-.4 9.8.7 14.7.6 2.7 1.9 5.9 2.9 7 1 1.1 2.1 3.3 2.5 5 1.1 5 1.2 5.3 2.3 6.6.6.8 1.6 3.1 2.2 5.1.7 2.1 1.7 3.8 2.2 3.8.5 0 1.3.8 1.6 1.7.6 1.7 6.3 7.6 6.3 6.6 0-.2 1.7.5 3.8 1.6 2 1.1 7.2 3.6 11.4 5.5 5.5 2.6 9.5 5.4 13.8 9.7 4.9 4.9 6.5 5.9 8.3 5.3 1.2-.3 2.4-.8 2.6-1 .6-.5-8.6-9.8-12.9-13.2-1.9-1.4-8.3-4.8-14.3-7.3l-10.9-4.7 2-2c2-2 1.9-3.2-.4-3.2-.6 0-1.1.7-1 1.6.2 3.2-2.2 2.5-5.4-1.6-1.7-2.2-2.9-4.6-2.7-5.2.3-.8.6-.5.6.6.1 1.6.3 1.6 1.7.6.8-.8 1.4-.9 1.3-.4-.1.5.3 2 1 3.4 1.1 2.4 1.1 2.3.8-1.3-.2-2.7.1-3.7 1.2-3.7.8 0 1.1-.3.7-.8-.4-.4-1.3-.7-1.9-.7-.7 0-1.2-.7-1.2-1.5s-.5-2.1-1.2-2.7c-.6-.7-1-3.3-.8-5.8.3-3.4 0-4.8-1.1-5.2-1.1-.4-1.2-.9-.3-1.9.9-1.1.8-1.4-.5-1.4-.9 0-1.6-.5-1.6-1.1 0-.5.5-.7 1-.4.6.4.2-.8-1-2.7-1.1-1.8-2-4.6-2-6.1s-.7-3-1.5-3.3c-.8-.4-1.2-1.1-.9-1.6.4-.6 1-.5 1.5.3.7 1.1.9 1.1.9-.2 0-.9-1-2.1-2.2-2.7-1.3-.6-1.7-1.1-1-1.1 1.8-.1 1.6-7.1-.3-7.1-2 0-1.9-1.6.1-2.4 1.4-.5 1.4-.7 0-2.2-1.8-1.7-2.1-2.8-.7-1.9 1.6 1 2.2-1.3.7-2.8-.9-.8-1.1-1.9-.6-2.8.5-.8.4-1.9-.2-2.7-.8-1-.7-1.7.5-2.9 1.4-1.4 1.4-1.7-.3-3.5-1.3-1.4-1.7-3.3-1.6-6.8.2-3.6 0-4.5-.9-3.7-.6.6-.9 2.1-.7 3.4.2 1.3 0 2.3-.5 2.3-1.3 0-1.1-6.3.2-7.2.7-.5.6-1.3-.1-2.5-1.8-3-.4-12.1 2.1-13.9.8-.6 1.2-1.3 1-1.6-.3-.3.1-1.1 1-1.8 1.2-1 1.5-1 1.5 0 0 .9.4.9 1.3.3 1.7-1.4 5.6-2.3 6.2-1.4.5.9 7.2.8 8.1-.2.3-.3 2-.3 3.7 0 2.4.5 2.8.3 2.2-.8-.7-1.1-.6-1.2.6-.2 1.1.9 2 .6 4.1-1.2 2.4-2 2.5-2.4 1-3.1-3.1-1.4-7-1.4-8.1 0zm-30 26.2l-.9 3.9-.1-3.6c-.1-2 .2-3.9.6-4.2 1.2-1.3 1.3 0 .4 3.9zm.1 7.9c-.2 1.9-.6 3.5-.8 3.5-.2 0-.4-1.6-.4-3.5s.4-3.5.8-3.5.6 1.6.4 3.5zM81 268c0 1.1-.2 2-.4 2s-.6-.9-.9-2c-.3-1.1-.1-2 .4-2s.9.9.9 2zm7 10c0 .5-.2 1-.4 1-.3 0-.8-.5-1.1-1-.3-.6-.1-1 .4-1 .6 0 1.1.4 1.1 1zm2 3.8c0 .5-.7.9-1.5.9s-1.2-.4-.9-.9c.3-.4.9-.8 1.5-.8.5 0 .9.4.9.8zm.9 9.9c0 2.5-.1 2.5-.8.8-.5-1.1-.7-2.3-.4-2.8.8-1.4 1.3-.7 1.2 2zm2.9 10.5c-1 .7-1 1.1 0 1.5.6.2 1.2 1.2 1.2 2.1 0 1.3-.3 1.2-1.5-.4-2-2.6-2-5.5.1-4.7 1.3.5 1.3.8.2 1.5z"/><path d="M122.5 227c-.3.5-2.2 1-4.1 1-2.4 0-3.4.4-3.4 1.6 0 .8.4 1.3.8 1 .5-.3.9.1.9.9s-.4 1.5-.9 1.5c-.4 0-.8-.3-.8-.8 0-.4-1.3-1.5-2.9-2.4-2.6-1.4-3.1-1.5-4.2-.2-1 1.3-1.5 1.2-3.1-.6-2.3-2.5-2.3-2.5-2.5.1-.1 1.2-.6 2.6-1.1 3.1-.6.6-.8 0-.5-1.5.3-1.4-.1-2.8-.8-3.2-.7-.5-1-.4-.6.2 1 1.5-2.3 2.6-3.8 1.3-1-.8-1.5-.8-2.1.1-.4.8-.3.9.5.5.6-.4 1.4 0 1.7.9.5 1.2.9 1.3 2 .4s1.4-.6 1.4 2c0 3.2 1.9 6.1 3.9 6.1.6 0 .8.6.5 1.4-.8 2 2.5 2.8 4.3 1 .9-.8 2.2-1.3 2.9-1 .8.3 1.8-.4 2.4-1.5.6-1.1 1.5-1.7 2-1.4.6.3 1.5-.5 2.2-1.9 1.1-2.5 1.9-3 4.6-2.7 2.2.3 4-1.8 3.5-4-.7-2.4-1.9-3.3-2.8-1.9zm-16 9c.3.5.1 1-.4 1-.6 0-1.1-.5-1.1-1 0-.6.2-1 .4-1 .3 0 .8.4 1.1 1zM86.7 228.1c.7.7 1.5 1 1.8.7.3-.3-.2-.9-1.2-1.2-1.4-.6-1.5-.5-.6.5zM129.2 235.9c-.7.4-.8 1.2-.2 2.1.6.8 1 4.1 1 7.4 0 4.8-.3 5.7-1.6 5.2-1-.4-1.3-.2-.8.6s-.1.9-2 .4c-1.7-.4-2.5-.3-2.2.3.4.5-.4 1.1-1.6 1.3-1.3.2-2.2.9-2.1 1.6.2.6-.2 1.2-.7 1.2-.5 0-1-.5-1-1 0-.6-.9-1-2-1s-2 .6-2 1.3c0 1.4-3.1 4.7-4.3 4.7-.4 0-.7-.7-.7-1.5 0-2.3-1.8-1.8-3.6 1-2.9 4.4-2.4 13.9.5 12 .9-.5.9-1 .1-2s-.8-1.5.1-2.1c.8-.4.9-.3.5.4s.3 1.6 1.7 2.3c3.2 1.4 3 3.8-.5 5.8-1.5.9-2.8 2-2.8 2.4 0 .5.5.5 1.2.1.8-.5.9-.2.5 1-.4 1-.3 1.5.3 1.1.6-.3 1 .3 1 1.4 0 1.1.6 2.4 1.3 2.8.6.4 1.8 2 2.6 3.5.8 1.6 2.1 2.8 3 2.8 1.4 0 1.4-.2.1-1-1.2-.7-1-.9.7-.7 1.4.1 2.1.7 2 1.8-.1 1-.5 1.5-.9 1.3-1.5-1-.8.9 1 2.3.9.8 1.1 1.2.5.8-2.2-1.1-1.4.4.8 1.6 1.6.8 2 .8 1.5 0-.4-.6-.9-2.4-1.1-3.9-.4-2.6-.4-2.6.7-.5.6 1.3 1.5 2.3 2 2.3.4 0 .8.6.8 1.4 0 .7.8 1.6 1.8 1.8.9.3 3 3.1 4.6 6.2 2.7 5.1 3.2 7.3 3.5 14.1.1 2.9 1.9.5 2.5-3.5.9-6.1-2.5-14.5-8.8-21.6-4.2-4.7-4.6-5.2-6.6-8.7-1.1-1.9-1.8-4.1-1.5-4.9.3-.8-.1-2.1-.9-2.8-.9-.7-1.3-1.6-1-2.1.3-.5 0-.9-.6-.9-1.3 0-.4-8.1 1-9 .4-.3 1.2-1.5 1.9-2.8.6-1.2 1.8-2.2 2.6-2.2s1.5-.4 1.5-.8c0-1 6-3.5 9.6-4 .6-.1 1.2-.8 1.3-1.5 1.7-11.2 1.1-17.2-1.8-18-1-.2-2.4-.2-2.9.2zm-19 29.9c-.7.2-1 .8-.7 1.2.3.5.2 1.1-.3 1.4-.4.2-.8-.6-.8-1.9 0-1.6.4-2.1 1.5-1.7 1 .4 1.1.7.3 1zM112 279c.8 1.6.8 2-.4 2-.9 0-1.3-.6-1-1.4.3-.8-.2-1.6-1.3-1.9-1.6-.4-1.6-.5-.1-.6 1 0 2.2.8 2.8 1.9zM89 241.9c0 .6.4 1.3 1 1.6.6.3.7-.1.4-.9-.7-1.8-1.4-2.1-1.4-.7z"/><path d="M126 244.1c0 .5.5.7 1 .4.6-.3 1-.8 1-1.1 0-.2-.4-.4-1-.4-.5 0-1 .5-1 1.1zM124 247.9c0 .5.5 1.3 1 1.6.6.3 1 .2 1-.4 0-.5-.4-1.3-1-1.6-.5-.3-1-.2-1 .4zM486.5 269.6c0 1.9.3 3.4.8 3.4.4 0 .7-1.3.7-2.9 0-1.7-.3-3.2-.7-3.4-.5-.3-.8 1-.8 2.9zM91.5 272c-.3.5-.1 1 .4 1 .6 0 1.1-.5 1.1-1 0-.6-.2-1-.4-1-.3 0-.8.4-1.1 1zM106.3 272.2c-1.3.6-2.3 1.5-2.3 1.9 0 1.6 2 2 4.2.8 1.4-.8 1.8-1.4 1-1.7-.6-.2-1-.8-.6-1.3.6-1.1.5-1.1-2.3.3zM489.2 296.8c-2.8.9-.9 3.8 4.4 6.3 4.5 2.1 5.6 2.4 6.5 1.2 1.6-1.8-1.6-5.3-4.7-5.3-1.2 0-2.9-.6-3.6-1.3-.7-.8-1.9-1.2-2.6-.9zM512.3 297.7c-.7.3-1.3 1.2-1.3 2.2 0 .9-.7 2.7-1.6 4-1.5 2.1-1.5 2.4 0 3.9 1.8 1.8 3.4.8 4.1-2.6.2-1.1.8-3 1.4-4 1.2-2.2-.4-4.3-2.6-3.5zM462.1 301c-1.2 1.1-2.7 1.8-3.1 1.5-.4-.3-1 .4-1.3 1.4-.7 2.8 1.2 3.1 5.9 1.2 3.7-1.4 4-1.9 3.3-3.9-1-2.7-1.7-2.7-4.8-.2zM536.7 301.4c-.2.6.5 3 1.6 5.3 1.7 3.5 2.3 4 3.9 3.2 2.3-1.2 2.3-2.1-.2-4.9-1.1-1.2-1.7-2.6-1.5-3 .3-.4-.4-1-1.5-1.3-1-.3-2.1 0-2.3.7zM554.2 302.2c-.7.7-1.2 1.9-1.2 2.7 0 .9-.9 3.1-2 4.9-1.6 2.6-1.8 3.7-1 4.7 1.4 1.7 4 .9 4-1.2 0-.8 1.3-3.4 2.9-5.8 2.1-3.1 2.6-4.6 1.8-5.4-1.4-1.4-3-1.4-4.5.1zM473 306.1c0 .9.6 2.2 1.4 2.8.8.7 1.7 2.3 2 3.6.4 1.6 1.4 2.5 2.5 2.5 3 0 3.2-2.7.6-5.9-1.4-1.6-2.5-3.4-2.5-3.9 0-.6-.9-1-2-.9-1.1.1-2 .8-2 1.8zM570.5 305.9c-.3.5.4 2.5 1.6 4.5 1.1 1.9 1.8 4 1.4 4.6-.8 1.4 2.8 1.3 4.2-.1.8-.8.4-2.3-1.5-5.5-2.6-4.3-4.5-5.4-5.7-3.5zM521 307.4c0 .8 1.5 2.6 3.2 4l3.3 2.5 1.2-2.2c1-1.9.9-2.3-.7-2.9-1-.4-2.1-1.1-2.5-1.7-.9-1.6-4.5-1.3-4.5.3zM493.7 313.3c-1.3 1.1-1.7 2.8-2.9 11.2-.2 1.4.3 2 1.6 2 1.5 0 2.2-1.1 3.1-5 .7-2.8 1.5-5.7 1.9-6.6.9-2.1-1.7-3.2-3.7-1.6zM458.5 317c-1.3 2.1 1.1 3.5 6.2 3.6 4.2.1 5.2-.2 5.6-1.7.3-1-.2-2-1-2.3-2.4-1-10.1-.7-10.8.4zM563.3 316.7c-.7.2-1.3 1.4-1.3 2.5 0 1.2.3 1.9.6 1.5.3-.3 2.2.3 4.2 1.3 2.5 1.4 3.9 1.6 4.8.9 1.3-1.1.8-3.8-.7-4-.5-.1-1.3-.3-1.9-.4-.5-.1-1.7-.3-2.6-.4-.8 0-1.2-.6-.9-1.1.7-1.1-.2-1.2-2.2-.3zM513 320.9c-.5 1.1-1.7 2.7-2.6 3.5-.9.9-1.3 2.3-1 3.1.6 1.7 3.6 2.1 3.6.5 0-.6 1.2-2.2 2.6-3.5 2.2-2.1 2.5-2.7 1.4-4-1.7-2-2.7-1.9-4 .4zM116.1 322.9c-.9.6-1 1.1-.2 1.5.6.4 1.1.2 1.1-.4 0-.6.5-.8 1.2-.4s.8.3.4-.4c-.8-1.4-.7-1.4-2.5-.3zM548 325c-.8.5-2.7 1-4.1 1-2.9 0-4.6 2.5-2.6 3.7 1.9 1.1 9.9.1 10.4-1.3.6-1.9-2.1-4.4-3.7-3.4zM527.7 325.6c-.3.3-.3 1.2 0 2 .3.7 0 2.7-.5 4.3-.9 2.6-.8 3 1.1 3.5 2.6.7 3.7-.9 3.4-4.9-.4-4.5-2.2-6.7-4-4.9zM575.8 331.7c-1.7 3.6-1.1 6.3 1.3 6.3 1 0 3.9-6.5 3.9-8.6 0-2.8-3.5-1.3-5.2 2.3zM476.2 333.8c-1.8 2-3 4.2-2.8 4.9.6 1.4 2.6 1.8 2.6.5 0-.4 1.6-1.6 3.5-2.6 3.5-1.9 4.2-3.2 2.7-5.1-1.4-1.9-2.8-1.4-6 2.3zM561.5 333c-.3 1.1-1.7 2.8-3 3.8-2 1.6-2.2 2.2-1.2 3.6 1.2 1.6 1.6 1.4 5.5-2.1 4.1-3.8 4.3-5.3 1-6.6-1.1-.4-1.9 0-2.3 1.3zM185.5 343.6c-1.6.8-3.8 2.3-4.9 3.2-6.2 5.7-6.8 18.4-.8 19.8 1.5.4 3.3 1.6 4 2.6 1.4 2 4.7 2.4 5.7.7.5-.6 1.2-.4 2 .7 1.7 2.4 4.4 2.6 5.7.5.7-1.1 1.9-1.6 3.3-1.3 1.5.2 2.8-.3 3.8-1.8 1.5-2.1 1.3-4.1-.8-9.2-.5-1.3-.2-1.5 1.4-1.1 3.3.8 5.3-1.5 4.8-5.5-.3-1.9-1.1-4-1.9-4.8-1-.9-16.6-5.4-18.9-5.4-.2 0-1.7.7-3.4 1.6zM61.3 356.9c-5.3 3.8-7.3 7.7-7.3 13.9 0 5.1 2 8.2 5.3 8.2.9 0 2 .7 2.5 1.6 1 1.9 4.2 2.5 6 1.1.8-.6 1.2-.6 1.2.2 0 .6 1 1.6 2.3 2.1 1.7.6 2.6.4 3.9-1.1 1-1.1 2.3-1.7 3.2-1.3 1 .4 2.5-.1 3.6-1.1 2-1.8 1.9-5.7-.3-9.9-.8-1.6-.6-1.8.8-1.3 2.9 1.2 5.5-1 5.5-4.6-.1-5.4-2-6.8-13.5-9.4-7.5-1.7-9-1.5-13.2 1.6zM85 429.2c0 .7-1.8 3.3-4 5.7-4.2 4.7-5.6 9-4.5 14 .9 4.1 4 6.1 9.3 6.1 3.3 0 5.2.7 8 3 2.6 2 4.4 2.8 5.9 2.4 1.4-.4 2.9 0 3.9 1.1 1 1 2.5 1.4 3.8 1.1 1.2-.3 3.1-.6 4.3-.6 1.2 0 3.3-1.1 4.7-2.5 3-3 3.4-3 5.8-.8 1 .9 2.1 1.3 2.5.9.4-.4-.3-1.5-1.6-2.5-2.2-1.7-2.2-2-.8-4.2 1.9-3 1.4-7.7-1-10-2.6-2.6-20.8-6.5-23.6-5.1-1.2.6-4 1.3-6.2 1.6-2.2.3-4.5 1.2-5.1 2.1-.6.8-1.6 1.5-2.3 1.5-.6 0 .3-2.5 2-5.4 2.5-4.5 2.8-5.9 1.9-7.5-1.2-2.3-3-2.8-3-.9zm28.8 18.7c2.4.2 1.1 1.9-2.5 3.4-4.4 1.7-5.7 1.4-7.1-1.9-1.1-2.4-1.1-2.4 3.6-2 2.6.2 5.3.4 6 .5zM108 459c0 .5-.8 1-1.7 1-1.5 0-1.6-.2-.3-1 1.9-1.2 2-1.2 2 0zM555 532c0 .5.5 1 1 1 .6 0 1-.5 1-1 0-.6-.4-1-1-1-.5 0-1 .4-1 1z"/></svg>