<svg width="150" height="100" viewBox="0 0 150 100" fill="none" xmlns="http://www.w3.org/2000/svg">
<g clip-path="url(#clip0)">
<rect x="134.125" y="94.75" width="1.75" height="2.625" fill="#5E463C"/>
<rect x="134.125" y="94.75" width="1.75" height="2.625" fill="#5E463C"/>
<rect x="134.125" y="94.75" width="1.75" height="2.625" fill="#5E463C"/>
<rect x="133.25" y="98.25" width="3.5" height="1.75" rx="0.875" fill="#5E463C"/>
<rect x="133.25" y="98.25" width="3.5" height="1.75" rx="0.875" fill="#5E463C"/>
<rect x="133.25" y="98.25" width="3.5" height="1.75" rx="0.875" fill="#5E463C"/>
<circle cx="135" cy="97.375" r="1.75" fill="#5E463C"/>
<circle cx="135" cy="97.375" r="1.75" fill="#5E463C"/>
<circle cx="135" cy="97.375" r="1.75" fill="#5E463C"/>
<path d="M135 90.375C135 90.375 138.938 95.0192 135 95.625C131.062 95.0192 135 90.375 135 90.375Z" fill="#5E463C"/>
<path d="M135 90.375C135 90.375 138.938 95.0192 135 95.625C131.062 95.0192 135 90.375 135 90.375Z" fill="#5E463C"/>
<path d="M135 90.375C135 90.375 138.938 95.0192 135 95.625C131.062 95.0192 135 90.375 135 90.375Z" fill="#5E463C"/>
<rect x="99.125" y="94.75" width="1.75" height="2.625" fill="#5E463C"/>
<rect x="99.125" y="94.75" width="1.75" height="2.625" fill="#5E463C"/>
<rect x="99.125" y="94.75" width="1.75" height="2.625" fill="#5E463C"/>
<rect x="98.25" y="98.25" width="3.5" height="1.75" rx="0.875" fill="#5E463C"/>
<rect x="98.25" y="98.25" width="3.5" height="1.75" rx="0.875" fill="#5E463C"/>
<rect x="98.25" y="98.25" width="3.5" height="1.75" rx="0.875" fill="#5E463C"/>
<circle cx="100" cy="97.375" r="1.75" fill="#5E463C"/>
<circle cx="100" cy="97.375" r="1.75" fill="#5E463C"/>
<circle cx="100" cy="97.375" r="1.75" fill="#5E463C"/>
<path d="M100 90.375C100 90.375 103.938 95.0192 100 95.625C96.0625 95.0192 100 90.375 100 90.375Z" fill="#5E463C"/>
<path d="M100 90.375C100 90.375 103.938 95.0192 100 95.625C96.0625 95.0192 100 90.375 100 90.375Z" fill="#5E463C"/>
<path d="M100 90.375C100 90.375 103.938 95.0192 100 95.625C96.0625 95.0192 100 90.375 100 90.375Z" fill="#5E463C"/>
<rect x="98.25" y="18.625" width="38.5" height="75.25" fill="#D99F5F"/>
<path d="M103.5 93.875H131.5C131.5 96.2912 129.541 98.25 127.125 98.25H107.875C105.459 98.25 103.5 96.2912 103.5 93.875Z" fill="url(#paint0_linear)"/>
<path d="M102.625 100C102.625 99.0335 103.409 98.25 104.375 98.25H130.625C131.591 98.25 132.375 99.0335 132.375 100H102.625Z" fill="url(#paint1_linear)"/>
<path d="M94.2998 20.2497C93.7759 19.5949 94.2421 18.625 95.0806 18.625H139.919C140.758 18.625 141.224 19.5949 140.7 20.2497L140.25 20.8125V22C140.25 22.5523 139.802 23 139.25 23H95.75C95.1977 23 94.75 22.5523 94.75 22V20.8125L94.2998 20.2497Z" fill="#D99F5F"/>
<ellipse cx="117.5" cy="25.1875" rx="15.75" ry="15.3125" fill="#D99F5F"/>
<path d="M100.875 24.75H134.125V91.25H100.875V24.75Z" fill="#865942"/>
<path d="M103.5 46.625H131.5V86.875H103.5V46.625Z" fill="#5E463C"/>
<circle cx="117.5" cy="27.375" r="13.125" fill="#865942"/>
<path d="M103.5 26.5H131.5V44H103.5V26.5Z" fill="#5E463C"/>
<path d="M128.875 26.5L124.5 44H131.5V26.5H128.875Z" fill="#4E362C"/>
<ellipse cx="117.5" cy="28.6875" rx="11.375" ry="11.8125" fill="#5E463C"/>
<path d="M114.875 86.875L123.565 46.625H131.5V51.6562V79.3281V86.875H114.875Z" fill="#4E362C"/>
<path d="M114.875 86.875L123.565 46.625H131.5V51.6562V79.3281V86.875H114.875Z" fill="#4E362C"/>
<circle cx="117.5" cy="32.625" r="10.875" fill="white" stroke="#865942"/>
<rect x="117.232" y="32.7156" width="0.607338" height="6.03448" fill="black"/>
<rect width="0.605595" height="3.63119" transform="matrix(-0.744417 -0.667715 0.67246 -0.740134 117.683 33.092)" fill="black"/>
<ellipse cx="117.536" cy="32.7155" rx="0.911007" ry="0.905172" fill="black"/>
<rect x="99.125" y="13.375" width="1.75" height="2.625" fill="#5E463C"/>
<rect x="99.125" y="13.375" width="1.75" height="2.625" fill="#5E463C"/>
<rect x="99.125" y="13.375" width="1.75" height="2.625" fill="#5E463C"/>
<rect x="98.25" y="16.875" width="3.5" height="1.75" rx="0.875" fill="#5E463C"/>
<rect x="98.25" y="16.875" width="3.5" height="1.75" rx="0.875" fill="#5E463C"/>
<rect x="98.25" y="16.875" width="3.5" height="1.75" rx="0.875" fill="#5E463C"/>
<circle cx="100" cy="16" r="1.75" fill="#5E463C"/>
<circle cx="100" cy="16" r="1.75" fill="#5E463C"/>
<circle cx="100" cy="16" r="1.75" fill="#5E463C"/>
<path d="M100 9C100 9 103.938 13.6442 100 14.25C96.0625 13.6442 100 9 100 9Z" fill="#5E463C"/>
<path d="M100 9C100 9 103.938 13.6442 100 14.25C96.0625 13.6442 100 9 100 9Z" fill="#5E463C"/>
<path d="M100 9C100 9 103.938 13.6442 100 14.25C96.0625 13.6442 100 9 100 9Z" fill="#5E463C"/>
<rect x="134.125" y="13.375" width="1.75" height="2.625" fill="#5E463C"/>
<rect x="134.125" y="13.375" width="1.75" height="2.625" fill="#5E463C"/>
<rect x="134.125" y="13.375" width="1.75" height="2.625" fill="#5E463C"/>
<rect x="133.25" y="16.875" width="3.5" height="1.75" rx="0.875" fill="#5E463C"/>
<rect x="133.25" y="16.875" width="3.5" height="1.75" rx="0.875" fill="#5E463C"/>
<rect x="133.25" y="16.875" width="3.5" height="1.75" rx="0.875" fill="#5E463C"/>
<circle cx="135" cy="16" r="1.75" fill="#5E463C"/>
<circle cx="135" cy="16" r="1.75" fill="#5E463C"/>
<circle cx="135" cy="16" r="1.75" fill="#5E463C"/>
<path d="M135 9C135 9 138.938 13.6442 135 14.25C131.062 13.6442 135 9 135 9Z" fill="#5E463C"/>
<path d="M135 9C135 9 138.938 13.6442 135 14.25C131.062 13.6442 135 9 135 9Z" fill="#5E463C"/>
<path d="M135 9C135 9 138.938 13.6442 135 14.25C131.062 13.6442 135 9 135 9Z" fill="#5E463C"/>
<rect x="93.728" y="67.8232" width="1.128" height="12.7211" fill="#FBB447"/>
<rect x="94.856" y="67.8232" width="0.376" height="12.7211" fill="#D99F5F"/>
<path d="M88.0583 79.4219H68.5657L69.3078 85.0341H78.312H87.3162L88.0583 79.4219Z" fill="#D99F5F"/>
<path fill-rule="evenodd" clip-rule="evenodd" d="M89.592 67.8232H67.032L68.2688 77.177H88.3551L89.592 67.8232Z" fill="#D99F5F"/>
<path d="M55 68.0102C55 55.302 65.5213 45 78.5 45C91.4787 45 102 55.302 102 68.0102H55Z" fill="#D99F5F"/>
<path d="M55 68.0102C55 55.302 65.5213 45 78.5 45C91.4787 45 102 55.302 102 68.0102H55Z" fill="#FBB447"/>
<path d="M55 67.8231C55 57.2846 63.6696 48.7415 74.364 48.7415C85.0584 48.7415 93.728 57.2846 93.728 67.8231H55Z" fill="#FEC157"/>
<path d="M55 67.823C55 59.7642 61.6495 53.2312 69.852 53.2312C78.0545 53.2312 84.704 59.7642 84.704 67.823H55Z" fill="#FECC6B"/>
<rect x="66.28" y="96.2585" width="24.064" height="3.7415" rx="1.87075" fill="#D99F5F"/>
<path d="M70.7921 96.2584H85.8321L87.3163 85.0339H78.3121H69.3079L70.7921 96.2584Z" fill="url(#paint2_linear)"/>
<path d="M88.3551 77.1768H68.2688L68.5656 79.4217H88.0583L88.3551 77.1768Z" fill="#4E362C"/>
<path d="M85.8321 96.2584L87.3361 85.0339H82.2601L81.5081 96.2584H85.8321Z" fill="#4E362C"/>
<path d="M87.3261 85.0341L88.0682 79.4219H82.6756L82.26 85.0341H87.3261Z" fill="#C78D4D"/>
<path d="M88.2661 77.177L89.7602 67.8232H83.9916L82.824 77.177H88.2661Z" fill="#C78D4D"/>
<path d="M55 67.8232C55 69.8896 57.1043 71.5647 59.7 71.5647C62.2957 71.5647 64.4 69.8896 64.4 67.8232H55Z" fill="#4E362C"/>
<path d="M64.3999 67.8232C64.3999 69.8896 66.5042 71.5647 69.0999 71.5647C71.6956 71.5647 73.7999 69.8896 73.7999 67.8232H64.3999Z" fill="#4E362C"/>
<path d="M73.8 67.8232C73.8 69.8896 75.9043 71.5647 78.5 71.5647C81.0958 71.5647 83.2 69.8896 83.2 67.8232H73.8Z" fill="#4E362C"/>
<path d="M83.2 67.8232C83.2 69.8896 85.3042 71.5647 87.9 71.5647C90.4957 71.5647 92.6 69.8896 92.6 67.8232H83.2Z" fill="#4E362C"/>
<path d="M92.6001 67.8232C92.6001 69.8896 94.7044 71.5647 97.3001 71.5647C99.8958 71.5647 102 69.8896 102 67.8232H92.6001Z" fill="#4E362C"/>
<path d="M82.636 79.4217L82.824 77.1768H88.276L88.088 79.4217H82.636Z" fill="#3C241A"/>
<ellipse cx="94.4802" cy="79.7959" rx="3.008" ry="2.9932" fill="url(#paint3_linear)"/>
</g>
<defs>
<linearGradient id="paint0_linear" x1="98.25" y1="82.9375" x2="131.5" y2="103.5" gradientUnits="userSpaceOnUse">
<stop stop-color="#865942"/>
<stop offset="0.0001" stop-color="#865942"/>
<stop offset="0.966851" stop-color="#5E463C"/>
</linearGradient>
<linearGradient id="paint1_linear" x1="97.0469" y1="93.875" x2="110.252" y2="115.567" gradientUnits="userSpaceOnUse">
<stop stop-color="#865942"/>
<stop offset="0.0001" stop-color="#865942"/>
<stop offset="0.966851" stop-color="#5E463C"/>
</linearGradient>
<linearGradient id="paint2_linear" x1="87.3361" y1="100.561" x2="56.6115" y2="77.7803" gradientUnits="userSpaceOnUse">
<stop offset="0.566667" stop-color="#5E463C"/>
<stop offset="1" stop-color="#5E463C" stop-opacity="0"/>
</linearGradient>
<linearGradient id="paint3_linear" x1="95.7962" y1="83.9116" x2="90.5616" y2="77.8996" gradientUnits="userSpaceOnUse">
<stop stop-color="#FBB447"/>
<stop offset="1" stop-color="#FEC157"/>
</linearGradient>
<clipPath id="clip0">
<rect width="150" height="100" fill="white"/>
</clipPath>
</defs>
</svg>
