<svg width="150" height="100" viewBox="0 0 150 100" fill="none" xmlns="http://www.w3.org/2000/svg">
<rect x="43" y="30" width="99" height="62" rx="1.66667" fill="url(#paint0_linear)"/>
<path fill-rule="evenodd" clip-rule="evenodd" d="M136 32H44.8333C44.3731 32 44 32.3731 44 32.8333V88H95.1658L136 32Z" fill="#202020"/>
<path d="M140 88V32.8615C140 32.3857 139.572 32 139.043 32H127.087L96 88H140Z" fill="#0C0C0C"/>
<rect x="84" y="92" width="16" height="6" fill="black"/>
<path d="M72 98.8333C72 98.3731 72.3731 98 72.8333 98H111.167C111.627 98 112 98.3731 112 98.8333V100H72V98.8333Z" fill="black"/>
<g clip-path="url(#clip0)">
<path d="M32.0881 98.7942H34.4999V99.3971C34.4999 99.7301 34.23 100 33.897 100H32.6911C32.3581 100 32.0881 99.7301 32.0881 99.3971V98.7942Z" fill="black"/>
<path d="M50.1765 98.7942H52.5883V99.3971C52.5883 99.7301 52.3183 100 51.9853 100H50.7795C50.4465 100 50.1765 99.7301 50.1765 99.3971V98.7942Z" fill="black"/>
<path d="M29.6765 60.8088C29.6765 59.8098 30.4864 59 31.4853 59H52.5883C53.5873 59 54.3971 59.8098 54.3971 60.8088V96.9853C54.3971 97.9843 53.5873 98.7941 52.5883 98.7941H31.4853C30.4864 98.7941 29.6765 97.9843 29.6765 96.9853V60.8088Z" fill="#003E6C"/>
<path d="M42.3381 59H53.2644C54.2229 59 54.9999 59.777 54.9999 60.7355V97.0586C54.9999 98.0171 54.2229 98.7941 53.2644 98.7941H42.3381V59Z" fill="#00305E"/>
<path d="M42.3376 96.3823C47.9986 96.3823 52.5876 91.7932 52.5876 86.1323C52.5876 80.4714 47.9986 75.8823 42.3376 75.8823C36.6767 75.8823 32.0876 80.4714 32.0876 86.1323C32.0876 91.7932 36.6767 96.3823 42.3376 96.3823Z" fill="#E59C00"/>
<path d="M42.6397 96.3824C48.1341 96.3824 52.5882 91.9283 52.5882 86.4339C52.5882 80.9395 48.1341 76.4854 42.6397 76.4854C37.1453 76.4854 32.6912 80.9395 32.6912 86.4339C32.6912 91.9283 37.1453 96.3824 42.6397 96.3824Z" fill="#E59C00"/>
<path d="M42.3381 94.5735C47.0001 94.5735 50.7793 90.7943 50.7793 86.1323C50.7793 81.4704 47.0001 77.6912 42.3381 77.6912C37.6762 77.6912 33.897 81.4704 33.897 86.1323C33.897 90.7943 37.6762 94.5735 42.3381 94.5735Z" fill="#333333"/>
<path d="M33.897 86.1323C33.897 90.7943 37.6762 94.5735 42.3381 94.5735V77.6912C37.6762 77.6912 33.897 81.4704 33.897 86.1323Z" fill="#262627"/>
<path d="M42.3382 89.1471C44.0032 89.1471 45.3529 87.7974 45.3529 86.1324C45.3529 84.4674 44.0032 83.1177 42.3382 83.1177C40.6732 83.1177 39.3235 84.4674 39.3235 86.1324C39.3235 87.7974 40.6732 89.1471 42.3382 89.1471Z" fill="#BDBDBD"/>
<path d="M42.3381 89.1471C44.0031 89.1471 45.3528 87.7973 45.3528 86.1324C45.3528 84.4674 44.0031 83.1177 42.3381 83.1177V89.1471Z" fill="#AAAAAB"/>
<path d="M42.6392 74.0736C46.1357 74.0736 48.9701 71.2392 48.9701 67.7427C48.9701 64.2463 46.1357 61.4119 42.6392 61.4119C39.1428 61.4119 36.3083 64.2463 36.3083 67.7427C36.3083 71.2392 39.1428 74.0736 42.6392 74.0736Z" fill="#E59C00"/>
<path d="M42.6392 72.8677C45.4696 72.8677 47.7642 70.5731 47.7642 67.7427C47.7642 64.9122 45.4696 62.6177 42.6392 62.6177C39.8087 62.6177 37.5142 64.9122 37.5142 67.7427C37.5142 70.5731 39.8087 72.8677 42.6392 72.8677Z" fill="#333333"/>
<path d="M37.5142 67.7427C37.5142 70.5731 39.8087 72.8677 42.6392 72.8677V62.6177C39.8087 62.6177 37.5142 64.9122 37.5142 67.7427Z" fill="#262627"/>
<path d="M42.6392 69.2501C43.4717 69.2501 44.1465 68.5752 44.1465 67.7427C44.1465 66.9102 43.4717 66.2354 42.6392 66.2354C41.8067 66.2354 41.1318 66.9102 41.1318 67.7427C41.1318 68.5752 41.8067 69.2501 42.6392 69.2501Z" fill="#BDBDBD"/>
<path d="M42.6392 69.2501C43.4716 69.2501 44.1465 68.5752 44.1465 67.7427C44.1465 66.9102 43.4716 66.2354 42.6392 66.2354V69.2501Z" fill="#AAAAAB"/>
</g>
<defs>
<linearGradient id="paint0_linear" x1="19.8394" y1="10.9571" x2="142.78" y2="94.8505" gradientUnits="userSpaceOnUse">
<stop/>
<stop offset="0.9999"/>
</linearGradient>
<clipPath id="clip0">
<rect width="25" height="41" fill="white" transform="translate(30 59)"/>
</clipPath>
</defs>
</svg>
