<svg width="150" height="100" viewBox="0 0 150 100" fill="none" xmlns="http://www.w3.org/2000/svg">
<g clip-path="url(#clip0)">
<path d="M53 55.5L75 56.5L97 55.5V80.5L75 81.5L53 80.5V55.5Z" fill="#1F3347"/>
<path d="M53 80.5C53 80.5 65.1895 80.5 73 80.5C73 88.3105 73 100.5 73 100.5H53V80.5Z" fill="#1F3347"/>
<path d="M77 80.5H97V100.5H77V80.5Z" fill="#1F3347"/>
<path fill-rule="evenodd" clip-rule="evenodd" d="M97 80.5H77V81.4091L97 80.5Z" fill="#262627"/>
<path d="M97 100.5V80.5L77 81.4091V100.5H97Z" fill="#262627"/>
<path d="M97 80.5V56.5465C97 55.9764 96.5241 55.5216 95.9546 55.5475L75 56.5V81.5L77 81.4091V80.5H97Z" fill="#262627"/>
<circle cx="73" cy="59.5" r="1" fill="#828282"/>
<path d="M53 55.5L75 56.5L97 55.5L75 55L53 55.5Z" fill="black"/>
<g clip-path="url(#clip1)">
<path fill-rule="evenodd" clip-rule="evenodd" d="M117.772 82.4399C118.432 82.4399 118.966 81.9053 118.966 81.2457V45.4025C118.966 44.3612 120.206 43.8187 120.971 44.5253L123.959 47.2854C124.443 47.7332 125.199 47.7031 125.647 47.2182L134.621 37.4957C135.057 37.0229 135.04 36.2895 134.583 35.8369L119.315 20.7256C119.092 20.5043 118.79 20.3801 118.475 20.3801H110.161L105.465 27.0079L101.963 22.1285L100.171 25.7705V82.4399H117.772Z" fill="#B40109"/>
<path fill-rule="evenodd" clip-rule="evenodd" d="M81.9737 82.4399C81.3141 82.4399 80.7794 81.9053 80.7794 81.2457V45.4025C80.7794 44.3612 79.5396 43.8187 78.7748 44.5253L75.7868 47.2854C75.3022 47.7332 74.5463 47.7031 74.0988 47.2182L65.125 37.4957C64.6887 37.0229 64.7052 36.2895 65.1625 35.8369L80.4304 20.7256C80.654 20.5043 80.9559 20.3801 81.2705 20.3801H89.5847L94.2809 27.0079L98.3901 22.1877L100.171 25.7705V82.4399H81.9737Z" fill="#C31018"/>
<path d="M95.9914 26.9058L98.9771 23.3229L98.38 22.1287L94.7971 25.7115L95.9914 26.9058Z" fill="#B40109"/>
<path d="M103.754 26.9058L101.366 23.3229L101.963 22.1287L104.949 25.7115L103.754 26.9058Z" fill="#A20000"/>
<path d="M89.5847 20.3801L93.1069 17.9485L98.3901 22.1877L94.2809 27.0078L89.5847 20.3801Z" fill="white"/>
<path d="M110.171 20.3801L106.649 17.9485L101.963 22.1285L105.475 27.0078L110.171 20.3801Z" fill="#DEDEDE"/>
<path d="M106.74 17.9485H93.0059L98.3801 22.1285L100.172 25.7113L101.963 22.1285L106.74 17.9485Z" fill="url(#paint0_linear)"/>
</g>
</g>
<defs>
<linearGradient id="paint0_linear" x1="99.873" y1="17.9485" x2="99.873" y2="25.7113" gradientUnits="userSpaceOnUse">
<stop stop-color="#8D8D8D"/>
<stop offset="1" stop-color="#656565"/>
</linearGradient>
<clipPath id="clip0">
<rect width="150" height="100" fill="white"/>
</clipPath>
<clipPath id="clip1">
<rect width="72" height="66" fill="white" transform="translate(64 16)"/>
</clipPath>
</defs>
</svg>
