<svg width="150" height="100" viewBox="0 0 150 100" fill="none" xmlns="http://www.w3.org/2000/svg">
<circle cx="104" cy="67" r="33" fill="#E59C00"/>
<circle cx="104.5" cy="67.5" r="30" fill="#FFBE2C" stroke="#E59C00"/>
<circle cx="102" cy="67" r="27" fill="white" fill-opacity="0.18"/>
<ellipse cx="96.5" cy="66.5" rx="21.5" ry="20.5" fill="white" fill-opacity="0.2"/>
<path d="M88.7321 64.6134L89.3393 66.4424L86 70.1004V71.1673L87.5179 71.777L87.6696 72.0818V73.7584V73.987L87.2143 74.5204L87.3661 74.9777L87.2143 75.4349L87.6696 75.7398V76.6543L87.3661 77.4164L87.6696 78.4833L89.0357 79.855L90.5536 80.0074L93.2857 79.5502L98.1429 78.7881L99.6607 78.4833L101.634 82.7509L103.607 89L111.955 85.4944L114.536 82.7509L112.562 80.4647L110.741 76.9591L110.438 75.4349L115.5 71L116.661 68.2714V65.6803H118.027L119.545 64.1561L120 62.3271L119.545 61.4126L118.027 60.1933L116.661 59.5836L118.634 58.6691L120 57.145V54.8587L118.634 52.7249L117.571 51.0483H114.688L112.411 51.8104V49.829L111.5 48.7621L108.768 48L106.795 48.7621L105.58 49.829H99.9643L95.4107 51.0483L93.1339 52.7249L91.1607 54.8587L90.7054 57.145L89.7946 59.5836L89.3393 61.4126L88.7321 62.3271L88.125 63.5465L88.7321 64.6134Z" fill="#E59C00"/>
</svg>
