<svg width="150" height="100" viewBox="0 0 150 100" fill="none" xmlns="http://www.w3.org/2000/svg">
<rect x="57" y="55" width="65" height="19" rx="2" fill="#E0E0E0"/>
<path fill-rule="evenodd" clip-rule="evenodd" d="M60 22C58.8954 22 58 22.8954 58 24L57 60L60.5634 61.5837C61.1514 61.8451 61.5778 62.3734 61.709 63.0034L64 74H115L117.291 63.0034C117.422 62.3734 117.849 61.8451 118.437 61.5837L122 60L121 24C121 22.8954 120.105 22 119 22H60Z" fill="#C31018"/>
<path d="M121 24L122 60L118.437 61.5837C117.849 61.8451 117.422 62.3734 117.291 63.0034L115 74H89.5V24C89.5 22.8954 90.3954 22 91.5 22H119C120.105 22 121 22.8954 121 24Z" fill="#A80000"/>
<rect x="57" y="75" width="65" height="12" rx="2" fill="#E0E0E0"/>
<path d="M122 85V77C122 75.8954 121.105 75 120 75H89.5V87H120C121.105 87 122 86.1046 122 85Z" fill="#CBCBCB"/>
<rect x="58" y="87" width="62" height="3" rx="1.5" fill="black"/>
<rect x="58" y="74" width="62" height="1" rx="0.5" fill="black"/>
<path d="M111 84C111 83.4477 111.448 83 112 83H121V84.095C121 84.6088 120.611 85.0389 120.1 85.09L112.1 85.89C111.511 85.9489 111 85.4866 111 84.895V84Z" fill="#ABABAB"/>
<path d="M68 84C68 83.4477 67.5523 83 67 83H58V84.095C58 84.6088 58.3893 85.0389 58.9005 85.09L66.9005 85.89C67.4892 85.9489 68 85.4866 68 84.895V84Z" fill="#C4C4C4"/>
<path d="M60 90H70V98C70 99.1046 69.1046 100 68 100H62C60.8954 100 60 99.1046 60 98V90Z" fill="black"/>
<path d="M108 90H118V98C118 99.1046 117.105 100 116 100H110C108.895 100 108 99.1046 108 98V90Z" fill="black"/>
<path d="M77 82H101L99.5528 84.8944C99.214 85.572 98.5215 86 97.7639 86H80.2361C79.4785 86 78.786 85.572 78.4472 84.8944L77 82Z" fill="#262627"/>
<rect x="81.25" y="77.25" width="16.5" height="3.5" rx="0.75" stroke="black" stroke-width="0.5"/>
<path d="M69.2143 61.1789C69.1027 60.565 69.5743 60 70.1982 60H107.802C108.426 60 108.897 60.565 108.786 61.1789L107.299 69.3578C107.126 70.3088 106.297 71 105.331 71H72.6692C71.7026 71 70.8743 70.3088 70.7014 69.3578L69.2143 61.1789Z" fill="black"/>
<path d="M57.9512 23.95C57.9784 22.8653 58.8655 22 59.9506 22H119.049C120.134 22 121.022 22.8653 121.049 23.95L121.5 42H57.5L57.9512 23.95Z" fill="#262627"/>
<path d="M90 24C90 22.8954 90.8954 22 92 22H119.049C120.134 22 121.022 22.8653 121.049 23.95L121.5 42H90V24Z" fill="black"/>
<path d="M61.11 33.0995C61.0511 32.5108 61.5134 32 62.105 32H116.895C117.487 32 117.949 32.5108 117.89 33.0995L116.27 49.2985C116.117 50.8321 114.826 52 113.285 52H65.715C64.1737 52 62.8832 50.8321 62.7299 49.2985L61.11 33.0995Z" fill="#90C2E0"/>
<path d="M116.27 49.2985L117.89 33.0995C117.949 32.5108 117.487 32 116.895 32H89.5V52H113.285C114.826 52 116.117 50.8321 116.27 49.2985Z" fill="#7EB0CE"/>
<circle cx="88.5" cy="20.5" r="1.5" fill="#C4C4C4"/>
<circle cx="85.5" cy="20.5" r="1.5" fill="#C4C4C4"/>
<circle cx="91.5" cy="20.5" r="1.5" fill="#C4C4C4"/>
<circle cx="94.5" cy="20.5" r="1.5" fill="#C4C4C4"/>
<rect x="49" y="32" width="5" height="12" rx="2" fill="#262627"/>
<path d="M51.5 32L52 29.5H58" stroke="#262627" stroke-linecap="square" stroke-linejoin="round"/>
<rect width="5" height="12" rx="2" transform="matrix(-1 0 0 1 130 32.5)" fill="black"/>
<path d="M127.5 32.5L127 30H121" stroke="black" stroke-linecap="square" stroke-linejoin="round"/>
<path d="M68 79C68 77.8954 67.1046 77 66 77H59C58.4477 77 58 77.4477 58 78V81C58 81.5523 58.4477 82 59 82H67C67.5523 82 68 81.5523 68 81V79Z" fill="#F7D100"/>
<path d="M68 79C68 77.8954 67.1046 77 66 77H59C58.4477 77 58 77.4477 58 78V81C58 81.5523 58.4477 82 59 82H67C67.5523 82 68 81.5523 68 81V79Z" fill="#F7D100"/>
<circle cx="61" cy="79" r="2" fill="#E3BD01"/>
<circle cx="64.5" cy="79.5" r="1.5" fill="#E3BD01"/>
<path d="M111 79C111 77.8954 111.895 77 113 77H120C120.552 77 121 77.4477 121 78V81C121 81.5523 120.552 82 120 82H112C111.448 82 111 81.5523 111 81V79Z" fill="#F7D100"/>
<path d="M111 79C111 77.8954 111.895 77 113 77H120C120.552 77 121 77.4477 121 78V81C121 81.5523 120.552 82 120 82H112C111.448 82 111 81.5523 111 81V79Z" fill="#F7D100"/>
<circle r="2" transform="matrix(-1 0 0 1 118 79)" fill="#E3BD01"/>
<circle r="1.5" transform="matrix(-1 0 0 1 114.5 79.5)" fill="#E3BD01"/>
</svg>
