<svg width="150" height="100" viewBox="0 0 150 100" fill="none" xmlns="http://www.w3.org/2000/svg">
<ellipse cx="124" cy="68" rx="2" ry="8" fill="#E59C00"/>
<rect x="63" y="54" width="45" height="27" rx="1" fill="#1F3347"/>
<path d="M95.7095 54.2802C95.8959 54.1004 96.1447 54 96.4036 54H107C107.552 54 108 54.4477 108 55V80C108 80.5523 107.552 81 107 81H70.4777C69.578 81 69.1359 79.9047 69.7835 79.2802L95.7095 54.2802Z" fill="#102438"/>
<rect x="108" y="61" width="8" height="14" rx="2" fill="#1F3347"/>
<path d="M113.813 61.8742C113.922 61.3643 114.373 61 114.894 61C115.505 61 116 61.4951 116 62.1059V73C116 74.1046 115.105 75 114 75H113.474C112.201 75 111.252 73.826 111.518 72.5809L113.813 61.8742Z" fill="#102438"/>
<path d="M116 61.5542C116 61.2095 116.178 60.889 116.47 60.7062L122.47 56.9562C123.136 56.54 124 57.0188 124 57.8042V78.1958C124 78.9812 123.136 79.46 122.47 79.0438L116.47 75.2938C116.178 75.111 116 74.7905 116 74.4458V61.5542Z" fill="#1F3347"/>
<path d="M75 81H96V85C96 86.1046 95.1046 87 94 87H77C75.8954 87 75 86.1046 75 85V81Z" fill="#102438"/>
<path d="M88 87H92L100 100H96L88 87Z" fill="#262627"/>
<path d="M83 87H79L71 100H75L83 87Z" fill="#262627"/>
<rect x="84" y="87" width="3" height="13" fill="black"/>
<rect x="69" y="52" width="31" height="2" fill="#1F3347"/>
<rect x="69" y="52" width="31" height="2" fill="#1F3347"/>
<rect x="69" y="52" width="31" height="2" fill="#1F3347"/>
<rect x="69" y="52" width="31" height="2" fill="#102438"/>
<rect x="67" y="41" width="35" height="11" fill="#1F3347"/>
<rect x="67" y="41" width="35" height="11" fill="#1F3347"/>
<rect x="67" y="41" width="35" height="11" fill="#1F3347"/>
<rect x="67" y="41" width="35" height="11" fill="#1F3347"/>
<circle cx="69" cy="37" r="13" fill="#262627" stroke="#E59C00" stroke-width="2"/>
<circle cx="98.5" cy="33.5" r="16.5" fill="#262627" stroke="#E59C00" stroke-width="2"/>
<path d="M60.5146 28.5147C55.8283 33.201 55.8283 40.799 60.5146 45.4853L77.4851 28.5147C72.7988 23.8284 65.2009 23.8284 60.5146 28.5147Z" fill="black"/>
<path d="M87.5397 22.5398C81.4866 28.593 81.4866 38.407 87.5397 44.4602L109.46 22.5398C103.407 16.4867 93.5929 16.4867 87.5397 22.5398Z" fill="black"/>
</svg>
