<svg width="150" height="100" viewBox="0 0 150 100" fill="none" xmlns="http://www.w3.org/2000/svg">
<rect x="103" y="29" width="9" height="5" fill="black"/>
<rect x="58" y="32" width="60" height="68" fill="#262627"/>
<rect x="63" y="36" width="23" height="23" fill="#F4728C"/>
<path d="M63 36V59L86 36H63Z" fill="#E5637D"/>
<rect x="63" y="63" width="23" height="23" fill="#FEC1C0"/>
<rect x="90" y="36" width="23" height="23" fill="#FBD7D1"/>
<rect x="90" y="63" width="23" height="23" fill="#FC9B95"/>
<rect x="63" y="90" width="50" height="6" fill="black"/>
<path d="M104 92L109.02 91.2828C110.065 91.1336 111 91.9444 111 93C111 94.0556 110.065 94.8664 109.02 94.7172L104 94V92Z" fill="white"/>
<path d="M72 92L66.9799 91.2828C65.9349 91.1336 65 91.9444 65 93C65 94.0556 65.9349 94.8664 66.9799 94.7172L72 94V92Z" fill="white"/>
<path d="M72 92H104V94H72V92Z" fill="#F2F2F2"/>
<path d="M90 36V59L113 36H90Z" fill="#ECC8C2"/>
<path d="M90 36V59L113 36H90Z" fill="#ECC8C2"/>
<path d="M90 63V86L113 63H90Z" fill="#E78680"/>
<path d="M63 63V86L86 63H63Z" fill="#EDB0AE"/>
<path d="M107 86H132V99C132 99.5523 131.552 100 131 100H108C107.448 100 107 99.5523 107 99V86Z" fill="#084A74"/>
<path d="M120 86H132V100H120V86Z" fill="#1F3347"/>
<path d="M101.099 21.0905C101.046 20.5049 101.507 20 102.095 20H136.905C137.493 20 137.954 20.5049 137.901 21.0905L132 86H107L101.099 21.0905Z" fill="white"/>
<path d="M120 20H136.905C137.493 20 137.954 20.5049 137.901 21.0905L132 86H120V20Z" fill="#F2F2F2"/>
<path d="M115 95H125L124.553 95.8944C124.214 96.572 123.521 97 122.764 97H117.236C116.479 97 115.786 96.572 115.447 95.8944L115 95Z" fill="#001125"/>
<rect x="101" y="20" width="37" height="3" fill="#D8D8D8"/>
</svg>
