<svg width="551" height="291" viewBox="0 0 551 291" fill="none" xmlns="http://www.w3.org/2000/svg">
<g clip-path="url(#clip0)">
<g clip-path="url(#clip1)">
<path d="M501.391 87.7764H312.251C310.431 87.7764 308.956 89.2517 308.956 91.0716V207.06C308.956 208.88 310.431 210.355 312.251 210.355H501.391C503.211 210.355 504.686 208.88 504.686 207.06V91.0716C504.686 89.2517 503.211 87.7764 501.391 87.7764Z" fill="url(#paint0_linear)"/>
<path fill-rule="evenodd" clip-rule="evenodd" d="M492.824 91.7306H312.58C311.671 91.7306 310.933 92.4682 310.933 93.3781V202.447H412.091L492.824 91.7306Z" fill="#202020"/>
<path d="M500.732 202.447V93.4339C500.732 92.4932 499.885 91.7306 498.841 91.7306H413.741V202.447H500.732Z" fill="#0C0C0C"/>
<path d="M421.649 210.355H390.016V222.217H421.649V210.355Z" fill="black"/>
<path d="M366.291 223.865C366.291 222.955 367.028 222.218 367.938 222.218H443.726C444.636 222.218 445.374 222.955 445.374 223.865V226.172H366.291V223.865Z" fill="black"/>
</g>
<g clip-path="url(#clip2)">
<path d="M190.795 146.269H85.3398C85.3398 146.269 75.0718 146.269 75.0718 163.498C75.0718 178.195 82.5424 181.104 84.739 181.642L190.669 181.757C191.503 181.757 192.18 181.066 192.18 180.214C192.18 179.361 191.503 178.671 190.669 178.671L86.2813 178.557C84.3114 178.065 78.0612 175.551 78.0612 163.456C78.0612 149.098 86.8685 149.098 86.8685 149.098H190.795C191.56 149.098 192.18 148.465 192.18 147.684C192.18 146.902 191.56 146.269 190.795 146.269Z" fill="#E59C00"/>
<path d="M190.405 149.818H87.5232C87.5232 149.818 78.6204 149.818 78.6204 163.601C78.6204 177.385 87.5232 178.208 87.5232 178.208H190.405C190.405 178.208 181.502 177.385 181.502 163.601C181.502 149.818 190.405 149.818 190.405 149.818Z" fill="#FBF9ED"/>
<path d="M192.915 148.961H86.7637C86.7637 148.961 77.5779 148.961 77.5779 163.302C77.5779 177.643 86.7637 178.499 86.7637 178.499H192.915C192.915 178.499 183.729 177.643 183.729 163.302C183.729 148.961 192.915 148.961 192.915 148.961Z" fill="#FBF9ED"/>
<path d="M77.5779 163.73C77.5779 177.667 86.7637 178.499 86.7637 178.499H192.915C192.915 178.499 183.729 177.667 183.729 163.73H77.5779Z" fill="#EDEBDF"/>
<path d="M71.149 117.886H171.152C171.152 117.886 181.533 117.133 181.533 131.701C181.533 146.269 173.98 145.632 171.759 146.157L71.2764 146.269C70.4326 146.269 69.7485 145.594 69.7485 144.762C69.7485 143.93 70.4326 143.255 71.2764 143.255L170.2 143.144C172.191 142.664 178.274 142.669 178.256 131.659C178.239 120.649 169.606 120.649 169.606 120.649H71.149C70.3756 120.649 69.7485 120.031 69.7485 119.268C69.7485 118.505 70.3756 117.886 71.149 117.886Z" fill="#0A407A"/>
<path d="M73.2971 121.428H170.746C170.746 121.428 179.759 121.428 179.759 131.798C179.759 142.169 170.746 142.721 170.746 142.721H73.2971C73.2971 142.721 82.3098 142.169 82.3098 131.798C82.3098 121.428 73.2971 121.428 73.2971 121.428Z" fill="#FBF9ED"/>
<path d="M73.3586 120.83H175.069C175.069 120.83 184.476 120.83 184.476 131.791C184.476 142.752 175.069 143.335 175.069 143.335H73.3586C73.3586 143.335 82.7655 142.752 82.7655 131.791C82.7655 120.83 73.3586 120.83 73.3586 120.83Z" fill="#FBF9ED"/>
<path d="M170.79 142.72C170.79 142.72 179.759 142.951 179.759 132.074H82.7793C82.7793 142.287 74.4189 142.707 73.3988 142.72H73.2971C73.2971 142.72 73.3324 142.721 73.3988 142.72H170.79Z" fill="#EDEBDF"/>
<path d="M194.828 181.32H80.3229C80.3229 181.32 68.4355 180.461 68.4355 197.062C68.4355 213.663 77.0842 212.936 79.6274 213.535L194.682 213.663C195.648 213.663 196.432 212.894 196.432 211.945C196.432 210.997 195.648 210.228 194.682 210.228L81.4129 210.102C79.1323 209.554 72.1677 209.56 72.188 197.014C72.2081 184.468 82.0927 184.468 82.0927 184.468H194.828C195.714 184.468 196.432 183.763 196.432 182.894C196.432 182.025 195.714 181.32 194.828 181.32Z" fill="#0A407A"/>
<path d="M192.915 184.931L81.6155 184.125C81.6155 184.125 70.7823 184.931 72.056 196.819C71.1868 210.045 81.6155 210.146 81.6155 210.146L192.915 209.34C192.915 209.34 182.547 208.707 182.547 196.819C182.547 184.931 192.915 184.931 192.915 184.931Z" fill="#FBF9ED"/>
<path d="M200.651 184.829H84.1344C84.1344 184.829 73.3583 184.829 73.3583 197.159C73.3583 209.49 84.1344 210.146 84.1344 210.146H200.651C200.651 210.146 189.875 209.49 189.875 197.159C189.875 184.829 200.651 184.829 200.651 184.829Z" fill="#FBF9ED"/>
<path d="M82.1014 210.146C82.1014 210.146 72.6549 209.619 72.6549 197.487H183.485C183.485 208.879 193.04 209.347 194.205 209.362H194.322C194.322 209.362 194.281 209.363 194.205 209.362L82.1014 210.146Z" fill="#EDEBDF"/>
<path d="M194.283 87.7224H91.1061C91.1061 87.7224 80.3948 86.9217 80.3948 102.401C80.3948 117.88 88.1878 117.202 90.4796 117.76L194.152 117.88C195.023 117.88 195.728 117.163 195.728 116.278C195.728 115.394 195.023 114.677 194.152 114.677L92.0884 114.559C90.0333 114.049 83.7577 114.054 83.776 102.356C83.7941 90.658 92.7009 90.658 92.7009 90.658H194.283C195.082 90.658 195.728 90.0009 195.728 89.1902C195.728 88.3795 195.082 87.7224 194.283 87.7224Z" fill="#C31018"/>
<path d="M192.18 91.264H93.1064C93.1064 91.264 83.9436 91.264 83.9436 102.498C83.9436 113.733 93.1064 114.331 93.1064 114.331H192.18C192.18 114.331 183.017 113.733 183.017 102.498C183.017 91.264 192.18 91.264 192.18 91.264Z" fill="#FBF9ED"/>
<path d="M195.025 90.5897H92.6706C92.6706 90.5897 83.2043 90.5897 83.2043 102.235C83.2043 113.881 92.6706 114.501 92.6706 114.501H195.025C195.025 114.501 185.559 113.881 185.559 102.235C185.559 90.5897 195.025 90.5897 195.025 90.5897Z" fill="#FBF9ED"/>
<path d="M93.0622 114.33C93.0622 114.33 83.9436 114.599 83.9436 101.91H182.54C182.54 113.825 191.039 114.315 192.077 114.33H192.18C192.18 114.33 192.144 114.331 192.077 114.33H93.0622Z" fill="#EDEBDF"/>
</g>
<g clip-path="url(#clip3)">
<path d="M175.333 40.657C175.333 48.8136 181.946 55.4258 190.102 55.4258V25.8882C181.946 25.8882 175.333 32.5004 175.333 40.657Z" fill="#F2F2F2"/>
<path d="M223.859 40.657C223.859 48.8136 230.472 55.4258 238.628 55.4258V25.8882C230.472 25.8882 223.859 32.5004 223.859 40.657Z" fill="#F2F2F2"/>
<path d="M238.628 54.3709C231.054 54.3709 224.914 48.231 224.914 40.657C224.914 33.083 231.054 26.9431 238.628 26.9431C246.202 26.9431 252.342 33.083 252.342 40.657C252.342 48.231 246.202 54.3709 238.628 54.3709Z" stroke="black" stroke-width="2.10983"/>
<path d="M238.628 44.1734C236.686 44.1734 235.112 42.599 235.112 40.657C235.112 38.715 236.686 37.1406 238.628 37.1406C240.57 37.1406 242.145 38.715 242.145 40.657C242.145 42.599 240.57 44.1734 238.628 44.1734Z" fill="#C4C4C4"/>
<path d="M190.102 44.1734C188.16 44.1734 186.586 42.599 186.586 40.657C186.586 38.715 188.16 37.1406 190.102 37.1406C192.044 37.1406 193.618 38.715 193.618 40.657C193.618 42.599 192.044 44.1734 190.102 44.1734Z" fill="#C4C4C4"/>
<path d="M190.102 54.3709C182.528 54.3709 176.388 48.231 176.388 40.657C176.388 33.083 182.528 26.9431 190.102 26.9431C197.676 26.9431 203.816 33.083 203.816 40.657C203.816 48.231 197.676 54.3709 190.102 54.3709Z" stroke="black" stroke-width="2.10983"/>
<path d="M236.489 38.1967L219.611 39.6033" stroke="black" stroke-width="0.703276"/>
<path d="M238.628 48.0413H219.64" stroke="black" stroke-width="0.703276"/>
<path d="M236.014 43.5184L239.055 47.8539C239.167 48.0128 239.128 48.2321 238.969 48.3437C238.81 48.4552 238.591 48.4167 238.479 48.2577L235.438 43.9223C235.326 43.7633 235.365 43.544 235.524 43.4325C235.683 43.3209 235.902 43.3594 236.014 43.5184Z" fill="#C4C4C4"/>
<path d="M237.181 38.7363L240.656 42.7325C240.783 42.8791 240.768 43.1012 240.621 43.2286C240.475 43.356 240.252 43.3406 240.125 43.194L236.65 39.1978C236.522 39.0512 236.538 38.8291 236.684 38.7017C236.831 38.5742 237.053 38.5897 237.181 38.7363Z" fill="#0F62BD"/>
<path d="M226.731 15.339L228.079 15.7409L226.49 21.0697L225.142 20.6677L226.731 15.339Z" fill="#C4C4C4"/>
<path d="M199.505 14.4329C199.646 14.0711 200.054 13.8921 200.416 14.0332C200.778 14.1743 200.957 14.5821 200.816 14.9439L199.787 17.5819C199.646 17.9438 199.238 18.1228 198.876 17.9817C198.514 17.8406 198.335 17.4328 198.476 17.071L199.505 14.4329Z" fill="#C4C4C4"/>
<path d="M200.097 13.9032C200.459 14.0424 200.64 14.4492 200.501 14.8118C200.362 15.1744 199.955 15.3555 199.593 15.2164L196.949 14.2016C196.587 14.0624 196.406 13.6557 196.545 13.293C196.684 12.9304 197.091 12.7493 197.453 12.8885L200.097 13.9032Z" fill="#C4C4C4"/>
<path d="M197.935 17.0181L223.492 24.8315L222.875 26.8492L197.318 19.0357L197.935 17.0181Z" fill="#0F62BD"/>
<path d="M197.615 18.0646L223.172 25.8781L222.875 26.8492L197.318 19.0357L197.615 18.0646Z" fill="#004AA5"/>
<path d="M225.629 23.6293L239.042 39.9448C239.294 40.251 239.249 40.7032 238.943 40.9549C238.637 41.2065 238.185 41.1624 237.933 40.8562L224.521 24.5408C224.269 24.2346 224.313 23.7824 224.619 23.5307C224.925 23.279 225.378 23.3232 225.629 23.6293Z" fill="#0F62BD"/>
<path d="M224.861 23.8047L237.556 39.2467C237.684 39.4025 237.661 39.6327 237.505 39.7608L237.505 39.7608C237.35 39.889 237.119 39.8665 236.991 39.7106L224.297 24.2686C224.169 24.1128 224.191 23.8826 224.347 23.7545C224.503 23.6264 224.733 23.6489 224.861 23.8047Z" fill="#004AA5"/>
<path d="M218.58 43.3159L238.397 39.6307C238.787 39.5582 239.162 39.8154 239.234 40.205C239.306 40.5947 239.049 40.9693 238.66 41.0417L218.842 44.7269C218.453 44.7994 218.078 44.5422 218.005 44.1526C217.933 43.7629 218.19 43.3883 218.58 43.3159Z" fill="#0F62BD"/>
<path d="M198.802 19.0919L219.554 41.8663L217.387 43.8416L196.634 21.0672L198.802 19.0919Z" fill="#0F62BD"/>
<path d="M197.71 20.0864L218.463 42.8609L217.387 43.8416L196.634 21.0671L197.71 20.0864Z" fill="#004AA5"/>
<path d="M217.183 43.2508L224.856 19.1237C224.974 18.7536 225.37 18.549 225.74 18.6667L226.834 19.0146C227.204 19.1323 227.408 19.5278 227.291 19.8979L219.617 44.025C219.5 44.3951 219.104 44.5998 218.734 44.4821L217.64 44.1342C217.27 44.0164 217.065 43.621 217.183 43.2508Z" fill="#0F62BD"/>
<path d="M199.064 16.0815C198.701 15.9423 198.294 16.1234 198.155 16.486L189.158 39.9244C188.905 40.5829 189.234 41.3217 189.893 41.5744C190.551 41.8273 191.29 41.4984 191.543 40.8398L200.54 17.4015C200.679 17.0388 200.498 16.6321 200.135 16.4929L199.064 16.0815Z" fill="#0F62BD"/>
<path d="M218.585 47.6896C216.837 47.6896 215.42 46.2727 215.42 44.5249C215.42 42.7771 216.837 41.3602 218.585 41.3602C220.332 41.3602 221.749 42.7771 221.749 44.5249C221.749 46.2727 220.332 47.6896 218.585 47.6896Z" fill="#F2F2F2" stroke="#AAAAAB" stroke-width="1.40655"/>
<path d="M231.595 15.339C231.595 14.5789 230.95 13.9785 230.192 14.0326L222.451 14.5856C222.055 14.6138 221.749 14.9427 221.749 15.339C221.749 15.7352 222.055 16.0641 222.451 16.0923L230.192 16.6453C230.95 16.6995 231.595 16.099 231.595 15.339Z" fill="#1B1B1C"/>
<path d="M235.981 42.9831L240.504 42.1856C240.887 42.1182 241.251 42.3736 241.319 42.7561C241.386 43.1386 241.131 43.5033 240.748 43.5708L236.226 44.3683C235.843 44.4357 235.478 44.1803 235.411 43.7978C235.343 43.4153 235.599 43.0505 235.981 42.9831Z" fill="#0F62BD"/>
<path d="M219.323 44.2386L221.097 50.0885C221.21 50.4602 221 50.8529 220.628 50.9656C220.257 51.0784 219.864 50.8684 219.751 50.4967L217.977 44.6469C217.864 44.2752 218.074 43.8825 218.446 43.7697C218.817 43.657 219.21 43.8669 219.323 44.2386Z" fill="#C4C4C4"/>
<path d="M218.937 49.7995H221.75C222.138 49.7995 222.453 50.1144 222.453 50.5028C222.453 50.8912 222.138 51.2061 221.75 51.2061H218.937C218.548 51.2061 218.233 50.8912 218.233 50.5028C218.233 50.1144 218.548 49.7995 218.937 49.7995Z" fill="#1B1B1C"/>
<path d="M197.135 14.6358C196.358 14.6358 195.728 14.0061 195.728 13.2292C195.728 12.4524 196.358 11.8227 197.135 11.8227C197.912 11.8227 198.542 12.4524 198.542 13.2292C198.542 14.0061 197.912 14.6358 197.135 14.6358Z" fill="#262627"/>
</g>
<g clip-path="url(#clip4)">
<path d="M486.618 183.994C486.37 178.922 490.024 174.497 495.071 173.935C500.921 173.283 508.559 172.585 514.464 172.585C520.369 172.585 528.008 173.283 533.857 173.935C538.904 174.497 542.558 178.922 542.311 183.994L540.288 225.462H488.64L486.618 183.994Z" fill="#C31018"/>
<path d="M540.288 225.462L542.305 184.105C542.555 178.987 538.833 174.534 533.752 173.871L528.606 173.2L514.464 172.585V225.462H540.288Z" fill="#900202"/>
<path d="M514.464 211.935C500.202 211.935 488.64 219.093 488.64 227.922H540.288C540.288 219.093 528.726 211.935 514.464 211.935Z" fill="#AC0001"/>
<path d="M540.288 227.922C540.288 219.093 528.726 211.935 514.464 211.935V227.922H540.288Z" fill="#7E0404"/>
<path d="M491.1 213.165H487.411V248.827H491.1V213.165Z" fill="#262627"/>
<path d="M541.518 213.165H537.829V248.827H541.518V213.165Z" fill="#262627"/>
<path d="M489.255 218.084C490.953 218.084 492.33 216.708 492.33 215.01C492.33 213.312 490.953 211.935 489.255 211.935C487.558 211.935 486.181 213.312 486.181 215.01C486.181 216.708 487.558 218.084 489.255 218.084Z" fill="#1B1B1C"/>
<path d="M489.255 218.084C490.953 218.084 492.33 216.708 492.33 215.01C492.33 213.312 490.953 211.935 489.255 211.935C487.558 211.935 486.181 213.312 486.181 215.01C486.181 216.708 487.558 218.084 489.255 218.084Z" fill="#1B1B1C"/>
<path d="M489.255 218.084C490.953 218.084 492.33 216.708 492.33 215.01C492.33 213.312 490.953 211.935 489.255 211.935C487.558 211.935 486.181 213.312 486.181 215.01C486.181 216.708 487.558 218.084 489.255 218.084Z" fill="#1B1B1C"/>
<path d="M489.255 218.084C490.953 218.084 492.33 216.708 492.33 215.01C492.33 213.312 490.953 211.935 489.255 211.935C487.558 211.935 486.181 213.312 486.181 215.01C486.181 216.708 487.558 218.084 489.255 218.084Z" fill="#1B1B1C"/>
<path d="M539.673 218.084C541.371 218.084 542.747 216.708 542.747 215.01C542.747 213.312 541.371 211.935 539.673 211.935C537.975 211.935 536.599 213.312 536.599 215.01C536.599 216.708 537.975 218.084 539.673 218.084Z" fill="#1B1B1C"/>
<path d="M539.673 218.084C541.371 218.084 542.747 216.708 542.747 215.01C542.747 213.312 541.371 211.935 539.673 211.935C537.975 211.935 536.599 213.312 536.599 215.01C536.599 216.708 537.975 218.084 539.673 218.084Z" fill="#1B1B1C"/>
<path d="M539.673 218.084C541.371 218.084 542.747 216.708 542.747 215.01C542.747 213.312 541.371 211.935 539.673 211.935C537.975 211.935 536.599 213.312 536.599 215.01C536.599 216.708 537.975 218.084 539.673 218.084Z" fill="#1B1B1C"/>
<path d="M539.673 218.084C541.371 218.084 542.747 216.708 542.747 215.01C542.747 213.312 541.371 211.935 539.673 211.935C537.975 211.935 536.599 213.312 536.599 215.01C536.599 216.708 537.975 218.084 539.673 218.084Z" fill="#1B1B1C"/>
<path d="M514.464 225.462H491.1V236.53H514.464V225.462Z" fill="#C31018"/>
<path d="M514.464 225.462H537.828V236.53H514.464V225.462Z" fill="#900202"/>
<g clip-path="url(#clip5)">
<path d="M533.392 210.977C534.686 210.506 534.765 207.459 533.569 204.171C532.372 200.883 530.352 198.599 529.058 199.071C527.764 199.542 527.684 202.589 528.881 205.877C530.078 209.165 532.097 211.448 533.392 210.977Z" fill="#452D23"/>
<path d="M509.998 210.977C508.703 210.506 508.624 207.459 509.82 204.171C511.017 200.883 513.037 198.599 514.331 199.071C515.626 199.542 515.705 202.589 514.508 205.877C513.312 209.165 511.292 211.448 509.998 210.977Z" fill="#573F35"/>
<path d="M531.048 207.473C531.048 200.556 527.025 194.948 522.062 194.948C517.099 194.948 513.076 200.556 513.076 207.473C513.076 214.391 517.099 219.999 522.062 219.999C527.025 219.999 531.048 214.391 531.048 207.473Z" fill="#5E463C"/>
<path d="M531.048 207.473C531.048 200.556 526.903 194.948 521.79 194.948V219.999C526.903 219.999 531.048 214.391 531.048 207.473Z" fill="#553D33"/>
<path d="M513.349 188.958C515.304 188.958 516.888 187.495 516.888 185.69C516.888 183.886 515.304 182.423 513.349 182.423C511.394 182.423 509.809 183.886 509.809 185.69C509.809 187.495 511.394 188.958 513.349 188.958Z" fill="#865942"/>
<path d="M529.686 188.958C531.641 188.958 533.226 187.495 533.226 185.69C533.226 183.886 531.641 182.423 529.686 182.423C527.731 182.423 526.146 183.886 526.146 185.69C526.146 187.495 527.731 188.958 529.686 188.958Z" fill="#865942"/>
<path d="M529.414 187.868C530.617 187.868 531.592 187.015 531.592 185.962C531.592 184.91 530.617 184.056 529.414 184.056C528.211 184.056 527.236 184.91 527.236 185.962C527.236 187.015 528.211 187.868 529.414 187.868Z" fill="#A0735C"/>
<path d="M529.414 187.868C530.617 187.868 531.592 187.015 531.592 185.962C531.592 184.91 530.617 184.056 529.414 184.056C528.211 184.056 527.236 184.91 527.236 185.962C527.236 187.015 528.211 187.868 529.414 187.868Z" fill="#A0735C"/>
<path d="M529.414 187.868C530.617 187.868 531.592 187.015 531.592 185.962C531.592 184.91 530.617 184.056 529.414 184.056C528.211 184.056 527.236 184.91 527.236 185.962C527.236 187.015 528.211 187.868 529.414 187.868Z" fill="#A0735C"/>
<path d="M529.414 187.868C530.617 187.868 531.592 187.015 531.592 185.962C531.592 184.91 530.617 184.056 529.414 184.056C528.211 184.056 527.236 184.91 527.236 185.962C527.236 187.015 528.211 187.868 529.414 187.868Z" fill="#A0735C"/>
<path d="M513.621 187.868C514.824 187.868 515.8 187.015 515.8 185.962C515.8 184.91 514.824 184.056 513.621 184.056C512.418 184.056 511.443 184.91 511.443 185.962C511.443 187.015 512.418 187.868 513.621 187.868Z" fill="#A0735C"/>
<path d="M513.621 187.868C514.824 187.868 515.8 187.015 515.8 185.962C515.8 184.91 514.824 184.056 513.621 184.056C512.418 184.056 511.443 184.91 511.443 185.962C511.443 187.015 512.418 187.868 513.621 187.868Z" fill="#A0735C"/>
<path d="M513.621 187.868C514.824 187.868 515.8 187.015 515.8 185.962C515.8 184.91 514.824 184.056 513.621 184.056C512.418 184.056 511.443 184.91 511.443 185.962C511.443 187.015 512.418 187.868 513.621 187.868Z" fill="#A0735C"/>
<path d="M513.621 187.868C514.824 187.868 515.8 187.015 515.8 185.962C515.8 184.91 514.824 184.056 513.621 184.056C512.418 184.056 511.443 184.91 511.443 185.962C511.443 187.015 512.418 187.868 513.621 187.868Z" fill="#A0735C"/>
<path d="M521.79 200.394C527.204 200.394 531.592 196.371 531.592 191.408C531.592 186.446 527.204 182.423 521.79 182.423C516.376 182.423 511.987 186.446 511.987 191.408C511.987 196.371 516.376 200.394 521.79 200.394Z" fill="url(#paint1_linear)"/>
<path d="M521.79 199.305C524.196 199.305 526.146 197.476 526.146 195.22C526.146 192.965 524.196 191.136 521.79 191.136C519.384 191.136 517.433 192.965 517.433 195.22C517.433 197.476 519.384 199.305 521.79 199.305Z" fill="#A1745D"/>
<path d="M521.79 199.305C524.196 199.305 526.146 197.476 526.146 195.22C526.146 192.965 524.196 191.136 521.79 191.136V199.305Z" fill="#946750"/>
<path d="M515.081 211.625C517.988 211.086 519.978 213.725 520.339 215.676C520.701 217.627 516.425 219.264 513.519 219.803C510.612 220.342 511.612 219.022 511.25 217.071C510.889 215.12 512.175 212.164 515.081 211.625Z" fill="#573F35"/>
<path d="M528.996 211.625C526.089 211.086 524.099 213.725 523.738 215.676C523.376 217.627 527.652 219.264 530.558 219.803C533.465 220.342 532.465 219.022 532.827 217.071C533.189 215.12 531.902 212.164 528.996 211.625Z" fill="#452D23"/>
<path d="M517.978 214.008C517.978 210.7 515.54 208.018 512.532 208.018C509.524 208.018 507.086 210.7 507.086 214.008C507.086 217.317 509.524 219.999 512.532 219.999C515.54 219.999 517.978 217.317 517.978 214.008Z" fill="#865942"/>
<path d="M525.946 214.008C525.946 210.7 528.384 208.018 531.392 208.018C534.399 208.018 536.837 210.7 536.837 214.008C536.837 217.317 534.399 219.999 531.392 219.999C528.384 219.999 525.946 217.317 525.946 214.008Z" fill="#865942"/>
<path d="M522.879 194.948C522.879 195.249 522.391 196.037 521.79 196.037C521.188 196.037 520.701 195.249 520.701 194.948C520.701 194.647 521.188 194.403 521.79 194.403C522.391 194.403 522.879 194.647 522.879 194.948Z" fill="#262627"/>
<path d="M526.419 192.77C527.171 192.77 527.78 192.16 527.78 191.408C527.78 190.656 527.171 190.047 526.419 190.047C525.667 190.047 525.057 190.656 525.057 191.408C525.057 192.16 525.667 192.77 526.419 192.77Z" fill="#F2F2F2"/>
<path d="M517.161 192.77C517.913 192.77 518.522 192.16 518.522 191.408C518.522 190.656 517.913 190.047 517.161 190.047C516.409 190.047 515.8 190.656 515.8 191.408C515.8 192.16 516.409 192.77 517.161 192.77Z" fill="#F2F2F2"/>
<path d="M517.161 192.225C517.612 192.225 517.978 191.859 517.978 191.408C517.978 190.957 517.612 190.591 517.161 190.591C516.71 190.591 516.344 190.957 516.344 191.408C516.344 191.859 516.71 192.225 517.161 192.225Z" fill="#262627"/>
<path d="M526.419 192.225C526.87 192.225 527.236 191.859 527.236 191.408C527.236 190.957 526.87 190.591 526.419 190.591C525.968 190.591 525.602 190.957 525.602 191.408C525.602 191.859 525.968 192.225 526.419 192.225Z" fill="#262627"/>
</g>
</g>
<g clip-path="url(#clip6)">
<path d="M440.468 233.053H438.258V236.369H440.468V233.053Z" fill="#5E463C"/>
<path d="M440.468 233.053H438.258V236.369H440.468V233.053Z" fill="#5E463C"/>
<path d="M440.468 233.053H438.258V236.369H440.468V233.053Z" fill="#5E463C"/>
<path d="M440.468 237.474H438.258C437.648 237.474 437.153 237.969 437.153 238.579C437.153 239.189 437.648 239.684 438.258 239.684H440.468C441.079 239.684 441.573 239.189 441.573 238.579C441.573 237.969 441.079 237.474 440.468 237.474Z" fill="#5E463C"/>
<path d="M440.468 237.474H438.258C437.648 237.474 437.153 237.969 437.153 238.579C437.153 239.189 437.648 239.684 438.258 239.684H440.468C441.079 239.684 441.573 239.189 441.573 238.579C441.573 237.969 441.079 237.474 440.468 237.474Z" fill="#5E463C"/>
<path d="M440.468 237.474H438.258C437.648 237.474 437.153 237.969 437.153 238.579C437.153 239.189 437.648 239.684 438.258 239.684H440.468C441.079 239.684 441.573 239.189 441.573 238.579C441.573 237.969 441.079 237.474 440.468 237.474Z" fill="#5E463C"/>
<path d="M439.363 238.579C440.584 238.579 441.573 237.589 441.573 236.368C441.573 235.148 440.584 234.158 439.363 234.158C438.142 234.158 437.153 235.148 437.153 236.368C437.153 237.589 438.142 238.579 439.363 238.579Z" fill="#5E463C"/>
<path d="M439.363 238.579C440.584 238.579 441.573 237.589 441.573 236.368C441.573 235.148 440.584 234.158 439.363 234.158C438.142 234.158 437.153 235.148 437.153 236.368C437.153 237.589 438.142 238.579 439.363 238.579Z" fill="#5E463C"/>
<path d="M439.363 238.579C440.584 238.579 441.573 237.589 441.573 236.368C441.573 235.148 440.584 234.158 439.363 234.158C438.142 234.158 437.153 235.148 437.153 236.368C437.153 237.589 438.142 238.579 439.363 238.579Z" fill="#5E463C"/>
<path d="M439.363 227.527C439.363 227.527 444.336 233.393 439.363 234.158C434.39 233.393 439.363 227.527 439.363 227.527Z" fill="#5E463C"/>
<path d="M439.363 227.527C439.363 227.527 444.336 233.393 439.363 234.158C434.39 233.393 439.363 227.527 439.363 227.527Z" fill="#5E463C"/>
<path d="M439.363 227.527C439.363 227.527 444.336 233.393 439.363 234.158C434.39 233.393 439.363 227.527 439.363 227.527Z" fill="#5E463C"/>
<path d="M396.262 233.053H394.052V236.369H396.262V233.053Z" fill="#5E463C"/>
<path d="M396.262 233.053H394.052V236.369H396.262V233.053Z" fill="#5E463C"/>
<path d="M396.262 233.053H394.052V236.369H396.262V233.053Z" fill="#5E463C"/>
<path d="M396.262 237.474H394.052C393.442 237.474 392.947 237.969 392.947 238.579C392.947 239.189 393.442 239.684 394.052 239.684H396.262C396.873 239.684 397.367 239.189 397.367 238.579C397.367 237.969 396.873 237.474 396.262 237.474Z" fill="#5E463C"/>
<path d="M396.262 237.474H394.052C393.442 237.474 392.947 237.969 392.947 238.579C392.947 239.189 393.442 239.684 394.052 239.684H396.262C396.873 239.684 397.367 239.189 397.367 238.579C397.367 237.969 396.873 237.474 396.262 237.474Z" fill="#5E463C"/>
<path d="M396.262 237.474H394.052C393.442 237.474 392.947 237.969 392.947 238.579C392.947 239.189 393.442 239.684 394.052 239.684H396.262C396.873 239.684 397.367 239.189 397.367 238.579C397.367 237.969 396.873 237.474 396.262 237.474Z" fill="#5E463C"/>
<path d="M395.157 238.579C396.378 238.579 397.367 237.589 397.367 236.368C397.367 235.148 396.378 234.158 395.157 234.158C393.936 234.158 392.947 235.148 392.947 236.368C392.947 237.589 393.936 238.579 395.157 238.579Z" fill="#5E463C"/>
<path d="M395.157 238.579C396.378 238.579 397.367 237.589 397.367 236.368C397.367 235.148 396.378 234.158 395.157 234.158C393.936 234.158 392.947 235.148 392.947 236.368C392.947 237.589 393.936 238.579 395.157 238.579Z" fill="#5E463C"/>
<path d="M395.157 238.579C396.378 238.579 397.367 237.589 397.367 236.368C397.367 235.148 396.378 234.158 395.157 234.158C393.936 234.158 392.947 235.148 392.947 236.368C392.947 237.589 393.936 238.579 395.157 238.579Z" fill="#5E463C"/>
<path d="M395.157 227.527C395.157 227.527 400.13 233.393 395.157 234.158C390.184 233.393 395.157 227.527 395.157 227.527Z" fill="#5E463C"/>
<path d="M395.157 227.527C395.157 227.527 400.13 233.393 395.157 234.158C390.184 233.393 395.157 227.527 395.157 227.527Z" fill="#5E463C"/>
<path d="M395.157 227.527C395.157 227.527 400.13 233.393 395.157 234.158C390.184 233.393 395.157 227.527 395.157 227.527Z" fill="#5E463C"/>
<path d="M441.573 136.905H392.947V231.948H441.573V136.905Z" fill="#D99F5F"/>
<path d="M399.578 231.948H434.943C434.943 235 432.469 237.474 429.417 237.474H405.104C402.052 237.474 399.578 235 399.578 231.948Z" fill="url(#paint2_linear)"/>
<path d="M398.472 239.684C398.472 238.463 399.462 237.474 400.683 237.474H433.837C435.058 237.474 436.047 238.463 436.047 239.684H398.472Z" fill="url(#paint3_linear)"/>
<path d="M387.957 138.957C387.296 138.13 387.885 136.905 388.944 136.905H445.576C446.635 136.905 447.224 138.13 446.562 138.957L445.994 139.668V141.168C445.994 141.866 445.428 142.431 444.731 142.431H389.789C389.092 142.431 388.526 141.866 388.526 141.168V139.668L387.957 138.957Z" fill="#D99F5F"/>
<path d="M417.26 164.534C428.247 164.534 437.153 155.875 437.153 145.194C437.153 134.513 428.247 125.854 417.26 125.854C406.274 125.854 397.368 134.513 397.368 145.194C397.368 155.875 406.274 164.534 417.26 164.534Z" fill="#D99F5F"/>
<path d="M396.262 144.641H438.258V228.633H396.262V144.641Z" fill="#865942"/>
<path d="M399.578 172.27H434.943V223.107H399.578V172.27Z" fill="#5E463C"/>
<path d="M417.26 164.534C426.415 164.534 433.837 157.112 433.837 147.957C433.837 138.802 426.415 131.38 417.26 131.38C408.105 131.38 400.683 138.802 400.683 147.957C400.683 157.112 408.105 164.534 417.26 164.534Z" fill="#865942"/>
<path d="M399.578 146.852H434.943V168.955H399.578V146.852Z" fill="#5E463C"/>
<path d="M432.029 146.852L417.662 168.955H434.942V146.852H432.029Z" fill="#4E362C"/>
<path d="M417.26 164.534C425.195 164.534 431.627 157.854 431.627 149.614C431.627 141.375 425.195 134.695 417.26 134.695C409.326 134.695 402.893 141.375 402.893 149.614C402.893 157.854 409.326 164.534 417.26 164.534Z" fill="#5E463C"/>
<path d="M417.26 222.805L417.617 172.17H434.842V178.499V213.311V222.805H417.26Z" fill="#4E362C"/>
<path d="M417.26 168.323C424.846 168.323 430.996 162.173 430.996 154.588C430.996 147.002 424.846 140.852 417.26 140.852C409.674 140.852 403.525 147.002 403.525 154.588C403.525 162.173 409.674 168.323 417.26 168.323Z" fill="white" stroke="#865942" stroke-width="1.26303"/>
<path d="M417.689 154.702H416.922V162.324H417.689V154.702Z" fill="black"/>
<path d="M416.922 154.667L417.491 155.177L420.576 151.783L420.006 151.272L416.922 154.667Z" fill="black"/>
<path d="M417.306 155.845C417.941 155.845 418.457 155.333 418.457 154.702C418.457 154.071 417.941 153.559 417.306 153.559C416.67 153.559 416.155 154.071 416.155 154.702C416.155 155.333 416.67 155.845 417.306 155.845Z" fill="black"/>
<path d="M396.262 130.274H394.052V133.59H396.262V130.274Z" fill="#5E463C"/>
<path d="M396.262 130.274H394.052V133.59H396.262V130.274Z" fill="#5E463C"/>
<path d="M396.262 130.274H394.052V133.59H396.262V130.274Z" fill="#5E463C"/>
<path d="M396.262 134.695H394.052C393.442 134.695 392.947 135.19 392.947 135.8C392.947 136.411 393.442 136.905 394.052 136.905H396.262C396.873 136.905 397.367 136.411 397.367 135.8C397.367 135.19 396.873 134.695 396.262 134.695Z" fill="#5E463C"/>
<path d="M396.262 134.695H394.052C393.442 134.695 392.947 135.19 392.947 135.8C392.947 136.411 393.442 136.905 394.052 136.905H396.262C396.873 136.905 397.367 136.411 397.367 135.8C397.367 135.19 396.873 134.695 396.262 134.695Z" fill="#5E463C"/>
<path d="M396.262 134.695H394.052C393.442 134.695 392.947 135.19 392.947 135.8C392.947 136.411 393.442 136.905 394.052 136.905H396.262C396.873 136.905 397.367 136.411 397.367 135.8C397.367 135.19 396.873 134.695 396.262 134.695Z" fill="#5E463C"/>
<path d="M395.157 135.8C396.378 135.8 397.367 134.811 397.367 133.59C397.367 132.369 396.378 131.38 395.157 131.38C393.936 131.38 392.947 132.369 392.947 133.59C392.947 134.811 393.936 135.8 395.157 135.8Z" fill="#5E463C"/>
<path d="M395.157 135.8C396.378 135.8 397.367 134.811 397.367 133.59C397.367 132.369 396.378 131.38 395.157 131.38C393.936 131.38 392.947 132.369 392.947 133.59C392.947 134.811 393.936 135.8 395.157 135.8Z" fill="#5E463C"/>
<path d="M395.157 135.8C396.378 135.8 397.367 134.811 397.367 133.59C397.367 132.369 396.378 131.38 395.157 131.38C393.936 131.38 392.947 132.369 392.947 133.59C392.947 134.811 393.936 135.8 395.157 135.8Z" fill="#5E463C"/>
<path d="M395.157 124.749C395.157 124.749 400.13 130.614 395.157 131.38C390.184 130.614 395.157 124.749 395.157 124.749Z" fill="#5E463C"/>
<path d="M395.157 124.749C395.157 124.749 400.13 130.614 395.157 131.38C390.184 130.614 395.157 124.749 395.157 124.749Z" fill="#5E463C"/>
<path d="M395.157 124.749C395.157 124.749 400.13 130.614 395.157 131.38C390.184 130.614 395.157 124.749 395.157 124.749Z" fill="#5E463C"/>
<path d="M440.468 130.274H438.258V133.59H440.468V130.274Z" fill="#5E463C"/>
<path d="M440.468 130.274H438.258V133.59H440.468V130.274Z" fill="#5E463C"/>
<path d="M440.468 130.274H438.258V133.59H440.468V130.274Z" fill="#5E463C"/>
<path d="M440.468 134.695H438.258C437.647 134.695 437.153 135.19 437.153 135.8C437.153 136.411 437.647 136.905 438.258 136.905H440.468C441.078 136.905 441.573 136.411 441.573 135.8C441.573 135.19 441.078 134.695 440.468 134.695Z" fill="#5E463C"/>
<path d="M440.468 134.695H438.258C437.647 134.695 437.153 135.19 437.153 135.8C437.153 136.411 437.647 136.905 438.258 136.905H440.468C441.078 136.905 441.573 136.411 441.573 135.8C441.573 135.19 441.078 134.695 440.468 134.695Z" fill="#5E463C"/>
<path d="M440.468 134.695H438.258C437.647 134.695 437.153 135.19 437.153 135.8C437.153 136.411 437.647 136.905 438.258 136.905H440.468C441.078 136.905 441.573 136.411 441.573 135.8C441.573 135.19 441.078 134.695 440.468 134.695Z" fill="#5E463C"/>
<path d="M439.363 135.8C440.584 135.8 441.573 134.811 441.573 133.59C441.573 132.369 440.584 131.38 439.363 131.38C438.142 131.38 437.153 132.369 437.153 133.59C437.153 134.811 438.142 135.8 439.363 135.8Z" fill="#5E463C"/>
<path d="M439.363 135.8C440.584 135.8 441.573 134.811 441.573 133.59C441.573 132.369 440.584 131.38 439.363 131.38C438.142 131.38 437.153 132.369 437.153 133.59C437.153 134.811 438.142 135.8 439.363 135.8Z" fill="#5E463C"/>
<path d="M439.363 135.8C440.584 135.8 441.573 134.811 441.573 133.59C441.573 132.369 440.584 131.38 439.363 131.38C438.142 131.38 437.153 132.369 437.153 133.59C437.153 134.811 438.142 135.8 439.363 135.8Z" fill="#5E463C"/>
<path d="M439.363 124.749C439.363 124.749 444.336 130.614 439.363 131.38C434.39 130.614 439.363 124.749 439.363 124.749Z" fill="#5E463C"/>
<path d="M439.363 124.749C439.363 124.749 444.336 130.614 439.363 131.38C434.39 130.614 439.363 124.749 439.363 124.749Z" fill="#5E463C"/>
<path d="M439.363 124.749C439.363 124.749 444.336 130.614 439.363 131.38C434.39 130.614 439.363 124.749 439.363 124.749Z" fill="#5E463C"/>
</g>
<g clip-path="url(#clip7)">
<path d="M393.505 55.3477H158.299C155.278 55.3477 152.829 57.7966 152.829 60.8176V216.71C152.829 219.731 155.278 222.18 158.299 222.18H393.505C396.526 222.18 398.975 219.731 398.975 216.71V60.8176C398.975 57.7966 396.526 55.3477 393.505 55.3477Z" fill="black"/>
<path d="M303.399 222.18H248.405C248.405 222.18 248.262 233.316 245.905 238.341C244.29 241.785 239.686 243.086 238.118 245.8C236.832 248.026 238.406 249.53 238.406 249.53H313.398C313.398 249.53 314.972 248.026 313.686 245.8C312.118 243.086 307.514 241.785 305.899 238.341C303.542 233.316 303.399 222.18 303.399 222.18Z" fill="url(#paint4_linear)"/>
<path d="M152.829 200.301H398.975V216.71C398.975 219.731 396.526 222.18 393.505 222.18H158.299C155.278 222.18 152.829 219.731 152.829 216.71V200.301Z" fill="#C4C4C4"/>
<path d="M274.534 216.71C276.8 216.71 278.637 214.874 278.637 212.608C278.637 210.342 276.8 208.505 274.534 208.505C272.269 208.505 270.432 210.342 270.432 212.608C270.432 214.874 272.269 216.71 274.534 216.71Z" fill="black"/>
<path d="M390.77 60.8176H161.033V194.831H390.77V60.8176Z" fill="#E2F1F8"/>
<path d="M273.167 60.8176H390.77V194.831H273.167V60.8176Z" fill="#D9E8EF"/>
</g>
<g clip-path="url(#clip8)">
<path d="M379.473 245.101H403.708V257.703C403.708 258.238 403.274 258.672 402.738 258.672H380.443C379.907 258.672 379.473 258.238 379.473 257.703V245.101Z" fill="#084A74"/>
<path d="M392.075 245.101H403.708V258.672H392.075V245.101Z" fill="#1F3347"/>
<path d="M373.753 182.179C373.701 181.612 374.148 181.122 374.718 181.122H408.463C409.033 181.122 409.48 181.612 409.428 182.179L403.708 245.101H379.473L373.753 182.179Z" fill="white"/>
<path d="M392.075 181.122H408.463C409.033 181.122 409.48 181.612 409.428 182.179L403.708 245.101H392.075V181.122Z" fill="#F2F2F2"/>
<path d="M387.229 253.826H396.922L396.489 254.693C396.16 255.349 395.489 255.764 394.755 255.764H389.396C388.662 255.764 387.99 255.349 387.662 254.693L387.229 253.826Z" fill="#001125"/>
<path d="M409.524 181.122H373.657V184.03H409.524V181.122Z" fill="#D8D8D8"/>
</g>
<g clip-path="url(#clip9)">
<path d="M384.909 217.179H342.713V265.002H384.909V217.179Z" fill="#262627"/>
<path d="M362.405 219.992H346.229V236.168H362.405V219.992Z" fill="#F4728C"/>
<path d="M346.229 219.992V236.168L362.405 219.992H346.229Z" fill="#E5637D"/>
<path d="M362.405 238.981H346.229V255.156H362.405V238.981Z" fill="#FEC1C0"/>
<path d="M381.393 219.992H365.218V236.168H381.393V219.992Z" fill="#FBD7D1"/>
<path d="M381.393 238.981H365.218V255.156H381.393V238.981Z" fill="#FC9B95"/>
<path d="M381.393 257.969H346.229V262.189H381.393V257.969Z" fill="black"/>
<path d="M375.063 259.376L378.594 258.871C379.329 258.766 379.986 259.337 379.986 260.079C379.986 260.821 379.329 261.392 378.594 261.287L375.063 260.782V259.376Z" fill="white"/>
<path d="M352.559 259.376L349.028 258.871C348.293 258.766 347.636 259.337 347.636 260.079C347.636 260.821 348.293 261.392 349.028 261.287L352.559 260.782V259.376Z" fill="white"/>
<path d="M352.559 259.376H375.063V260.782H352.559V259.376Z" fill="#F2F2F2"/>
<path d="M365.218 219.992V236.168L381.393 219.992H365.218Z" fill="#ECC8C2"/>
<path d="M365.218 219.992V236.168L381.393 219.992H365.218Z" fill="#ECC8C2"/>
<path d="M365.218 238.981V255.156L381.393 238.981H365.218Z" fill="#E78680"/>
<path d="M346.229 238.981V255.156L362.405 238.981H346.229Z" fill="#EDB0AE"/>
</g>
<path d="M464.149 247.597C464.149 246.918 464.7 246.367 465.379 246.367H487.514C488.193 246.367 488.743 246.918 488.743 247.597V248.827H464.149V247.597Z" fill="#1B1B1C"/>
<path d="M477.676 170.126H475.217V248.827H477.676V170.126Z" fill="#363637"/>
<path d="M477.742 170.06H476.335V231.245H477.742V170.06Z" fill="#272728"/>
<path d="M492.432 151.68H461.69V170.126H492.432V151.68Z" fill="#FFBE2C"/>
<path d="M492.432 151.68H476.446V170.126H492.432V151.68Z" fill="#EEB100"/>
<g clip-path="url(#clip10)">
<path d="M457.707 218.259V216.406H454.987L457.707 218.259Z" fill="#BAD6E1"/>
<path d="M468.393 222.32L470.973 220.901L468.889 217.113L468.393 222.32Z" fill="#BAD6E1"/>
<path d="M464.24 214.786L466.82 213.367L468.904 217.156L464.24 214.786Z" fill="#CAE6F1"/>
<path d="M468.889 217.113L464.221 214.735L466.309 218.532L468.397 222.328L468.889 217.113Z" fill="#90C2E0"/>
<path d="M470.486 226.125L470.977 220.909L468.397 222.328L470.486 226.125Z" fill="#A3D5F3"/>
<path fill-rule="evenodd" clip-rule="evenodd" d="M462.133 210.938L464.221 214.735L466.801 213.316L462.133 210.938Z" fill="#B2E4FF"/>
<path d="M456.376 226.166L470.486 226.125L468.397 222.328L456.376 226.166Z" fill="#3F6997"/>
<path d="M462.133 210.938L454.543 222.833L464.221 214.735L462.133 210.938Z" fill="#CAE6F1"/>
<path d="M454.543 222.833L456.376 226.166L468.398 222.328L464.221 214.735L454.543 222.833Z" fill="#7CAECC"/>
<path d="M452.295 218.263V216.411H455.015L452.295 218.263Z" fill="#CAE6F1"/>
<path d="M454.987 216.406L452.26 218.258H454.987L457.713 218.259L454.987 216.406Z" fill="#90C2E0"/>
<path d="M460.439 218.259L457.713 216.406L457.713 218.259L460.439 218.259Z" fill="#A3D5F3"/>
<path fill-rule="evenodd" clip-rule="evenodd" d="M449.533 218.259H452.26V216.406L449.533 218.259Z" fill="#B2E4FF"/>
<path d="M456.183 226.05L460.439 218.259L457.713 218.259L456.183 226.05Z" fill="#3F6997"/>
<path d="M449.533 218.259L453.79 226.05L452.26 218.259H449.533Z" fill="#CAE6F1"/>
<path d="M453.79 226.05H456.183L457.713 218.259H452.26L453.79 226.05Z" fill="#7CAECC"/>
<path d="M481.324 237.084H450.124V248.429H484.16L481.324 237.084Z" fill="#E59C00"/>
<path d="M450.652 237.696C450.561 237.336 450.238 237.084 449.867 237.084H438.225C437.854 237.084 437.53 237.336 437.439 237.696L434.981 247.42C434.852 247.932 435.239 248.429 435.767 248.429H452.324C452.853 248.429 453.24 247.932 453.11 247.42L450.652 237.696Z" fill="#FABD02"/>
<path d="M479.703 237.084H448.503V248.429H482.539L479.703 237.084Z" fill="#E59C00"/>
<path d="M449.031 237.696C448.94 237.336 448.617 237.084 448.246 237.084H436.604C436.233 237.084 435.909 237.336 435.818 237.696L433.36 247.42C433.231 247.932 433.618 248.429 434.146 248.429H450.704C451.232 248.429 451.619 247.932 451.489 247.42L449.031 237.696Z" fill="#FABD02"/>
<path d="M469.978 248.429H438.778V259.775H472.815L469.978 248.429Z" fill="#E59C00"/>
<path d="M440.117 249.041C440.026 248.681 439.702 248.429 439.331 248.429H427.689C427.318 248.429 426.995 248.681 426.904 249.041L424.446 258.766C424.316 259.278 424.703 259.775 425.231 259.775H441.789C442.317 259.775 442.704 259.278 442.575 258.766L440.117 249.041Z" fill="#FABD02"/>
<path d="M488.617 248.429H457.417V259.775H491.453L488.617 248.429Z" fill="#E59C00"/>
<path d="M458.756 249.041C458.665 248.681 458.342 248.429 457.971 248.429H446.329C445.958 248.429 445.634 248.681 445.543 249.041L443.085 258.766C442.956 259.278 443.343 259.775 443.871 259.775H460.428C460.957 259.775 461.344 259.278 461.214 258.766L458.756 249.041Z" fill="#FABD02"/>
<path d="M488.617 248.429H457.417V259.775H491.453L488.617 248.429Z" fill="#E59C00"/>
<path d="M458.756 249.041C458.665 248.681 458.342 248.429 457.971 248.429H446.329C445.958 248.429 445.634 248.681 445.543 249.041L443.085 258.766C442.956 259.278 443.343 259.775 443.871 259.775H460.428C460.957 259.775 461.344 259.278 461.214 258.766L458.756 249.041Z" fill="#FABD02"/>
<path d="M507.409 249.043C507.319 248.682 506.995 248.429 506.623 248.429H476.056V259.775H510.093L507.409 249.043Z" fill="url(#paint5_linear)"/>
<path d="M476.704 249.049C476.617 248.686 476.291 248.429 475.917 248.429H464.85C464.475 248.429 464.15 248.686 464.062 249.049L461.711 258.774C461.587 259.284 461.974 259.775 462.499 259.775H478.268C478.792 259.775 479.179 259.284 479.055 258.774L476.704 249.049Z" fill="#FABD02"/>
<path d="M498.495 237.698C498.405 237.337 498.081 237.084 497.709 237.084H467.142V248.429H501.178L498.495 237.698Z" fill="url(#paint6_linear)"/>
<path d="M467.671 237.696C467.58 237.336 467.256 237.084 466.885 237.084H455.243C454.872 237.084 454.548 237.336 454.457 237.696L451.999 247.42C451.87 247.932 452.257 248.429 452.785 248.429H469.343C469.871 248.429 470.258 247.932 470.128 247.42L467.671 237.696Z" fill="#FABD02"/>
<path d="M489.581 226.352C489.491 225.991 489.167 225.738 488.795 225.738H458.228V237.084H492.264L489.581 226.352Z" fill="url(#paint7_linear)"/>
<path d="M458.876 226.358C458.788 225.995 458.463 225.738 458.088 225.738H447.021C446.647 225.738 446.321 225.995 446.233 226.358L443.882 236.083C443.759 236.593 444.146 237.084 444.67 237.084H460.439C460.964 237.084 461.35 236.593 461.227 236.083L458.876 226.358Z" fill="#FABD02"/>
<path d="M493.364 240.95V239.097H490.644L493.364 240.95Z" fill="#BAD6E1"/>
<path d="M487.952 240.954V239.102H490.672L487.952 240.954Z" fill="#CAE6F1"/>
<path d="M490.644 239.097L487.917 240.949H490.644L493.37 240.949L490.644 239.097Z" fill="#90C2E0"/>
<path d="M496.097 240.949L493.37 239.097V240.949H496.097Z" fill="#A3D5F3"/>
<path fill-rule="evenodd" clip-rule="evenodd" d="M485.191 240.949H487.918V239.097L485.191 240.949Z" fill="#B2E4FF"/>
<path d="M491.841 248.741L496.097 240.95L493.37 240.95L491.841 248.741Z" fill="#3F6997"/>
<path d="M485.191 240.95L489.447 248.741L487.918 240.95H485.191Z" fill="#CAE6F1"/>
<path d="M489.447 248.741H491.841L493.37 240.95H487.917L489.447 248.741Z" fill="#7CAECC"/>
<path d="M482.947 256.006L480.485 254.649L482.477 251.033L482.947 256.006Z" fill="#BAD6E1"/>
<path d="M486.917 248.815L484.455 247.459L482.463 251.075L486.917 248.815Z" fill="#CAE6F1"/>
<path d="M482.478 251.033L486.936 248.766L484.94 252.39L482.943 256.013L482.478 251.033Z" fill="#90C2E0"/>
<path d="M480.947 259.637L480.481 254.657L482.943 256.014L480.947 259.637Z" fill="#A3D5F3"/>
<path fill-rule="evenodd" clip-rule="evenodd" d="M488.932 245.143L486.936 248.766L484.474 247.41L488.932 245.143Z" fill="#B2E4FF"/>
<path d="M494.418 259.685L480.946 259.637L482.943 256.013L494.418 259.685Z" fill="#3F6997"/>
<path d="M488.932 245.143L496.171 256.505L486.936 248.766L488.932 245.143Z" fill="#CAE6F1"/>
<path d="M496.171 256.504L494.418 259.685L482.943 256.013L486.936 248.766L496.171 256.504Z" fill="#7CAECC"/>
</g>
<g clip-path="url(#clip11)">
<path d="M104.381 176.389H23.3477C21.8804 176.389 20.6909 177.579 20.6909 179.046V198.972C20.6909 200.44 21.8804 201.629 23.3477 201.629H104.381C105.848 201.629 107.038 200.44 107.038 198.972V179.046C107.038 177.579 105.848 176.389 104.381 176.389Z" fill="#E0E0E0"/>
<path fill-rule="evenodd" clip-rule="evenodd" d="M24.6761 132.552C23.2088 132.552 22.0193 133.741 22.0193 135.209L20.6909 183.031L25.4246 185.135C26.2057 185.482 26.7721 186.184 26.9464 187.021L29.9898 201.629H97.7387L100.782 187.021C100.956 186.184 101.523 185.482 102.304 185.135L107.038 183.031L105.709 135.209C105.709 133.741 104.52 132.552 103.052 132.552H24.6761Z" fill="#C31018"/>
<path d="M105.709 135.209L107.038 183.031L102.304 185.135C101.523 185.482 100.956 186.184 100.782 187.021L97.7387 201.629H63.8643V135.209C63.8643 133.741 65.0537 132.552 66.5211 132.552H103.052C104.52 132.552 105.709 133.741 105.709 135.209Z" fill="#A80000"/>
<path d="M104.381 202.957H23.3477C21.8804 202.957 20.6909 204.147 20.6909 205.614V216.241C20.6909 217.709 21.8804 218.898 23.3477 218.898H104.381C105.848 218.898 107.038 217.709 107.038 216.241V205.614C107.038 204.147 105.848 202.957 104.381 202.957Z" fill="#E0E0E0"/>
<path d="M107.038 216.241V205.614C107.038 204.147 105.848 202.957 104.381 202.957H63.8643V218.898H104.381C105.848 218.898 107.038 217.709 107.038 216.241Z" fill="#CBCBCB"/>
<path d="M102.388 218.898H24.0119C22.9114 218.898 22.0193 219.79 22.0193 220.891C22.0193 221.991 22.9114 222.884 24.0119 222.884H102.388C103.489 222.884 104.381 221.991 104.381 220.891C104.381 219.79 103.489 218.898 102.388 218.898Z" fill="black"/>
<path d="M103.716 201.629H22.6835C22.3167 201.629 22.0193 201.926 22.0193 202.293C22.0193 202.66 22.3167 202.957 22.6835 202.957H103.716C104.083 202.957 104.381 202.66 104.381 202.293C104.381 201.926 104.083 201.629 103.716 201.629Z" fill="black"/>
<path d="M92.425 214.913C92.425 214.179 93.0198 213.585 93.7535 213.585H105.709V215.039C105.709 215.722 105.192 216.293 104.513 216.361L93.8856 217.424C93.1036 217.502 92.425 216.888 92.425 216.102V214.913Z" fill="#ABABAB"/>
<path d="M35.3034 214.913C35.3034 214.179 34.7087 213.585 33.975 213.585H22.0193V215.039C22.0193 215.722 22.5364 216.293 23.2155 216.361L33.8428 217.424C34.6248 217.502 35.3034 216.888 35.3034 216.102V214.913Z" fill="#C4C4C4"/>
<path d="M24.676 222.884H37.9601V233.511C37.9601 234.978 36.7707 236.168 35.3033 236.168H27.3328C25.8655 236.168 24.676 234.978 24.676 233.511V222.884Z" fill="black"/>
<path d="M88.4397 222.884H101.724V233.511C101.724 234.978 100.534 236.168 99.067 236.168H91.0965C89.6292 236.168 88.4397 234.978 88.4397 233.511V222.884Z" fill="black"/>
<path d="M47.259 212.256H79.1409L77.2184 216.101C76.7683 217.001 75.8484 217.57 74.842 217.57H51.5579C50.5515 217.57 49.6316 217.001 49.1815 216.101L47.259 212.256Z" fill="#262627"/>
<path d="M73.8272 205.946H53.9011C53.3508 205.946 52.9048 206.392 52.9048 206.943V209.6C52.9048 210.15 53.3508 210.596 53.9011 210.596H73.8272C74.3775 210.596 74.8235 210.15 74.8235 209.6V206.943C74.8235 206.392 74.3775 205.946 73.8272 205.946Z" stroke="black" stroke-width="0.664205"/>
<path d="M36.9166 184.597C36.7683 183.782 37.3948 183.031 38.2236 183.031H88.1766C89.0054 183.031 89.6319 183.782 89.4836 184.597L87.5081 195.462C87.2784 196.725 86.1781 197.644 84.8941 197.644H41.5061C40.2221 197.644 39.1217 196.726 38.8921 195.462L36.9166 184.597Z" fill="black"/>
<path d="M21.9547 135.142C21.9907 133.701 23.1692 132.552 24.6106 132.552H103.118C104.559 132.552 105.738 133.701 105.774 135.142L106.373 159.12H21.3552L21.9547 135.142Z" fill="#262627"/>
<path d="M64.5283 135.209C64.5283 133.741 65.7178 132.552 67.1851 132.552H103.118C104.559 132.552 105.738 133.701 105.774 135.142L106.373 159.12H64.5283V135.209Z" fill="black"/>
<path d="M26.1505 147.296C26.0723 146.514 26.6864 145.836 27.4723 145.836H100.256C101.042 145.836 101.656 146.514 101.578 147.296L99.4257 168.815C99.2221 170.853 97.5078 172.404 95.4603 172.404H32.2679C30.2204 172.404 28.5061 170.853 28.3024 168.815L26.1505 147.296Z" fill="#90C2E0"/>
<path d="M99.4259 168.815L101.578 147.296C101.656 146.514 101.042 145.836 100.256 145.836H63.8643V172.404H95.4605C97.508 172.404 99.2223 170.853 99.4259 168.815Z" fill="#7EB0CE"/>
<path d="M62.5356 132.552C63.6361 132.552 64.5282 131.66 64.5282 130.559C64.5282 129.459 63.6361 128.567 62.5356 128.567C61.4351 128.567 60.543 129.459 60.543 130.559C60.543 131.66 61.4351 132.552 62.5356 132.552Z" fill="#C4C4C4"/>
<path d="M58.5505 132.552C59.651 132.552 60.5431 131.66 60.5431 130.559C60.5431 129.459 59.651 128.567 58.5505 128.567C57.45 128.567 56.5579 129.459 56.5579 130.559C56.5579 131.66 57.45 132.552 58.5505 132.552Z" fill="#C4C4C4"/>
<path d="M66.5209 132.552C67.6214 132.552 68.5135 131.66 68.5135 130.559C68.5135 129.459 67.6214 128.567 66.5209 128.567C65.4204 128.567 64.5283 129.459 64.5283 130.559C64.5283 131.66 65.4204 132.552 66.5209 132.552Z" fill="#C4C4C4"/>
<path d="M70.5063 132.552C71.6068 132.552 72.4989 131.66 72.4989 130.559C72.4989 129.459 71.6068 128.567 70.5063 128.567C69.4058 128.567 68.5137 129.459 68.5137 130.559C68.5137 131.66 69.4058 132.552 70.5063 132.552Z" fill="#C4C4C4"/>
<path d="M14.0487 145.836H12.7203C11.253 145.836 10.0635 147.025 10.0635 148.493V159.12C10.0635 160.587 11.253 161.777 12.7203 161.777H14.0487C15.516 161.777 16.7055 160.587 16.7055 159.12V148.493C16.7055 147.025 15.516 145.836 14.0487 145.836Z" fill="#262627"/>
<path d="M13.3848 145.836L14.049 142.515H22.0194" stroke="#262627" stroke-width="1.32841" stroke-linecap="square" stroke-linejoin="round"/>
<path d="M113.68 146.5H115.008C116.475 146.5 117.665 147.689 117.665 149.157V159.784C117.665 161.251 116.475 162.441 115.008 162.441H113.68C112.212 162.441 111.023 161.251 111.023 159.784V149.157C111.023 147.689 112.212 146.5 113.68 146.5Z" fill="black"/>
<path d="M114.344 146.5L113.68 143.179H105.709" stroke="black" stroke-width="1.32841" stroke-linecap="square" stroke-linejoin="round"/>
<path d="M35.3034 208.271C35.3034 206.804 34.1139 205.614 32.6466 205.614H23.3477C22.614 205.614 22.0193 206.209 22.0193 206.943V210.928C22.0193 211.662 22.614 212.256 23.3477 212.256H33.975C34.7087 212.256 35.3034 211.662 35.3034 210.928V208.271Z" fill="#F7D100"/>
<path d="M35.3034 208.271C35.3034 206.804 34.1139 205.614 32.6466 205.614H23.3477C22.614 205.614 22.0193 206.209 22.0193 206.943V210.928C22.0193 211.662 22.614 212.256 23.3477 212.256H33.975C34.7087 212.256 35.3034 211.662 35.3034 210.928V208.271Z" fill="#F7D100"/>
<path d="M26.0045 210.928C27.4718 210.928 28.6613 209.738 28.6613 208.271C28.6613 206.804 27.4718 205.614 26.0045 205.614C24.5372 205.614 23.3477 206.804 23.3477 208.271C23.3477 209.738 24.5372 210.928 26.0045 210.928Z" fill="#E3BD01"/>
<path d="M30.654 210.928C31.7545 210.928 32.6466 210.036 32.6466 208.935C32.6466 207.835 31.7545 206.943 30.654 206.943C29.5535 206.943 28.6614 207.835 28.6614 208.935C28.6614 210.036 29.5535 210.928 30.654 210.928Z" fill="#E3BD01"/>
<path d="M92.425 208.271C92.425 206.804 93.6145 205.614 95.0819 205.614H104.381C105.114 205.614 105.709 206.209 105.709 206.943V210.928C105.709 211.662 105.114 212.256 104.381 212.256H93.7535C93.0198 212.256 92.425 211.662 92.425 210.928V208.271Z" fill="#F7D100"/>
<path d="M92.425 208.271C92.425 206.804 93.6145 205.614 95.0819 205.614H104.381C105.114 205.614 105.709 206.209 105.709 206.943V210.928C105.709 211.662 105.114 212.256 104.381 212.256H93.7535C93.0198 212.256 92.425 211.662 92.425 210.928V208.271Z" fill="#F7D100"/>
<path d="M101.724 210.928C100.256 210.928 99.067 209.738 99.067 208.271C99.067 206.804 100.256 205.614 101.724 205.614C103.191 205.614 104.381 206.804 104.381 208.271C104.381 209.738 103.191 210.928 101.724 210.928Z" fill="#E3BD01"/>
<path d="M97.0745 210.928C95.974 210.928 95.0819 210.036 95.0819 208.935C95.0819 207.835 95.974 206.943 97.0745 206.943C98.175 206.943 99.0671 207.835 99.0671 208.935C99.0671 210.036 98.175 210.928 97.0745 210.928Z" fill="#E3BD01"/>
</g>
<g clip-path="url(#clip12)">
<path d="M83.7515 227.806L135.012 224.056V245.31H83.7515V227.806Z" fill="#E59C00"/>
<path d="M117.509 225.306L135.012 224.056V245.31H117.509V225.306Z" fill="#D08700"/>
<path d="M108.132 230.307C109.858 230.307 111.257 228.908 111.257 227.181C111.257 225.455 109.858 224.056 108.132 224.056C106.405 224.056 105.006 225.455 105.006 227.181C105.006 228.908 106.405 230.307 108.132 230.307Z" fill="white"/>
<path d="M108.132 230.307C109.858 230.307 111.257 228.908 111.257 227.181C111.257 225.455 109.858 224.056 108.132 224.056C106.405 224.056 105.006 225.455 105.006 227.181C105.006 228.908 106.405 230.307 108.132 230.307Z" fill="white"/>
<path d="M83.7512 236.558C84.4417 236.558 85.0015 235.999 85.0015 235.308C85.0015 234.618 84.4417 234.058 83.7512 234.058C83.0607 234.058 82.501 234.618 82.501 235.308C82.501 235.999 83.0607 236.558 83.7512 236.558Z" fill="white"/>
<path d="M83.7512 236.558C84.4417 236.558 85.0015 235.999 85.0015 235.308C85.0015 234.618 84.4417 234.058 83.7512 234.058C83.0607 234.058 82.501 234.618 82.501 235.308C82.501 235.999 83.0607 236.558 83.7512 236.558Z" fill="white"/>
<path d="M84.3764 242.81C85.4121 242.81 86.2518 241.97 86.2518 240.934C86.2518 239.898 85.4121 239.059 84.3764 239.059C83.3406 239.059 82.501 239.898 82.501 240.934C82.501 241.97 83.3406 242.81 84.3764 242.81Z" fill="white"/>
<path d="M84.3764 242.81C85.4121 242.81 86.2518 241.97 86.2518 240.934C86.2518 239.898 85.4121 239.059 84.3764 239.059C83.3406 239.059 82.501 239.898 82.501 240.934C82.501 241.97 83.3406 242.81 84.3764 242.81Z" fill="white"/>
<path d="M94.3784 229.057C96.1046 229.057 97.504 227.657 97.504 225.931C97.504 224.205 96.1046 222.805 94.3784 222.805C92.6521 222.805 91.2527 224.205 91.2527 225.931C91.2527 227.657 92.6521 229.057 94.3784 229.057Z" fill="black"/>
<path d="M95.6288 239.059C96.6646 239.059 97.5042 238.219 97.5042 237.184C97.5042 236.148 96.6646 235.308 95.6288 235.308C94.5931 235.308 93.7534 236.148 93.7534 237.184C93.7534 238.219 94.5931 239.059 95.6288 239.059Z" fill="#D08700"/>
<path d="M106.256 237.809C107.637 237.809 108.757 236.689 108.757 235.308C108.757 233.927 107.637 232.808 106.256 232.808C104.875 232.808 103.756 233.927 103.756 235.308C103.756 236.689 104.875 237.809 106.256 237.809Z" fill="#D08700"/>
<path d="M121.259 232.807C122.64 232.807 123.76 231.688 123.76 230.307C123.76 228.926 122.64 227.806 121.259 227.806C119.878 227.806 118.759 228.926 118.759 230.307C118.759 231.688 119.878 232.807 121.259 232.807Z" fill="#BE7500"/>
<path d="M128.761 239.059C130.832 239.059 132.512 237.38 132.512 235.308C132.512 233.237 130.832 231.557 128.761 231.557C126.689 231.557 125.01 233.237 125.01 235.308C125.01 237.38 126.689 239.059 128.761 239.059Z" fill="#BE7500"/>
<path d="M102.505 242.81C101.124 242.81 100.005 243.929 100.005 245.31H105.006C105.006 243.929 103.886 242.81 102.505 242.81Z" fill="#C68005"/>
</g>
<g clip-path="url(#clip13)">
<path d="M148.081 125.402H140.697C139.677 125.402 138.851 126.228 138.851 127.248V147.555C138.851 148.574 139.677 149.401 140.697 149.401H148.081C149.101 149.401 149.927 148.574 149.927 147.555V127.248C149.927 126.228 149.101 125.402 148.081 125.402Z" fill="#1B1B1C"/>
<path d="M144.389 125.402H148.082C149.101 125.402 149.928 126.228 149.928 127.248V147.555C149.928 148.575 149.101 149.401 148.082 149.401H144.389V125.402Z" fill="black"/>
<path d="M150.851 154.016C151.367 155.209 152.697 156.785 152.697 156.785H144.389V146.632H149.928C149.928 146.632 149.706 151.369 150.851 154.016Z" fill="#730000"/>
<path d="M137.928 154.016C137.355 155.318 136.082 156.785 136.082 156.785H144.389V146.632H138.851C138.851 146.632 139.2 151.129 137.928 154.016Z" fill="#900202"/>
<path d="M144.389 250.936H157.312C158.332 250.936 159.158 250.11 159.158 249.09V169.708C159.158 169.708 158.674 164.966 157.312 162.324C156.022 159.821 152.697 156.785 152.697 156.785H144.389V250.936Z" fill="#730000"/>
<path d="M144.389 250.936H131.466C130.447 250.936 129.62 250.11 129.62 249.09V169.708C129.62 169.708 130.104 164.966 131.466 162.324C132.757 159.821 136.082 156.785 136.082 156.785H144.389V250.936Z" fill="#900202"/>
<path d="M149.928 119.864H138.851C137.831 119.864 137.005 120.69 137.005 121.71V127.248C137.005 128.267 137.831 129.094 138.851 129.094H149.928C150.947 129.094 151.774 128.267 151.774 127.248V121.71C151.774 120.69 150.947 119.864 149.928 119.864Z" fill="#1B1B1C"/>
<path d="M144.389 119.864H149.928C150.947 119.864 151.774 120.69 151.774 121.71V127.248C151.774 128.267 150.947 129.094 149.928 129.094H144.389V119.864Z" fill="black"/>
</g>
<g clip-path="url(#clip14)">
<path d="M189.563 199.684H162.334C159.39 199.684 157.003 202.071 157.003 205.015V274.441C157.003 277.385 159.39 279.772 162.334 279.772H189.563C192.507 279.772 194.894 277.385 194.894 274.441V205.015C194.894 202.071 192.507 199.684 189.563 199.684Z" fill="white" stroke="#D5D5D6" stroke-width="0.969202"/>
<path d="M175.949 200.169H189.564C192.24 200.169 194.41 202.338 194.41 205.015V274.705C194.41 277.381 192.24 279.551 189.564 279.551H175.949V200.169Z" fill="#F5F5F5"/>
<path d="M191.682 210.718H160.215C159.68 210.718 159.246 211.152 159.246 211.687V267.769C159.246 268.304 159.68 268.738 160.215 268.738H191.682C192.218 268.738 192.651 268.304 192.651 267.769V211.687C192.651 211.152 192.218 210.718 191.682 210.718Z" fill="#262627"/>
<path d="M175.988 210.718H191.682C192.218 210.718 192.651 211.152 192.651 211.687V267.769C192.651 268.304 192.218 268.738 191.682 268.738H175.949L175.988 210.718Z" fill="black"/>
<path d="M175.949 277.067C177.636 277.067 179.004 275.7 179.004 274.013C179.004 272.325 177.636 270.958 175.949 270.958C174.262 270.958 172.894 272.325 172.894 274.013C172.894 275.7 174.262 277.067 175.949 277.067Z" fill="white" stroke="#C4C4C4" stroke-width="0.923049"/>
<path d="M172.432 274.013C172.432 275.955 174.007 277.529 175.949 277.529V270.496C174.007 270.496 172.432 272.071 172.432 274.013Z" fill="#F5F5F5"/>
<path d="M175.949 277.067C177.636 277.067 179.004 275.7 179.004 274.013C179.004 272.325 177.636 270.958 175.949 270.958C174.262 270.958 172.894 272.325 172.894 274.013C172.894 275.7 174.262 277.067 175.949 277.067Z" stroke="#C4C4C4" stroke-width="0.923049"/>
<path d="M179.026 206.322H173.751C173.508 206.322 173.312 206.519 173.312 206.762V206.762C173.312 207.005 173.508 207.201 173.751 207.201H179.026C179.268 207.201 179.465 207.005 179.465 206.762C179.465 206.519 179.268 206.322 179.026 206.322Z" fill="#AAAAAB"/>
<path d="M171.553 206.762C171.553 206.519 171.357 206.322 171.114 206.322C170.871 206.322 170.674 206.519 170.674 206.762V206.762C170.674 207.005 170.871 207.201 171.114 207.201C171.357 207.201 171.553 207.005 171.553 206.762V206.762Z" fill="#AAAAAB"/>
<path d="M176.828 203.685C176.828 203.2 176.434 202.806 175.949 202.806C175.463 202.806 175.07 203.2 175.07 203.685C175.07 204.171 175.463 204.564 175.949 204.564C176.434 204.564 176.828 204.171 176.828 203.685Z" fill="#262627"/>
<path d="M196.256 247.244H197.179V280.474H196.256V247.244Z" fill="black"/>
<path fill-rule="evenodd" clip-rule="evenodd" d="M201.794 230.629V241.706C200.629 241.706 199.228 241.112 198.102 240.146V245.398V247.706C198.102 248.47 197.482 249.09 196.717 249.09C195.953 249.09 195.333 248.47 195.333 247.706V245.398V240.229V239.86V236.906C195.333 236.058 195.543 235.063 195.642 234.644C195.648 234.575 195.664 234.508 195.692 234.441C196.621 232.228 199.884 230.629 201.794 230.629Z" fill="#0F62BD"/>
<path d="M198.102 239.718L197.179 238.937V249.09C197.689 249.09 198.102 248.677 198.102 248.167V239.718Z" fill="#09308B"/>
<path d="M201.794 232.475H204.563V239.86H201.794V232.475Z" fill="black"/>
<path d="M202.74 237.644C202.74 240.703 202.41 241.706 204.273 241.706C206.135 241.706 209.178 240.703 209.178 237.644C209.178 236.964 209.178 235.429 209.178 234.691C209.178 231.368 205.721 230.629 204.273 230.629C202.562 230.629 202.7 231.243 202.734 233.952C202.737 234.194 202.74 237.394 202.74 237.644Z" fill="#262627"/>
<path d="M204.273 241.706C202.41 241.706 202.74 240.526 202.74 234.322L209.178 236.928C209.178 240.526 206.135 241.706 204.273 241.706Z" fill="black"/>
<path d="M213.794 271.244H212.871V280.474H213.794V271.244Z" fill="black"/>
<path fill-rule="evenodd" clip-rule="evenodd" d="M208.255 254.629V265.705C209.42 265.705 210.821 265.111 211.947 264.145V269.397V271.705C211.947 272.47 212.567 273.09 213.332 273.09C214.097 273.09 214.716 272.47 214.716 271.705V269.397V264.228V263.859V260.905C214.716 260.057 214.506 259.062 214.407 258.643C214.404 258.608 214.399 258.573 214.39 258.538C214.382 258.505 214.371 258.473 214.357 258.44C213.428 256.227 210.165 254.629 208.255 254.629Z" fill="#0F62BD"/>
<path d="M211.948 263.717L212.871 262.936V273.09C212.361 273.09 211.948 272.676 211.948 272.167V263.717Z" fill="#09308B"/>
<path d="M208.255 256.475H205.486V263.859H208.255V256.475Z" fill="black"/>
<path d="M207.31 261.644C207.31 264.703 207.64 265.705 205.777 265.705C203.914 265.705 200.871 264.703 200.871 261.644C200.871 260.963 200.871 259.429 200.871 258.69C200.871 255.367 204.329 254.629 205.777 254.629C207.487 254.629 207.349 255.242 207.315 257.952C207.312 258.193 207.31 261.394 207.31 261.644Z" fill="#262627"/>
<path d="M205.777 265.705C207.64 265.705 207.31 264.526 207.31 258.321L200.871 260.927C200.871 264.526 203.914 265.705 205.777 265.705Z" fill="black"/>
</g>
</g>
<defs>
<linearGradient id="paint0_linear" x1="263.165" y1="50.1272" x2="506.227" y2="215.991" gradientUnits="userSpaceOnUse">
<stop/>
<stop offset="0.9999"/>
</linearGradient>
<linearGradient id="paint1_linear" x1="521.79" y1="182.423" x2="521.79" y2="200.394" gradientUnits="userSpaceOnUse">
<stop stop-color="#5E463C"/>
<stop offset="0.933702" stop-color="#533B31"/>
</linearGradient>
<linearGradient id="paint2_linear" x1="392.947" y1="218.134" x2="434.943" y2="244.105" gradientUnits="userSpaceOnUse">
<stop stop-color="#865942"/>
<stop offset="0.0001" stop-color="#865942"/>
<stop offset="0.966851" stop-color="#5E463C"/>
</linearGradient>
<linearGradient id="paint3_linear" x1="391.427" y1="231.948" x2="408.106" y2="259.346" gradientUnits="userSpaceOnUse">
<stop stop-color="#865942"/>
<stop offset="0.0001" stop-color="#865942"/>
<stop offset="0.966851" stop-color="#5E463C"/>
</linearGradient>
<linearGradient id="paint4_linear" x1="275.902" y1="222.18" x2="275.902" y2="249.53" gradientUnits="userSpaceOnUse">
<stop offset="0.00552486" stop-color="#ADADAD"/>
<stop offset="0.446509" stop-color="#C4C4C4"/>
<stop offset="0.596685" stop-color="#8D8D8D"/>
<stop offset="0.779006" stop-color="#989898"/>
<stop offset="0.878453" stop-color="#ACACAC"/>
<stop offset="1" stop-color="#C4C4C4"/>
</linearGradient>
<linearGradient id="paint5_linear" x1="493.074" y1="248.429" x2="493.074" y2="259.775" gradientUnits="userSpaceOnUse">
<stop stop-color="#E59C00"/>
<stop offset="1" stop-color="#DB9200"/>
</linearGradient>
<linearGradient id="paint6_linear" x1="484.16" y1="237.084" x2="484.16" y2="248.429" gradientUnits="userSpaceOnUse">
<stop stop-color="#E59C00"/>
<stop offset="1" stop-color="#DC9300"/>
</linearGradient>
<linearGradient id="paint7_linear" x1="475.246" y1="225.738" x2="475.246" y2="237.084" gradientUnits="userSpaceOnUse">
<stop stop-color="#E59C00"/>
<stop offset="1" stop-color="#DB9200"/>
</linearGradient>
<clipPath id="clip0">
<rect width="551" height="291" fill="white"/>
</clipPath>
<clipPath id="clip1">
<rect width="195.511" height="138.545" fill="white" transform="translate(308.956 87.7764)"/>
</clipPath>
<clipPath id="clip2">
<rect width="142.062" height="125.886" fill="white" transform="translate(53.6665 87.7764)"/>
</clipPath>
<clipPath id="clip3">
<rect width="78.0636" height="43.6031" fill="white" transform="translate(175.333 11.8227)"/>
</clipPath>
<clipPath id="clip4">
<rect width="93.5356" height="97.052" fill="white" transform="translate(486.181 151.775)"/>
</clipPath>
<clipPath id="clip5">
<rect width="29.5129" height="38.1208" fill="white" transform="translate(507.086 182.423)"/>
</clipPath>
<clipPath id="clip6">
<rect width="61.8882" height="114.634" fill="white" transform="translate(386.316 125.05)"/>
</clipPath>
<clipPath id="clip7">
<rect width="246.146" height="194.104" fill="white" transform="translate(152.829 55.4258)"/>
</clipPath>
<clipPath id="clip8">
<rect width="35.8671" height="77.3603" fill="white" transform="translate(373.657 181.312)"/>
</clipPath>
<clipPath id="clip9">
<rect width="42.8998" height="58.3719" fill="white" transform="translate(342.01 206.63)"/>
</clipPath>
<clipPath id="clip10">
<rect width="85.7996" height="60.4817" fill="white" transform="translate(424.293 208.74)"/>
</clipPath>
<clipPath id="clip11">
<rect width="107.601" height="107.601" fill="white" transform="translate(10.0635 128.567)"/>
</clipPath>
<clipPath id="clip12">
<rect width="52.7457" height="22.5048" fill="white" transform="translate(82.501 222.805)"/>
</clipPath>
<clipPath id="clip13">
<rect width="29.5376" height="130.809" fill="white" transform="translate(129.62 120.127)"/>
</clipPath>
<clipPath id="clip14">
<rect width="59.0751" height="81.58" fill="white" transform="translate(155.641 198.894)"/>
</clipPath>
</defs>
</svg>
