<svg width="150" height="100" viewBox="0 0 150 100" fill="none" xmlns="http://www.w3.org/2000/svg">
<path d="M77.25 12.475C74.0606 12.475 71.475 15.0606 71.475 18.25V93.4643C71.475 96.6537 74.0606 99.2393 77.25 99.2393H106.75C109.939 99.2393 112.525 96.6537 112.525 93.4643V18.25C112.525 15.0606 109.939 12.475 106.75 12.475H77.25Z" fill="white" stroke="#D5D5D6" stroke-width="1.05"/>
<path d="M92 13H106.75C109.649 13 112 15.3505 112 18.25V93.75C112 96.6495 109.649 99 106.75 99H92V13Z" fill="#F5F5F5"/>
<rect x="73.9048" y="24.4285" width="36.1905" height="62.8571" rx="1.05" fill="#262627"/>
<path d="M92.0423 24.4285H109.045C109.625 24.4285 110.095 24.8986 110.095 25.4785V86.2356C110.095 86.8155 109.625 87.2856 109.045 87.2856H92L92.0423 24.4285Z" fill="black"/>
<circle cx="92" cy="93" r="3.30952" fill="white" stroke="#C4C4C4"/>
<path d="M88.1904 93C88.1904 95.1039 89.896 96.8095 92 96.8095V89.1904C89.896 89.1904 88.1904 90.896 88.1904 93Z" fill="#F5F5F5"/>
<circle cx="92" cy="93" r="3.30952" stroke="#C4C4C4"/>
<rect x="89.1428" y="19.6667" width="6.66667" height="0.952381" rx="0.47619" fill="#AAAAAB"/>
<rect x="86.2856" y="19.6667" width="0.952381" height="0.952381" rx="0.47619" fill="#AAAAAB"/>
<rect x="91.0476" y="15.8572" width="1.90476" height="1.90476" rx="0.952381" fill="#262627"/>
<rect width="1" height="36" transform="matrix(-1 0 0 1 115 64)" fill="black"/>
<path fill-rule="evenodd" clip-rule="evenodd" d="M120 46V58C118.738 58 117.221 57.3562 116 56.3101V62V64.5C116 65.3284 115.328 66 114.5 66C113.672 66 113 65.3284 113 64.5V62V56.3999V56V52.8C113 51.8811 113.228 50.8035 113.335 50.3489C113.341 50.2749 113.358 50.2017 113.389 50.1292C114.396 47.7314 117.931 46 120 46Z" fill="#0F62BD"/>
<path d="M116 55.8462L115 55V66C115.552 66 116 65.5523 116 65V55.8462Z" fill="#09308B"/>
<rect width="3" height="8" transform="matrix(-1 0 0 1 123 48)" fill="black"/>
<path d="M121.024 53.6C121.024 56.9137 120.667 58 122.685 58C124.703 58 128 56.9137 128 53.6C128 52.8626 128 51.2 128 50.4C128 46.8 124.254 46 122.685 46C120.832 46 120.982 46.6645 121.019 49.6C121.022 49.8617 121.024 53.3288 121.024 53.6Z" fill="#262627"/>
<path d="M122.685 58C120.667 58 121.024 56.722 121.024 50L128 52.8235C128 56.722 124.703 58 122.685 58Z" fill="black"/>
<rect x="132" y="90" width="1" height="10" fill="black"/>
<path fill-rule="evenodd" clip-rule="evenodd" d="M127 72V84C128.262 84 129.779 83.3562 131 82.3101V88V90.5C131 91.3284 131.672 92 132.5 92C133.328 92 134 91.3284 134 90.5V88V82.3999V82V78.8C134 77.8811 133.772 76.8035 133.665 76.3489C133.661 76.2974 133.651 76.2461 133.635 76.1951C133.628 76.1731 133.62 76.1511 133.611 76.1292C132.604 73.7314 129.069 72 127 72Z" fill="#0F62BD"/>
<path d="M131 81.8462L132 81V92C131.448 92 131 91.5523 131 91V81.8462Z" fill="#09308B"/>
<rect x="124" y="74" width="3" height="8" fill="black"/>
<path d="M125.976 79.6C125.976 82.9137 126.333 84 124.315 84C122.297 84 119 82.9137 119 79.6C119 78.8626 119 77.2 119 76.4C119 72.8 122.746 72 124.315 72C126.168 72 126.018 72.6645 125.981 75.6C125.978 75.8617 125.976 79.3288 125.976 79.6Z" fill="#262627"/>
<path d="M124.315 84C126.333 84 125.976 82.722 125.976 76L119 78.8235C119 82.722 122.297 84 124.315 84Z" fill="black"/>
</svg>
