<svg width="150" height="100" viewBox="0 0 150 100" fill="none" xmlns="http://www.w3.org/2000/svg">
<g clip-path="url(#clip0)">
<path d="M78.358 48.7701L78.358 46.4844L75.001 46.4844L78.358 48.7701Z" fill="#BAD6E1"/>
<path d="M91.5438 53.7819L94.7268 52.0311L92.1555 47.3562L91.5438 53.7819Z" fill="#BAD6E1"/>
<path d="M86.42 44.4856L89.603 42.7348L92.1743 47.4097L86.42 44.4856Z" fill="#CAE6F1"/>
<path d="M92.1555 47.3561L86.3957 44.4219L88.9725 49.1069L91.5494 53.7919L92.1555 47.3561Z" fill="#90C2E0"/>
<path d="M94.1263 58.4768L94.7325 52.041L91.5495 53.7918L94.1263 58.4768Z" fill="#A3D5F3"/>
<path fill-rule="evenodd" clip-rule="evenodd" d="M83.8188 39.7368L86.3956 44.4218L89.5787 42.671L83.8188 39.7368Z" fill="#B2E4FF"/>
<path d="M76.7153 58.5272L94.1264 58.4768L91.5495 53.7918L76.7153 58.5272Z" fill="#3F6997"/>
<path d="M83.8188 39.7369L74.4531 54.4146L86.3957 44.4219L83.8188 39.7369Z" fill="#CAE6F1"/>
<path d="M74.4531 54.4145L76.7151 58.5272L91.5494 53.7918L86.3957 44.4218L74.4531 54.4145Z" fill="#7CAECC"/>
<path d="M71.6791 48.776L71.6791 46.4902L75.0362 46.4902L71.6791 48.776Z" fill="#CAE6F1"/>
<path d="M75.0008 46.4843L71.6365 48.77L75.0008 48.77L78.3651 48.77L75.0008 46.4843Z" fill="#90C2E0"/>
<path d="M81.7296 48.77L78.3653 46.4843L78.3653 48.77L81.7296 48.77Z" fill="#A3D5F3"/>
<path fill-rule="evenodd" clip-rule="evenodd" d="M68.2723 48.77L71.6366 48.77L71.6366 46.4843L68.2723 48.77Z" fill="#B2E4FF"/>
<path d="M76.4777 58.3844L81.7296 48.7701L78.3654 48.7701L76.4777 58.3844Z" fill="#3F6997"/>
<path d="M68.2724 48.7701L73.5244 58.3844L71.6367 48.7701L68.2724 48.7701Z" fill="#CAE6F1"/>
<path d="M73.5244 58.3844L76.4777 58.3844L78.3653 48.7702L71.6367 48.7702L73.5244 58.3844Z" fill="#7CAECC"/>
<path d="M107.5 72H69V86H111L107.5 72Z" fill="#E59C00"/>
<path d="M69.6524 72.755C69.5401 72.311 69.1407 72 68.6828 72H54.3172C53.8593 72 53.4599 72.311 53.3476 72.755L50.3147 84.755C50.155 85.3867 50.6326 86 51.2842 86H71.7158C72.3674 86 72.845 85.3867 72.6853 84.755L69.6524 72.755Z" fill="#FABD02"/>
<path d="M105.5 72H67V86H109L105.5 72Z" fill="#E59C00"/>
<path d="M67.6524 72.755C67.5401 72.311 67.1407 72 66.6828 72H52.3172C51.8593 72 51.4599 72.311 51.3476 72.755L48.3147 84.755C48.155 85.3867 48.6326 86 49.2842 86H69.7158C70.3674 86 70.845 85.3867 70.6853 84.755L67.6524 72.755Z" fill="#FABD02"/>
<path d="M93.5 86H55V100H97L93.5 86Z" fill="#E59C00"/>
<path d="M56.6524 86.755C56.5401 86.311 56.1407 86 55.6828 86H41.3172C40.8593 86 40.4599 86.311 40.3476 86.755L37.3147 98.755C37.155 99.3867 37.6326 100 38.2842 100H58.7158C59.3674 100 59.845 99.3867 59.6853 98.755L56.6524 86.755Z" fill="#FABD02"/>
<path d="M116.5 86H78V100H120L116.5 86Z" fill="#E59C00"/>
<path d="M79.6524 86.755C79.5401 86.311 79.1407 86 78.6828 86H64.3172C63.8593 86 63.4599 86.311 63.3476 86.755L60.3147 98.755C60.155 99.3867 60.6326 100 61.2842 100H81.7158C82.3674 100 82.845 99.3867 82.6853 98.755L79.6524 86.755Z" fill="#FABD02"/>
<path d="M116.5 86H78V100H120L116.5 86Z" fill="#E59C00"/>
<path d="M79.6524 86.755C79.5401 86.311 79.1407 86 78.6828 86H64.3172C63.8593 86 63.4599 86.311 63.3476 86.755L60.3147 98.755C60.155 99.3867 60.6326 100 61.2842 100H81.7158C82.3674 100 82.845 99.3867 82.6853 98.755L79.6524 86.755Z" fill="#FABD02"/>
<path d="M139.689 86.7575C139.578 86.3123 139.178 86 138.719 86H101V100H143L139.689 86.7575Z" fill="url(#paint0_linear)"/>
<path d="M101.8 86.765C101.692 86.3162 101.29 86 100.828 86H87.1717C86.7099 86 86.3082 86.3162 86.1997 86.765L83.2986 98.765C83.1464 99.3942 83.6232 100 84.2706 100H103.729C104.377 100 104.854 99.3943 104.701 98.765L101.8 86.765Z" fill="#FABD02"/>
<path d="M128.689 72.7575C128.578 72.3123 128.178 72 127.719 72H90V86H132L128.689 72.7575Z" fill="url(#paint1_linear)"/>
<path d="M90.6524 72.755C90.5401 72.311 90.1407 72 89.6828 72H75.3172C74.8593 72 74.4599 72.311 74.3476 72.755L71.3147 84.755C71.155 85.3867 71.6326 86 72.2842 86H92.7158C93.3674 86 93.845 85.3867 93.6853 84.755L90.6524 72.755Z" fill="#FABD02"/>
<path d="M117.689 58.7575C117.578 58.3123 117.178 58 116.719 58H79V72H121L117.689 58.7575Z" fill="url(#paint2_linear)"/>
<path d="M79.8003 58.765C79.6918 58.3162 79.2901 58 78.8283 58H65.1717C64.7099 58 64.3082 58.3162 64.1997 58.765L61.2986 70.765C61.1464 71.3942 61.6232 72 62.2706 72H81.7294C82.3768 72 82.8536 71.3943 82.7014 70.765L79.8003 58.765Z" fill="#FABD02"/>
<path d="M122.358 76.7701L122.358 74.4844L119.001 74.4844L122.358 76.7701Z" fill="#BAD6E1"/>
<path d="M115.679 76.776L115.679 74.4902L119.036 74.4902L115.679 76.776Z" fill="#CAE6F1"/>
<path d="M119.001 74.4843L115.637 76.77L119.001 76.77L122.365 76.77L119.001 74.4843Z" fill="#90C2E0"/>
<path d="M125.73 76.77L122.365 74.4843L122.365 76.77L125.73 76.77Z" fill="#A3D5F3"/>
<path fill-rule="evenodd" clip-rule="evenodd" d="M112.272 76.77L115.637 76.77L115.637 74.4843L112.272 76.77Z" fill="#B2E4FF"/>
<path d="M120.478 86.3844L125.73 76.7701L122.365 76.7701L120.478 86.3844Z" fill="#3F6997"/>
<path d="M112.272 76.7701L117.524 86.3844L115.637 76.7701L112.272 76.7701Z" fill="#CAE6F1"/>
<path d="M117.524 86.3844L120.478 86.3844L122.365 76.7702L115.637 76.7702L117.524 86.3844Z" fill="#7CAECC"/>
<path d="M109.504 95.349L106.466 93.6752L108.924 89.2134L109.504 95.349Z" fill="#BAD6E1"/>
<path d="M114.402 86.4763L111.364 84.8026L108.906 89.2644L114.402 86.4763Z" fill="#CAE6F1"/>
<path d="M108.924 89.2133L114.425 86.4156L111.962 90.8871L109.498 95.3586L108.924 89.2133Z" fill="#90C2E0"/>
<path d="M107.035 99.83L106.46 93.6848L109.498 95.3586L107.035 99.83Z" fill="#A3D5F3"/>
<path fill-rule="evenodd" clip-rule="evenodd" d="M116.889 81.9442L114.425 86.4156L111.387 84.7419L116.889 81.9442Z" fill="#B2E4FF"/>
<path d="M123.659 99.8897L107.035 99.83L109.498 95.3585L123.659 99.8897Z" fill="#3F6997"/>
<path d="M116.889 81.9443L125.821 95.9646L114.425 86.4157L116.889 81.9443Z" fill="#CAE6F1"/>
<path d="M125.821 95.9645L123.659 99.8898L109.498 95.3586L114.425 86.4157L125.821 95.9645Z" fill="#7CAECC"/>
</g>
<defs>
<linearGradient id="paint0_linear" x1="122" y1="86" x2="122" y2="100" gradientUnits="userSpaceOnUse">
<stop stop-color="#E59C00"/>
<stop offset="1" stop-color="#DB9200"/>
</linearGradient>
<linearGradient id="paint1_linear" x1="111" y1="72" x2="111" y2="86" gradientUnits="userSpaceOnUse">
<stop stop-color="#E59C00"/>
<stop offset="1" stop-color="#DC9300"/>
</linearGradient>
<linearGradient id="paint2_linear" x1="100" y1="58" x2="100" y2="72" gradientUnits="userSpaceOnUse">
<stop stop-color="#E59C00"/>
<stop offset="1" stop-color="#DB9200"/>
</linearGradient>
<clipPath id="clip0">
<rect width="150" height="100" fill="white"/>
</clipPath>
</defs>
</svg>
