<svg width="150" height="100" viewBox="0 0 150 100" fill="none" xmlns="http://www.w3.org/2000/svg">
<path d="M52 86L93 83V100H52V86Z" fill="#E59C00"/>
<path d="M79 84L93 83V100H79V84Z" fill="#D08700"/>
<circle cx="71.5" cy="85.5" r="2.5" fill="white"/>
<circle cx="71.5" cy="85.5" r="2.5" fill="white"/>
<circle cx="52" cy="92" r="1" fill="white"/>
<circle cx="52" cy="92" r="1" fill="white"/>
<circle cx="52.5" cy="96.5" r="1.5" fill="white"/>
<circle cx="52.5" cy="96.5" r="1.5" fill="white"/>
<circle cx="60.5" cy="84.5" r="2.5" fill="white"/>
<circle cx="60.5" cy="84.5" r="2.5" fill="white"/>
<circle cx="61.5" cy="93.5" r="1.5" fill="#D08700"/>
<circle cx="70" cy="92" r="2" fill="#D08700"/>
<circle cx="82" cy="88" r="2" fill="#BE7500"/>
<circle cx="88" cy="92" r="3" fill="#BE7500"/>
<path d="M67 98C65.8954 98 65 98.8954 65 100H69C69 98.8954 68.1046 98 67 98Z" fill="#C68005"/>
<g clip-path="url(#clip0)">
<path d="M120.875 19.25H116.125C115.469 19.25 114.938 19.7817 114.938 20.4375V33.5C114.938 34.1558 115.469 34.6875 116.125 34.6875H120.875C121.531 34.6875 122.062 34.1558 122.062 33.5V20.4375C122.062 19.7817 121.531 19.25 120.875 19.25Z" fill="#1B1B1C"/>
<path d="M118.5 19.25H120.875C121.531 19.25 122.062 19.7817 122.062 20.4375V33.5C122.062 34.1559 121.531 34.6875 120.875 34.6875H118.5V19.25Z" fill="black"/>
<path d="M122.656 37.6562C122.988 38.4236 123.844 39.4375 123.844 39.4375H118.5V32.9062H122.062C122.062 32.9062 121.92 35.9536 122.656 37.6562Z" fill="#730000"/>
<path d="M114.344 37.6562C113.975 38.4933 113.156 39.4375 113.156 39.4375H118.5V32.9062H114.938C114.938 32.9062 115.162 35.7989 114.344 37.6562Z" fill="#900202"/>
<path d="M118.5 100H126.812C127.468 100 128 99.4684 128 98.8125V47.75C128 47.75 127.689 44.6994 126.812 43C125.983 41.3903 123.844 39.4375 123.844 39.4375H118.5V100Z" fill="#730000"/>
<path d="M118.5 100H110.188C109.532 100 109 99.4684 109 98.8125V47.75C109 47.75 109.311 44.6994 110.188 43C111.017 41.3903 113.156 39.4375 113.156 39.4375H118.5V100Z" fill="#900202"/>
<path d="M122.062 15.6875H114.938C114.282 15.6875 113.75 16.2192 113.75 16.875V20.4375C113.75 21.0933 114.282 21.625 114.938 21.625H122.062C122.718 21.625 123.25 21.0933 123.25 20.4375V16.875C123.25 16.2192 122.718 15.6875 122.062 15.6875Z" fill="#1B1B1C"/>
<path d="M118.5 15.6875H122.062C122.718 15.6875 123.25 16.2192 123.25 16.875V20.4375C123.25 21.0933 122.718 21.625 122.062 21.625H118.5V15.6875Z" fill="black"/>
</g>
<path d="M93 99.5H109.5V100H93V99.5Z" fill="#C4C4C4"/>
<path d="M100.5 73H102.5V98H100.5V73Z" fill="#F2F2F2"/>
<path d="M101.5 73H102.5V98H101.5V73Z" fill="#E4E4E4"/>
<path d="M101.5 99.5H109.5C109.5 99.5 106.106 98.3787 104.5 97.5C102.894 96.6213 101.5 95 101.5 95V99.5Z" fill="#E4E4E4"/>
<path d="M101.5 99.5H93C93 99.5 96.8935 98.3787 98.5 97.5C100.106 96.6213 101.5 95 101.5 95V99.5Z" fill="#F2F2F2"/>
<path d="M101.5 74C109.508 74 116 67.732 116 60C116 52.268 112 48 112 48H91C91 48 87 52.268 87 60C87 67.732 93.4919 74 101.5 74Z" fill="#F2F2F2"/>
<path d="M101.5 74C109.508 74 116 67.732 116 60C116 52.268 112 48 112 48H101.5V74Z" fill="#E4E4E4"/>
<path d="M101.5 74C109.508 74 116 67.732 116 60H101.5V61V74Z" fill="#730000"/>
<path d="M101.5 74C93.4919 74 87 67.732 87 60H101.5V61V74Z" fill="#900202"/>
<defs>
<clipPath id="clip0">
<rect width="19" height="84" fill="white" transform="translate(109 16)"/>
</clipPath>
</defs>
</svg>
