<svg width="150" height="100" viewBox="0 0 150 100" fill="none" xmlns="http://www.w3.org/2000/svg">
<g clip-path="url(#clip0)">
<path d="M135 84.3176C135 95.0575 125.636 100 115.5 100C105.364 100 96 95.0575 96 84.3176C96 73.5778 105.364 59.853 115.5 59.853C125.636 59.853 135 73.5778 135 84.3176Z" fill="#D99F5F"/>
<path d="M115.5 100C125.636 100 135 95.0575 135 84.3176C135 73.5778 125.636 59.853 115.5 59.853V100Z" fill="#C98F4F"/>
<path d="M130.412 61C129.265 67.9685 123.102 73.6176 115.5 73.6176C107.898 73.6176 101.736 67.9685 100.589 61C100.589 58.0967 100.511 55.4223 102.309 53.2901C104.827 50.3048 111.066 48.3823 115.5 48.3823C119.935 48.3823 126.174 50.3048 128.692 53.2901C130.489 55.4223 130.412 56.9496 130.412 61Z" fill="#D99F5F"/>
<path d="M115.5 73.6176C123.103 73.6176 129.265 67.9685 130.412 61C130.412 56.9496 130.49 55.4223 128.692 53.2901C126.174 50.3048 119.935 48.3823 115.5 48.3823V73.6176Z" fill="#C98F4F"/>
<path d="M113.042 19.7058H117.958L118.941 54.1176H112.059L113.042 19.7058Z" fill="#5E463C"/>
<path d="M113.042 19.7058H117.958L118.941 54.1176H112.059L113.042 19.7058Z" fill="#5E463C"/>
<path d="M113.042 19.7058H115.664L115.5 54.1176H112.059L113.042 19.7058Z" fill="#865942"/>
<path d="M115.5 70.1766C119.301 70.1766 122.382 67.0952 122.382 63.2942C122.382 59.4932 119.301 56.4119 115.5 56.4119C111.699 56.4119 108.618 59.4932 108.618 63.2942C108.618 67.0952 111.699 70.1766 115.5 70.1766Z" fill="#865942"/>
<path d="M115.5 69.0294C118.667 69.0294 121.235 66.4616 121.235 63.2941C121.235 60.1266 118.667 57.5588 115.5 57.5588C112.332 57.5588 109.765 60.1266 109.765 63.2941C109.765 66.4616 112.332 69.0294 115.5 69.0294Z" fill="#A0735C"/>
<path d="M115.5 67.8823C118.034 67.8823 120.088 65.8281 120.088 63.294C120.088 60.76 118.034 58.7058 115.5 58.7058C112.966 58.7058 110.912 60.76 110.912 63.294C110.912 65.8281 112.966 67.8823 115.5 67.8823Z" fill="#865942"/>
<path d="M115.5 67.8823C118.034 67.8823 120.088 65.828 120.088 63.294C120.088 60.7601 118.034 58.7058 115.5 58.7058V67.8823Z" fill="#5E463C"/>
<path d="M115.5 70.1766C119.301 70.1766 122.382 67.0952 122.382 63.2942C122.382 59.4932 119.301 56.4119 115.5 56.4119V70.1766Z" fill="#5E463C"/>
<path d="M115.5 69.0294C118.667 69.0294 121.235 66.4616 121.235 63.2941C121.235 60.1266 118.667 57.5588 115.5 57.5588C112.332 57.5588 109.765 60.1266 109.765 63.2941C109.765 66.4616 112.332 69.0294 115.5 69.0294Z" fill="#A0735C"/>
<path d="M115.5 69.0294C118.667 69.0294 121.235 66.4616 121.235 63.2941C121.235 60.1266 118.667 57.5588 115.5 57.5588V69.0294Z" fill="#946750"/>
<path d="M115.5 67.8823C118.034 67.8823 120.088 65.8281 120.088 63.294C120.088 60.76 118.034 58.7058 115.5 58.7058C112.966 58.7058 110.912 60.76 110.912 63.294C110.912 65.8281 112.966 67.8823 115.5 67.8823Z" fill="#865942"/>
<path d="M115.5 67.8823C118.034 67.8823 120.088 65.828 120.088 63.294C120.088 60.7601 118.034 58.7058 115.5 58.7058V67.8823Z" fill="#5E463C"/>
<path d="M109.765 77.0588H121.235V78.2059C121.235 80.1065 119.695 81.6471 117.794 81.6471H113.206C111.305 81.6471 109.765 80.1065 109.765 78.2059V77.0588Z" fill="#5E463C"/>
<path d="M109.765 77.0588H115.5V81.6471H113.206C111.305 81.6471 109.765 80.1065 109.765 78.2059V77.0588Z" fill="#865942"/>
<path d="M111.253 11.9881C111.07 9.97287 112.656 8.23535 114.68 8.23535H116.32C118.344 8.23535 119.93 9.97287 119.747 11.9881L119.131 18.7666C119.023 19.9482 118.033 20.853 116.846 20.853H114.154C112.967 20.853 111.977 19.9482 111.869 18.7666L111.253 11.9881Z" fill="#D99F5F"/>
<path d="M119.131 18.7666L119.747 11.9881C119.93 9.97287 118.344 8.23535 116.32 8.23535H115.5V20.853H116.846C118.033 20.853 119.023 19.9482 119.131 18.7666Z" fill="#C98F4F"/>
</g>
<path d="M85.5 87.434C95.7172 87.434 104 74.8063 104 64.3962H67C67 74.8063 75.2828 87.434 85.5 87.434Z" fill="#1F3347"/>
<path d="M85.5 87.434C95.7172 87.434 104 74.8063 104 64.3962H85.5V87.434Z" fill="#112539"/>
<path d="M76.7735 91.6226H94.2264L96.3207 99.9999H74.6792L76.7735 91.6226Z" fill="#003E6C"/>
<path d="M96.3208 99.9999L94.2264 91.6226H85.5V99.9999H96.3208Z" fill="#003260"/>
<path d="M78.4627 85.3396H92.5375L94.2265 91.8036H76.7737L78.4627 85.3396Z" fill="#E59C00"/>
<path d="M94.2264 91.8036L92.5374 85.3396H85.5V91.8036H94.2264Z" fill="#D48B00"/>
<path d="M67 63.6981C67 63.3126 67.3126 63 67.6981 63H103.302C103.687 63 104 63.3126 104 63.6981V64.3962H67V63.6981Z" fill="#C68005"/>
<path d="M85.5 63H103.302C103.687 63 104 63.3126 104 63.6981V64.3962H85.5V63Z" fill="#B67000"/>
<defs>
<clipPath id="clip0">
<rect width="39" height="92" fill="white" transform="translate(96 8)"/>
</clipPath>
</defs>
</svg>
