<svg width="150" height="100" viewBox="0 0 150 100" fill="none" xmlns="http://www.w3.org/2000/svg">
<path d="M89 57H96V100H89V57Z" fill="#262627"/>
<path d="M93 57H96V100H93V57Z" fill="black"/>
<path d="M59.5 70.5V43.5H116.425C116.783 43.5 117.13 43.6285 117.402 43.8621L132.698 57L117.402 70.1379C117.13 70.3715 116.783 70.5 116.425 70.5H59.5Z" fill="#003E6C" stroke="#E0E0E0" stroke-width="3"/>
<path d="M92 43C92 42.4477 92.4477 42 93 42H116.425C117.142 42 117.835 42.2569 118.379 42.7242L134.117 56.2414C134.581 56.6404 134.581 57.3596 134.117 57.7586L118.379 71.2758C117.835 71.7431 117.142 72 116.425 72H93C92.4477 72 92 71.5523 92 71V43Z" fill="#003260"/>
<path d="M59.5 70.5V43.5H116.425C116.783 43.5 117.13 43.6285 117.402 43.8621L132.698 57L117.402 70.1379C117.13 70.3715 116.783 70.5 116.425 70.5H59.5Z" stroke="#E0E0E0" stroke-width="3"/>
</svg>
