<svg width="150" height="100" viewBox="0 0 150 100" fill="none" xmlns="http://www.w3.org/2000/svg">
<g clip-path="url(#clip0)">
<ellipse cx="131.325" cy="72.5018" rx="4.58022" ry="11.6332" transform="rotate(-20 131.325 72.5018)" fill="#452D23"/>
<ellipse rx="4.58022" ry="11.6332" transform="matrix(-0.939693 -0.34202 -0.34202 0.939693 96.3251 72.5018)" fill="#573F35"/>
<ellipse cx="114.5" cy="77" rx="23" ry="16.5" transform="rotate(-90 114.5 77)" fill="#5E463C"/>
<path d="M131 77C131 64.2975 123.389 54 114 54V100C123.389 100 131 89.7025 131 77Z" fill="#553D33"/>
<ellipse cx="98.5" cy="37" rx="6.5" ry="6" fill="#865942"/>
<ellipse cx="128.5" cy="37" rx="6.5" ry="6" fill="#865942"/>
<ellipse cx="128" cy="37.5" rx="4" ry="3.5" fill="#A0735C"/>
<ellipse cx="128" cy="37.5" rx="4" ry="3.5" fill="#A0735C"/>
<ellipse cx="128" cy="37.5" rx="4" ry="3.5" fill="#A0735C"/>
<ellipse cx="128" cy="37.5" rx="4" ry="3.5" fill="#A0735C"/>
<ellipse cx="99" cy="37.5" rx="4" ry="3.5" fill="#A0735C"/>
<ellipse cx="99" cy="37.5" rx="4" ry="3.5" fill="#A0735C"/>
<ellipse cx="99" cy="37.5" rx="4" ry="3.5" fill="#A0735C"/>
<ellipse cx="99" cy="37.5" rx="4" ry="3.5" fill="#A0735C"/>
<ellipse cx="114" cy="47.5" rx="18" ry="16.5" fill="url(#paint0_linear)"/>
<ellipse cx="114" cy="54.5" rx="8" ry="7.5" fill="#A1745D"/>
<path d="M114 62C118.418 62 122 58.6421 122 54.5C122 50.3579 118.418 47 114 47V62Z" fill="#946750"/>
<path d="M101.681 84.6231C107.018 83.6334 110.672 88.4797 111.337 92.0618C112.001 95.6439 104.15 98.6504 98.8126 99.6401C93.4755 100.63 95.3109 98.2053 94.6467 94.6233C93.9824 91.0412 96.3442 85.6128 101.681 84.6231Z" fill="#573F35"/>
<path d="M127.232 84.6231C121.895 83.6334 118.241 88.4797 117.577 92.0618C116.913 95.6439 124.764 98.6504 130.101 99.6401C135.438 100.63 133.603 98.2053 134.267 94.6233C134.931 91.0412 132.569 85.6128 127.232 84.6231Z" fill="#452D23"/>
<ellipse cx="97" cy="89" rx="11" ry="10" transform="rotate(-90 97 89)" fill="#865942"/>
<ellipse rx="11" ry="10" transform="matrix(0 -1 -1 0 131.631 89)" fill="#865942"/>
<path d="M116 54C116 54.5523 115.105 56 114 56C112.895 56 112 54.5523 112 54C112 53.4477 112.895 53 114 53C115.105 53 116 53.4477 116 54Z" fill="#262627"/>
<circle cx="122.5" cy="47.5" r="2.5" fill="#F2F2F2"/>
<circle cx="105.5" cy="47.5" r="2.5" fill="#F2F2F2"/>
<circle cx="105.5" cy="47.5" r="1.5" fill="#262627"/>
<circle cx="122.5" cy="47.5" r="1.5" fill="#262627"/>
<g clip-path="url(#clip1)">
<path d="M63.0208 74.0994H57.0245C56.7588 74.0994 56.5435 74.3147 56.5435 74.5804V74.7781C56.5435 75.0437 56.7588 75.2591 57.0245 75.2591H63.0208C63.2865 75.2591 63.5019 75.0437 63.5019 74.7781V74.5804C63.5019 74.3147 63.2865 74.0994 63.0208 74.0994Z" fill="#C31018"/>
<path d="M53.7044 76.113C53.8731 75.3865 54.5204 74.8723 55.2662 74.8723H66.9241C67.8097 74.8723 68.5275 75.5902 68.5275 76.4757V85.6965L51.5181 85.5274L53.7044 76.113Z" fill="#E0E0E0"/>
<path d="M51.5181 85.3101H68.5275V95.7191C68.5275 96.1619 68.1686 96.5208 67.7258 96.5208H52.9611C52.1641 96.5208 51.5181 95.8748 51.5181 95.0778V85.3101Z" fill="#C31018"/>
<path d="M55.7705 89.4964C55.7705 89.3194 55.9141 89.1758 56.0912 89.1758H68.5276V90.7221H56.0912C55.9141 90.7221 55.7705 90.5785 55.7705 90.4014V89.4964Z" fill="#E0E0E0"/>
<path d="M69.3005 85.3101H101V95.7191C101 96.1619 100.641 96.5208 100.198 96.5208H70.1022C69.6595 96.5208 69.3005 96.1619 69.3005 95.7191V85.3101Z" fill="#C31018"/>
<path d="M91.0595 85.3101H101V95.7191C101 96.1619 100.641 96.5208 100.198 96.5208H88.2181C87.6645 96.5208 87.2775 95.973 87.4626 95.4512L91.0595 85.3101Z" fill="#B30008"/>
<path d="M101 89.1758H69.3005V90.7221H101V89.1758Z" fill="#E0E0E0"/>
<path d="M101 85.3099V82.0482V76.7224C101 75.7006 100.171 74.8723 99.1497 74.8723H70.1022C69.6595 74.8723 69.3005 75.2313 69.3005 75.674V85.3099H101Z" fill="#C31018"/>
<path d="M101 85.3099V82.0482V76.7224C101 75.7006 100.172 74.8723 99.1499 74.8723H95.4132C95.0583 74.8723 94.7456 75.1058 94.6447 75.4463L91.7222 85.3099H101Z" fill="#B30008"/>
<path d="M101 83.7637H69.3005V85.31H101V83.7637Z" fill="#E0E0E0"/>
<path fill-rule="evenodd" clip-rule="evenodd" d="M57.7034 66.3677H54.2242L51.1316 66.3677V71.3932H54.2242H57.7034H58.09H61.1826H61.5692H63.8887H64.6618H67.7544H68.141H70.4605H71.2336H73.5531H74.3263H77.0323H77.4189H80.1249H80.5115H83.2175H83.9907H86.6967H87.0833H89.7894H90.1759H93.2686H93.6551H96.3612H96.7478H100.614V66.3677H96.7478H96.3612H93.6551H93.2686H90.1759H89.7894H87.0833H86.6967H83.9907H83.2175H80.5115H80.1249H77.4189H77.0323H74.3263H73.5531H71.2336H70.4605H68.141H67.7544H64.6618H63.8887H61.5692H61.1826H58.09H57.7034ZM96.3612 67.1408H94.0417V71.0066H96.3612V67.1408ZM93.2686 67.1408V71.0066H90.5625V67.1408H93.2686ZM89.7894 67.1408H87.4699V71.0066H89.7894V67.1408ZM86.6967 67.1408V71.0066H83.9907V67.1408H86.6967ZM83.2175 67.1408H80.8981V71.0066H83.2175V67.1408ZM80.1249 67.1408V71.0066H77.8055V67.1408H80.1249ZM77.0323 67.1408H74.3263V71.0066H77.0323V67.1408ZM73.5531 67.1408V71.0066H71.2336V67.1408H73.5531ZM70.4605 67.1408H68.141V71.0066H70.4605V67.1408ZM60.796 71.0066H58.09V67.1408H60.796V71.0066ZM57.3168 67.1408H54.6108V71.0066H57.3168V67.1408ZM61.5692 71.0066H63.8887V67.1408H61.5692V71.0066ZM67.3679 71.0066H64.6618V67.1408H67.3679V71.0066ZM51.5182 67.1408H53.8376V71.0066H51.5182V67.1408ZM97.1343 67.1408H99.8404V71.0066H97.1343V67.1408Z" fill="#E0E0E0"/>
<path d="M67.2073 76.0322H57.477C57.3884 76.0322 57.3167 76.104 57.3167 76.1926V83.6034C57.3167 83.692 57.3884 83.7638 57.477 83.7638H67.2073C67.2959 83.7638 67.3677 83.692 67.3677 83.6034V76.1926C67.3677 76.104 67.2959 76.0322 67.2073 76.0322Z" fill="#06446D"/>
<path d="M64.6212 76.133C64.6456 76.0722 64.7046 76.0322 64.7701 76.0322H67.2073C67.2958 76.0322 67.3676 76.104 67.3676 76.1926V83.6034C67.3676 83.692 67.2958 83.7638 67.2073 83.7638H61.8058C61.6923 83.7638 61.6148 83.6492 61.6569 83.5439L64.6212 76.133Z" fill="#03345D"/>
<path d="M53.6766 76.0322H56.3834C56.4719 76.0322 56.5437 76.104 56.5437 76.1926V83.4431C56.5437 83.6202 56.4001 83.7638 56.2231 83.7638H51.9048L53.6766 76.0322Z" fill="#06446D"/>
<path d="M72.0066 76.8997C72.0066 76.6341 72.222 76.4187 72.4876 76.4187H90.0814C90.347 76.4187 90.5623 76.6341 90.5623 76.8997V78.3516H72.0066V76.8997Z" fill="#E0E0E0"/>
<path d="M90.5623 78.3516H72.0066V79.8979H90.5623V78.3516Z" fill="#E0E0E0"/>
<path d="M90.5623 79.8979H72.0066V81.8308H90.5623V79.8979Z" fill="#E0E0E0"/>
<path d="M59.3154 85.6965H56.8641C56.687 85.6965 56.5435 85.8401 56.5435 86.0172V86.149C56.5435 86.3261 56.687 86.4697 56.8641 86.4697H59.3154C59.4925 86.4697 59.6361 86.3261 59.6361 86.149V86.0172C59.6361 85.8401 59.4925 85.6965 59.3154 85.6965Z" fill="black"/>
<path d="M92.1087 88.4026C88.9062 88.4026 86.3101 91.0751 86.3101 94.3718C86.3101 95.1294 86.4471 95.854 86.6972 96.5207H97.5204C97.7702 95.854 97.9074 95.1294 97.9074 94.3718C97.9074 91.0751 95.3111 88.4026 92.1087 88.4026Z" fill="#900202"/>
<path d="M92.1088 100C94.8981 100 97.1592 97.5769 97.1592 94.5879C97.1592 91.5989 94.8981 89.1758 92.1088 89.1758C89.3195 89.1758 87.0583 91.5989 87.0583 94.5879C87.0583 97.5769 89.3195 100 92.1088 100Z" fill="black"/>
<path d="M92.1086 99.2268C94.4847 99.2268 96.4108 97.1499 96.4108 94.5879C96.4108 92.0259 94.4847 89.949 92.1086 89.949C89.7326 89.949 87.8064 92.0259 87.8064 94.5879C87.8064 97.1499 89.7326 99.2268 92.1086 99.2268Z" fill="#262627"/>
<path d="M92.1088 97.2939C93.6584 97.2939 94.9146 96.0824 94.9146 94.5879C94.9146 93.0934 93.6584 91.8818 92.1088 91.8818C90.5592 91.8818 89.303 93.0934 89.303 94.5879C89.303 96.0824 90.5592 97.2939 92.1088 97.2939Z" fill="#C4C4C4"/>
<path d="M92.1087 96.9075C93.4517 96.9075 94.5404 95.869 94.5404 94.588C94.5404 93.307 93.4517 92.2686 92.1087 92.2686C90.7657 92.2686 89.677 93.307 89.677 94.588C89.677 95.869 90.7657 96.9075 92.1087 96.9075Z" fill="#900202"/>
<path d="M92.0586 92.2686C90.7434 92.2686 89.6772 93.2929 89.6772 94.5565C89.6772 95.1682 89.927 95.7238 90.334 96.1343C90.334 96.1343 89.9533 94.5565 90.8269 93.5308C91.7002 92.5053 93.044 92.473 93.044 92.473C92.744 92.3417 92.41 92.2686 92.0586 92.2686Z" fill="#730000"/>
<path d="M92.0403 89.949C89.7019 89.949 87.8064 91.9976 87.8064 94.5248C87.8064 95.7483 88.2507 96.8596 88.9744 97.6805C88.9744 97.6805 87.3518 94.8617 89.3029 92.2846C91.254 89.7074 93.7922 90.3579 93.7922 90.3579C93.2584 90.0953 92.665 89.949 92.0403 89.949Z" fill="#1B1B1C"/>
<path d="M92.1088 95.3611C92.4187 95.3611 92.6699 95.1015 92.6699 94.7813C92.6699 94.461 92.4187 94.2014 92.1088 94.2014C91.7988 94.2014 91.5476 94.461 91.5476 94.7813C91.5476 95.1015 91.7988 95.3611 92.1088 95.3611Z" fill="#C4C4C4"/>
<path d="M61.5692 88.4026C58.3666 88.4026 55.7705 91.0751 55.7705 94.3718C55.7705 95.1294 55.9076 95.854 56.1576 96.5207H66.9807C67.2308 95.854 67.3678 95.1294 67.3678 94.3718C67.3678 91.0751 64.7717 88.4026 61.5692 88.4026Z" fill="#900202"/>
<path d="M61.569 100C64.3583 100 66.6194 97.5769 66.6194 94.5879C66.6194 91.5989 64.3583 89.1758 61.569 89.1758C58.7797 89.1758 56.5186 91.5989 56.5186 94.5879C56.5186 97.5769 58.7797 100 61.569 100Z" fill="black"/>
<path d="M61.5691 99.2268C63.9451 99.2268 65.8713 97.1499 65.8713 94.5879C65.8713 92.0259 63.9451 89.949 61.5691 89.949C59.193 89.949 57.2668 92.0259 57.2668 94.5879C57.2668 97.1499 59.193 99.2268 61.5691 99.2268Z" fill="#262627"/>
<path d="M61.569 97.2939C63.1186 97.2939 64.3748 96.0824 64.3748 94.5879C64.3748 93.0934 63.1186 91.8818 61.569 91.8818C60.0194 91.8818 58.7632 93.0934 58.7632 94.5879C58.7632 96.0824 60.0194 97.2939 61.569 97.2939Z" fill="#C4C4C4"/>
<path d="M61.5691 96.9075C62.9121 96.9075 64.0008 95.869 64.0008 94.588C64.0008 93.307 62.9121 92.2686 61.5691 92.2686C60.2262 92.2686 59.1375 93.307 59.1375 94.588C59.1375 95.869 60.2262 96.9075 61.5691 96.9075Z" fill="#900202"/>
<path d="M61.519 92.2686C60.2037 92.2686 59.1375 93.2929 59.1375 94.5565C59.1375 95.1682 59.3873 95.7238 59.7944 96.1343C59.7944 96.1343 59.4137 94.5565 60.2872 93.5308C61.1606 92.5053 62.5044 92.473 62.5044 92.473C62.2041 92.3417 61.8704 92.2686 61.519 92.2686Z" fill="#730000"/>
<path d="M61.5007 89.949C59.1624 89.949 57.2668 91.9976 57.2668 94.5248C57.2668 95.7483 57.7111 96.8596 58.4348 97.6805C58.4348 97.6805 56.8123 94.8617 58.7633 92.2846C60.7143 89.7074 63.2526 90.3579 63.2526 90.3579C62.7187 90.0953 62.1255 89.949 61.5007 89.949Z" fill="#1B1B1C"/>
<path d="M61.569 95.3611C61.8789 95.3611 62.1301 95.1015 62.1301 94.7813C62.1301 94.461 61.8789 94.2014 61.569 94.2014C61.2591 94.2014 61.0078 94.461 61.0078 94.7813C61.0078 95.1015 61.2591 95.3611 61.569 95.3611Z" fill="#C4C4C4"/>
<path d="M90.5623 79.8979H72.0066V80.2845H90.5623V79.8979Z" fill="#C4C4C4"/>
<path d="M90.5623 81.8308H72.0066V82.2174H90.5623V81.8308Z" fill="#C4C4C4"/>
<path d="M68.9798 77.1919H68.848C68.6709 77.1919 68.5273 77.3355 68.5273 77.5126V95.0404C68.5273 95.2175 68.6709 95.361 68.848 95.361H68.9798C69.1569 95.361 69.3005 95.2175 69.3005 95.0404V77.5126C69.3005 77.3355 69.1569 77.1919 68.9798 77.1919Z" fill="#262627"/>
<path d="M51.5181 86.4697H53.3565C53.6222 86.4697 53.8375 86.6851 53.8375 86.9507V89.8545C53.8375 90.1201 53.6222 90.3355 53.3565 90.3355H51.5181V86.4697Z" fill="#262627"/>
<path d="M51.5181 86.8564H53.1303C53.3074 86.8564 53.451 87 53.451 87.1771V89.6284C53.451 89.8055 53.3074 89.9491 53.1303 89.9491H51.5181V86.8564Z" fill="#FABD02"/>
<path d="M53.0645 86.8564H53.1304C53.3075 86.8564 53.4511 87 53.4511 87.1771V89.6284C53.4511 89.8055 53.3075 89.9491 53.1304 89.9491H51.9048L53.0645 86.8564Z" fill="#E4A702"/>
<path d="M58.4766 73.3262V74.0994H59.6363V72.1665C58.9958 72.1665 58.4766 72.6858 58.4766 73.3262Z" fill="#0F62BD"/>
<path d="M60.796 73.3262V74.0994H59.6362V72.1665C60.2768 72.1665 60.796 72.6858 60.796 73.3262Z" fill="#084A74"/>
<path d="M57.7034 74.0333C57.7034 73.8562 57.8469 73.7126 58.024 73.7126H60.8619C61.039 73.7126 61.1826 73.8562 61.1826 74.0333V74.0992H57.7034V74.0333Z" fill="#C4C4C4"/>
<path d="M100.614 71.3933H50.3584V71.7799H100.614V71.3933Z" fill="#C4C4C4"/>
<path d="M98.294 72.553H94.4282V74.8724H98.294V72.553Z" fill="#C4C4C4"/>
<path d="M98.294 72.553H97.9075V74.8724H98.294V72.553Z" fill="#ABABAB"/>
<path d="M51.1316 66.3677H50.3584V71.7798H51.1316V66.3677Z" fill="#C31018"/>
<path d="M99.0672 72.6189C99.0672 72.7959 98.9238 72.9395 98.7464 72.9395H96.1679H93.5894C93.412 72.9395 93.2686 72.7959 93.2686 72.6189V71.7798H99.0672V72.6189Z" fill="#C31018"/>
<path d="M90.5623 77.9651H72.0066V78.3517H90.5623V77.9651Z" fill="#C4C4C4"/>
<path d="M56.1166 76.133C56.141 76.0722 56.1999 76.0322 56.2655 76.0322H56.3831C56.4717 76.0322 56.5435 76.104 56.5435 76.1926V83.6034C56.5435 83.692 56.4717 83.7638 56.3831 83.7638H53.3011C53.1877 83.7638 53.1101 83.6492 53.1523 83.5439L56.1166 76.133Z" fill="#03345D"/>
</g>
</g>
<defs>
<linearGradient id="paint0_linear" x1="114" y1="31" x2="114" y2="64" gradientUnits="userSpaceOnUse">
<stop stop-color="#5E463C"/>
<stop offset="0.933702" stop-color="#533B31"/>
</linearGradient>
<clipPath id="clip0">
<rect width="150" height="100" fill="white"/>
</clipPath>
<clipPath id="clip1">
<rect width="51" height="33" fill="white" transform="translate(50 67)"/>
</clipPath>
</defs>
</svg>
