<svg width="150" height="100" viewBox="0 0 150 100" fill="none" xmlns="http://www.w3.org/2000/svg">
<g clip-path="url(#clip0)">
<path d="M60.5503 47.527C60.5503 43.6914 63.6596 40.582 67.4953 40.582H127.685V54.472H60.5503V47.527Z" fill="#003E6C"/>
<path d="M60.5503 49.8418H127.685V54.4718H60.5503V49.8418Z" fill="#002D5B"/>
<path d="M84.2986 54.4719H66.5503V57.5586H84.2986V54.4719Z" fill="#ABABAB"/>
<path d="M84.2985 54.4719H75.0386V57.5586H84.2985V54.4719Z" fill="#9D9D9D"/>
<path d="M68.0935 57.5586H82.7551L81.2118 63.7319H69.6368L68.0935 57.5586Z" fill="#828282"/>
<path d="M75.0386 57.5586H82.7552L81.2119 63.7319H75.0386V57.5586Z" fill="#767676"/>
<path d="M81.2119 63.7319H69.637V64.5036H81.2119V63.7319Z" fill="#ABABAB"/>
<path d="M81.2119 63.7319H75.0386V64.5036H81.2119V63.7319Z" fill="#9D9D9D"/>
<path d="M77.3537 64.5034H73.4954V72.9917H77.3537V64.5034Z" fill="#C4C4C4"/>
<path d="M77.3536 64.5034H75.8103V72.9917H77.3536V64.5034Z" fill="#ABABAB"/>
<path d="M75.4245 75.3067L77.3537 72.9917H73.4954L75.4245 75.3067Z" fill="#828282"/>
<path d="M73.4954 70.6768V72.9917H77.3537L73.4954 70.6768Z" fill="#828282"/>
<path d="M73.4954 65.2751V67.5901H77.3537L73.4954 65.2751Z" fill="#828282"/>
<path d="M77.3537 69.9051V67.5901H73.4954L77.3537 69.9051Z" fill="#828282"/>
<path d="M123.653 54.4719H99.7317V86.8818H123.653V54.4719Z" fill="#1F3347"/>
<path d="M123.654 54.4719H111.307V86.8818H123.654V54.4719Z" fill="#12263A"/>
<path d="M118.252 57.5585C118.252 57.1323 118.597 56.7869 119.023 56.7869H120.567C120.993 56.7869 121.338 57.1323 121.338 57.5585V69.1335C121.338 69.5597 120.993 69.9051 120.567 69.9051H119.023C118.597 69.9051 118.252 69.5597 118.252 69.1335V57.5585Z" fill="#828282"/>
<path d="M120.567 56.7869H121.338C121.765 56.7869 122.11 57.1323 122.11 57.5585V69.1335C122.11 69.5597 121.765 69.9051 121.338 69.9051H120.567V56.7869Z" fill="#767676"/>
<path d="M116.708 56.7869H115.937C115.511 56.7869 115.165 57.1324 115.165 57.5585V59.8735C115.165 60.2997 115.511 60.6452 115.937 60.6452H116.708C117.135 60.6452 117.48 60.2997 117.48 59.8735V57.5585C117.48 57.1324 117.135 56.7869 116.708 56.7869Z" fill="#C4C4C4"/>
<path d="M116.708 61.4167H115.937C115.511 61.4167 115.165 61.7622 115.165 62.1884V64.5034C115.165 64.9296 115.511 65.2751 115.937 65.2751H116.708C117.135 65.2751 117.48 64.9296 117.48 64.5034V62.1884C117.48 61.7622 117.135 61.4167 116.708 61.4167Z" fill="#900202"/>
<path d="M116.708 66.0469H115.937C115.511 66.0469 115.165 66.3924 115.165 66.8185V69.1335C115.165 69.5597 115.511 69.9052 115.937 69.9052H116.708C117.135 69.9052 117.48 69.5597 117.48 69.1335V66.8185C117.48 66.3924 117.135 66.0469 116.708 66.0469Z" fill="#C4C4C4"/>
<path d="M60.377 87.6534C60.377 86.8011 61.0679 86.1101 61.9203 86.1101H127.512C128.364 86.1101 129.055 86.8011 129.055 87.6534V100H60.377V87.6534Z" fill="#003E6C"/>
<path d="M129.228 39.0386H128.457C128.031 39.0386 127.685 39.3841 127.685 39.8102V55.2435C127.685 55.6697 128.031 56.0152 128.457 56.0152H129.228C129.655 56.0152 130 55.6697 130 55.2435V39.8102C130 39.3841 129.655 39.0386 129.228 39.0386Z" fill="#1F3347"/>
<path d="M91.2435 80.7085H58.8336C57.9813 80.7085 57.2903 81.3995 57.2903 82.2518C57.2903 83.1042 57.9813 83.7952 58.8336 83.7952H91.2435C92.0958 83.7952 92.7868 83.1042 92.7868 82.2518C92.7868 81.3995 92.0958 80.7085 91.2435 80.7085Z" fill="#ABABAB"/>
<path d="M75.0386 80.7085H91.2435C92.0959 80.7085 92.7868 81.3994 92.7868 82.2518C92.7868 83.1042 92.0959 83.7952 91.2435 83.7952H75.0386V80.7085Z" fill="#9D9D9D"/>
<path d="M87.3851 83.7952H61.9202V86.1102H87.3851V83.7952Z" fill="#828282"/>
<path d="M87.3852 83.7952H75.0386V86.1102H87.3852V83.7952Z" fill="#767676"/>
<path d="M60.377 95.3701H129.055V100H60.377V95.3701Z" fill="#002D5B"/>
</g>
<defs>
<clipPath id="clip0">
<rect width="79" height="61" fill="white" transform="translate(57 39)"/>
</clipPath>
</defs>
</svg>
