<svg width="150" height="100" viewBox="0 0 150 100" fill="none" xmlns="http://www.w3.org/2000/svg">
<path d="M108 99C108 98.4477 108.448 98 109 98H127C127.552 98 128 98.4477 128 99V100H108V99Z" fill="#1B1B1C"/>
<rect x="117" y="36" width="2" height="64" fill="#1B1B1C"/>
<rect x="106" y="21" width="25" height="15" fill="#FFBE2C"/>
<rect x="118" y="21" width="13" height="15" fill="#EEB100"/>
<path d="M55.355 47.2776C55.1538 43.153 58.1252 39.5553 62.2293 39.0977C66.9865 38.5674 73.1979 38 78 38C82.8021 38 89.0135 38.5674 93.7707 39.0977C97.8748 39.5553 100.846 43.153 100.645 47.2776L99 81H57L55.355 47.2776Z" fill="#C31018"/>
<path d="M99 81L100.641 47.3684C100.844 43.206 97.8172 39.5849 93.6848 39.0458L89.5 38.5L78 38V81H99Z" fill="#900202"/>
<path d="M78 70C66.402 70 57 75.8203 57 83H99C99 75.8203 89.598 70 78 70Z" fill="#AC0001"/>
<path d="M99 83C99 75.8203 89.598 70 78 70V83H99Z" fill="#7E0404"/>
<rect x="56" y="71" width="3" height="29" fill="#262627"/>
<rect x="97" y="71" width="3" height="29" fill="#262627"/>
<circle cx="57.5" cy="72.5" r="2.5" fill="#1B1B1C"/>
<circle cx="57.5" cy="72.5" r="2.5" fill="#1B1B1C"/>
<circle cx="57.5" cy="72.5" r="2.5" fill="#1B1B1C"/>
<circle cx="57.5" cy="72.5" r="2.5" fill="#1B1B1C"/>
<circle cx="98.5" cy="72.5" r="2.5" fill="#1B1B1C"/>
<circle cx="98.5" cy="72.5" r="2.5" fill="#1B1B1C"/>
<circle cx="98.5" cy="72.5" r="2.5" fill="#1B1B1C"/>
<circle cx="98.5" cy="72.5" r="2.5" fill="#1B1B1C"/>
<rect x="59" y="81" width="19" height="9" fill="#C31018"/>
<path d="M78 81H97V90H78V81Z" fill="#900202"/>
</svg>
