<svg class="fill-current inline-block w-full h-full" xmlns="http://www.w3.org/2000/svg" viewBox="0 0 300 300">
    <path
    d="M150 173c6.75 0 12.5-2.5 17.583-7.417C172.5 160.5 175 154.75 175 148c0-6.75-2.5-12.5-7.417-17.583C162.5 125.5 156.75 123 150 123c-6.75 0-12.5 2.5-17.583 7.417C127.5 135.5 125 141.25 125 148c0 6.75 2.5 12.5 7.417 17.583C137.5 170.5 143.25 173 150 173zm0-108.333c22.916 0 42.5 8.333 58.75 24.583s24.583 35.833 24.583 58.75v12.083c0 8.334-2.917 15.417-8.333 21.25-5.834 5.584-12.5 8.334-20.834 8.334-10 0-18.249-4.167-24.499-12.5-8.334 8.333-18.167 12.5-29.667 12.5-11.417 0-21.25-4.167-29.5-12.167-8-8.25-12.167-18-12.167-29.5 0-11.417 4.167-21.25 12.167-29.5 8.25-8 18.083-12.167 29.5-12.167 11.5 0 21.25 4.167 29.5 12.167 8 8.25 12.166 18.083 12.166 29.5v12.083c0 3.417 1.334 6.417 3.834 9 2.5 2.584 5.416 3.917 8.666 3.917 3.5 0 6.417-1.333 8.917-3.917 2.5-2.583 3.583-5.583 3.583-9V148c0-18.25-6.416-33.917-19.583-47.083C183.916 87.75 168.25 81.333 150 81.333s-33.917 6.417-47.083 19.584C89.75 114.083 83.333 129.75 83.333 148s6.417 33.917 19.584 47.083c13.166 13.167 28.833 19.584 47.083 19.584h41.666v16.666H150c-22.917 0-42.5-8.333-58.75-24.583S66.666 170.917 66.666 148 75 105.5 91.25 89.25 127.083 64.667 150 64.667z"
	class="fill-current"
  />
</svg>
