<svg width="1024" height="1024" viewBox="0 0 1024 1024" fill="none" xmlns="http://www.w3.org/2000/svg">
<g clip-path="url(#clip0_1_12)">
<rect width="1024" height="1024" rx="512" fill="#171717"/>
<path d="M168.827 762.421C161.384 753.122 151.149 744.753 138.124 737.314C125.098 728.945 119.05 722.9 119.981 719.181C119.981 715.461 118.12 710.812 114.398 705.233C111.607 698.723 107.885 691.749 103.233 684.31C99.5113 677.801 100.442 665.247 106.024 646.65C111.607 627.122 121.841 601.55 136.728 569.934C151.615 538.318 171.619 501.587 196.74 459.742C206.975 450.443 215.348 437.89 221.861 422.082C228.374 406.274 234.887 398.835 241.4 399.764C242.33 397.905 243.261 396.045 244.191 394.185C246.052 391.395 247.448 389.071 248.378 387.211L249.774 384.421C252.565 375.122 258.147 365.359 266.521 355.13C275.825 343.971 286.06 333.278 297.225 323.049C309.32 311.89 321.416 301.661 333.511 292.362C345.607 283.064 356.306 275.624 365.611 270.045C390.732 254.237 409.805 244.008 422.831 239.359C436.788 234.709 448.883 233.78 459.118 236.569C469.352 239.359 480.982 244.473 494.008 251.912C499.591 255.632 508.43 262.606 520.525 272.835C532.62 283.064 545.646 294.222 559.603 306.311C573.559 318.399 585.189 328.628 594.493 336.997L634.966 373.263L611.241 448.584C612.171 469.041 608.915 487.639 601.471 504.377C594.028 520.185 582.863 542.502 567.976 571.329L510.756 661.993L495.404 628.517C493.543 623.867 491.217 618.288 488.426 611.779C485.634 604.34 483.774 598.296 482.843 593.646C479.121 598.296 472.143 606.665 461.909 618.753C451.674 629.912 443.766 638.281 438.183 643.86C392.593 688.495 352.585 721.041 318.159 741.498C284.664 761.026 255.356 771.72 230.235 773.579C206.044 775.439 185.575 771.72 168.827 762.421ZM240.004 642.465C242.796 644.325 249.774 643.395 260.939 639.676C272.104 635.026 286.99 626.192 305.599 613.174C324.207 595.506 344.676 577.838 367.006 560.17C390.267 541.572 412.131 522.045 432.601 501.587C453.07 481.13 467.956 459.742 477.261 437.425L495.404 408.133C486.1 386.746 477.726 372.798 470.283 366.289C462.839 359.779 455.396 356.525 447.953 356.525C435.857 356.525 420.04 365.824 400.501 384.421C380.963 402.089 360.493 426.266 339.094 456.953C318.625 486.709 299.086 520.185 280.477 557.38C271.173 575.978 261.869 595.041 252.565 614.569C244.191 633.166 240.004 642.465 240.004 642.465ZM745.221 766.605C713.587 782.413 682.418 789.852 651.714 788.923C621.01 787.993 593.563 781.948 569.372 770.79C545.181 758.701 526.573 743.823 513.547 726.155C493.078 697.329 482.378 668.502 481.448 639.676C481.448 610.849 482.378 578.768 484.239 543.432C487.96 504.377 500.056 465.787 520.525 427.661C540.994 388.606 565.185 353.735 593.098 323.049C621.94 292.362 649.388 270.975 675.439 258.886C696.839 247.728 717.308 240.754 736.847 237.964C756.386 235.174 774.064 234.709 789.881 236.569C814.072 238.429 835.006 244.008 852.684 253.307C871.292 261.676 883.853 270.51 890.366 279.809C905.253 295.617 914.557 310.495 918.278 324.444C922 337.462 922.93 349.086 921.07 359.314C920.139 369.543 919.674 379.307 919.674 388.606C910.37 416.502 893.157 445.329 868.036 475.085C843.845 504.842 815.467 525.299 782.903 536.458C762.433 542.967 742.895 547.152 724.286 549.011C706.608 549.941 683.348 547.152 654.505 540.642C633.105 535.993 617.754 536.458 608.449 542.037C599.145 547.617 594.493 561.565 594.493 583.882C594.493 610.849 598.68 631.771 607.054 646.65C616.358 660.598 628.919 668.967 644.736 671.757C654.04 673.616 664.274 674.081 675.439 673.151C686.604 671.292 697.304 668.967 707.539 666.177C720.565 661.528 731.265 655.949 739.638 649.439C748.942 642.93 756.851 636.421 763.364 629.912C769.877 623.402 775.459 618.288 780.111 614.569C784.763 610.849 789.416 608.059 794.068 606.2C799.65 604.34 804.767 603.41 809.42 603.41C815.932 603.41 824.306 608.059 834.541 617.358C845.706 626.657 853.149 637.816 856.871 650.834C855.01 661.993 848.032 675.476 835.936 691.284C823.841 707.092 809.42 721.971 792.672 735.919C776.855 749.867 761.038 760.096 745.221 766.605ZM729.869 451.373C737.312 450.443 748.012 444.399 761.968 433.24C775.925 422.082 788.485 410.458 799.65 398.37C810.815 385.351 816.398 376.517 816.398 371.868C816.398 361.639 810.35 352.805 798.254 345.366C787.09 337.927 771.738 335.137 752.199 336.997C740.103 339.787 728.008 345.831 715.913 355.13C704.748 364.429 693.583 374.658 682.418 385.816C672.183 396.975 663.344 407.204 655.901 416.502C649.388 425.801 645.201 432.311 643.34 436.03C645.201 440.68 651.249 444.399 661.483 447.189C672.648 449.978 684.744 451.838 697.769 452.768C710.795 452.768 721.495 452.303 729.869 451.373Z" fill="white"/>
</g>
<defs>
<clipPath id="clip0_1_12">
<rect width="1024" height="1024" fill="white"/>
</clipPath>
</defs>
</svg>
