<svg xmlns="http://www.w3.org/2000/svg" width="512" height="512" viewBox="0 0 512 512" fill="none">
  <path fill-rule="evenodd" clip-rule="evenodd" d="M497.915 269.074C498.176 142.853 411.928 0 308.015 0C271.524 0 260.386 16.9918 243.14 43.3024C228.022 66.3665 208.21 96.5915 162.511 128.809C142.02 143.249 122.692 154.583 105.151 164.869C49.6247 197.431 12 219.495 12 296.369C12 418.239 113.325 512 254.926 512C393.71 512 497.602 399.312 497.915 269.074ZM350.22 253.913C346.693 233.81 337.678 217.905 323.175 206.198C308.664 194.484 290.307 188.627 268.104 188.627C251.52 188.634 236.854 192.158 224.103 199.197C211.36 206.237 200.935 216.824 194.095 229.675C186.84 242.94 183.212 258.483 183.212 276.305C183.212 294.349 186.836 310 194.084 323.258C200.931 336.115 211.368 346.704 224.124 353.736C236.867 360.783 251.534 364.306 268.124 364.306C290.314 364.299 308.661 358.386 323.164 346.568C337.668 334.75 346.686 318.789 350.22 298.686H312.594C310.522 309.461 305.492 317.958 297.507 324.176C289.521 330.395 279.518 333.504 267.498 333.504C253.816 333.511 242.415 328.642 233.295 318.897C224.176 309.151 219.616 294.951 219.616 276.294C219.623 257.645 224.187 243.5 233.306 233.859C242.425 224.218 253.826 219.397 267.509 219.397C279.55 219.391 289.553 222.448 297.517 228.569C305.482 234.69 310.508 243.138 312.594 253.913H350.22Z" fill="black" style="&#10;"/>
</svg>
