<svg class="fill-current inline-block w-full h-full" xmlns="http://www.w3.org/2000/svg" viewBox="0 0 300 300">
    <path
    d="M150 66.667a83.328 83.328 0 00-58.926 24.407A83.333 83.333 0 0066.667 150c0 36.833 23.916 68.083 57 79.167 4.166.666 5.5-1.917 5.5-4.167v-14.083c-23.084 5-28-11.167-28-11.167-3.834-9.667-9.25-12.25-9.25-12.25-7.584-5.167.583-5 .583-5 8.333.583 12.75 8.583 12.75 8.583C112.5 203.75 124.75 200 129.5 198c.75-5.417 2.917-9.083 5.25-11.167-18.5-2.083-37.917-9.25-37.917-41 0-9.25 3.167-16.666 8.584-22.583-.834-2.083-3.75-10.75.833-22 0 0 7-2.25 22.917 8.5 6.583-1.833 13.75-2.75 20.833-2.75 7.083 0 14.25.917 20.833 2.75 15.917-10.75 22.917-8.5 22.917-8.5 4.583 11.25 1.667 19.917.833 22 5.417 5.917 8.584 13.333 8.584 22.583 0 31.834-19.5 38.834-38.084 40.917 3 2.583 5.75 7.667 5.75 15.417V225c0 2.25 1.334 4.917 5.584 4.167C209.5 218 233.333 186.833 233.333 150A83.33 83.33 0 00150 66.667z"
  />
</svg>
