<svg class="fill-current inline-block w-full h-full"  xmlns="http://www.w3.org/2000/svg" viewBox="0 0 31 32"><path
    d="M10.369 24.837c0 .125-.144.226-.325.226-.207.018-.35-.082-.35-.226 0-.125.143-.224.325-.224.187-.02.35.08.35.224zm-1.944-.28c-.044.124.081.268.269.306.162.062.35 0 .387-.125.038-.125-.081-.27-.268-.325-.163-.044-.344.018-.388.143zm2.762-.107c-.18.044-.306.163-.287.306.019.125.181.206.369.163.181-.044.306-.163.287-.288-.018-.119-.187-.2-.368-.181zM15.3.5C6.631.5 0 7.081 0 15.75c0 6.931 4.362 12.863 10.594 14.95.8.144 1.081-.35 1.081-.756 0-.388-.019-2.525-.019-3.838 0 0-4.375.938-5.294-1.862 0 0-.712-1.819-1.737-2.288 0 0-1.431-.981.1-.962 0 0 1.556.125 2.413 1.612 1.368 2.413 3.662 1.719 4.556 1.306.143-1 .55-1.693 1-2.106-3.494-.387-7.019-.893-7.019-6.906 0-1.719.475-2.581 1.475-3.681-.163-.406-.694-2.082.162-4.244 1.307-.406 4.313 1.688 4.313 1.688 1.25-.35 2.594-.532 3.925-.532s2.675.181 3.925.531c0 0 3.006-2.1 4.313-1.687.856 2.169.325 3.838.162 4.244 1 1.106 1.613 1.969 1.613 3.681 0 6.031-3.682 6.513-7.175 6.906.574.494 1.062 1.431 1.062 2.9 0 2.107-.019 4.713-.019 5.225 0 .406.288.9 1.081.756C26.762 28.613 31 22.681 31 15.75 31 7.081 23.969.5 15.3.5zM6.075 22.056c-.081.063-.063.206.044.325.1.1.244.144.325.063.081-.063.062-.206-.044-.325-.1-.1-.244-.144-.325-.063zM5.4 21.55c-.044.081.019.181.144.244.1.062.225.043.269-.044.043-.081-.02-.181-.144-.244-.125-.037-.225-.018-.269.044zm2.025 2.225c-.1.081-.063.269.081.388.144.143.325.162.406.062.082-.081.044-.269-.08-.388-.138-.143-.326-.162-.407-.062zm-.712-.919c-.1.063-.1.225 0 .369s.268.206.35.144c.1-.081.1-.244 0-.388-.088-.144-.25-.206-.35-.125z"
  /></svg>
