<svg class="fill-current inline-block w-full h-full" viewBox="0 0 87 87" xmlns="http://www.w3.org/2000/svg">
<path fill-rule="evenodd" clip-rule="evenodd" d="M18.997 41.5665C19.9282 42.327 20.5076 43.3592 20.7352 44.6633H18.3169C18.2125 44.0099 17.8658 43.4211 17.3472 43.016C16.8349 42.6189 16.1916 42.4208 15.4172 42.4217C14.5852 42.4012 13.7846 42.7427 13.2193 43.3592C12.6318 43.9852 12.3384 44.9035 12.3394 46.1142C12.3403 47.3249 12.6336 48.246 13.2193 48.8774C13.7815 49.4996 14.5831 49.8456 15.4172 49.8259C16.1916 49.8259 16.8349 49.6241 17.3472 49.2206C17.8641 48.8111 18.2101 48.2209 18.3169 47.5665H20.7352C20.5094 48.8714 19.93 49.9074 18.997 50.6742C18.064 51.4411 16.8852 51.8241 15.4608 51.8232C14.4751 51.8428 13.5009 51.6065 12.6318 51.1368C11.8123 50.68 11.1418 49.9928 10.7018 49.1588C10.2339 48.3068 10 47.2938 10 46.1197C10 44.9456 10.233 43.9367 10.6991 43.0929C11.1391 42.2589 11.8096 41.5717 12.6291 41.1149C13.4982 40.6453 14.4724 40.409 15.458 40.4285C16.8834 40.4285 18.0631 40.8079 18.997 41.5665ZM37.2086 36.7621V51.6886H34.9304V36.7621H37.2086ZM47.6051 41.1204C48.4485 41.5687 49.1435 42.2563 49.6044 43.0984C50.085 43.9586 50.3248 44.9675 50.3239 46.1252C50.323 47.2828 50.0832 48.2981 49.6044 49.1712C49.1435 50.0133 48.4485 50.7009 47.6051 51.1492C46.7165 51.6152 45.7271 51.8511 44.7258 51.8355C43.7279 51.8517 42.7418 51.6158 41.8574 51.1492C41.0148 50.6953 40.3204 50.0049 39.858 49.1615C39.3711 48.294 39.1281 47.2819 39.129 46.1252C39.1299 44.9685 39.3729 43.9595 39.858 43.0984C40.3228 42.2592 41.0168 41.5726 41.8574 41.1204C42.7418 40.6538 43.7279 40.4178 44.7258 40.434C45.7266 40.4169 46.716 40.6508 47.6051 41.1149V41.1204V41.1204ZM43.1073 42.8362C42.5984 43.1204 42.1843 43.5503 41.9172 44.0716C41.6001 44.7057 41.4454 45.4098 41.467 46.1197C41.467 46.9433 41.6171 47.6296 41.9172 48.1787C42.185 48.6995 42.599 49.1292 43.1073 49.4141C44.1213 49.9504 45.3316 49.9504 46.3456 49.4141C46.8537 49.1288 47.2675 48.6993 47.5357 48.1787C47.8349 47.6296 47.9846 46.9433 47.9846 46.1197C47.9846 45.2961 47.8349 44.6134 47.5357 44.0716C47.2682 43.5505 46.8542 43.1208 46.3456 42.8362C45.332 42.298 44.1209 42.298 43.1073 42.8362ZM64.9693 36.3846C65.2586 36.1209 65.6394 35.9832 66.0289 36.0016C66.4214 35.9841 66.8053 36.1215 67.0992 36.3846C67.3679 36.6322 67.5168 36.9853 67.5073 37.3524C67.5196 37.7144 67.3697 38.0628 67.0992 38.3009C66.8001 38.5529 66.4182 38.6827 66.0289 38.6646C65.6427 38.6837 65.2639 38.5537 64.9693 38.3009C64.703 38.0604 64.5565 37.7128 64.5695 37.3524C64.5561 36.9831 64.702 36.6261 64.9693 36.3736V36.3846ZM67.1686 40.5809V51.6996H64.8891V40.5809H67.1686ZM76.4553 41.4388C77.2351 42.1041 77.7116 42.9955 77.8848 44.1128H75.7249C75.653 43.5469 75.3793 43.0267 74.9551 42.6495C74.5362 42.2789 73.9786 42.1005 73.2863 42.1005C72.7123 42.1005 72.2703 42.2377 71.9561 42.5123C71.6401 42.795 71.4677 43.2067 71.4869 43.6324C71.4729 43.9511 71.597 44.2603 71.8269 44.4793C72.0722 44.7058 72.3618 44.8779 72.677 44.9845C73.1527 45.1436 73.6362 45.2783 74.1255 45.388C74.8086 45.5338 75.4804 45.7292 76.1357 45.9728C76.6487 46.1756 77.1026 46.5061 77.455 46.9337C77.8176 47.3711 77.999 47.9659 77.999 48.7182C78.0225 49.5965 77.6331 50.4343 76.949 50.9776C76.2499 51.5569 75.3069 51.846 74.12 51.8451C72.7481 51.8451 71.6388 51.5226 70.7919 50.8774C69.945 50.2322 69.4368 49.3249 69.2672 48.1554H71.4869C71.5403 48.7368 71.8298 49.2699 72.2866 49.6283C72.7527 50.0062 73.3656 50.1947 74.1255 50.1938C74.6695 50.1938 75.0993 50.0492 75.4148 49.76C75.7239 49.4815 75.896 49.0799 75.8854 48.6619C75.9025 48.3143 75.7713 47.976 75.525 47.7326C75.2658 47.4929 74.9595 47.3109 74.626 47.1986C74.1411 47.0369 73.647 46.9054 73.1462 46.8046C72.4856 46.6574 71.8347 46.469 71.1972 46.2405C70.6981 46.0531 70.2566 45.7364 69.9174 45.3222C69.5637 44.8975 69.3874 44.3224 69.3883 43.5967C69.3631 42.7098 69.7513 41.8623 70.4369 41.3071C71.1378 40.7205 72.1075 40.4276 73.3461 40.4285C74.6382 40.4285 75.6746 40.7621 76.4553 41.4292V41.4388V41.4388ZM32.8604 45.7751C32.8722 44.8556 32.6482 43.9487 32.2102 43.1423C31.7787 42.357 31.1336 41.7125 30.351 41.2851C28.5705 40.3807 26.47 40.3848 24.693 41.2961C23.8736 41.7524 23.2032 42.4391 22.7631 43.2727C22.297 44.133 22.064 45.1396 22.064 46.2926C22.064 47.464 22.297 48.4798 22.7631 49.34C23.2027 50.1715 23.8716 50.8566 24.689 51.3125C25.5581 51.7821 26.5323 52.0184 27.5179 51.9989C28.3778 52.0113 29.2302 51.8357 30.0164 51.4841C31.4525 50.8537 32.4808 49.5398 32.7556 47.9838H30.317C30.209 48.6104 29.8606 49.1687 29.3473 49.5377C28.784 49.939 28.1065 50.1443 27.4173 50.1224C26.613 50.146 25.8317 49.8503 25.2412 49.2988C24.6554 48.7497 24.3421 47.9023 24.3013 46.7566H32.7788C32.8364 46.4291 32.8637 46.0968 32.8604 45.7642V45.7751ZM25.2833 43.2727C25.8968 42.7177 26.6986 42.4227 27.522 42.4491C28.0586 42.4435 28.589 42.5643 29.0712 42.8019C29.5471 43.0395 29.9382 43.4204 30.1905 43.8918C30.4072 44.2974 30.5313 44.7467 30.5537 45.2068H24.353C24.4727 44.3713 24.7828 43.723 25.2833 43.2618V43.2727V43.2727ZM61.3447 41.6804C62.1191 42.5178 62.5067 43.7115 62.5076 45.2618V51.7573H60.2213V45.4937C60.2213 44.4953 59.9674 43.723 59.4596 43.1766C58.9519 42.6303 58.2569 42.3558 57.3746 42.353C56.4679 42.353 55.7393 42.6463 55.1889 43.2329C54.6386 43.8195 54.3665 44.6797 54.3729 45.8136V51.7422H52.0879V40.5974H54.3729V43.0449C54.6375 42.2477 55.1602 41.5636 55.8568 41.1025C56.5736 40.6381 57.4111 40.3992 58.2627 40.4162C59.5458 40.4153 60.5731 40.833 61.3447 41.6694V41.6804Z" />
<path fill-rule="evenodd" clip-rule="evenodd" d="M18.997 41.5665C19.9282 42.327 20.5076 43.3592 20.7352 44.6633H18.3169C18.2125 44.0099 17.8658 43.4211 17.3472 43.016C16.8349 42.6189 16.1916 42.4208 15.4172 42.4217C14.5852 42.4012 13.7846 42.7427 13.2193 43.3592C12.6318 43.9852 12.3384 44.9035 12.3394 46.1142C12.3403 47.3249 12.6336 48.246 13.2193 48.8774C13.7815 49.4996 14.5831 49.8456 15.4172 49.8259C16.1916 49.8259 16.8349 49.6241 17.3472 49.2206C17.8641 48.8111 18.2101 48.2209 18.3169 47.5665H20.7352C20.5094 48.8714 19.93 49.9074 18.997 50.6742C18.064 51.4411 16.8852 51.8241 15.4608 51.8232C14.4751 51.8428 13.5009 51.6065 12.6318 51.1368C11.8123 50.68 11.1418 49.9928 10.7018 49.1588C10.2339 48.3068 10 47.2938 10 46.1197C10 44.9456 10.233 43.9367 10.6991 43.0929C11.1391 42.2589 11.8096 41.5717 12.6291 41.1149C13.4982 40.6453 14.4724 40.409 15.458 40.4285C16.8834 40.4285 18.0631 40.8079 18.997 41.5665ZM37.2086 36.7621V51.6886H34.9304V36.7621H37.2086ZM47.6051 41.1204C48.4485 41.5687 49.1435 42.2563 49.6044 43.0984C50.085 43.9586 50.3248 44.9675 50.3239 46.1252C50.323 47.2828 50.0832 48.2981 49.6044 49.1712C49.1435 50.0133 48.4485 50.7009 47.6051 51.1492C46.7165 51.6152 45.7271 51.8511 44.7258 51.8355C43.7279 51.8517 42.7418 51.6158 41.8574 51.1492C41.0148 50.6953 40.3204 50.0049 39.858 49.1615C39.3711 48.294 39.1281 47.2819 39.129 46.1252C39.1299 44.9685 39.3729 43.9595 39.858 43.0984C40.3228 42.2592 41.0168 41.5726 41.8574 41.1204C42.7418 40.6538 43.7279 40.4178 44.7258 40.434C45.7266 40.4169 46.716 40.6508 47.6051 41.1149V41.1204V41.1204ZM43.1073 42.8362C42.5984 43.1204 42.1843 43.5503 41.9172 44.0716C41.6001 44.7057 41.4454 45.4098 41.467 46.1197C41.467 46.9433 41.6171 47.6296 41.9172 48.1787C42.185 48.6995 42.599 49.1292 43.1073 49.4141C44.1213 49.9504 45.3316 49.9504 46.3456 49.4141C46.8537 49.1288 47.2675 48.6993 47.5357 48.1787C47.8349 47.6296 47.9846 46.9433 47.9846 46.1197C47.9846 45.2961 47.8349 44.6134 47.5357 44.0716C47.2682 43.5505 46.8542 43.1208 46.3456 42.8362C45.332 42.298 44.1209 42.298 43.1073 42.8362ZM64.9693 36.3846C65.2586 36.1209 65.6394 35.9832 66.0289 36.0016C66.4214 35.9841 66.8053 36.1215 67.0992 36.3846C67.3679 36.6322 67.5168 36.9853 67.5073 37.3524C67.5196 37.7144 67.3697 38.0628 67.0992 38.3009C66.8001 38.5529 66.4182 38.6827 66.0289 38.6646C65.6427 38.6837 65.2639 38.5537 64.9693 38.3009C64.703 38.0604 64.5565 37.7128 64.5695 37.3524C64.5561 36.9831 64.702 36.6261 64.9693 36.3736V36.3846ZM67.1686 40.5809V51.6996H64.8891V40.5809H67.1686ZM76.4553 41.4388C77.2351 42.1041 77.7116 42.9955 77.8848 44.1128H75.7249C75.653 43.5469 75.3793 43.0267 74.9551 42.6495C74.5362 42.2789 73.9786 42.1005 73.2863 42.1005C72.7123 42.1005 72.2703 42.2377 71.9561 42.5123C71.6401 42.795 71.4677 43.2067 71.4869 43.6324C71.4729 43.9511 71.597 44.2603 71.8269 44.4793C72.0722 44.7058 72.3618 44.8779 72.677 44.9845C73.1527 45.1436 73.6362 45.2783 74.1255 45.388C74.8086 45.5338 75.4804 45.7292 76.1357 45.9728C76.6487 46.1756 77.1026 46.5061 77.455 46.9337C77.8176 47.3711 77.999 47.9659 77.999 48.7182C78.0225 49.5965 77.6331 50.4343 76.949 50.9776C76.2499 51.5569 75.3069 51.846 74.12 51.8451C72.7481 51.8451 71.6388 51.5226 70.7919 50.8774C69.945 50.2322 69.4368 49.3249 69.2672 48.1554H71.4869C71.5403 48.7368 71.8298 49.2699 72.2866 49.6283C72.7527 50.0062 73.3656 50.1947 74.1255 50.1938C74.6695 50.1938 75.0993 50.0492 75.4148 49.76C75.7239 49.4815 75.896 49.0799 75.8854 48.6619C75.9025 48.3143 75.7713 47.976 75.525 47.7326C75.2658 47.4929 74.9595 47.3109 74.626 47.1986C74.1411 47.0369 73.647 46.9054 73.1462 46.8046C72.4856 46.6574 71.8347 46.469 71.1972 46.2405C70.6981 46.0531 70.2566 45.7364 69.9174 45.3222C69.5637 44.8975 69.3874 44.3224 69.3883 43.5967C69.3631 42.7098 69.7513 41.8623 70.4369 41.3071C71.1378 40.7205 72.1075 40.4276 73.3461 40.4285C74.6382 40.4285 75.6746 40.7621 76.4553 41.4292V41.4388V41.4388ZM32.8604 45.7751C32.8722 44.8556 32.6482 43.9487 32.2102 43.1423C31.7787 42.357 31.1336 41.7125 30.351 41.2851C28.5705 40.3807 26.47 40.3848 24.693 41.2961C23.8736 41.7524 23.2032 42.4391 22.7631 43.2727C22.297 44.133 22.064 45.1396 22.064 46.2926C22.064 47.464 22.297 48.4798 22.7631 49.34C23.2027 50.1715 23.8716 50.8566 24.689 51.3125C25.5581 51.7821 26.5323 52.0184 27.5179 51.9989C28.3778 52.0113 29.2302 51.8357 30.0164 51.4841C31.4525 50.8537 32.4808 49.5398 32.7556 47.9838H30.317C30.209 48.6104 29.8606 49.1687 29.3473 49.5377C28.784 49.939 28.1065 50.1443 27.4173 50.1224C26.613 50.146 25.8317 49.8503 25.2412 49.2988C24.6554 48.7497 24.3421 47.9023 24.3013 46.7566H32.7788C32.8364 46.4291 32.8637 46.0968 32.8604 45.7642V45.7751ZM25.2833 43.2727C25.8968 42.7177 26.6986 42.4227 27.522 42.4491C28.0586 42.4435 28.589 42.5643 29.0712 42.8019C29.5471 43.0395 29.9382 43.4204 30.1905 43.8918C30.4072 44.2974 30.5313 44.7467 30.5537 45.2068H24.353C24.4727 44.3713 24.7828 43.723 25.2833 43.2618V43.2727V43.2727ZM61.3447 41.6804C62.1191 42.5178 62.5067 43.7115 62.5076 45.2618V51.7573H60.2213V45.4937C60.2213 44.4953 59.9674 43.723 59.4596 43.1766C58.9519 42.6303 58.2569 42.3558 57.3746 42.353C56.4679 42.353 55.7393 42.6463 55.1889 43.2329C54.6386 43.8195 54.3665 44.6797 54.3729 45.8136V51.7422H52.0879V40.5974H54.3729V43.0449C54.6375 42.2477 55.1602 41.5636 55.8568 41.1025C56.5736 40.6381 57.4111 40.3992 58.2627 40.4162C59.5458 40.4153 60.5731 40.833 61.3447 41.6694V41.6804Z" />
</svg>
