<svg class="fill-current inline-block w-full h-full" viewBox="0 0 87 87" xmlns="http://www.w3.org/2000/svg">
<path d="M21.9072 32H22.2365C24.0939 32.0326 25.9351 32.5627 27.5315 33.5107C29.4215 34.6198 30.9697 36.2629 32.0729 38.1481C34.8295 42.8647 34.8436 49.0502 32.1136 53.7809C31.0993 55.5364 29.7043 57.085 28.0031 58.1969C26.3003 59.3217 24.2817 59.9658 22.2387 60H21.9147C20.4978 59.9713 19.0876 59.6646 17.7917 59.0905C15.294 57.9938 13.2618 55.9812 11.9426 53.6121C10.6913 51.3879 10.0553 48.8423 10 46.2969V45.7526C10.0407 43.6348 10.477 41.5185 11.3436 39.5823C12.3572 37.3032 13.965 35.2623 16.0471 33.8705C17.7695 32.7054 19.8256 32.0358 21.9072 32ZM20.7752 32.2616C18.7452 32.5149 16.8151 33.394 15.2398 34.6904C13.5142 36.0985 12.1962 37.9728 11.3464 40.025C9.79011 43.805 9.79069 48.1982 11.3475 51.9777C12.1104 53.8183 13.2467 55.5146 14.721 56.8608C16.4846 58.4904 18.7717 59.5805 21.1756 59.7797C23.5323 59.9967 25.94 59.351 27.9076 58.046C29.5186 56.9927 30.853 55.5406 31.84 53.8932C33.215 51.6043 33.9281 48.9389 33.9682 46.2746C34.0307 43.0248 33.0891 39.7331 31.1715 37.0937C29.9451 35.4034 28.3118 33.9866 26.4017 33.1238C24.6545 32.3223 22.6826 32.019 20.7752 32.2616Z" stroke="black" stroke-width="0.0938" stroke-miterlimit="10.43"/>
<path d="M21.8255 32.7C22.1142 32.4694 22.512 32.4966 22.8495 32.5811C22.8593 32.7152 22.868 32.8492 22.8669 32.9838C22.7518 32.8915 22.7193 32.7168 22.5744 32.6614C22.3774 32.5719 22.1137 32.6359 22.0111 32.8351C21.8993 33.0526 21.9026 33.3311 22.0198 33.5459C22.1136 33.7169 22.3535 33.8341 22.5347 33.7354C22.5781 33.6127 22.5558 33.4809 22.5527 33.3539C22.4761 33.3398 22.3996 33.3252 22.3232 33.3116L22.3237 33.2351C22.5608 33.2481 22.8049 33.2139 23.0351 33.2845C22.9944 33.3062 22.913 33.3496 22.8723 33.3713C22.8647 33.5161 22.8653 33.6616 22.8707 33.8065C22.5256 33.89 22.1202 33.9259 21.8218 33.6941C21.5059 33.4614 21.5167 32.9333 21.8255 32.7Z" stroke="black" stroke-width="0.0938" stroke-miterlimit="10.43"/>
<path d="M20.631 32.6968C20.8122 32.5796 21.0429 32.5975 21.2485 32.5627C21.1915 32.6306 21.1015 32.6751 21.0662 32.7581C21.0445 33.0945 21.2431 33.4581 21.0542 33.7711C20.86 34.0093 20.4546 34.0831 20.2001 33.903C19.9467 33.6338 20.0482 33.2198 19.8957 32.9067C19.824 32.8871 19.7518 32.8693 19.6797 32.8535C19.9114 32.7347 20.1817 32.7358 20.435 32.7005C20.3732 32.758 20.301 32.8047 20.2456 32.8698C20.2494 33.0814 20.2939 33.2909 20.3405 33.4971C20.3725 33.6322 20.4399 33.7842 20.5836 33.8302C20.7665 33.8921 20.9814 33.763 20.9993 33.5671C21.0216 33.3142 20.9684 33.0587 20.8957 32.8172C20.8762 32.6936 20.7102 32.7429 20.631 32.6968Z" stroke="black" stroke-width="0.0938" stroke-miterlimit="10.43"/>
<path d="M23.5093 32.6304C23.8864 32.7118 24.2955 32.7368 24.6299 32.9452C24.9863 33.1779 24.8925 33.7569 24.5441 33.9496C24.2934 34.0945 23.9906 34.0461 23.7226 33.9849C23.5549 33.9409 23.372 33.93 23.2217 33.8362C23.3091 33.7971 23.4653 33.841 23.4865 33.7157C23.5625 33.4536 23.6135 33.1839 23.6682 32.9169C23.7226 32.7862 23.5728 32.7195 23.5093 32.6304ZM24.0037 32.8459C23.9331 33.1606 23.8425 33.4727 23.7991 33.7928C23.7872 33.9485 24.0042 33.9425 24.1117 33.9355C24.4519 33.8807 24.5707 33.458 24.5084 33.1634C24.4524 32.9392 24.2049 32.867 24.0037 32.8459Z" stroke="black" stroke-width="0.0938" stroke-miterlimit="10.43"/>
<path d="M18.3042 33.2886C18.5473 33.2051 18.7882 33.0591 19.0503 33.0624C18.9895 33.121 18.9146 33.1666 18.8669 33.2376C18.9369 33.5263 19.0411 33.8074 19.1475 34.0847C19.1849 34.2339 19.358 34.1737 19.4573 34.1303C19.6467 34.0777 19.5973 33.8486 19.6825 33.7109C19.7232 33.8493 19.746 33.992 19.7639 34.1352C19.4052 34.2486 19.0568 34.3946 18.6916 34.4847C18.7481 34.4152 18.8164 34.3566 18.8691 34.2839C18.8051 33.9968 18.6938 33.7222 18.5961 33.445C18.5684 33.3049 18.4079 33.3277 18.3042 33.2886Z" stroke="black" stroke-width="0.0938" stroke-miterlimit="10.43"/>
<path d="M25.3361 33.076C25.5754 33.1655 25.8196 33.2524 26.0383 33.3875C25.9585 33.3956 25.8787 33.4064 25.7995 33.4195C25.7008 33.5513 25.6508 33.7114 25.5857 33.8611C25.5276 34.0212 25.4468 34.2051 25.5309 34.3707C25.6296 34.5546 25.9161 34.5899 26.048 34.4211C26.1999 34.2307 26.2856 33.9957 26.3605 33.7667C26.4191 33.6375 26.2656 33.5577 26.2097 33.4601C26.4159 33.5198 26.6232 33.5942 26.7979 33.7217C26.7198 33.7288 26.6422 33.7375 26.5651 33.7488C26.3394 34.0175 26.3307 34.4629 25.9796 34.6203C25.6811 34.7076 25.2748 34.5476 25.1901 34.2307C25.1646 33.8926 25.4082 33.6153 25.4804 33.2968C25.4375 33.2198 25.3822 33.1509 25.3361 33.076Z" stroke="black" stroke-width="0.0938" stroke-miterlimit="10.43"/>
<path d="M17.5574 33.9194C17.782 33.806 18.0609 34.0366 18.0007 34.2781C17.9681 34.5114 17.6474 34.6107 17.4846 34.4436C17.3186 34.3046 17.3599 34.0073 17.5574 33.9194Z" stroke="black" stroke-width="0.0938" stroke-miterlimit="10.43"/>
<path d="M27.0662 33.8704C27.2262 33.9268 27.364 34.0283 27.5024 34.1243C27.56 34.5069 27.6175 34.889 27.6783 35.2704C27.8074 35.0729 27.9626 34.8868 28.0451 34.6637C28.0071 34.5802 27.9593 34.5025 27.9192 34.4206C28.1129 34.5194 28.2903 34.6458 28.4629 34.7777C28.3734 34.7804 28.2838 34.7723 28.1954 34.7798C27.9447 35.068 27.7558 35.4034 27.5382 35.7164C27.5089 35.6958 27.4509 35.6551 27.4216 35.6345C27.3651 35.2112 27.3059 34.788 27.2474 34.3647C27.1068 34.5883 26.9375 34.7966 26.8328 35.0402C26.8643 35.1271 26.9278 35.197 26.9745 35.2763C26.7661 35.2047 26.5903 35.0663 26.4199 34.9317C26.5007 34.929 26.5816 34.9366 26.663 34.9355C26.7753 34.8655 26.8356 34.738 26.9137 34.6349C27.0255 34.458 27.172 34.2942 27.2154 34.0836C27.1628 34.0147 27.1123 33.9442 27.0662 33.8704Z" stroke="black" stroke-width="0.0938" stroke-miterlimit="10.43"/>
<path d="M16.1643 34.4908C16.1746 34.4588 16.1947 34.3953 16.205 34.3638C16.5403 34.5705 16.8648 34.7947 17.2002 35.0014C17.3087 35.0779 17.4433 35.0264 17.5659 35.0361C17.3803 35.1924 17.179 35.3291 16.9712 35.4545C16.9935 35.3877 17.0168 35.3215 17.0423 35.2564C16.9603 35.1993 16.8784 35.143 16.7954 35.0876C16.6868 35.1646 16.5772 35.2406 16.4682 35.3166C16.498 35.4077 16.5235 35.5005 16.5626 35.589C16.6038 35.5824 16.6874 35.5689 16.7292 35.5623L16.7595 35.6133C16.6065 35.7219 16.4546 35.8337 16.288 35.921C16.3228 35.8093 16.4091 35.7045 16.3808 35.5808C16.3222 35.2153 16.2223 34.8566 16.1643 34.4908ZM16.3228 34.7687C16.3586 34.9136 16.3944 35.058 16.4302 35.2022C16.5176 35.1425 16.6049 35.0823 16.6928 35.0227C16.5707 34.9358 16.4471 34.8522 16.3228 34.7687Z" stroke="black" stroke-width="0.0938" stroke-miterlimit="10.43"/>
<path d="M18.4513 35.3486C19.3368 34.6812 20.4699 34.4668 21.5541 34.4044C22.7609 34.348 24.0339 34.4668 25.097 35.0876C26.0699 35.6476 26.7298 36.7291 26.7374 37.8567C26.7374 39.3153 26.7368 40.7739 26.7379 42.2319C26.6391 42.2645 26.5132 42.2786 26.4661 42.3866C26.3868 42.5027 26.4596 42.633 26.5008 42.748C26.5349 42.6422 26.5409 42.5153 26.6289 42.436C26.7081 42.352 26.8312 42.3541 26.9371 42.3335C26.9544 42.4312 27.0049 42.5348 26.9631 42.633C26.9251 42.7052 26.8573 42.7552 26.803 42.8137C26.9382 43.11 27.3033 43.2788 27.6094 43.1453C27.8085 43.0606 28.0017 42.8143 27.8834 42.5977C27.7955 42.6797 27.7195 42.8121 27.5811 42.8034C27.4113 42.811 27.2664 42.639 27.3061 42.473C27.3326 42.3097 27.5253 42.2054 27.6772 42.2711C27.7923 42.3113 27.8297 42.4383 27.8899 42.5316C27.9236 42.4801 27.9566 42.4285 27.9903 42.3764C27.8698 42.3031 27.7174 42.2044 27.7548 42.0384C27.7754 41.7823 28.1639 41.715 28.2714 41.9477C28.3717 42.1246 28.2301 42.308 28.0646 42.3705C28.0988 42.4252 28.1341 42.4795 28.1699 42.5333C28.2285 42.4334 28.2686 42.2934 28.3972 42.2641C28.5654 42.205 28.7608 42.3494 28.7532 42.5278C28.7564 42.6858 28.6072 42.8203 28.451 42.803C28.3201 42.7949 28.2513 42.6701 28.166 42.5897C28.0548 42.8204 28.2518 43.0732 28.465 43.153C28.765 43.2702 29.12 43.1069 29.2475 42.8159C29.127 42.7248 29.1569 42.5598 29.2464 42.46C29.3245 42.3629 29.4597 42.3569 29.5687 42.3167C29.4759 42.2858 29.3826 42.257 29.2892 42.2305C29.2941 40.8939 29.2914 39.5569 29.2908 38.2204C30.4314 39.7582 31.1928 41.5663 31.5395 43.4476C31.9991 45.9161 31.7804 48.512 30.884 50.8594C30.5389 50.8583 30.1938 50.8632 29.8486 50.8578C29.9441 50.9777 30.0635 51.1296 29.9952 51.2924C29.936 51.4237 29.7635 51.4009 29.6452 51.4134C28.5588 51.4172 27.4731 51.4166 26.3866 51.414C26.2553 51.4064 26.0595 51.4188 26.0095 51.2625C25.9558 51.103 26.0741 50.9663 26.1658 50.8512C25.5184 50.8604 24.8711 50.8512 24.2238 50.8561C24.5211 50.4003 24.6443 49.8626 24.7458 49.3357C24.9704 48.1283 24.9384 46.8949 24.9596 45.6723C24.9661 45.3316 24.9449 44.9913 24.9389 44.6506C25.0431 44.4986 25.0176 44.3022 24.9134 44.1568C24.73 43.9174 24.5048 43.6673 24.5037 43.3477C24.4804 42.9266 24.3583 42.5191 24.2242 42.1224C24.3181 42.0963 24.4771 42.13 24.508 42.0052C24.5433 41.8597 24.4418 41.7306 24.3669 41.6166C24.183 41.3735 24.0408 41.093 23.9838 40.7918C23.9176 40.1238 24.1298 39.3978 23.7907 38.7781C23.63 38.4655 23.2648 38.3961 22.9925 38.2203C22.8855 38.5176 22.547 38.6164 22.2615 38.6305C21.9945 38.6381 21.695 38.6018 21.4926 38.4107C21.4091 38.3407 21.414 38.2251 21.3982 38.1274C21.2229 38.1567 21.0455 38.1801 20.8724 38.2208C20.6906 38.2626 20.5505 38.4107 20.4854 38.5811C20.3623 38.8882 20.2386 39.1959 20.1338 39.5101C19.8924 39.2393 19.6318 38.9842 19.3562 38.7493C19.24 38.7352 19.1261 38.7818 19.0132 38.8008C19.4609 39.1855 19.895 39.5996 20.2238 40.0934C19.711 39.8671 19.1423 39.821 18.5894 39.8611C18.5221 39.9544 18.4553 40.0478 18.3881 40.1411C18.8808 40.1042 19.3876 40.0749 19.869 40.2068C20.0274 40.2431 20.1512 40.3511 20.2732 40.451C20.3611 40.5324 20.5359 40.4857 20.5402 40.3555C20.6162 40.0468 20.8251 39.7928 21.0481 39.5758C21.384 39.2573 21.7855 39.0141 22.212 38.8384C22.3705 39.3272 22.5257 39.8173 22.6852 40.3056C22.7986 40.3241 22.9125 40.3436 23.0254 40.3664C22.9494 40.2579 22.8805 40.1444 22.8279 40.0229C22.9988 39.9947 23.2137 40.0017 23.3097 39.8275C23.4454 39.592 23.3065 39.3245 23.224 39.0966C23.2446 39.0917 23.2864 39.0819 23.307 39.077C23.39 39.3115 23.5175 39.5589 23.4487 39.8134C23.4036 39.9719 23.2435 40.0538 23.167 40.1933C23.1274 40.317 23.2191 40.4207 23.3076 40.4933C23.3103 40.5958 23.3113 40.6984 23.313 40.8015C22.9206 40.6805 22.5077 40.6572 22.1002 40.6333C22.1387 40.5991 22.2158 40.5307 22.2543 40.4966C22.1463 40.5003 22.0388 40.5069 21.9309 40.5129C22.0893 40.4022 22.2515 40.2914 22.3622 40.1286C22.3232 40.0765 22.2841 40.025 22.2461 39.9734C22.0785 40.0401 21.9135 40.1156 21.7366 40.1541C21.8375 39.9876 21.9737 39.8432 22.0464 39.6598C21.743 39.7325 21.5802 40.0532 21.2802 40.1486C21.2802 40.0021 21.3003 39.8404 21.1706 39.7379C21.1038 39.974 20.9996 40.1964 20.9324 40.4319C20.7034 40.6202 20.3914 40.7124 20.0973 40.6614C19.9183 40.554 19.7082 40.4058 19.4912 40.5073C19.2735 40.6414 19.1814 40.9045 19.1374 41.1438C19.0913 41.4395 19.0999 41.7461 19.1699 42.0375C19.2177 42.1981 19.3159 42.3859 19.4988 42.4152C19.6409 42.4271 19.7614 42.331 19.8504 42.2312C20.0811 41.9817 20.2275 41.6685 20.3296 41.3479C20.7941 41.2301 21.1131 40.7765 21.6178 40.7846C21.4051 40.9936 21.1077 41.1097 20.9237 41.3479C20.7599 41.7505 20.495 42.1108 20.3854 42.5346C20.3116 42.7142 20.5547 42.8358 20.4853 43.0127C20.3274 43.7132 20.2287 44.4246 20.1407 45.1365C20.1348 45.2358 20.125 45.3693 20.2221 45.4306C20.57 45.5766 20.964 45.4512 21.3128 45.595C21.2895 45.7724 21.3009 45.9689 21.188 46.1203C21.1544 46.002 21.131 45.881 21.1137 45.7594C20.8684 45.7149 20.6161 45.7117 20.3681 45.7112C20.3523 45.7274 20.3214 45.7605 20.3056 45.7768C20.2503 46.0188 20.2752 46.2712 20.2427 46.5164C20.1737 47.0102 20.1971 47.51 20.1678 48.0071C20.1261 48.7532 20.0946 49.5004 20.0664 50.2471C19.636 50.2471 19.1976 50.2514 18.7792 50.1364C18.6701 50.0995 18.5107 50.0528 18.5133 49.9101C18.6457 49.6611 18.9111 49.5325 19.1466 49.4012C19.4352 49.1217 19.5682 48.7255 19.6746 48.3479C19.7375 48.0787 19.8439 47.8144 19.8325 47.5339C19.7061 47.5811 19.6181 47.6843 19.5622 47.8036C19.4244 48.0652 19.3012 48.3826 19.0082 48.5047C18.8427 48.5644 18.7298 48.3691 18.7298 48.228C18.7201 47.9518 18.8742 47.6235 19.1639 47.5562C19.2204 47.6088 19.2779 47.6609 19.3354 47.713C19.7321 47.1253 20.005 46.4432 20.0397 45.7302C20.0365 45.5538 20.0484 45.3194 19.8678 45.2212C19.7419 45.2651 19.7131 45.4203 19.6078 45.4942C19.5411 45.4247 19.5286 45.3286 19.5509 45.238C19.6344 44.7524 19.8005 44.2862 19.9622 43.8223C20.0463 43.5705 20.1727 43.3312 20.2264 43.0702C20.1813 42.997 20.1043 42.9427 20.0799 42.8586C20.1726 42.3339 20.4836 41.8857 20.6557 41.3897C20.4668 41.5047 20.3963 41.7266 20.2883 41.9074C19.7506 42.9688 19.4369 44.1294 19.2167 45.2945C19.1765 45.5528 19.0935 45.8501 19.2492 46.0862C19.3355 46.1969 19.4669 46.0959 19.5694 46.0694C19.4044 46.6467 18.9312 47.0575 18.7136 47.6099C18.5562 47.9978 18.4054 48.4743 18.6371 48.8634C18.7065 48.9958 18.7988 49.1471 18.7364 49.3007C18.6062 49.6307 18.1965 49.7419 18.0739 50.0772C18.0066 50.2286 18.0858 50.3974 18.2014 50.5C18.3652 50.6465 18.5638 50.7457 18.7467 50.8651C18.4531 50.8656 18.1601 50.8684 17.8666 50.8629C17.9632 50.9845 18.0804 51.137 18.0142 51.3025C17.9528 51.4381 17.7733 51.4115 17.6517 51.4246C16.5664 51.4251 15.4806 51.4235 14.3953 51.4213C14.2727 51.4138 14.105 51.4305 14.0377 51.302C13.9639 51.1392 14.0838 50.9862 14.1788 50.8657C13.8711 50.8717 13.5628 50.8684 13.2546 50.87C12.4884 48.8623 12.2166 46.6722 12.4428 44.5364C12.6789 42.2579 13.4988 40.0277 14.8804 38.1924C14.882 39.5512 14.8771 40.91 14.8825 42.2687C14.7616 42.2572 14.6433 42.279 14.5304 42.3208C14.659 42.3658 14.8223 42.3858 14.8907 42.5226C14.9721 42.6377 14.8837 42.769 14.888 42.8927C15.0519 43.1906 15.4887 43.2921 15.7595 43.081C15.9006 42.9735 16.0226 42.7674 15.919 42.5953C15.8376 42.6724 15.7725 42.795 15.6466 42.8032C15.4876 42.8255 15.3314 42.6866 15.3379 42.5259C15.3336 42.348 15.5283 42.2052 15.6961 42.266C15.8241 42.2964 15.8637 42.4364 15.9218 42.5362C15.9571 42.4815 15.9918 42.4266 16.026 42.3713C15.9397 42.3122 15.8209 42.2655 15.7981 42.1498C15.7443 41.9783 15.8968 41.7896 16.0753 41.8025C16.243 41.8047 16.3775 41.9794 16.3325 42.1422C16.3119 42.2616 16.1888 42.3115 16.1024 42.3772C16.1345 42.4298 16.1665 42.483 16.1996 42.5357C16.2609 42.4412 16.299 42.3099 16.4173 42.2708C16.5871 42.1998 16.796 42.3414 16.7906 42.5259C16.7988 42.6963 16.6235 42.8368 16.459 42.7994C16.3467 42.7788 16.2864 42.6681 16.2066 42.5997C16.0894 42.8217 16.288 43.0701 16.4926 43.1521C16.797 43.2774 17.1557 43.1087 17.2887 42.8157C17.1248 42.7088 17.0694 42.5172 17.153 42.3393C17.2566 42.3637 17.3792 42.3637 17.4569 42.4489C17.5393 42.5297 17.5469 42.654 17.5904 42.756C17.6218 42.6399 17.6919 42.5075 17.6148 42.3941C17.56 42.2742 17.4189 42.2644 17.3077 42.2389C17.3077 40.7249 17.312 39.211 17.305 37.697C17.2765 36.7893 17.723 35.8886 18.4513 35.3486ZM21.3489 34.9248C21.3848 34.997 21.5703 35.1451 21.4037 35.1696C21.2111 35.0632 21.0353 34.9069 20.8074 34.8836C20.5931 34.8537 20.3277 34.9313 20.2349 35.144C20.185 35.2623 20.306 35.3431 20.3668 35.4257C20.2936 35.5548 20.2078 35.6964 20.2409 35.8516C20.292 36.1572 20.7473 36.3113 20.9485 36.0573C21.0977 35.8831 21.0137 35.6356 21.0815 35.436C21.1406 35.3057 21.4483 35.2987 21.4391 35.4609C21.3387 35.5944 21.1998 35.6991 21.1309 35.8554C21.0402 36.0372 21.0462 36.245 20.9996 36.4387C20.9301 36.6406 20.6821 36.6992 20.5921 36.8869C20.5177 37.0762 20.7206 37.2092 20.7782 37.3709C20.7158 37.556 20.5389 37.6672 20.4201 37.8137C20.7837 37.8712 21.1537 37.8235 21.5162 37.7779C21.4896 37.7529 21.4376 37.7025 21.4115 37.6775C21.183 37.6867 20.9551 37.7003 20.7266 37.6965C20.8944 37.5543 21.0593 37.3362 20.9632 37.1056C20.935 36.9933 20.7989 36.8419 20.935 36.7507C21.1657 36.6248 21.4445 36.6596 21.6844 36.741C21.5297 36.76 21.362 36.7415 21.2215 36.8202C21.2199 36.8522 21.2166 36.9168 21.215 36.9493C21.3713 36.9152 21.5287 36.8826 21.6893 36.8761C21.6399 36.9048 21.5905 36.9331 21.5412 36.9613C21.5314 36.9955 21.5124 37.0639 21.5032 37.0981C21.437 37.085 21.3887 37.0449 21.3589 36.9781C21.3334 36.9841 21.2812 36.9955 21.2552 37.0014C21.3426 37.2662 21.3806 37.5718 21.597 37.7703C21.7229 37.887 21.9063 37.8442 22.062 37.8626C21.96 37.9336 21.8412 37.9683 21.7191 37.983C21.7251 38.0041 21.7365 38.0465 21.7419 38.0677C21.6687 38.0807 21.5959 38.0948 21.5232 38.1089C21.5769 38.4751 22.0045 38.5886 22.3198 38.5511C22.5548 38.5277 22.8614 38.4014 22.8733 38.1268C22.7952 37.9493 22.6801 37.7854 22.6525 37.5885C23.0009 37.5521 23.3612 37.5499 23.6917 37.4219C23.5121 37.296 23.2516 37.3003 23.1165 37.1126C23.0373 36.9422 23.1214 36.7338 23.0281 36.5656C22.9614 36.4359 22.8143 36.3898 22.6943 36.3257C22.7025 36.0457 22.5353 35.8233 22.3693 35.6176C22.6596 35.6333 22.7079 36.0088 22.9814 36.0538C23.1751 36.0941 23.4112 36.1098 23.5642 35.9594C23.7383 35.8021 23.7569 35.5438 23.7004 35.33C23.6201 35.0733 23.2511 35.0288 23.0558 35.1726C22.9939 35.3039 22.995 35.4943 22.8393 35.5573C22.6716 35.6387 22.5088 35.509 22.3726 35.4244C22.5207 35.3202 22.7238 35.1976 22.6885 34.9843C22.6874 34.7607 22.4101 34.6278 22.2212 34.7233C22.0845 34.7716 22.0622 34.9322 21.9971 35.0429C21.8045 34.9729 21.9233 34.6782 21.7226 34.625C21.5351 34.5363 21.254 34.7061 21.3489 34.9248ZM13.0716 42.3215C13.1644 42.3562 13.2675 42.3725 13.3506 42.4295C13.4531 42.5082 13.4662 42.6471 13.5118 42.7589C13.5552 42.6254 13.6165 42.4577 13.4955 42.3448C13.3836 42.2151 13.2084 42.2694 13.0716 42.3215ZM18.5984 42.3269C18.6917 42.3638 18.7965 42.3812 18.8784 42.443C18.9733 42.5179 18.9815 42.6487 19.0205 42.7545C19.0786 42.6313 19.1334 42.4707 19.0211 42.3595C18.9153 42.2227 18.7335 42.2683 18.5984 42.3269ZM25.0904 42.3182C24.9472 42.423 24.9944 42.6113 25.0438 42.7523C25.0965 42.6351 25.1138 42.481 25.2348 42.4077C25.3146 42.3671 25.4041 42.3491 25.4893 42.321C25.3623 42.2759 25.206 42.2114 25.0904 42.3182ZM30.5933 42.3384C30.4706 42.4517 30.5287 42.6216 30.5737 42.7556C30.6096 42.665 30.6253 42.5646 30.6796 42.4821C30.7566 42.3731 30.9004 42.3632 31.016 42.3204C30.8804 42.2705 30.7061 42.2097 30.5933 42.3384ZM13.6826 42.5364C13.802 42.5858 13.9621 42.5987 14.031 42.7258C14.0694 42.8056 14.088 42.8934 14.1151 42.9781C14.1694 42.8418 14.228 42.6661 14.0967 42.5532C13.9838 42.4322 13.8156 42.4908 13.6826 42.5364ZM17.99 42.5412C18.097 42.5841 18.2277 42.5961 18.3086 42.6877C18.3796 42.767 18.3846 42.8804 18.416 42.9775C18.4741 42.8544 18.5332 42.6943 18.4241 42.5792C18.3173 42.4327 18.13 42.4902 17.99 42.5412ZM25.6683 42.5663C25.5473 42.6808 25.6043 42.8479 25.67 42.9737C25.6987 42.8739 25.7041 42.7589 25.7796 42.6801C25.8594 42.5923 25.9858 42.5814 26.0911 42.5401C25.9554 42.4881 25.7774 42.4339 25.6683 42.5663ZM29.9682 42.5739C29.8602 42.6905 29.9275 42.8452 29.9758 42.9716C30.0137 42.856 30.0235 42.7134 30.132 42.6374C30.2145 42.5837 30.3139 42.5684 30.4049 42.5337C30.2639 42.4767 30.074 42.4273 29.9682 42.5739ZM17.3399 42.8815C17.3899 43.0307 17.4463 43.2017 17.6004 43.2738C17.7589 43.3584 17.9407 43.3069 18.104 43.2673C17.9515 43.2602 17.7811 43.2922 17.6465 43.2017C17.5114 43.1143 17.4685 42.951 17.4127 42.8104C17.3942 42.8283 17.3579 42.8636 17.3399 42.8815ZM26.6647 42.8099C26.6158 42.9455 26.5751 43.0991 26.4503 43.1865C26.3163 43.2874 26.1388 43.2537 25.9831 43.2641C26.1448 43.3032 26.325 43.352 26.4818 43.2689C26.638 43.1973 26.6951 43.0242 26.7422 42.8728C26.7227 42.8571 26.6841 42.8256 26.6647 42.8099ZM18.4079 43.8164C16.8343 43.8153 15.2611 43.8164 13.6881 43.8159C13.6875 44.8518 13.6887 45.8871 13.6875 46.923C13.6875 47.1792 13.6984 47.4375 13.7624 47.6871C13.9469 48.45 14.5357 49.0979 15.2753 49.3601C15.7999 49.557 16.3785 49.5294 16.9097 49.3737C16.2846 49.6922 15.5308 49.7427 14.8754 49.4844C14.8759 49.8794 14.8754 50.2739 14.8759 50.669C15.6861 50.669 16.4963 50.6695 17.3064 50.669C17.3075 50.1692 17.3042 49.6699 17.308 49.1702C17.8365 48.8538 18.2418 48.3345 18.4019 47.7382C18.5126 47.3492 18.4887 46.9411 18.4909 46.5412C18.4893 45.5482 18.4947 44.5551 18.4871 43.5621C18.473 43.3326 18.5348 43.1106 18.6206 42.9001C18.3872 43.1463 18.3987 43.5007 18.4079 43.8164ZM25.5278 42.8945C25.5935 43.072 25.663 43.2532 25.658 43.4458C25.6618 44.4996 25.658 45.5539 25.6596 46.6078C26.0476 46.6078 26.4361 46.6078 26.8241 46.6078C26.8241 46.3923 26.8241 46.1764 26.8247 45.961C26.7037 45.987 26.5833 46.012 26.4633 46.0396C26.4644 46.0869 26.4666 46.1807 26.4677 46.228C26.4297 46.178 26.3917 46.1275 26.3537 46.0782C26.3423 46.1205 26.3195 46.2047 26.3081 46.2464C26.2994 46.2041 26.2816 46.1184 26.2723 46.0754C26.2424 46.0939 26.1827 46.1308 26.1529 46.1492C26.1709 46.0603 26.1877 45.9713 26.2029 45.8823C26.2636 45.9077 26.325 45.9338 26.3857 45.9604C26.4714 45.9088 26.5577 45.8579 26.6445 45.8079C26.6011 45.7786 26.5572 45.7515 26.5143 45.7227C26.6428 45.6598 26.7302 45.5463 26.8225 45.4417C26.8246 45.3994 26.8285 45.3142 26.8306 45.2718C26.7698 45.243 26.7084 45.2143 26.6477 45.1866C26.5137 45.3331 26.3249 45.4319 26.2337 45.6147C26.1979 45.5995 26.162 45.5843 26.1262 45.5696C26.0899 45.6082 26.0535 45.6467 26.0171 45.6853C26.022 45.6424 26.0312 45.5566 26.0356 45.5138C26.0024 45.5333 25.9362 45.5729 25.9032 45.593C25.9243 45.5138 25.9309 45.4318 25.9314 45.3504C26.01 45.3684 26.0877 45.3932 26.162 45.4258C26.2586 45.3194 26.3574 45.2153 26.4594 45.1138C26.3927 45.1019 26.3259 45.0894 26.2597 45.0769C26.3395 45.0476 26.4193 45.0177 26.4996 44.9874C26.2842 44.8354 26.1225 44.6027 25.8603 44.5267C25.9005 44.518 25.9814 44.5006 26.022 44.492C25.9867 44.4616 25.9162 44.4008 25.8815 44.3704L26.022 44.3943C26.0047 44.3666 25.9694 44.3123 25.9515 44.2847C26.0139 44.2961 26.0763 44.2955 26.1387 44.2847C26.1534 44.3498 26.1675 44.4154 26.1816 44.4817C26.3813 44.5865 26.5805 44.8913 26.8251 44.7611C26.9836 44.6862 26.8094 44.5614 26.7161 44.5381C26.7888 44.5185 26.862 44.4996 26.9353 44.4816C26.855 44.4311 26.7758 44.3791 26.6982 44.3248C26.772 44.2803 26.8469 44.2374 26.9212 44.1935C27.0455 44.2152 27.1724 44.2251 27.2978 44.2039C27.2517 44.3727 27.1952 44.5533 27.2913 44.7178C27.2425 44.7156 27.1443 44.7118 27.0955 44.7097C27.1796 44.8182 27.3043 44.8725 27.4308 44.9159C27.3163 44.9463 27.1986 44.9625 27.0813 44.9777C27.2751 45.1052 27.478 45.2382 27.7233 45.1932C27.707 44.9002 27.3967 44.7275 27.3891 44.4363C27.4275 44.2501 27.6571 44.2832 27.7993 44.2555C28.0179 44.3695 27.859 44.6397 27.8818 44.8275C27.7135 44.7217 27.6023 44.5529 27.624 44.3467C27.5568 44.3733 27.4591 44.382 27.4673 44.4785C27.5307 44.7385 27.7977 44.9067 27.8015 45.1899C27.8808 45.1899 27.9611 45.1899 28.0414 45.1905C28.0414 44.7309 28.0414 44.2718 28.0414 43.8128C27.2763 43.8123 26.5116 43.8134 25.7471 43.8123C25.753 43.4958 25.7704 43.1365 25.5278 42.8945ZM13.6365 43.0085C13.7271 43.1311 13.8302 43.2608 13.9854 43.3009C14.1298 43.3498 14.2806 43.3042 14.4222 43.2673C14.241 43.2629 14.0266 43.2911 13.8878 43.1468C13.8091 43.0888 13.7531 42.9656 13.6365 43.0085ZM30.3584 42.9786C30.2721 43.0735 30.1896 43.1837 30.0648 43.2304C29.9378 43.276 29.7994 43.2581 29.667 43.2673C29.8097 43.3015 29.9606 43.3432 30.1061 43.2966C30.2477 43.2586 30.3437 43.1413 30.4371 43.0361C30.4175 43.0215 30.3779 42.9928 30.3584 42.9786ZM28.1341 43.8122C28.1384 44.2706 28.1351 44.7292 28.1362 45.1877C28.3669 45.1877 28.598 45.1883 28.8291 45.1861C28.7906 45.1563 28.7136 45.0971 28.675 45.0672C28.7527 45.0455 28.8302 45.0233 28.9079 44.9999C28.7136 44.8432 28.5573 44.6158 28.3055 44.5496C28.3305 44.5344 28.3793 44.5029 28.4037 44.4871C28.3885 44.4611 28.3587 44.409 28.344 44.3824C28.4102 44.3428 28.4775 44.3048 28.5448 44.2663C28.573 44.3635 28.5649 44.4899 28.6691 44.5447C28.8063 44.6391 28.9599 44.8198 29.1379 44.7075C29.0831 44.6684 29.0283 44.6304 28.973 44.593C29.1043 44.5507 29.1418 44.4253 29.1602 44.3021C29.2904 44.3266 29.4207 44.3526 29.5503 44.3803C29.5384 44.5061 29.5265 44.6331 29.5525 44.7585C29.515 44.7585 29.4413 44.758 29.4044 44.7574C29.4229 45.0196 29.7055 45.0857 29.8813 45.2224C29.9551 45.2908 30.1353 45.2485 30.1153 45.1302C30.0849 44.8822 29.8244 44.7292 29.7967 44.4779C29.7799 44.3748 29.8765 44.2923 29.9731 44.2891C30.0886 44.2685 30.2591 44.2104 30.31 44.3629C30.3458 44.5132 30.2824 44.6728 30.2948 44.8279C30.119 44.727 30.0056 44.5517 30.0327 44.3434C29.9481 44.3651 29.8276 44.4237 29.8879 44.5317C29.9632 44.7618 30.2221 44.9219 30.1917 45.185C30.1678 45.3039 30.0284 45.3126 29.9383 45.3516C29.9665 45.4058 29.9947 45.4607 30.0234 45.5154C30.0044 45.5458 29.9654 45.6061 29.9464 45.6364C30.0039 45.7075 30.0847 45.7428 30.1748 45.7596C30.1444 46.0103 29.9366 46.1623 29.7391 46.2849C29.757 46.3094 29.7928 46.3587 29.8107 46.3831C29.7955 46.4118 29.7798 46.4395 29.763 46.4672C29.7418 46.4379 29.7 46.3787 29.6794 46.3495L29.6062 46.4401C29.5975 46.4135 29.5796 46.3609 29.5709 46.3348C29.5465 46.3663 29.4977 46.4292 29.4732 46.4607C29.4824 46.4211 29.5009 46.3418 29.5101 46.3017C29.4689 46.3223 29.3864 46.3636 29.3457 46.3842C29.4027 46.2018 29.598 46.2144 29.7451 46.1557C29.8216 46.0933 29.7988 45.981 29.8189 45.8947C29.7462 45.9262 29.6735 45.9566 29.6013 45.9886C29.6605 45.8127 29.6377 45.6277 29.6345 45.446C29.5487 45.5675 29.4456 45.675 29.3317 45.7705C29.3616 45.7846 29.4201 45.8133 29.4494 45.828C29.4071 45.8638 29.3648 45.9002 29.3224 45.9365C29.3224 46.1628 29.3203 46.3891 29.3224 46.6153C29.7055 46.6153 30.0892 46.6153 30.4728 46.6153C30.4728 45.6804 30.4728 44.7454 30.4728 43.8099C29.6931 43.8111 28.9139 43.8078 28.1341 43.8122ZM29.4147 44.523C29.4304 44.5046 29.4613 44.4677 29.4765 44.4492C29.3762 44.4644 29.2823 44.4302 29.1905 44.3944C29.2514 44.459 29.3339 44.491 29.4147 44.523ZM29.164 44.6483C29.2432 44.6581 29.323 44.6689 29.4022 44.6804C29.3593 44.6461 29.3159 44.6125 29.2725 44.5789C29.2362 44.6022 29.1998 44.625 29.164 44.6483ZM27.3576 45.2832C27.516 45.4764 27.6696 45.6733 27.828 45.8665C27.8731 45.943 27.9648 45.9457 28.0418 45.9658C28.0451 45.7379 28.0435 45.5105 28.0435 45.2831C27.8151 45.2827 27.586 45.2827 27.3576 45.2832ZM28.1357 45.2827C28.1335 45.3451 28.1292 45.4704 28.127 45.5334C28.343 45.6044 28.5753 45.5568 28.7982 45.5659C28.7234 45.6061 28.6447 45.6382 28.5752 45.6858C28.5589 45.7727 28.5578 45.8617 28.5524 45.9496C28.5855 45.9501 28.6517 45.9512 28.6848 45.9517C28.6837 46.0511 28.6832 46.1498 28.6837 46.2491C28.7754 46.2382 28.8861 46.2627 28.9561 46.1856C29.044 46.0684 29.0066 45.9111 29.0288 45.7759C29.1428 45.8551 29.0798 46.0087 29.0614 46.1205C29.0185 46.2855 28.8226 46.3012 28.6842 46.3256C28.6836 46.4217 28.6836 46.5182 28.6842 46.6149C28.8665 46.6143 29.0494 46.6143 29.2323 46.6143C29.2323 46.1704 29.2323 45.7266 29.2323 45.2833C28.8666 45.2827 28.501 45.2832 28.1357 45.2827ZM29.3252 45.3066C29.298 45.3951 29.3289 45.4238 29.4174 45.3928C29.444 45.3044 29.4131 45.2756 29.3252 45.3066ZM28.1254 45.58C28.1303 45.7032 28.133 45.8274 28.1352 45.9506C28.2285 45.9506 28.3224 45.9506 28.4158 45.9501C28.4109 45.8573 28.4093 45.764 28.3957 45.6723C28.3099 45.6289 28.2149 45.6104 28.1254 45.58ZM26.9224 45.7103C26.9218 46.012 26.9224 46.3137 26.9224 46.6154C27.1047 46.6154 27.287 46.6154 27.4699 46.6154C27.4693 46.5389 27.4693 46.4624 27.4699 46.3864C27.287 46.1612 27.1052 45.9349 26.9224 45.7103ZM27.5589 46.0385C27.5589 46.1482 27.5583 46.2584 27.5583 46.3685C27.6685 46.3685 27.7786 46.3685 27.8887 46.3685C27.8974 46.4933 27.8638 46.6284 27.9191 46.7451C28.02 46.7571 28.1253 46.7327 28.2236 46.7674C28.3087 46.9134 28.2453 47.0973 28.2675 47.258C28.4617 47.1527 28.5833 46.9639 28.6093 46.7457C28.5057 46.743 28.4015 46.7576 28.2984 46.7457C28.2338 46.6318 28.2723 46.4928 28.261 46.368C28.1372 46.3686 28.0135 46.3691 27.8903 46.3696C27.8897 46.2589 27.8897 46.1488 27.8897 46.0381C27.7797 46.038 27.6691 46.038 27.5589 46.0385ZM28.2643 46.0385C28.2643 46.1482 28.2637 46.2584 28.2643 46.3685C28.3739 46.3685 28.484 46.3685 28.5942 46.3685C28.5936 46.2584 28.5936 46.1482 28.5936 46.0381C28.4836 46.038 28.374 46.038 28.2643 46.0385ZM25.6672 46.7066C25.664 46.9763 25.6667 47.247 25.7004 47.5151C26.1334 47.5178 26.567 47.514 27.0005 47.5178C26.8649 47.2688 26.8193 46.9871 26.8275 46.7061C26.4405 46.7066 26.0542 46.706 25.6672 46.7066ZM26.9137 46.7022C26.9148 46.9665 26.9381 47.2433 27.0857 47.4711C27.2816 47.8091 27.6555 48.011 28.0396 48.0387C28.0369 47.8201 28.0532 47.6008 28.0325 47.3827C28.0087 47.3702 27.9609 47.3453 27.937 47.3328C27.898 47.4289 27.9017 47.5639 27.7998 47.622C27.6494 47.7143 27.4254 47.7149 27.2951 47.5873C27.2061 47.424 27.268 47.227 27.2295 47.0512C27.1622 47.0089 27.0889 46.9812 27.019 46.9454C27.1758 46.9416 27.3326 46.9406 27.49 46.9406C27.4808 46.8613 27.4726 46.7815 27.465 46.7024C27.281 46.7022 27.0971 46.7022 26.9137 46.7022ZM28.6865 46.706C28.6799 46.7728 28.6739 46.8401 28.668 46.9073C28.8107 47.0827 28.9507 47.259 29.0939 47.4337C29.2106 47.2096 29.2399 46.9562 29.235 46.7071C29.0523 46.706 28.8694 46.7066 28.6865 46.706ZM29.3317 46.7098C29.3284 46.8807 29.3143 47.0522 29.2888 47.2215C29.4825 47.2085 29.6768 47.2085 29.8705 47.2155C30.0159 47.2215 30.157 47.1341 30.2004 46.9919C30.0089 47.0191 29.8233 47.0761 29.6301 47.0918C29.6372 47.0229 29.6475 46.9545 29.6616 46.8872C29.7083 46.8785 29.8016 46.8612 29.8483 46.853C29.7815 46.9225 29.7126 46.9898 29.6437 47.057C29.8531 47.0706 30.0708 46.8709 30.2628 47.0169C30.1846 47.1358 30.0697 47.2177 29.9399 47.2714C29.9915 47.3626 30.0457 47.4629 30.1679 47.4618C30.1483 47.5454 30.1168 47.6252 30.0957 47.7088C30.0512 47.7034 30.0078 47.699 29.9633 47.6952C30.0122 47.6534 30.0577 47.6073 30.099 47.5579C29.9942 47.5205 29.8955 47.4699 29.8081 47.4016C29.6947 47.5312 29.5748 47.6659 29.405 47.7191C29.5151 47.5915 29.641 47.477 29.7338 47.3349C29.5439 47.3837 29.3621 47.4629 29.1678 47.4955C28.9481 47.8596 28.559 48.1032 28.1335 48.1325C28.1363 48.5911 28.133 49.0491 28.1351 49.5076C29.0094 49.4772 29.851 48.9503 30.2259 48.1548C30.4538 47.7104 30.4863 47.2008 30.4749 46.7108C30.0941 46.7098 29.7131 46.7119 29.3317 46.7098ZM27.5469 46.7396C27.567 46.9599 27.6902 47.1515 27.8861 47.2551C27.8725 47.0951 27.9393 46.9068 27.8444 46.7662C27.7483 46.7353 27.6457 46.7456 27.5469 46.7396ZM27.4178 47.5156C27.535 47.7418 27.8991 47.6003 27.8568 47.3522C27.7087 47.2486 27.5779 47.1248 27.4732 46.9778C27.3483 47.1277 27.382 47.3398 27.4178 47.5156ZM28.1449 47.3311C28.1286 47.5688 28.1335 47.8075 28.1367 48.0458C28.3234 48.0187 28.5036 47.9633 28.6729 47.8813C28.4987 47.6984 28.3913 47.4261 28.1449 47.3311ZM26.1117 48.5016C26.2853 48.7328 26.4937 48.9357 26.7309 49.1018C26.7309 49.6248 26.7293 50.1475 26.7287 50.6705C27.5817 50.6711 28.4347 50.6705 29.2878 50.6711C29.2883 50.2744 29.2878 49.8782 29.2899 49.4821C28.6312 49.7469 27.8721 49.6927 27.2426 49.3736C27.5058 49.4382 27.7711 49.4978 28.043 49.5077C28.0441 49.1718 28.0435 48.8359 28.0435 48.5005C27.3993 48.501 26.7553 48.4989 26.1117 48.5016ZM14.082 51.2381C15.3756 51.2517 16.6703 51.2484 17.964 51.2397C17.9086 50.9504 17.6096 50.7491 17.3242 50.7616C16.4554 50.7632 15.5872 50.7632 14.7184 50.7616C14.4363 50.7557 14.1357 50.9483 14.082 51.2381ZM26.0981 51.2452C27.3917 51.2457 28.6865 51.256 29.9801 51.2397C29.9156 50.9435 29.6084 50.7427 29.3143 50.7606C28.4277 50.7643 27.5416 50.759 26.6548 50.7627C26.4009 50.7904 26.128 50.9728 26.0981 51.2452Z" stroke="black" stroke-width="0.0938" stroke-miterlimit="10.43"/>
<path d="M14.7852 35.6404C14.9317 35.4261 15.1346 35.2356 15.369 35.1216C15.3321 35.1911 15.2936 35.2594 15.2545 35.3272C15.3907 35.5275 15.5649 35.6968 15.7244 35.8786C15.7977 35.9545 15.8644 36.0441 15.9637 36.088C16.0044 36.0722 16.0852 36.0408 16.126 36.0246C16.1363 36.0365 16.1569 36.0604 16.1672 36.0723C15.9719 36.2211 15.8248 36.4484 15.585 36.5287C15.6219 36.4625 15.6604 36.3969 15.7 36.3318C15.5129 36.0735 15.292 35.8396 15.0678 35.6139C14.9881 35.5177 14.8774 35.6295 14.7852 35.6404Z" stroke="black" stroke-width="0.0938" stroke-miterlimit="10.43"/>
<path d="M28.6361 35.2857C29.0783 35.1745 29.5537 35.5657 29.5494 36.0161C29.545 36.3249 29.2932 36.5956 28.9975 36.6575C28.5417 36.7492 28.0718 36.3113 28.1256 35.8511C28.1526 35.5787 28.3767 35.3525 28.6361 35.2857ZM28.8927 35.4756C28.6187 35.5734 28.3978 35.8354 28.3572 36.1246C28.3192 36.3542 28.5715 36.5625 28.788 36.4643C29.0528 36.3487 29.2683 36.0866 29.3041 35.7963C29.3366 35.5771 29.1 35.3888 28.8927 35.4756Z" stroke="black" stroke-width="0.0938" stroke-miterlimit="10.43"/>
<path d="M14.0903 36.305C14.2233 36.1721 14.3079 35.9734 14.4925 35.9034C14.4615 35.9788 14.4268 36.0532 14.3926 36.1281C14.6199 36.337 14.8664 36.5247 15.1116 36.7114C15.2164 36.8199 15.3347 36.6848 15.4426 36.6555C15.3016 36.8845 15.1225 37.0902 14.9277 37.2746C14.9467 37.19 14.9722 37.107 14.9999 37.025C14.7779 36.8036 14.5212 36.6213 14.2798 36.4233C14.4426 36.7874 14.6341 37.1385 14.7899 37.5064C14.416 37.4554 14.0638 37.31 13.6992 37.2194C13.9119 37.4022 14.1018 37.616 14.3406 37.7658C14.4285 37.7441 14.5131 37.7099 14.5995 37.6839C14.4784 37.851 14.3553 38.0214 14.193 38.1522C14.1914 38.055 14.2695 37.9346 14.1789 37.8586C13.9656 37.6372 13.755 37.406 13.506 37.2253C13.4224 37.2503 13.3492 37.2992 13.2705 37.3349C13.3481 37.176 13.4708 37.0462 13.5842 36.9128C13.8886 36.991 14.1925 37.0702 14.4969 37.1483C14.3616 36.8672 14.2238 36.5867 14.0903 36.305Z" stroke="black" stroke-width="0.0938" stroke-miterlimit="10.43"/>
<path d="M21.6829 36.716C21.9069 36.469 22.2548 36.3155 22.5874 36.4007C22.7263 36.4349 22.7486 36.5874 22.7589 36.7068C22.659 36.6319 22.5695 36.513 22.4322 36.519C22.1663 36.5016 21.9194 36.6112 21.6829 36.716Z" stroke="black" stroke-width="0.0938" stroke-miterlimit="10.43"/>
<path d="M21.8018 36.8845C21.9385 36.7879 22.1132 36.7423 22.2782 36.7803C22.2283 36.795 22.1284 36.8232 22.0785 36.8378C22.0595 36.8916 22.0399 36.9453 22.0199 36.999C21.9472 36.9605 21.8745 36.9225 21.8018 36.8845Z" stroke="black" stroke-width="0.0938" stroke-miterlimit="10.43"/>
<path d="M29.7804 36.755C29.96 36.6573 30.2135 36.7826 30.2319 36.9894C30.2732 37.233 29.9812 37.4409 29.7658 37.3155C29.5394 37.2114 29.5557 36.8516 29.7804 36.755Z" stroke="black" stroke-width="0.0938" stroke-miterlimit="10.43"/>
<path d="M21.6104 37.362C21.6972 37.3208 21.7899 37.2936 21.8817 37.2649C21.8925 37.2823 21.9148 37.3176 21.9256 37.3355C21.8209 37.3491 21.7156 37.3615 21.6104 37.362Z" stroke="black" stroke-width="0.0938" stroke-miterlimit="10.43"/>
<path d="M30.7992 37.2289C30.9788 37.4237 31.1069 37.6592 31.2529 37.8795C31.3381 38.0152 31.4157 38.2241 31.2692 38.3478C31.1482 38.4742 30.9659 38.3933 30.8471 38.3104C30.8671 38.4113 30.9117 38.516 30.8812 38.6202C30.8329 38.7873 30.6267 38.8877 30.4655 38.8188C30.3093 38.7563 30.2067 38.6147 30.1117 38.4828C29.9869 38.2957 29.8556 38.1122 29.7493 37.9131C29.8252 37.9456 29.8969 37.9863 29.9739 38.0168C30.0764 37.9972 30.1578 37.9234 30.2458 37.8708C30.433 37.7367 30.6403 37.6293 30.8128 37.4741C30.8106 37.3921 30.8062 37.3102 30.7992 37.2289ZM30.638 37.963C30.7254 38.0726 30.8523 38.2397 31.0108 38.1464C31.2035 38.0623 31.1286 37.8322 31.019 37.7117C30.8903 37.7937 30.7639 37.8778 30.638 37.963ZM30.186 38.2957C30.1426 38.3814 30.2159 38.4726 30.2804 38.5236C30.4258 38.6315 30.6521 38.5203 30.6874 38.351C30.7004 38.2235 30.6233 38.1133 30.5718 38.0037C30.44 38.0954 30.2886 38.1687 30.186 38.2957Z" stroke="black" stroke-width="0.0938" stroke-miterlimit="10.43"/>
<path d="M21.6377 37.548C21.7658 37.517 21.8954 37.4942 22.0267 37.4818C21.9351 37.6098 21.7582 37.6923 21.6377 37.548Z" stroke="black" stroke-width="0.0938" stroke-miterlimit="10.43"/>
<path d="M12.9399 37.8045C13.0511 37.8609 13.1619 37.919 13.2677 37.9857C13.1737 38.0037 13.0788 38.002 12.985 38.0123C12.8673 38.0823 12.8157 38.2196 12.7451 38.3308C12.8732 38.4128 13.0039 38.4915 13.1348 38.5702C13.1868 38.4796 13.2416 38.3906 13.2829 38.295C13.2541 38.2245 13.2226 38.155 13.189 38.0872C13.348 38.1485 13.5216 38.2164 13.6182 38.3672C13.5672 38.3612 13.4647 38.3493 13.4136 38.3439C13.3506 38.4362 13.2894 38.53 13.2291 38.625C13.3724 38.6977 13.5058 38.8312 13.673 38.8317C13.7679 38.7455 13.8352 38.631 13.8737 38.5094C13.8775 38.3868 13.7837 38.2842 13.7756 38.1611C13.8808 38.2403 13.9763 38.3304 14.0718 38.4204C13.9177 38.6766 13.7609 38.9316 13.609 39.1894C13.5634 39.268 13.5092 39.3429 13.437 39.3999C13.4468 39.3201 13.462 39.2415 13.4696 39.1611C13.3784 39.051 13.2428 38.9929 13.1251 38.9169C12.9536 38.8204 12.7946 38.6971 12.6063 38.6359C12.5303 38.6673 12.4604 38.7118 12.386 38.7471C12.5503 38.4214 12.7566 38.1192 12.9399 37.8045Z" stroke="black" stroke-width="0.0938" stroke-miterlimit="10.43"/>
<path d="M30.5491 39.1358C30.6587 39.183 30.7585 39.2753 30.8855 39.2655C31.2669 39.2541 31.6474 39.2227 32.0283 39.2063C32.0435 39.2286 32.0734 39.2726 32.0886 39.2948C31.8309 39.59 31.5644 39.877 31.3142 40.1787C31.2274 40.2649 31.2659 40.3952 31.2556 40.5032C31.0884 40.3197 31.0043 40.0772 30.9191 39.8482C30.975 39.8884 31.0304 39.929 31.0858 39.9703C31.1585 39.8987 31.2301 39.8265 31.3012 39.7538C31.2421 39.6333 31.1829 39.5134 31.1238 39.394C31.0256 39.4087 30.9278 39.4233 30.8307 39.4396C30.8318 39.515 30.8329 39.5904 30.8335 39.6658C30.7059 39.5092 30.625 39.3214 30.5491 39.1358ZM31.2398 39.3697C31.2876 39.4663 31.3353 39.5623 31.3831 39.6589C31.4846 39.5488 31.586 39.438 31.6869 39.3268C31.5378 39.3409 31.3891 39.3551 31.2398 39.3697Z" stroke="black" stroke-width="0.0938" stroke-miterlimit="10.43"/>
<path d="M11.9408 39.6439C12.0537 39.4193 12.2777 39.2125 12.5469 39.2473C12.923 39.2787 13.2094 39.664 13.121 40.0346C13.045 40.3591 12.9061 40.6749 12.7243 40.9544C12.7227 40.898 12.7183 40.7851 12.7167 40.7287C12.6445 40.631 12.5137 40.6028 12.4106 40.5479C12.2055 40.4665 12.014 40.3439 11.7964 40.2983C11.7263 40.3385 11.6634 40.3884 11.5967 40.4323C11.6885 40.1605 11.8127 39.9006 11.9408 39.6439ZM11.9007 39.9782C12.1877 40.116 12.4753 40.256 12.7727 40.3694C12.9127 40.4346 12.9718 40.2462 12.9897 40.1448C13.0494 39.7845 12.6435 39.5549 12.3315 39.5533C12.095 39.5533 11.9702 39.7844 11.9007 39.9782Z" stroke="black" stroke-width="0.0938" stroke-miterlimit="10.43"/>
<path d="M15.2939 39.474C15.4518 39.4089 15.6206 39.3791 15.7877 39.3465C15.7953 39.6976 15.7731 40.0497 15.7975 40.4003C15.8518 40.4442 15.9082 40.486 15.9657 40.5256C15.7438 40.5332 15.5208 40.5353 15.2988 40.5223C15.3617 40.4843 15.4258 40.448 15.4904 40.4116C15.4828 40.1197 15.518 39.8234 15.4724 39.5342C15.4279 39.5196 15.3384 39.4892 15.2939 39.474Z" stroke="black" stroke-width="0.0938" stroke-miterlimit="10.43"/>
<path d="M16.2561 39.3658C16.4531 39.3652 16.6501 39.3652 16.847 39.3658C16.8351 39.4374 16.8226 39.5096 16.8107 39.5818C16.6517 39.5818 16.4932 39.5818 16.3348 39.5818C16.3218 39.6599 16.3087 39.738 16.2957 39.8167C16.4765 39.7711 16.7146 39.75 16.834 39.9258C16.9718 40.1059 16.8551 40.3621 16.6712 40.4571C16.497 40.5846 16.2773 40.5537 16.0928 40.4701C16.1259 40.4045 16.1617 40.3394 16.2002 40.2769C16.3006 40.3366 16.3923 40.4229 16.5128 40.4392C16.6804 40.3361 16.6435 40.0262 16.4579 39.9611C16.3662 39.94 16.2729 39.9589 16.1806 39.9628C16.2073 39.7641 16.2318 39.5649 16.2561 39.3658Z" stroke="black" stroke-width="0.0938" stroke-miterlimit="10.43"/>
<path d="M27.1387 39.7299C27.1528 39.6094 27.168 39.4884 27.1837 39.3679C27.4604 39.3685 27.7367 39.3658 28.0134 39.3712C27.8338 39.7565 27.6591 40.145 27.4914 40.5363C27.3948 40.5401 27.2987 40.5444 27.2027 40.5477C27.4013 40.2335 27.5988 39.9193 27.7773 39.5932C27.5564 39.5958 27.3036 39.5443 27.1387 39.7299Z" stroke="black" stroke-width="0.0938" stroke-miterlimit="10.43"/>
<path d="M28.2059 39.3658C28.4023 39.3652 28.5987 39.3652 28.7952 39.3658C28.7832 39.4374 28.7707 39.5096 28.7588 39.5818C28.6003 39.5818 28.4419 39.5818 28.2834 39.5818C28.2704 39.6599 28.2574 39.7375 28.2444 39.8156C28.3794 39.7928 28.526 39.7537 28.6562 39.8204C28.8255 39.8916 28.896 40.1173 28.8022 40.2747C28.6622 40.5178 28.3014 40.6404 28.0653 40.4603C28.0485 40.387 28.119 40.3365 28.1483 40.2768C28.2611 40.3273 28.4104 40.5167 28.5292 40.3838C28.5981 40.2519 28.577 40.0598 28.4446 39.9752C28.3442 39.9318 28.2324 39.9595 28.1277 39.9622C28.1581 39.7641 28.1809 39.5643 28.2059 39.3658Z" stroke="black" stroke-width="0.0938" stroke-miterlimit="10.43"/>
<path d="M32.0558 40.1884C32.1887 40.1336 32.3276 40.0935 32.466 40.0527C32.4763 40.2518 32.5632 40.4332 32.6304 40.6171C32.7074 40.8173 32.7612 41.0311 32.8941 41.2048C32.7612 41.2618 32.6288 41.3198 32.4909 41.3632C32.5425 41.2465 32.7096 41.1608 32.6597 41.017C32.6451 40.9486 32.6239 40.8819 32.6049 40.8146C32.2793 40.947 31.9331 41.036 31.6216 41.1993C31.6103 41.2867 31.6032 41.3751 31.5999 41.4641C31.455 41.2313 31.3829 40.9633 31.2993 40.7055C31.3937 40.7559 31.4681 40.9111 31.594 40.8563C31.8985 40.7586 32.1937 40.6355 32.4948 40.528C32.4459 40.4401 32.4166 40.3365 32.3434 40.2659C32.2468 40.2394 32.148 40.2265 32.0558 40.1884Z" stroke="black" stroke-width="0.0938" stroke-miterlimit="10.43"/>
<path d="M19.2973 41.164C19.3287 40.9458 19.389 40.675 19.6266 40.597C19.5773 40.8215 19.4481 41.0739 19.5925 41.2904C19.714 41.476 19.9652 41.4147 20.1492 41.4049C20.0494 41.6534 19.9294 41.9226 19.6945 42.0718C19.574 42.1554 19.4085 42.0838 19.3608 41.9525C19.2522 41.706 19.2707 41.4249 19.2973 41.164Z" stroke="black" stroke-width="0.0938" stroke-miterlimit="10.43"/>
<path d="M12.3806 41.3013C12.5184 41.3013 12.5905 41.1717 12.6828 41.0918C12.6312 41.3328 12.5932 41.5922 12.4473 41.7967C12.4408 41.7479 12.4288 41.6507 12.4228 41.6019C12.3203 41.6057 12.2177 41.6106 12.1152 41.616C12.0767 41.744 12.0376 41.8722 11.9991 42.0007C12.0815 42.0549 12.164 42.1092 12.2481 42.1619C12.3007 42.1087 12.3545 42.0571 12.4098 42.0061C12.3729 42.2025 12.3138 42.394 12.2394 42.5791C12.1933 42.4636 12.1813 42.3241 12.0745 42.2433C11.7929 41.9985 11.5036 41.7625 11.2188 41.5216C11.2198 41.4939 11.2215 41.4386 11.2225 41.4103C11.6084 41.3708 11.9953 41.3437 12.3806 41.3013ZM11.5449 41.6627C11.6632 41.7555 11.7821 41.8472 11.9009 41.9395C11.9318 41.8358 11.9633 41.7333 11.9942 41.6302C11.8444 41.6405 11.6947 41.6514 11.5449 41.6627Z" stroke="black" stroke-width="0.0938" stroke-miterlimit="10.43"/>
<path d="M23.5647 41.7801C23.8279 41.5315 24.3749 41.5364 24.4823 41.9358C24.491 42.0932 24.3375 42.0623 24.23 42.0492C24.1833 41.9494 24.167 41.8099 24.0482 41.7681C23.8914 41.7041 23.7254 41.767 23.5647 41.7801Z" stroke="black" stroke-width="0.0938" stroke-miterlimit="10.43"/>
<path d="M31.8163 42.259C31.7523 42.0696 31.6758 41.8754 31.6817 41.6725C31.7588 41.7404 31.812 41.8526 31.9232 41.8705C32.2987 41.9519 32.685 41.9753 33.0605 42.0567C33.0849 42.0762 33.1337 42.1158 33.1582 42.1359C32.8511 42.3736 32.5342 42.5982 32.2265 42.8348C32.1137 42.9108 32.0969 43.0535 32.0458 43.1691C31.9785 42.9396 31.8982 42.71 31.8819 42.4697C31.9188 42.5022 31.9926 42.5667 32.0295 42.5988C32.1147 42.5532 32.1934 42.4957 32.2732 42.4409C32.239 42.3113 32.2059 42.1815 32.1718 42.0513C32.0752 42.0476 31.9786 42.0437 31.882 42.0415C31.8619 42.1142 31.8397 42.1869 31.8163 42.259ZM32.2906 42.0523C32.3172 42.1565 32.3443 42.2613 32.3709 42.366C32.4935 42.2786 32.6161 42.1907 32.7383 42.1028C32.589 42.0855 32.4398 42.0686 32.2906 42.0523Z" stroke="black" stroke-width="0.0938" stroke-miterlimit="10.43"/>
<path d="M23.6227 42.1128C23.698 42.2907 23.7263 42.4855 23.8115 42.6603C23.8831 42.8247 24.0095 42.9582 24.0806 43.1231C24.1327 43.3278 23.8831 43.3929 23.8142 43.5546C23.7295 43.5968 23.6444 43.6387 23.5646 43.6892C23.3709 43.7147 23.1771 43.7385 22.9856 43.7749C23.0171 43.6907 23.0339 43.5991 23.0805 43.5214C23.1641 43.471 23.2591 43.44 23.3393 43.3836C23.4506 43.299 23.4615 43.1503 23.4989 43.0266C23.7616 42.7926 23.6151 42.4145 23.6227 42.1128Z" stroke="black" stroke-width="0.0938" stroke-miterlimit="10.43"/>
<path d="M10.9318 43.601C10.7364 43.2857 10.8217 42.8911 10.9617 42.5721C11.0875 42.5825 11.214 42.5917 11.3399 42.6047C11.3301 42.6232 11.3117 42.6595 11.3019 42.6779C11.1864 42.7132 11.0469 42.7414 10.9855 42.8597C10.8553 43.0697 10.9362 43.3737 11.1641 43.4783C11.4577 43.6422 11.9639 43.6075 12.0573 43.2238C12.1332 42.9791 11.8831 42.8407 11.7903 42.6514C11.9287 42.6953 12.0589 42.7599 12.1853 42.8315C12.181 43.1468 12.1669 43.5071 11.9232 43.7404C11.6459 44.0205 11.126 43.9374 10.9318 43.601Z" stroke="black" stroke-width="0.0938" stroke-miterlimit="10.43"/>
<path d="M20.5913 42.6624C20.8843 42.5788 21.2077 42.6227 21.4574 42.8002C21.4655 42.9381 21.4443 43.0906 21.5306 43.2094C21.6332 43.3874 21.841 43.4471 22.0277 43.491C22.0657 43.6799 22.1639 43.847 22.3229 43.9588C22.2149 43.974 22.1009 44.0191 21.9946 43.9701C21.8491 43.9246 21.7699 43.7655 21.6163 43.7395C21.5067 43.7102 21.3933 43.6716 21.3195 43.58C21.1447 43.3874 21.1491 43.11 21.148 42.8658C20.9895 42.779 20.8148 42.735 20.6357 42.7231C20.6244 42.708 20.6027 42.6776 20.5913 42.6624Z" stroke="black" stroke-width="0.0938" stroke-miterlimit="10.43"/>
<path d="M33.0487 43.0537C33.1638 42.9902 33.1904 42.8524 33.2534 42.7471C33.3044 42.9907 33.3554 43.2366 33.3559 43.4867C33.3092 43.4276 33.2647 43.3674 33.2213 43.3066C32.9749 43.4509 32.7362 43.6072 32.4942 43.7581C32.7677 43.8118 33.039 43.8785 33.3157 43.9154C33.3439 43.846 33.3667 43.7743 33.3987 43.7066C33.4541 43.9025 33.4823 44.1043 33.5018 44.3066C33.4057 44.2242 33.3303 44.1075 33.2039 44.0695C32.843 43.9458 32.4643 43.8834 32.1013 43.7667C32.0965 43.744 32.0872 43.6978 32.0823 43.675C32.3927 43.4509 32.7308 43.2675 33.0487 43.0537Z" stroke="black" stroke-width="0.0938" stroke-miterlimit="10.43"/>
<path d="M26.2714 44.1704C26.114 44.1493 26.1297 43.9148 26.2611 43.8665C26.2697 43.9675 26.273 44.0689 26.2714 44.1704Z" stroke="black" stroke-width="0.0938" stroke-miterlimit="10.43"/>
<path d="M27.4791 43.9302C27.5063 43.9302 27.5611 43.9302 27.5882 43.9302C27.5882 44.0079 27.5882 44.0854 27.5882 44.1636C27.5611 44.1636 27.5063 44.1636 27.4791 44.1636C27.4786 44.0854 27.4786 44.0078 27.4791 43.9302Z" stroke="black" stroke-width="0.0938" stroke-miterlimit="10.43"/>
<path d="M22.1399 44.2625C22.7026 44.1078 23.2756 43.9374 23.8659 43.9781C23.9186 44.0448 23.9734 44.1094 24.0293 44.174C23.9571 44.2342 23.8866 44.2967 23.8182 44.3607C23.7287 44.2413 23.6169 44.1138 23.4546 44.1138C23.2599 44.079 23.1285 44.2478 23.0346 44.3911C22.8946 44.3721 22.7438 44.333 22.6097 44.4003C22.4356 44.4801 22.3633 44.683 22.353 44.8626C22.3319 45.1844 22.4588 45.4899 22.5988 45.772C22.4719 46.1426 22.3758 46.5388 22.4464 46.9311C22.5077 47.3414 22.7421 47.6913 22.9223 48.0555C23.1621 48.5894 23.2967 49.1619 23.4872 49.7133C23.4747 49.1332 23.3884 48.5488 23.1957 48.0001C23.0172 47.5774 22.7562 47.1721 22.7361 46.7C22.6976 46.1823 23.021 45.7379 23.098 45.2398C23.098 45.1161 22.9873 45.0433 22.9043 44.9722C22.7964 45.0883 22.7682 45.2474 22.7236 45.3939C22.6661 45.1931 22.5727 44.9847 22.6161 44.7714C22.6493 44.6049 22.8663 44.6141 22.9819 44.6852C23.1572 44.8007 23.2489 45.0043 23.3166 45.1959C23.3883 45.4351 23.2261 45.6587 23.2211 45.8926C23.2776 46.0223 23.4219 46.0743 23.5321 46.1492C23.4399 46.3961 23.3493 46.6642 23.4106 46.9295C23.4719 47.1998 23.8583 47.323 24.0628 47.1363C24.0786 47.019 24.0688 46.8997 24.0899 46.7835C24.1366 46.586 24.2577 46.4145 24.2945 46.2143C24.2951 46.0819 24.2533 45.9544 24.2349 45.8242C24.204 45.8144 24.1426 45.7949 24.1116 45.7851C24.0905 45.8567 24.0596 45.9251 24.0031 45.9766C23.9949 45.9023 23.989 45.8279 23.9858 45.7535C23.9608 45.7232 23.9104 45.6619 23.8854 45.6314C24.0156 45.67 24.1454 45.7117 24.2756 45.7514C24.3119 45.5848 24.2441 45.4339 24.1655 45.2929C24.1405 45.0216 24.3668 44.7882 24.612 44.7047C24.7266 44.8447 24.7342 45.0258 24.714 45.1974C24.6549 45.1084 24.6267 44.9326 24.4856 44.9516C24.3766 44.9499 24.3071 45.0813 24.356 45.1747C24.49 45.5643 24.6257 45.9544 24.7261 46.3543C24.82 46.8449 24.5839 47.3067 24.458 47.7674C24.2968 48.3811 24.1547 49.0193 24.2241 49.6568C24.3527 48.8407 24.5442 48.0322 24.8611 47.2671C24.8324 48.2086 24.7206 49.1516 24.4878 50.0649C24.3864 50.4675 24.1633 50.8294 23.8751 51.1246C23.0351 50.6059 22.4339 49.7361 22.2244 48.7733C22.1029 48.2025 22.0817 47.6159 22.0655 47.0342C22.0487 46.1107 22.0102 45.1806 22.1399 44.2625ZM22.9918 46.0016C22.9147 46.1118 22.8735 46.2442 22.8909 46.3793C22.9153 46.6854 22.8572 47.0223 23.0298 47.2964C23.1746 47.5324 23.4465 47.635 23.6864 47.7462C23.6163 47.8976 23.5355 48.0534 23.5399 48.2248C23.5507 48.4219 23.6386 48.602 23.7151 48.7805C23.707 48.5428 23.663 48.2959 23.7428 48.0653C23.8638 47.7918 24.1064 47.6041 24.3098 47.3951C24.4694 47.2394 24.5008 47.0109 24.5573 46.8064C24.6018 46.617 24.6777 46.4162 24.6044 46.2242C24.5811 46.1639 24.5279 46.0327 24.4531 46.1249C24.3277 46.4368 24.3728 46.7929 24.2306 47.1C24.1464 47.2867 23.9777 47.412 23.8388 47.5552C23.6261 47.444 23.3591 47.3728 23.2371 47.1467C23.0824 46.8341 23.1866 46.4722 23.0911 46.1466C23.0667 46.0939 23.0662 46.006 22.9918 46.0016ZM23.9392 47.8911C24.1091 48.1564 24.0597 48.4793 24.0244 48.7745C24.1807 48.4581 24.2838 48.0647 24.0749 47.7457C24.0293 47.7939 23.9837 47.8423 23.9392 47.8911Z" stroke="black" stroke-width="0.0938" stroke-miterlimit="10.43"/>
<path d="M29.1692 44.0701C29.2191 44.1228 29.269 44.1759 29.3195 44.2291L29.3906 44.1016L29.4768 44.2252C29.3824 44.2703 29.2771 44.2703 29.1751 44.2649C29.1736 44.216 29.1703 44.1189 29.1692 44.0701Z" stroke="black" stroke-width="0.0938" stroke-miterlimit="10.43"/>
<path d="M11.6911 44.3775C11.8197 44.3422 11.8718 44.2082 11.9559 44.1181C11.9277 44.3563 11.9798 44.6228 11.8604 44.8393C11.8452 44.7942 11.8153 44.7036 11.8007 44.6586C11.7008 44.6846 11.6016 44.7123 11.5022 44.74C11.4919 44.8735 11.4821 45.0069 11.4718 45.1409C11.5652 45.1762 11.6574 45.2175 11.7551 45.2386C11.7806 45.1935 11.8316 45.104 11.8571 45.059C11.9 45.2435 11.8577 45.4329 11.8479 45.6185H11.7872C11.754 45.518 11.7144 45.4095 11.6075 45.3661C11.3161 45.2039 11.0149 45.0601 10.7208 44.9038C10.6476 44.874 10.5993 44.8126 10.5635 44.7454C10.9368 44.6157 11.3172 44.5066 11.6911 44.3775ZM10.9629 44.9087C11.0953 44.9754 11.2298 45.0383 11.3638 45.1019C11.372 44.9938 11.3796 44.8864 11.3877 44.779C11.2455 44.8219 11.1039 44.8642 10.9629 44.9087Z" stroke="black" stroke-width="0.0938" stroke-miterlimit="10.43"/>
<path d="M29.5543 44.3263C29.4202 44.3312 29.5456 44.1266 29.6275 44.1836C29.6422 44.2481 29.6178 44.2959 29.5543 44.3263Z" stroke="black" stroke-width="0.0938" stroke-miterlimit="10.43"/>
<path d="M24.3811 44.2526C24.4597 44.2331 24.5385 44.213 24.6166 44.1919C24.7392 44.2955 24.8298 44.429 24.8836 44.5798C24.7534 44.5316 24.6177 44.4979 24.4777 44.5045C24.4462 44.4198 24.4142 44.3357 24.3811 44.2526Z" stroke="black" stroke-width="0.0938" stroke-miterlimit="10.43"/>
<path d="M26.3787 44.2307C26.4118 44.2253 26.4785 44.215 26.5116 44.2101C26.51 44.2475 26.5067 44.3224 26.5056 44.3605C26.5501 44.3789 26.6391 44.4158 26.6836 44.4343C26.5485 44.4207 26.3873 44.3984 26.3787 44.2307Z" stroke="black" stroke-width="0.0938" stroke-miterlimit="10.43"/>
<path d="M15.2006 44.2695C15.333 44.2505 15.4595 44.2902 15.587 44.3156C15.7324 44.2929 15.8735 44.2353 16.0227 44.2407C16.1459 44.3069 16.2603 44.3883 16.3851 44.4524C16.3825 44.505 16.3792 44.5576 16.376 44.6108C16.281 44.6299 16.1849 44.6423 16.0922 44.6716C16.02 44.7416 16.0043 44.8491 15.9625 44.9375C16.0944 44.912 16.2263 44.8843 16.3587 44.8621C16.3592 44.9224 16.3597 44.9826 16.3597 45.0428C16.2582 45.064 16.0797 45.0428 16.07 45.1861C16.1128 45.3424 16.3114 45.4156 16.4558 45.3581C16.6196 45.3 16.707 45.1388 16.8106 45.0114C16.8323 45.1281 16.8508 45.2452 16.8643 45.3636C17.0668 45.1731 17.3076 45.0228 17.4938 44.8177C17.5051 44.6299 17.5502 44.4411 17.7005 44.3153C17.6896 44.3749 17.6679 44.4938 17.6571 44.5534C17.7585 44.5035 17.8605 44.4547 17.9647 44.4103C17.9039 44.4948 17.8421 44.579 17.7796 44.6636C17.8854 44.6539 17.9919 44.6458 18.0976 44.6409C18.0005 44.7044 17.9034 44.7684 17.8105 44.8384C17.9099 44.8807 18.0162 44.8981 18.1214 44.916C18.0222 45.0082 17.8946 45.0462 17.7617 45.0522C17.5538 45.3143 17.3075 45.5395 17.0411 45.7397C17.1165 45.9833 17.4188 45.8076 17.555 45.7055C17.5436 45.8059 17.5686 45.9242 17.498 46.0083C17.3834 46.1489 17.186 46.1515 17.0226 46.1819C17.2115 46.3664 17.3868 46.5634 17.5604 46.7615C17.6765 46.5417 17.955 46.5607 18.1031 46.7354C18.0097 46.7447 17.9159 46.7528 17.8225 46.7599C17.9294 46.8299 18.0314 46.914 18.0569 47.047C17.9809 47.003 17.906 46.9574 17.8312 46.9118C17.8155 47.0296 17.7959 47.1479 17.7628 47.2624C17.6906 47.1669 17.645 46.9819 17.4893 47.0317C17.4426 47.0822 17.4025 47.1386 17.3699 47.1999C17.3374 47.0925 17.3184 46.9801 17.2744 46.8771C16.9504 46.768 16.6526 46.5911 16.4171 46.341C16.2087 46.4625 15.945 46.4457 15.7496 46.5857C15.9515 46.6329 16.1718 46.6372 16.3525 46.7507C16.4898 46.8288 16.5826 46.9596 16.6889 47.073C16.7714 47.1712 16.9141 47.1593 17.027 47.1913C16.9434 47.3649 16.7622 47.4251 16.5826 47.4408C16.7465 47.5602 16.9022 47.6905 17.0617 47.8158C17.1822 47.7529 17.2994 47.6721 17.4372 47.6531C17.5414 47.6482 17.5978 47.7465 17.6645 47.8088C17.5777 47.8116 17.4915 47.8143 17.4052 47.8175C17.4703 47.9341 17.525 48.0574 17.5647 48.1854C17.4828 48.1448 17.4036 48.098 17.3211 48.0589C17.3119 48.1583 17.2983 48.2586 17.2668 48.3541C17.218 48.2608 17.1702 48.161 17.0704 48.1132C17.0194 48.1843 16.9662 48.2537 16.9076 48.3199C16.8907 48.2027 16.9559 47.9883 16.7845 47.9645C16.4225 47.8771 15.9992 47.8315 15.7643 47.5038C15.8462 47.4691 15.9271 47.4311 16.0101 47.3985C15.7686 47.2205 15.5597 47.0029 15.3952 46.7517C15.4788 46.9818 15.4929 47.2243 15.4734 47.4669C15.4517 47.6091 15.5564 47.7133 15.6475 47.8044C15.4305 47.8278 15.2308 47.7382 15.081 47.5841C15.1163 47.7821 15.1179 48.0095 15.2628 48.1669C15.3979 48.3156 15.6328 48.2325 15.7848 48.3497C15.8781 48.4208 15.89 48.5467 15.9269 48.6503C15.8374 48.5923 15.7473 48.5347 15.6567 48.4789C15.673 48.5467 15.705 48.6829 15.7207 48.7507C15.6464 48.6943 15.5716 48.6378 15.4967 48.5825C15.4999 48.6406 15.5064 48.7566 15.5097 48.8147C15.4435 48.7106 15.3779 48.6059 15.3067 48.5054C15.2269 48.5863 15.1869 48.6921 15.1553 48.8001C14.9925 48.6992 15.0831 48.5277 15.189 48.4229C14.7733 48.1874 14.2893 47.8418 14.3338 47.3008C14.4363 47.3192 14.5671 47.3974 14.6468 47.2904C14.7375 47.1076 14.5795 46.9323 14.4743 46.7966C14.5676 46.7635 14.6604 46.7277 14.7532 46.693C14.7597 46.6544 14.7721 46.5779 14.7787 46.5399C14.6039 46.5182 14.3896 46.4846 14.3066 46.3049C14.1932 46.044 14.3494 45.7705 14.4987 45.5599C14.6604 45.3076 14.9143 45.0753 14.9105 44.7542C14.8986 44.606 14.7336 44.594 14.6213 44.5773C14.6197 44.727 14.5974 44.8887 14.4721 44.9881C14.3207 45.1123 14.153 45.2322 14.0966 45.4309C14.0673 45.0988 13.9816 44.6972 14.2436 44.4324C14.3299 44.3331 14.4602 44.3868 14.56 44.4286C14.7141 44.4406 14.9003 44.4373 14.9995 44.5794C15.139 44.7797 15.0332 45.0358 14.9225 45.2241C14.7554 45.5172 14.4662 45.7592 14.42 46.1086C14.3859 46.2823 14.5758 46.3659 14.7169 46.3773C14.8812 46.4071 14.9812 46.2427 15.1076 46.1689C15.279 46.0191 15.5211 45.9714 15.6724 45.7972C15.4418 45.7928 15.1851 45.826 15.0023 45.6528C15.1781 45.5709 15.3588 45.484 15.4755 45.3212C15.3371 45.344 15.1971 45.3619 15.0566 45.3505C15.1521 45.2257 15.2866 45.1226 15.3349 44.9674C15.3333 44.8062 15.2769 44.6479 15.3034 44.4856C15.3422 44.39 15.2478 44.3352 15.2006 44.2695ZM15.811 44.3786C15.8794 44.4334 15.9434 44.4942 16.007 44.5544C16.0487 44.4914 16.091 44.4296 16.135 44.3683C16.027 44.3737 15.9191 44.3786 15.811 44.3786Z" stroke="black" stroke-width="0.0938" stroke-miterlimit="10.43"/>
<path d="M16.8087 44.339C16.9791 44.2869 17.0371 44.5273 16.9374 44.6287C16.8 44.7812 16.5732 44.7443 16.3904 44.7541C16.5271 44.7172 16.6666 44.683 16.7919 44.6146C16.7848 44.5256 16.6746 44.3775 16.8087 44.339Z" stroke="black" stroke-width="0.0938" stroke-miterlimit="10.43"/>
<path d="M32.2228 44.249C32.3014 44.3396 32.3573 44.4666 32.4821 44.504C32.7252 44.599 32.9749 44.6771 33.2212 44.7645C33.358 44.8161 33.5202 44.8405 33.6092 44.9713C33.2504 45.1612 32.8777 45.3234 32.5201 45.5144C32.4094 45.5627 32.3991 45.6957 32.3518 45.7917C32.2629 45.5643 32.2911 45.3126 32.2726 45.0739C32.3084 45.1097 32.3795 45.1824 32.4148 45.2182C32.5054 45.19 32.5917 45.1498 32.6796 45.1119C32.672 44.9773 32.6638 44.8433 32.6552 44.7092C32.5597 44.6869 32.4642 44.6658 32.3682 44.6469C32.3372 44.7141 32.3085 44.7841 32.2629 44.8439C32.2293 44.6473 32.2195 44.4476 32.2228 44.249ZM32.7893 45.0564C32.9233 44.994 33.0568 44.9316 33.1892 44.867C33.0497 44.8193 32.9086 44.7764 32.7681 44.7335C32.7746 44.841 32.7823 44.9484 32.7893 45.0564Z" stroke="black" stroke-width="0.0938" stroke-miterlimit="10.43"/>
<path d="M23.2576 44.5361C23.3395 44.4813 23.4241 44.4303 23.5104 44.3825C23.6749 44.5892 23.7465 44.9008 23.6303 45.1438C23.5245 44.9301 23.4106 44.7201 23.2576 44.5361Z" stroke="black" stroke-width="0.0938" stroke-miterlimit="10.43"/>
<path d="M23.9658 44.5931C23.988 44.4933 24.09 44.3957 24.197 44.4418C24.2404 44.5449 24.2312 44.661 24.1541 44.7451C24.0559 44.8607 24.0358 45.0408 23.8926 45.113C23.905 44.9383 23.9218 44.763 23.9658 44.5931Z" stroke="black" stroke-width="0.0938" stroke-miterlimit="10.43"/>
<path d="M25.875 44.8219C25.9027 44.8213 25.958 44.8208 25.9863 44.8208C25.9857 44.8989 25.9857 44.9771 25.9857 45.0552C25.958 45.0552 25.9027 45.0547 25.8751 45.0541C25.875 44.9766 25.8745 44.8989 25.875 44.8219Z" stroke="black" stroke-width="0.0938" stroke-miterlimit="10.43"/>
<path d="M24.9175 45.4507C24.9257 45.6254 24.9273 45.8007 24.9225 45.976C24.8432 45.805 24.8128 45.62 24.9175 45.4507Z" stroke="black" stroke-width="0.0938" stroke-miterlimit="10.43"/>
<path d="M23.3384 45.8254C23.5012 45.7548 23.6677 45.6952 23.8328 45.6295C23.7991 45.6756 23.7649 45.7212 23.7307 45.7668C23.7145 45.8454 23.6965 45.9236 23.6765 46.0012C23.6407 45.9442 23.6054 45.8867 23.5712 45.8286C23.4936 45.8389 23.4138 45.8525 23.3384 45.8254Z" stroke="black" stroke-width="0.0938" stroke-miterlimit="10.43"/>
<path d="M21.4913 45.6333C21.602 45.6436 21.7127 45.6544 21.8239 45.6652C21.8234 46.5519 21.8076 47.4429 21.92 48.3242C22.0149 49.105 22.3166 49.8744 22.8425 50.4665C23.0026 50.6548 23.205 50.7975 23.3835 50.9663C23.4122 51.0385 23.3232 51.0509 23.2782 51.0781C22.9765 51.198 22.6483 51.2142 22.3297 51.2566C22.0996 51.4639 21.818 51.6044 21.5294 51.7113C21.3503 51.7775 21.1555 51.7433 20.9786 51.6879C21.2331 51.6749 21.6373 51.6386 21.6742 51.3201C21.5559 51.2061 21.3818 51.2305 21.2325 51.2132C21.0356 51.2077 20.8668 51.0927 20.6899 51.0211C19.215 51.4134 17.739 51.8003 16.2652 52.1964C16.2316 52.2946 16.1969 52.3923 16.1627 52.491C15.5083 52.5513 14.8549 52.6234 14.2 52.6739C14.7887 52.4281 15.3775 52.1828 15.9663 51.937C16.0548 51.9891 16.1432 52.0412 16.2311 52.0938C17.6788 51.7221 19.1228 51.3401 20.5722 50.9761C20.4788 50.925 20.386 50.8735 20.2959 50.8181C20.507 50.7758 20.7094 50.8452 20.8999 50.9288C21.1484 50.9505 21.398 50.969 21.6477 50.9885C21.7605 49.9271 21.7166 48.8559 21.696 47.7907C21.6694 47.4912 21.7052 47.1759 21.6005 46.8894C21.5261 47.4233 21.6216 47.9649 21.556 48.4993C21.5462 48.5829 21.5142 48.6621 21.4806 48.7392C21.4285 48.5547 21.415 48.3621 21.422 48.1716C21.4457 47.3252 21.468 46.4792 21.4913 45.6333Z" stroke="black" stroke-width="0.0938" stroke-miterlimit="10.43"/>
<path d="M25.7786 45.9896C25.8052 45.9869 25.8573 45.9805 25.8834 45.9772C25.8828 46.0591 25.8905 46.1405 25.8899 46.223C25.8612 46.2202 25.8025 46.2143 25.7732 46.211C25.7749 46.1372 25.777 46.0634 25.7786 45.9896Z" stroke="black" stroke-width="0.0938" stroke-miterlimit="10.43"/>
<path d="M10.9992 46.0383C11.2011 45.9118 11.4985 46.0817 11.4773 46.3227C11.4746 46.569 11.1517 46.7134 10.9634 46.556C10.7838 46.4333 10.8071 46.136 10.9992 46.0383Z" stroke="black" stroke-width="0.0938" stroke-miterlimit="10.43"/>
<path d="M32.8695 46.0387C33.0844 45.9307 33.3644 46.1358 33.3156 46.374C33.2841 46.6144 32.9525 46.7218 32.7833 46.552C32.6145 46.4142 32.6687 46.1168 32.8695 46.0387Z" stroke="black" stroke-width="0.0938" stroke-miterlimit="10.43"/>
<path d="M23.717 46.1256C23.8039 46.1132 23.8907 46.1029 23.9786 46.0942C23.9965 46.1105 24.0323 46.1436 24.0502 46.1605C23.9368 46.181 23.8218 46.1777 23.717 46.1256Z" stroke="black" stroke-width="0.0938" stroke-miterlimit="10.43"/>
<path d="M26.5889 46.2838C26.616 46.2812 26.6708 46.2768 26.698 46.2741C26.6986 46.355 26.6991 46.4353 26.6996 46.5167C26.6719 46.5151 26.6176 46.5123 26.59 46.5107C26.5894 46.4347 26.5894 46.3592 26.5889 46.2838Z" stroke="black" stroke-width="0.0938" stroke-miterlimit="10.43"/>
<path d="M23.6733 46.8183C23.7119 46.6495 23.6581 46.3961 23.8443 46.305C24.0993 46.3256 23.9485 46.6468 23.9544 46.8096C23.8606 46.8117 23.7673 46.8145 23.6733 46.8183Z" stroke="black" stroke-width="0.0938" stroke-miterlimit="10.43"/>
<path d="M11.8205 46.9886C11.9306 47.2312 11.9198 47.5089 11.9486 47.7694C11.8927 47.6993 11.8455 47.6223 11.789 47.5534C11.489 47.567 11.191 47.6234 10.8964 47.6804C11.2654 47.8193 11.6621 47.8812 12.0197 48.0505C11.7099 48.2593 11.3843 48.4422 11.0685 48.6414C11.3528 48.6018 11.6513 48.6217 11.9242 48.5257C11.9486 48.4509 11.9708 48.375 11.9904 48.2984C12.0972 48.4791 12.0718 48.7021 12.1005 48.9024C12.018 48.8416 11.9703 48.7032 11.8493 48.7195C11.5443 48.7282 11.2334 48.7217 10.9344 48.7874C10.9133 48.8509 10.8981 48.9165 10.8899 48.9838C10.8742 48.9865 10.8427 48.9914 10.827 48.9941C10.8053 48.834 10.7841 48.674 10.7635 48.5144C11.0229 48.3425 11.2899 48.1808 11.5427 47.9989C11.2492 47.9067 10.9534 47.8226 10.6588 47.7336C10.6332 47.5453 10.6012 47.357 10.6023 47.166C10.6577 47.2387 10.7054 47.3163 10.7619 47.3879C11.0717 47.3636 11.3799 47.306 11.6849 47.2479C11.8156 47.2414 11.7733 47.07 11.8205 46.9886Z" stroke="black" stroke-width="0.0938" stroke-miterlimit="10.43"/>
<path d="M32.2493 47.1941C32.2503 47.1209 32.2742 47.0547 32.3198 46.9982C32.3382 47.0736 32.3594 47.149 32.3827 47.2239C32.6915 47.3037 33.016 47.3172 33.3334 47.3411C33.4349 47.359 33.4404 47.219 33.4881 47.1593C33.5027 47.1664 33.532 47.1804 33.5467 47.188C33.5061 47.4311 33.5272 47.6894 33.4349 47.9217C33.3856 47.8332 33.41 47.665 33.276 47.6569C32.9727 47.6194 32.6666 47.5646 32.3606 47.5792C32.277 47.6812 32.2825 47.8262 32.2977 47.9504C32.3579 48.0633 32.512 48.0963 32.5494 48.2276C32.4143 48.1946 32.2819 48.1511 32.1506 48.1055C32.1885 47.8024 32.2167 47.498 32.2493 47.1941Z" stroke="black" stroke-width="0.0938" stroke-miterlimit="10.43"/>
<path d="M29.3628 47.8888C29.429 47.8823 29.4947 47.891 29.5608 47.8964C29.4946 47.9881 29.3823 48.0109 29.283 48.0483C29.4941 48.2215 29.8403 47.9338 29.9928 48.2144C29.8685 48.3376 29.703 48.3897 29.5321 48.4037C29.5663 48.477 29.6059 48.5508 29.6705 48.6034C29.5457 48.7071 29.4551 48.8611 29.2901 48.9073C29.3568 48.8302 29.4268 48.7559 29.4909 48.6766C29.4318 48.6169 29.3726 48.5573 29.3145 48.4971C29.1403 48.6517 29.1371 48.9935 28.8538 49.0034C28.9906 48.8845 29.0958 48.7375 29.1712 48.573C28.9873 48.6316 28.7757 48.6533 28.634 48.7988C28.5228 48.9024 28.4039 49.062 28.2341 48.9778C28.4219 48.9143 28.5727 48.7808 28.6509 48.598C28.5408 48.4634 28.3856 48.3662 28.3101 48.2045C28.4311 48.293 28.5499 48.4476 28.7203 48.3896C28.8549 48.3647 28.8115 48.1812 28.8468 48.0857C28.8718 48.1156 28.9211 48.1763 28.9461 48.2067C28.9879 48.2024 29.072 48.1943 29.1138 48.1904C29.0541 48.2843 28.9949 48.3793 28.9482 48.4813C29.0758 48.4439 29.1913 48.3743 29.3194 48.3396C29.5131 48.3114 29.7475 48.3852 29.9 48.2241L29.887 48.147C29.6689 48.0988 29.422 48.2355 29.2358 48.0651C29.2759 48.0049 29.3117 47.9409 29.3628 47.8888Z" stroke="black" stroke-width="0.0938" stroke-miterlimit="10.43"/>
<path d="M31.9165 49.3884C31.9577 49.1328 31.9854 48.8686 32.0929 48.6303C32.1391 48.7198 32.1065 48.8875 32.2421 48.8984C32.5319 48.9684 32.8238 49.0384 33.1195 49.0774C33.1862 49.0238 33.2427 48.9591 33.3078 48.9038C33.2672 49.1512 33.2487 49.415 33.1261 49.6391C33.0919 49.5545 33.1244 49.4009 33.0002 49.383C32.7349 49.3108 32.4641 49.2577 32.1933 49.2093C32.0576 49.1621 32.0027 49.3195 31.9165 49.3884Z" stroke="black" stroke-width="0.0938" stroke-miterlimit="10.43"/>
<path d="M11.1455 49.6819C11.4597 49.6884 11.75 49.4822 12.068 49.5419C12.3138 49.5896 12.4408 49.8479 12.4707 50.0753C12.4989 50.2403 12.4511 50.4324 12.2987 50.5214C12.0507 50.6711 11.7484 50.6841 11.4891 50.8068C11.4305 50.8757 11.4359 50.9793 11.4033 51.0629C11.3105 50.8215 11.2395 50.5708 11.19 50.3168C11.2758 50.3738 11.3344 50.5203 11.4565 50.4785C11.7099 50.4134 11.9834 50.3652 12.1977 50.2072C12.4061 50.0417 12.2721 49.6607 12.0057 49.6607C11.7311 49.6662 11.457 49.7514 11.2118 49.8708C11.1798 49.9587 11.1635 50.0515 11.1364 50.141C11.0593 49.943 11.0013 49.7384 10.96 49.53C11.0223 49.5798 11.0804 49.6358 11.1455 49.6819Z" stroke="black" stroke-width="0.0938" stroke-miterlimit="10.43"/>
<path d="M31.5987 50.4502C31.6621 50.2733 31.7012 50.0829 31.8103 49.9266C31.8439 50.0107 31.7821 50.1604 31.8923 50.199C32.1527 50.3086 32.4246 50.3917 32.6943 50.4758C32.8169 50.5371 32.889 50.3895 32.978 50.3358C32.9134 50.606 32.8213 50.8686 32.7219 51.128C32.6671 51.2767 32.5309 51.4416 32.3529 51.3857C32.1956 51.3553 32.1652 51.18 32.1446 51.0482C32.0767 51.122 32.0181 51.2132 31.9227 51.2527C31.7599 51.3163 31.5558 51.211 31.5135 51.0417C31.4618 50.8415 31.5395 50.6401 31.5987 50.4502ZM31.8189 50.9418C32.0354 51.0287 32.1575 50.7942 32.2237 50.6315C32.0718 50.5794 31.9215 50.5132 31.7598 50.5001C31.5563 50.575 31.6149 50.9049 31.8189 50.9418ZM32.2986 50.6548C32.2823 50.7297 32.2644 50.804 32.2573 50.8806C32.2503 51.0385 32.4587 51.1427 32.5862 51.057C32.6687 51.0005 32.6887 50.8937 32.7338 50.8106C32.5911 50.7525 32.4446 50.7031 32.2986 50.6548Z" stroke="black" stroke-width="0.0938" stroke-miterlimit="10.43"/>
<path d="M49.5167 45.0697C50.0137 44.9857 50.5098 44.8881 51.0035 44.78C51.0116 46.554 50.9882 48.3295 51.0148 50.1035C50.9704 50.4617 51.3883 50.3794 51.615 50.3947C51.6134 50.4527 51.611 50.5689 51.6093 50.627C51.1083 50.7101 50.6098 50.8125 50.125 50.9642C50.1242 50.8005 50.1234 50.6359 50.1242 50.4729C49.7385 50.6568 49.3724 51.0206 48.9133 50.9271C48.3268 50.8383 47.7977 50.431 47.5718 49.8823C47.2895 49.1982 47.4169 48.3617 47.9107 47.8059C48.4455 47.1799 49.3264 46.9388 50.1234 47.0718C50.1089 46.545 50.1549 46.0159 50.0968 45.4923C50.0186 45.2591 49.7039 45.3325 49.5151 45.2842C49.5144 45.2124 49.5151 45.1406 49.5167 45.0697ZM48.9004 47.5809C48.4841 47.9351 48.4237 48.532 48.443 49.0443C48.4616 49.5646 48.7084 50.1455 49.2287 50.3382C49.5329 50.4577 49.8556 50.3334 50.1258 50.1882C50.1153 49.3952 50.1403 48.6014 50.1153 47.8093C49.9314 47.3566 49.2529 47.2759 48.9004 47.5809Z" stroke="black" stroke-width="0.0938" stroke-miterlimit="10.43"/>
<path d="M45.8802 45.0573C46.2231 44.9072 46.6426 45.1984 46.6312 45.5695C46.6579 46.0051 46.0682 46.2931 45.7439 45.9971C45.4034 45.7688 45.5026 45.1903 45.8802 45.0573Z" stroke="black" stroke-width="0.0938" stroke-miterlimit="10.43"/>
<path d="M37.0757 45.7313C37.9138 45.7288 38.752 45.7273 39.5902 45.7322C39.5902 45.7886 39.5894 45.9015 39.5894 45.958C39.3498 46.0039 39.04 45.983 38.8876 46.2113C38.756 46.4589 38.7746 46.7509 38.7657 47.0228C38.769 47.94 38.7568 48.8572 38.7721 49.7744C38.7762 49.9899 38.8085 50.294 39.0714 50.3391C39.4167 50.3972 39.7999 50.4165 40.121 50.2528C40.5057 50.0165 40.7268 49.6067 40.9897 49.2542C41.0551 49.2712 41.1874 49.3049 41.2535 49.322C41.0842 49.8277 40.9147 50.3328 40.7631 50.8442C39.5224 50.8442 38.2825 50.845 37.0417 50.8442C37.0425 50.7869 37.0425 50.6716 37.0425 50.6135C37.2733 50.5675 37.579 50.5998 37.7259 50.3754C37.8396 50.1384 37.8106 49.8649 37.8259 49.6091C37.8259 48.6572 37.834 47.7045 37.821 46.7526C37.8033 46.5461 37.8251 46.3097 37.6871 46.1395C37.525 45.983 37.2797 45.9983 37.0748 45.9572C37.0749 45.9007 37.0757 45.7878 37.0757 45.7313Z" stroke="black" stroke-width="0.0938" stroke-miterlimit="10.43"/>
<path d="M42.1829 47.4783C42.5799 47.1242 43.1543 46.9531 43.6753 47.091C44.2094 47.2339 44.6257 47.7542 44.6103 48.314C44.6046 48.4196 44.6192 48.6045 44.4708 48.6149C43.7407 48.7108 43.0026 48.7158 42.2693 48.7689C42.2766 49.2965 42.4637 49.8862 42.9679 50.1371C43.4551 50.4114 44.0577 50.2719 44.4748 49.9322C44.5055 49.9685 44.5676 50.0412 44.599 50.0774C44.2852 50.4872 43.8617 50.8631 43.3325 50.9381C42.6928 50.9995 42.0111 50.6938 41.6917 50.1242C41.2036 49.2732 41.444 48.1084 42.1829 47.4783ZM42.8082 47.4679C42.4896 47.6752 42.3799 48.0632 42.3105 48.4141C42.7832 48.4044 43.2584 48.4246 43.7303 48.3762C43.7731 48.0737 43.7036 47.7438 43.4705 47.5316C43.2995 47.3541 43.0083 47.3267 42.8082 47.4679Z" stroke="black" stroke-width="0.0938" stroke-miterlimit="10.43"/>
<path d="M45.1152 47.3495C45.5976 47.2656 46.0752 47.1559 46.5479 47.0253C46.5496 48.0457 46.5439 49.0662 46.5496 50.0867C46.564 50.2335 46.5375 50.4416 46.6996 50.5198C46.8351 50.5763 46.9851 50.5852 47.1304 50.6127C47.1328 50.6708 47.1384 50.7877 47.1408 50.8458C46.4487 50.8442 45.7557 50.849 45.0644 50.8434C45.0112 50.4973 45.4105 50.6304 45.5864 50.4747C45.6775 50.3392 45.6525 50.165 45.6654 50.0108C45.6646 49.3655 45.667 48.7193 45.6638 48.074C45.6477 47.9272 45.6816 47.7465 45.563 47.6351C45.4242 47.573 45.2701 47.5674 45.1249 47.5424C45.1225 47.494 45.1177 47.3979 45.1152 47.3495Z" stroke="black" stroke-width="0.0938" stroke-miterlimit="10.43"/>
<path d="M52.6338 47.5285C53.0856 47.0889 53.814 46.8928 54.3989 47.1735C54.9055 47.4131 55.2524 48.0375 55.0652 48.5853C54.3166 48.7353 53.539 48.7022 52.7783 48.7676C52.7993 49.1032 52.838 49.4574 53.0372 49.7413C53.3188 50.1794 53.9004 50.3819 54.3982 50.2398C54.6199 50.1801 54.8006 50.0309 55.0088 49.939C55.029 49.9729 55.0709 50.0399 55.0919 50.0737C54.816 50.4876 54.3924 50.8272 53.8996 50.9288C53.2583 51.0191 52.5596 50.7271 52.2233 50.1632C51.7157 49.334 51.9255 48.1771 52.6338 47.5285ZM53.3058 47.4745C52.9928 47.6819 52.8846 48.0666 52.8177 48.4143C53.2913 48.4063 53.7664 48.4216 54.2391 48.3788C54.277 48.0731 54.2101 47.7383 53.9713 47.5269C53.7979 47.3503 53.5034 47.3285 53.3058 47.4745Z" stroke="black" stroke-width="0.0938" stroke-miterlimit="10.43"/>
<path d="M55.6245 47.3511C56.1061 47.264 56.5837 47.1559 57.0556 47.0253C57.0548 47.2253 57.0548 47.4254 57.0564 47.6254C57.3113 47.4649 57.5574 47.2874 57.8284 47.1543C58.2785 46.9276 58.8989 47.0421 59.195 47.4648C59.3595 47.6858 59.3999 47.9682 59.4039 48.2368C59.4096 48.8289 59.3999 49.421 59.4031 50.014C59.4071 50.1728 59.4031 50.3414 59.4725 50.4899C59.6217 50.5714 59.7936 50.5899 59.9573 50.6311V50.8456C59.2902 50.8416 58.6223 50.8545 57.9558 50.8376C57.9833 50.5585 58.285 50.59 58.4673 50.4706C58.5851 49.9244 58.4963 49.3581 58.5262 48.8031C58.5181 48.4312 58.5802 47.9448 58.2188 47.7108C57.8324 47.476 57.3895 47.7092 57.0612 47.9326C57.0498 48.599 57.0587 49.2645 57.0539 49.9308C57.0612 50.114 57.0418 50.31 57.124 50.4802C57.2435 50.5648 57.3951 50.5826 57.5339 50.6286C57.5331 50.6827 57.5323 50.7908 57.5323 50.8448C56.8764 50.8456 56.2214 50.8456 55.5671 50.8456C55.5647 50.7706 55.5631 50.6955 55.564 50.6214C55.7923 50.5705 56.1795 50.5842 56.1593 50.2534C56.1802 49.4459 56.1884 48.6344 56.1545 47.8268C56.1569 47.5494 55.8141 47.5921 55.6269 47.5284C55.6262 47.4843 55.6253 47.3955 55.6245 47.3511Z" stroke="black" stroke-width="0.0938" stroke-miterlimit="10.43"/>
<path d="M47.6951 36.8592C48.0247 36.7403 48.4054 37.022 48.3945 37.3713C48.4181 37.7811 47.8753 38.0651 47.555 37.8047C47.1837 37.5883 47.2907 36.9692 47.6951 36.8592Z" stroke="black" stroke-width="0.0938" stroke-miterlimit="10.43"/>
<path d="M63.4332 36.864C63.7661 36.7311 64.161 37.0159 64.1492 37.3722C64.1704 37.7922 63.608 38.0708 63.2901 37.7914C62.9439 37.5689 63.0493 36.9836 63.4332 36.864Z" stroke="black" stroke-width="0.0938" stroke-miterlimit="10.43"/>
<path d="M72.0195 36.8783C72.3562 36.713 72.7841 36.9993 72.7731 37.3699C72.796 37.7791 72.2555 38.0646 71.9338 37.8058C71.5821 37.6004 71.6529 37.0262 72.0195 36.8783Z" stroke="black" stroke-width="0.0938" stroke-miterlimit="10.43"/>
<path d="M36.5774 37.5289C37.3593 37.5281 38.1413 37.5281 38.9232 37.5289C38.9232 37.584 38.924 37.6949 38.924 37.75C38.7714 37.7767 38.6133 37.7861 38.4686 37.8436C38.3207 37.908 38.2798 38.0835 38.2649 38.2282C38.2248 38.7293 38.246 39.2336 38.2405 39.7355C38.2436 40.2783 38.2311 40.8385 38.4214 41.3552C38.545 41.692 38.8163 41.9932 39.1798 42.064C39.629 42.153 40.1647 42.1136 40.4959 41.7604C40.8239 41.3993 40.912 40.8927 40.9552 40.423C40.9923 39.7717 40.9759 39.118 40.938 38.4674C40.9081 38.2801 40.92 38.0489 40.7555 37.9222C40.5596 37.7939 40.3157 37.7884 40.0923 37.7515C40.0931 37.6955 40.0931 37.5831 40.0931 37.5273C40.8184 37.5273 41.5437 37.5273 42.269 37.5273C42.269 37.5815 42.2698 37.6916 42.2698 37.7459C42.0369 37.7923 41.701 37.8088 41.624 38.0865C41.3888 39.1683 41.7026 40.3246 41.3054 41.3788C41.0646 42.0436 40.4337 42.5243 39.7368 42.6139C39.1255 42.6862 38.4522 42.6005 37.9534 42.2127C37.512 41.8665 37.3697 41.2828 37.3311 40.7495C37.2808 39.94 37.3406 39.128 37.2934 38.3186C37.28 38.1566 37.2619 37.9591 37.1061 37.8671C36.9425 37.7868 36.7537 37.7868 36.5783 37.7562C36.5781 37.6997 36.5781 37.5856 36.5774 37.5289Z" stroke="black" stroke-width="0.0938" stroke-miterlimit="10.43"/>
<path d="M65.4652 38.3919C65.7075 38.1835 65.9302 37.9506 66.1882 37.7594C66.2118 37.7681 66.259 37.7853 66.2827 37.7932C66.3244 38.1756 66.2906 38.5619 66.3007 38.9465C66.6382 38.9574 66.9804 38.9134 67.3148 38.9733C67.3415 39.0913 67.3037 39.2092 67.2762 39.3241C66.9513 39.3281 66.6257 39.3265 66.3015 39.3273C66.3023 39.985 66.2992 40.6426 66.3015 41.3002C66.3079 41.5535 66.3251 41.8572 66.5478 42.0232C66.7767 42.1734 67.0559 42.0358 67.288 41.9634C67.3109 42.0145 67.3557 42.1153 67.3784 42.1656C66.938 42.3418 66.5091 42.7414 66.0049 42.5597C65.6242 42.4708 65.4613 42.0563 65.4668 41.7014C65.4543 40.9085 65.466 40.1148 65.4621 39.3218C65.256 39.299 65.0137 39.3808 64.8359 39.2557C64.9155 39.1369 65.0153 39.0338 65.116 38.9331C65.2316 38.9356 65.3473 38.9379 65.4645 38.941C65.4644 38.7577 65.4644 38.5745 65.4652 38.3919Z" stroke="black" stroke-width="0.0938" stroke-miterlimit="10.43"/>
<path d="M74.0875 38.3928C74.3582 38.1701 74.5847 37.8853 74.9056 37.732C74.9378 38.1355 74.9198 38.5407 74.9237 38.9458C75.2612 38.9458 75.5988 38.9458 75.937 38.945C75.9362 39.0661 75.9677 39.1991 75.8906 39.3052C75.572 39.3533 75.2479 39.3186 74.9276 39.3241C74.9213 39.9858 74.9237 40.6474 74.9245 41.3097C74.93 41.567 74.9551 41.8761 75.188 42.0358C75.4186 42.164 75.6821 42.0366 75.9094 41.9618C75.9393 42.0288 75.9716 42.0948 76.0039 42.1625C75.5688 42.3394 75.1456 42.7328 74.6461 42.5645C74.2865 42.4905 74.0978 42.1168 74.0962 41.7762C74.0734 40.9588 74.0931 40.14 74.0875 39.3218C73.894 39.3202 73.7005 39.3305 73.5093 39.3084C73.4243 39.1495 73.658 39.0566 73.7311 38.9378C73.8491 38.9378 73.9679 38.9378 74.0882 38.9386C74.0875 38.7562 74.0867 38.5745 74.0875 38.3928Z" stroke="black" stroke-width="0.0938" stroke-miterlimit="10.43"/>
<path d="M42.2861 39.1119C42.7621 39.023 43.2364 38.92 43.7029 38.7886C43.7029 38.9837 43.7029 39.1788 43.7036 39.3748C43.9947 39.1985 44.267 38.9846 44.5863 38.8602C45.034 38.706 45.6019 38.865 45.8402 39.2929C46.044 39.6375 45.9881 40.0536 45.996 40.4367C46.0055 40.9638 45.9724 41.4933 46.015 42.0194C46.0228 42.2657 46.3225 42.2421 46.4932 42.2925C46.4939 42.3476 46.4947 42.4584 46.4947 42.5142C45.8733 42.5142 45.2518 42.5135 44.6295 42.5142C44.6288 42.4403 44.6272 42.3663 44.6264 42.2932C44.7735 42.2515 44.949 42.2617 45.0693 42.1563C45.1481 42.0193 45.1268 41.8542 45.1378 41.7031C45.1354 41.1769 45.1418 40.6498 45.1354 40.1235C45.1323 39.8843 45.0709 39.6153 44.8617 39.4729C44.5815 39.2833 44.2079 39.3619 43.9381 39.5319C43.8413 39.6035 43.6785 39.6546 43.7075 39.8064C43.7107 40.5435 43.6808 41.283 43.7248 42.0193C43.7257 42.3427 44.2701 42.1452 44.1914 42.5109C43.5448 42.5173 42.8981 42.5126 42.2522 42.5141C42.2522 42.4575 42.2522 42.345 42.2522 42.2891C42.4253 42.2491 42.6298 42.2679 42.7723 42.146C42.8761 41.9366 42.8336 41.6904 42.8461 41.4647C42.8312 40.8204 42.8721 40.173 42.8233 39.5302C42.7935 39.2166 42.2703 39.4518 42.2861 39.1119Z" stroke="black" stroke-width="0.0938" stroke-miterlimit="10.43"/>
<path d="M46.9117 39.1119C47.3814 39.0183 47.8494 38.9192 48.3097 38.7886C48.3121 39.7586 48.3072 40.7285 48.3113 41.6985C48.3262 41.8495 48.2985 42.0259 48.3993 42.154C48.5369 42.261 48.725 42.2516 48.8894 42.291C48.8878 42.3648 48.887 42.4396 48.887 42.5143C48.2199 42.5143 47.5528 42.5151 46.8857 42.5143C46.8857 42.4577 46.8857 42.346 46.8865 42.2894C47.054 42.2477 47.2602 42.2658 47.3915 42.1336C47.4773 41.9228 47.4428 41.6859 47.4529 41.4633C47.4403 40.8317 47.4734 40.1976 47.4356 39.5667C47.4317 39.2993 47.1068 39.3354 46.9235 39.2882C46.9212 39.2441 46.9149 39.156 46.9117 39.1119Z" stroke="black" stroke-width="0.0938" stroke-miterlimit="10.43"/>
<path d="M53.7399 39.1141C54.1214 38.8459 54.6233 38.7286 55.0772 38.86C55.587 39.0095 55.978 39.5107 55.9638 40.0479C55.9535 40.147 55.9779 40.3193 55.8402 40.3358C55.1259 40.4334 54.4029 40.4381 53.6847 40.4876C53.6847 41.0107 53.8775 41.596 54.3834 41.8344C54.8584 42.0916 55.4328 41.9438 55.8363 41.6219C55.8647 41.659 55.9197 41.7337 55.9473 41.7706C55.6468 42.16 55.2487 42.5187 54.746 42.5998C54.097 42.6784 53.3992 42.3559 53.0925 41.7675C52.6133 40.8842 52.9248 39.6876 53.7399 39.1141ZM54.3354 39.1582C53.9342 39.3084 53.7917 39.7608 53.7194 40.1431C54.1654 40.129 54.6146 40.1596 55.0598 40.1108C55.2754 39.69 54.8404 38.993 54.3354 39.1582Z" stroke="black" stroke-width="0.0938" stroke-miterlimit="10.43"/>
<path d="M56.4647 39.1016C56.9201 39.0214 57.3693 38.9135 57.8146 38.787C57.8044 39.0961 57.7941 39.4045 57.7855 39.7137C58.0584 39.3573 58.3346 38.8468 58.8444 38.8373C59.2747 38.8287 59.4124 39.4313 59.0938 39.6721C58.8247 39.9238 58.5785 39.4392 58.2851 39.5596C58.0042 39.6713 57.7753 39.9678 57.813 40.2809C57.8311 40.8324 57.78 41.3878 57.8429 41.936C57.9208 42.2554 58.3117 42.2374 58.5682 42.2854C58.5666 42.3609 58.5659 42.4372 58.5659 42.5136C57.8571 42.512 57.1483 42.5159 56.4402 42.5104C56.3868 42.1815 56.7613 42.2973 56.9256 42.1469C57.0099 42.014 56.9902 41.8472 57.0012 41.6986C57.002 41.0684 57.0028 40.4391 57.0012 39.8097C56.9879 39.6682 57.0138 39.4998 56.9084 39.3874C56.7746 39.3205 56.6213 39.3174 56.478 39.289C56.4749 39.2416 56.4678 39.148 56.4647 39.1016Z" stroke="black" stroke-width="0.0938" stroke-miterlimit="10.43"/>
<path d="M60.4063 38.9143C60.8406 38.7444 61.3267 38.7916 61.7594 38.9442C61.8436 39.2306 61.9049 39.5224 61.9561 39.8174C61.9003 39.8221 61.7885 39.8316 61.7319 39.8371C61.5329 39.5279 61.311 39.1282 60.8909 39.122C60.525 39.078 60.2324 39.5538 60.4646 39.8505C60.7878 40.2792 61.4022 40.2886 61.7727 40.6639C62.2487 41.0548 62.2196 41.8611 61.7523 42.2466C61.1693 42.7391 60.2725 42.7202 59.6502 42.308C59.5739 41.9799 59.5339 41.6456 59.5251 41.3089C59.5794 41.3089 59.6872 41.3089 59.7407 41.3089C59.8886 41.7377 60.1804 42.1861 60.6525 42.2884C60.9994 42.3685 61.392 42.0767 61.3234 41.7038C61.2731 41.2931 60.8435 41.1287 60.5179 40.9769C60.1253 40.8086 59.7162 40.5049 59.6722 40.047C59.6118 39.5547 59.9469 39.0756 60.4063 38.9143Z" stroke="black" stroke-width="0.0938" stroke-miterlimit="10.43"/>
<path d="M63.0009 39.0395C63.3604 38.9789 63.7129 38.8814 64.0653 38.7878C64.0669 39.7592 64.0645 40.7308 64.0661 41.7015C64.0764 41.8494 64.0558 42.017 64.1447 42.1467C64.2808 42.2624 64.4751 42.2491 64.6419 42.2899C64.6419 42.3458 64.6419 42.4575 64.6419 42.5133C63.9756 42.5157 63.31 42.5118 62.6445 42.5157C62.6406 42.44 62.6374 42.3654 62.6367 42.2907C62.8106 42.2388 63.0678 42.2781 63.1638 42.0901C63.2322 41.8076 63.1976 41.5134 63.2054 41.2263C63.1952 40.6748 63.2251 40.1226 63.1889 39.5719C63.1858 39.2879 62.8311 39.3368 62.643 39.2793C62.6351 39.067 62.8499 39.0733 63.0009 39.0395Z" stroke="black" stroke-width="0.0938" stroke-miterlimit="10.43"/>
<path d="M68.4237 39.2409C68.8895 38.8153 69.6399 38.6485 70.2001 38.9852C70.639 39.244 70.9278 39.8183 70.7507 40.3139C70.0192 40.4516 69.2647 40.4272 68.5229 40.4878C68.541 40.8135 68.5819 41.1557 68.7715 41.4318C69.0445 41.8621 69.6125 42.0612 70.0986 41.9243C70.3173 41.8668 70.4943 41.715 70.7028 41.6324C70.7217 41.6647 70.7579 41.7299 70.7768 41.7622C70.5078 42.165 70.0954 42.4961 69.6149 42.5945C68.9872 42.6841 68.305 42.3962 67.9763 41.844C67.4758 41.018 67.7023 39.8654 68.4237 39.2409ZM69.0358 39.2275C68.7305 39.4297 68.6259 39.8042 68.5598 40.1433C69.0215 40.1353 69.4841 40.1488 69.9452 40.1101C69.9845 39.8097 69.9168 39.4801 69.6808 39.2739C69.5109 39.1048 69.2269 39.0858 69.0358 39.2275Z" stroke="black" stroke-width="0.0938" stroke-miterlimit="10.43"/>
<path d="M71.2939 39.1072C71.7627 39.0207 72.2284 38.9176 72.6879 38.7886C72.6879 39.7058 72.6887 40.6231 72.6871 41.5412C72.691 41.715 72.6847 41.8928 72.7264 42.0635C72.8161 42.3561 73.3487 42.1233 73.2866 42.5119C72.6123 42.5174 71.9374 42.5127 71.2632 42.5142C71.2632 42.4584 71.264 42.3459 71.2648 42.2901C71.4472 42.2389 71.7627 42.2766 71.806 42.0297C71.854 41.5797 71.8178 41.1258 71.8288 40.6751C71.8178 40.2809 71.8571 39.8836 71.7996 39.4934C71.7328 39.2905 71.4629 39.3384 71.2985 39.2872C71.297 39.2426 71.2947 39.1521 71.2939 39.1072Z" stroke="black" stroke-width="0.0938" stroke-miterlimit="10.43"/>
<path d="M48.9392 38.951C49.5285 38.9494 50.1169 38.9502 50.7061 38.9502C50.7061 39.0068 50.7069 39.1193 50.7069 39.1752C50.5574 39.1995 50.4103 39.2247 50.2632 39.2531C50.4748 40.1774 50.7541 41.0844 50.9925 42.0025C51.2364 41.2025 51.4787 40.4032 51.7233 39.6039C51.7446 39.4962 51.8004 39.3806 51.7548 39.2728C51.6085 39.2192 51.4518 39.2026 51.3009 39.1744C51.3009 39.1186 51.3009 39.0068 51.3009 38.951C51.8004 38.9494 52.3007 38.9502 52.8019 38.9502C52.8011 39.0045 52.8011 39.1122 52.8003 39.1665C52.6076 39.2154 52.3605 39.2468 52.2913 39.4694C51.8909 40.4638 51.6085 41.5014 51.2717 42.5186C50.9674 42.5186 50.6629 42.5194 50.3585 42.5186C50.054 41.5722 49.7472 40.6267 49.4435 39.6803C49.3979 39.5465 49.357 39.4105 49.2885 39.2869C49.1902 39.2075 49.0541 39.2067 48.9392 39.1681C48.9392 39.1138 48.9392 39.0053 48.9392 38.951Z" stroke="black" stroke-width="0.0938" stroke-miterlimit="10.43"/>
<path d="M12.7205 50.9961C12.8568 51.2196 12.9593 51.4666 13.0163 51.7222C12.9539 51.6673 12.8942 51.6092 12.8291 51.5577C12.5002 51.6543 12.1801 51.7911 11.8757 51.9495C11.8822 52.0043 11.8946 52.1134 11.9012 52.1682C11.7053 51.9939 11.6696 51.7026 11.5708 51.4682C11.6435 51.5181 11.7108 51.5761 11.7873 51.6206C12.0955 51.5158 12.4048 51.3992 12.6924 51.2456C12.7053 51.1627 12.7146 51.0796 12.7205 50.9961Z" stroke="black" stroke-width="0.0938" stroke-miterlimit="10.43"/>
<path d="M31.1454 51.6931C31.1726 51.8087 31.1253 51.9747 31.267 52.0224C31.5312 52.1581 31.7928 52.3024 32.0701 52.4098C32.1335 52.3577 32.1987 52.3078 32.2687 52.2655C32.1384 52.6063 31.9469 52.9199 31.7972 53.2526C31.6762 53.2092 31.5546 53.162 31.4542 53.08C31.566 53.0486 31.7336 53.1093 31.8004 52.9845C31.859 52.901 31.9019 52.8077 31.9485 52.717C31.8145 52.6417 31.6761 52.5727 31.5389 52.5043C31.4954 52.5955 31.4477 52.6851 31.4184 52.7822C31.4411 52.8576 31.4738 52.9298 31.5009 53.0046C31.3495 52.9368 31.1992 52.8662 31.0593 52.7772C31.1331 52.761 31.2074 52.749 31.2822 52.7409C31.3376 52.6471 31.3892 52.551 31.4402 52.4544C31.2948 52.3806 31.1466 52.3117 30.992 52.2585C30.9154 52.3708 30.8346 52.4864 30.8069 52.6226C30.8167 52.7436 30.9094 52.8386 30.9496 52.9515C30.8269 52.8955 30.7222 52.8098 30.6191 52.7257C30.7965 52.3822 30.9555 52.0295 31.1454 51.6931Z" stroke="black" stroke-width="0.0938" stroke-miterlimit="10.43"/>
<path d="M19.6228 52.1968C21.2545 52.1968 22.8862 52.1968 24.5185 52.1968C24.5185 52.4534 24.5185 52.7101 24.5185 52.9667C26.2972 52.9667 28.0765 52.9662 29.8553 52.9667C28.834 54.5957 27.3977 55.9936 25.6504 56.8216C25.0074 57.1288 24.3253 57.355 23.6253 57.4896C23.4815 57.5102 23.3676 57.6051 23.2433 57.673C22.5313 58.0761 21.611 58.0751 20.898 57.6741C20.7705 57.6035 20.6527 57.5064 20.5051 57.4836C19.0216 57.1993 17.6362 56.4879 16.4886 55.5128C15.6285 54.7883 14.8997 53.9164 14.2996 52.9667C16.074 52.9662 17.8484 52.9667 19.6223 52.9667C19.6222 52.7101 19.6222 52.4534 19.6228 52.1968ZM19.7118 52.2869C19.7129 53.376 19.7096 54.4655 19.7134 55.5546C19.715 56.3062 20.1068 57.0398 20.7254 57.4647C21.332 57.8928 22.1466 58.0035 22.8455 57.7539C23.6024 57.4962 24.1993 56.825 24.3681 56.0431C24.4354 55.7576 24.4256 55.4629 24.4262 55.1721C24.4256 54.2105 24.4262 53.249 24.4256 52.2869C22.8548 52.2869 21.2833 52.2869 19.7118 52.2869Z" stroke="black" stroke-width="0.0938" stroke-miterlimit="10.43"/>
<path d="M12.3141 52.754C12.4334 52.3612 12.9848 52.2043 13.299 52.4659C13.5996 52.7063 13.7413 53.0813 13.9219 53.4095C13.8134 53.3694 13.7038 53.2365 13.586 53.3309C13.3228 53.4763 13.0466 53.6049 12.8079 53.7894C12.8149 53.8464 12.829 53.9598 12.8366 54.0162C12.6809 53.8725 12.606 53.6695 12.4991 53.4915C12.3748 53.2695 12.2479 53.0151 12.3141 52.754ZM12.5556 52.8962C12.4106 53.0835 12.5213 53.3195 12.6255 53.4953C12.9126 53.3629 13.1888 53.206 13.4584 53.0421C13.6153 52.9618 13.4823 52.7849 13.3961 52.7046C13.1368 52.4768 12.7401 52.6575 12.5556 52.8962Z" stroke="black" stroke-width="0.0938" stroke-miterlimit="10.43"/>
<path d="M20.8202 52.9039C20.8793 52.8599 20.9385 52.8165 20.9976 52.773C21.3471 53.2223 21.696 53.6711 22.0455 54.1199C22.3955 53.6701 22.7449 53.2207 23.095 52.7709C23.1557 52.8137 23.2078 52.8675 23.2692 52.9114C23.165 53.041 23.0624 53.1724 22.961 53.3042C23.0272 53.3558 23.0934 53.4068 23.159 53.4584C23.2615 53.3259 23.3647 53.1935 23.4678 53.0617C23.5334 53.1127 23.5986 53.1637 23.6647 53.2153C23.6132 53.2815 23.5616 53.3482 23.5106 53.4144C23.5768 53.4659 23.643 53.5169 23.7092 53.5685C23.7597 53.5029 23.8096 53.4366 23.8606 53.371C23.9274 53.4198 23.9941 53.4681 24.0614 53.5175C23.9616 53.6536 23.858 53.7877 23.7532 53.9206C23.6213 53.8175 23.4895 53.7144 23.3571 53.6118C23.3056 53.6775 23.254 53.7436 23.203 53.8104C23.3348 53.9129 23.4672 54.0155 23.5996 54.1186C23.548 54.1843 23.4965 54.2505 23.445 54.3172C23.1797 54.1116 22.9154 53.9054 22.65 53.7003C22.4954 53.8994 22.3412 54.0986 22.1872 54.2977C22.4509 54.639 22.7179 54.9771 22.9794 55.32C23.0717 55.2175 23.1623 55.0981 23.3012 55.0585C23.5155 54.9884 23.7814 55.0915 23.8661 55.3075C23.9692 55.5658 23.8705 55.8502 23.7283 56.0732C23.7999 56.1074 23.9503 56.1172 23.9269 56.2317C23.8928 56.3808 23.6968 56.2968 23.5877 56.3146C23.5536 56.4151 23.591 56.5713 23.4679 56.6164C23.3143 56.6327 23.3528 56.4585 23.3398 56.3624C23.094 56.4373 22.8053 56.4682 22.5812 56.3173C22.3787 56.1877 22.3337 55.8903 22.4651 55.6955C22.5389 55.5733 22.6734 55.512 22.7945 55.4485C22.5394 55.1251 22.2887 54.7984 22.0353 54.4745C21.7835 54.7995 21.529 55.1229 21.2794 55.4502C21.3945 55.5115 21.5215 55.5691 21.5968 55.6814C21.7341 55.8697 21.7005 56.1654 21.5079 56.3043C21.2816 56.4703 20.981 56.4389 20.727 56.3635C20.7123 56.4486 20.7639 56.5903 20.6419 56.6125C20.4818 56.6305 20.516 56.4112 20.4774 56.3124C20.3879 56.3141 20.2973 56.3244 20.2083 56.3146C20.1306 56.2918 20.1123 56.1752 20.1833 56.1307C20.2419 56.1095 20.3016 56.0927 20.3624 56.0786C20.2262 55.8615 20.1242 55.5929 20.2104 55.3378C20.2821 55.1012 20.5681 54.9808 20.7943 55.0611C20.9294 55.1023 21.019 55.2184 21.1091 55.3199C21.3706 54.9769 21.6376 54.6388 21.9013 54.2976C21.7467 54.0984 21.592 53.8993 21.4374 53.7002C21.1726 53.9053 20.9078 54.1115 20.6424 54.3171C20.5908 54.2503 20.5393 54.1842 20.4883 54.1185C20.6201 54.0154 20.7525 53.9129 20.8849 53.8103C20.8333 53.7441 20.7824 53.6774 20.7313 53.6117C20.5989 53.7142 20.4665 53.8173 20.3341 53.9205C20.2316 53.7876 20.1284 53.6546 20.0259 53.5216C20.0926 53.4712 20.1594 53.4202 20.2267 53.3702C20.2777 53.4364 20.3287 53.5031 20.3803 53.5699C20.4465 53.5157 20.5137 53.4625 20.5799 53.4082C20.5273 53.3442 20.4752 53.2802 20.4232 53.2161C20.4894 53.164 20.5561 53.113 20.6228 53.0614C20.7254 53.1938 20.828 53.3257 20.9305 53.4581C20.9967 53.4066 21.0635 53.355 21.1297 53.304C21.0258 53.1714 20.9222 53.0379 20.8202 52.9039ZM20.4181 55.4434C20.3638 55.693 20.5364 55.9052 20.6265 56.1228C20.8783 56.1602 21.1816 56.2921 21.4063 56.1087C21.5647 55.9339 21.3927 55.6811 21.1925 55.6447C20.9722 55.6116 20.9391 55.3387 20.7388 55.2752C20.6097 55.2269 20.4371 55.2969 20.4181 55.4434ZM23.0483 55.5752C22.9235 55.6468 22.7569 55.6642 22.6734 55.7934C22.5925 55.9084 22.6153 56.1 22.758 56.1547C22.9859 56.2644 23.2371 56.1553 23.4689 56.1178C23.5579 55.9003 23.7288 55.6897 23.6778 55.4406C23.6599 55.292 23.4841 55.2214 23.3544 55.2703C23.2067 55.3164 23.1487 55.4727 23.0483 55.5752Z" stroke="black" stroke-width="0.0938" stroke-miterlimit="10.43"/>
<path d="M29.9094 53.8801C30.0109 53.6387 30.1726 53.4232 30.3539 53.2355C30.3474 53.3429 30.2627 53.4883 30.3929 53.5567C30.6377 53.7374 30.883 53.9203 31.15 54.0679C31.2205 54.0277 31.2926 53.9897 31.3664 53.9539C31.2112 54.2268 31.0305 54.4885 30.8276 54.7283C30.7185 54.864 30.502 54.8878 30.374 54.7662C30.247 54.6724 30.2676 54.5031 30.2731 54.3652C30.0028 54.349 29.7331 54.3642 29.4705 54.4299C29.5475 54.3202 29.6202 54.1998 29.7348 54.1238C29.9664 53.9746 30.2888 54.203 30.4896 53.9876C30.3691 53.8976 30.2443 53.8128 30.107 53.7505C30.0418 53.7949 29.9767 53.8394 29.9094 53.8801ZM30.4254 54.305C30.4347 54.4558 30.5855 54.5671 30.7299 54.5665C30.859 54.5611 30.9236 54.4363 30.9964 54.3495C30.8488 54.2366 30.6968 54.1313 30.5433 54.0277C30.4998 54.1172 30.433 54.2019 30.4254 54.305Z" stroke="black" stroke-width="0.0938" stroke-miterlimit="10.43"/>
<path d="M14.1319 53.725C14.3224 53.8845 14.4374 54.1108 14.592 54.3018L14.5459 54.3404C14.5064 54.3164 14.4265 54.2677 14.3864 54.2432C14.1102 54.3843 13.8709 54.5927 13.6245 54.7799C13.5154 54.8336 13.5898 54.9383 13.6093 55.0235C13.5957 55.0338 13.5687 55.055 13.5545 55.0653C13.4139 54.8629 13.2523 54.6746 13.1323 54.4586C13.2398 54.4868 13.3521 54.617 13.4552 54.5129C13.6988 54.3382 13.9572 54.1759 14.171 53.9648C14.1628 53.8839 14.1443 53.8047 14.1319 53.725Z" stroke="black" stroke-width="0.0938" stroke-miterlimit="10.43"/>
<path d="M14.4405 55.0611C14.472 54.862 14.6907 54.7219 14.885 54.773C15.1492 54.8342 15.3261 55.0747 15.4021 55.3226C15.3212 55.4322 15.2382 55.5413 15.1399 55.6368C15.1491 55.4306 15.2816 55.1708 15.0981 55.0053C14.9874 54.8902 14.7861 54.9585 14.7595 55.1127C14.7351 55.3216 14.8941 55.5073 14.8708 55.7183C14.8578 55.9359 14.593 56.0623 14.4014 55.988C14.1903 55.9224 14.0704 55.7248 13.9651 55.5458C14.0465 55.452 14.1165 55.3353 14.2418 55.2945C14.2125 55.4448 14.1111 55.6266 14.2358 55.7606C14.3287 55.8941 14.5668 55.8268 14.5696 55.6619C14.5496 55.4567 14.4101 55.2722 14.4405 55.0611Z" stroke="black" stroke-width="0.0938" stroke-miterlimit="10.43"/>
<path d="M28.5454 55.4623C28.7196 55.2528 28.9079 55.0542 29.113 54.8746C29.1005 54.9848 28.9915 55.1258 29.1076 55.2153C29.3273 55.4416 29.5628 55.6522 29.7896 55.8709C29.8439 55.7998 29.9047 55.7324 29.9481 55.6543C29.9676 55.5436 29.9123 55.4335 29.9036 55.3239C30.0099 55.4232 30.1098 55.5301 30.2069 55.6391C30.0333 55.7243 29.9144 55.88 29.7825 56.0157C29.6334 56.1779 29.4575 56.3217 29.3571 56.5225C29.2475 56.4314 29.1385 56.3402 29.037 56.2403C29.1336 56.2267 29.2236 56.2664 29.317 56.2822C29.4255 56.2594 29.4939 56.1574 29.578 56.0928C29.3452 55.8757 29.1238 55.6473 28.8856 55.4367C28.7847 55.3276 28.6626 55.4617 28.5454 55.4623Z" stroke="black" stroke-width="0.0938" stroke-miterlimit="10.43"/>
<path d="M15.5513 55.9381C15.6055 55.8112 15.7277 55.7395 15.8308 55.657C16.12 55.9191 16.4559 56.1324 16.7142 56.4265C16.6122 56.4243 16.4787 56.3076 16.3999 56.4151C16.1911 56.6501 15.9805 56.8867 15.8085 57.151C15.8459 57.2199 15.8752 57.292 15.8969 57.368C15.5979 57.1596 15.332 56.9089 15.0471 56.6826C15.122 56.5795 15.1882 56.4634 15.3032 56.3999C15.2896 56.4954 15.2577 56.5888 15.2587 56.6865C15.3336 56.7928 15.4395 56.8704 15.5382 56.9529C15.6413 56.839 15.7401 56.7212 15.8367 56.6024C15.7449 56.5302 15.6516 56.4591 15.554 56.3951C15.5134 56.4201 15.4314 56.4701 15.3901 56.4949C15.4048 56.3164 15.5697 56.2095 15.6696 56.0782C15.675 56.1558 15.6685 56.2356 15.6837 56.3132C15.7499 56.3897 15.8307 56.4516 15.9077 56.5172C16.0114 56.3946 16.1107 56.2676 16.2013 56.1347C16.1064 56.0218 16.0032 55.9062 15.8617 55.8536C15.7536 55.8617 15.6549 55.9116 15.5513 55.9381Z" stroke="black" stroke-width="0.0938" stroke-miterlimit="10.43"/>
<path d="M27.8144 56.1511C27.8996 55.9661 28.0977 55.8587 28.2729 55.7719C28.1053 56.0041 28.2436 56.2711 28.299 56.5158C28.3565 56.754 28.4346 56.9874 28.4759 57.2294C28.4585 57.244 28.4232 57.2733 28.4058 57.288C28.0488 57.1062 27.7162 56.8782 27.3574 56.6987C27.2609 56.646 27.1572 56.7095 27.0596 56.7231C27.1779 56.5277 27.3965 56.4295 27.561 56.2792C27.5794 56.2879 27.6163 56.3046 27.6348 56.3128C27.6104 56.3443 27.5615 56.4067 27.5371 56.4381C27.6234 56.5 27.7123 56.5586 27.8024 56.6166C27.9077 56.5347 28.0135 56.4528 28.1193 56.3708C28.0841 56.2753 28.0483 56.1804 28.0114 56.0865C27.9457 56.1083 27.8801 56.13 27.8144 56.1511ZM27.9089 56.6753C28.037 56.7524 28.165 56.8294 28.2936 56.9065C28.2513 56.7632 28.2079 56.6205 28.165 56.4784C28.0792 56.5434 27.9941 56.6091 27.9089 56.6753Z" stroke="black" stroke-width="0.0938" stroke-miterlimit="10.43"/>
<path d="M16.8649 56.5509C17.0988 56.6366 17.3099 56.7739 17.5112 56.9182C17.4618 56.9221 17.363 56.9291 17.3136 56.9329C17.2762 57.0247 17.2675 57.1244 17.248 57.2216C17.3646 57.2895 17.4803 57.3573 17.5964 57.4262C17.6697 57.3568 17.7429 57.2873 17.8145 57.2162C17.7689 57.1587 17.725 57.1006 17.6815 57.042C17.884 57.0935 18.0592 57.2129 18.2204 57.3416C18.1032 57.353 17.9692 57.3166 17.8683 57.3947C17.5905 57.5857 17.3267 57.7963 17.0527 57.9927C16.9925 58.0432 16.9143 58.0562 16.8389 58.0665C16.8855 57.627 16.9832 57.194 17.0065 56.7523C16.9571 56.6866 16.9099 56.6193 16.8649 56.5509ZM17.229 57.3432C17.2051 57.4907 17.1812 57.6383 17.1579 57.7864C17.2746 57.6931 17.3913 57.6004 17.5069 57.5054C17.414 57.4506 17.3212 57.3968 17.229 57.3432Z" stroke="black" stroke-width="0.0938" stroke-miterlimit="10.43"/>
<path d="M25.9148 57.3455C26.1167 57.1589 26.3815 57.0595 26.6251 56.9402C26.5784 57.0188 26.5231 57.0926 26.4824 57.1752C26.612 57.498 26.8015 57.7932 26.961 58.1014C27.0402 58.0439 27.1255 57.9929 27.1959 57.924C27.2155 57.8258 27.2095 57.7243 27.2187 57.6255C27.312 57.7384 27.3696 57.8752 27.4282 58.0086C27.2105 58.0455 27.0282 58.173 26.8362 58.2718C26.6642 58.3646 26.4781 58.4422 26.3424 58.5887C26.2653 58.4622 26.1856 58.3358 26.1416 58.1931C26.2241 58.2441 26.3017 58.3043 26.388 58.3499C26.4971 58.3515 26.5903 58.2821 26.688 58.2414C26.5068 57.9403 26.3804 57.6043 26.1693 57.3222C26.0841 57.3276 25.9994 57.3352 25.9148 57.3455Z" stroke="black" stroke-width="0.0938" stroke-miterlimit="10.43"/>
<path d="M18.3321 57.3683C18.5193 57.4188 18.7521 57.4936 18.8036 57.708C18.8698 57.8855 18.8253 58.1356 19.0277 58.23C19.076 58.0976 19.1313 57.9663 19.1536 57.8269C19.0999 57.7606 19.0391 57.702 18.9832 57.6391C19.2355 57.6928 19.4775 57.7878 19.712 57.8931C19.6338 57.9191 19.5535 57.931 19.471 57.9294C19.3321 58.1991 19.2431 58.4916 19.1417 58.777C19.0738 58.8996 19.2193 58.9827 19.2698 59.0776C18.968 58.9777 18.6587 58.8855 18.3766 58.7368C18.2138 58.6559 18.1579 58.4302 18.2665 58.2837C18.3359 58.1627 18.4846 58.1524 18.6061 58.1225C18.554 57.8577 18.4808 57.5962 18.3321 57.3683ZM18.6034 58.7161C18.6679 58.7568 18.7406 58.7812 18.8118 58.8105C18.8791 58.6386 18.942 58.4654 19.0028 58.2912C18.898 58.2733 18.7901 58.225 18.6843 58.2571C18.5177 58.3303 18.4536 58.5951 18.6034 58.7161Z" stroke="black" stroke-width="0.0938" stroke-miterlimit="10.43"/>
<path d="M25.1498 57.6369C25.1752 57.6401 25.2263 57.6461 25.2518 57.6493C25.191 57.6928 25.1302 57.7356 25.0684 57.7779C25.1519 58.1143 25.2468 58.4573 25.4059 58.7655C25.4499 58.7671 25.5378 58.7699 25.5823 58.7715C25.5894 58.7856 25.604 58.8143 25.6111 58.8285C25.3745 58.9078 25.1416 59.0011 24.8959 59.0504C24.949 58.9625 25.1075 58.8996 25.0543 58.7775C24.9718 58.504 24.8855 58.23 24.7782 57.9652C24.7418 57.8529 24.5915 57.9131 24.5068 57.8794C24.7015 57.7558 24.9299 57.6966 25.1498 57.6369Z" stroke="black" stroke-width="0.0938" stroke-miterlimit="10.43"/>
<path d="M20.4926 58.049C20.7433 58.0708 20.9891 58.1239 21.2371 58.1635C21.236 58.1793 21.2339 58.2096 21.2322 58.2249C21.1633 58.2503 21.0358 58.2221 21.0233 58.3236C20.9533 58.6264 20.9007 58.9352 20.8709 59.2445C20.9235 59.3107 20.9876 59.3661 21.0456 59.4284C20.7292 59.3769 20.4014 59.3562 20.0992 59.2445C19.8642 59.1577 19.8203 58.8223 19.9983 58.659C20.1822 58.5028 20.4535 58.5125 20.6647 58.6064C20.6744 58.4767 20.7265 58.3421 20.6934 58.2152C20.6288 58.1564 20.5566 58.107 20.4926 58.049ZM20.357 58.6871C20.224 58.755 20.1816 58.9313 20.2185 59.067C20.2641 59.195 20.4096 59.233 20.5311 59.2434C20.6011 59.0681 20.6077 58.876 20.6418 58.692C20.5485 58.6812 20.447 58.641 20.357 58.6871Z" stroke="black" stroke-width="0.0938" stroke-miterlimit="10.43"/>
<path d="M23.13 58.2077C23.3215 58.009 23.6276 57.9928 23.88 58.0627C23.9293 58.1892 23.9765 58.3167 24.0074 58.4497C23.8365 58.3525 23.7329 58.1246 23.5104 58.1349C23.3601 58.1333 23.2375 58.3005 23.3232 58.4361C23.4545 58.638 23.7491 58.5707 23.9223 58.7194C24.0976 58.8459 24.0645 59.1313 23.9038 59.2561C23.734 59.4042 23.4964 59.3933 23.2858 59.389C23.2472 59.2664 23.2131 59.141 23.2044 59.0123C23.3303 59.1084 23.4263 59.3044 23.612 59.2766C23.7758 59.2706 23.8491 59.0325 23.7086 58.943C23.5322 58.8485 23.3092 58.8676 23.1507 58.7362C22.9949 58.6081 22.9889 58.3487 23.13 58.2077Z" stroke="black" stroke-width="0.0938" stroke-miterlimit="10.43"/>
<path d="M21.9495 58.5935C22.1774 58.4763 22.4552 58.7259 22.376 58.9658C22.3331 59.1785 22.0444 59.2833 21.8811 59.1345C21.7009 58.9973 21.7383 58.6804 21.9495 58.5935Z" stroke="black" stroke-width="0.0938" stroke-miterlimit="10.43"/>
</svg>
