<svg class="fill-current inline-block w-full h-full" viewBox="0 0 87 87" xmlns="http://www.w3.org/2000/svg">
<path d="M52.2457 46.6023V30.0003H61.5929V47.5151C61.5929 48.7577 61.8815 49.6427 62.4599 50.1699C63.041 50.6981 63.8173 50.9616 64.7873 50.9616C65.7595 50.9616 66.5422 50.6981 67.1349 50.1699C67.7274 49.6427 68.0276 48.7577 68.0276 47.5151V30.0003H77.3304V46.6023C77.3304 48.5837 77.0275 50.2667 76.4208 51.6548C75.8159 53.0427 74.964 54.1699 73.8735 55.0436C72.7802 55.9173 71.4579 56.5507 69.9075 56.9439C68.3562 57.3426 66.6486 57.5401 64.7876 57.5401C62.9542 57.5401 61.2674 57.3426 59.7302 56.9439C58.1939 56.5509 56.8706 55.9173 55.7661 55.0436C54.6587 54.1699 53.7943 53.0427 53.1762 51.6548C52.5544 50.2667 52.2457 48.5837 52.2457 46.6023ZM35.7368 50.7632C35.7368 50.9468 35.8287 51.0398 36.0189 51.0398C36.1514 51.0398 36.2205 50.9466 36.2205 50.7632C36.4628 49.0186 36.7732 47.1119 37.151 45.0373C37.5305 42.9638 37.9044 40.9424 38.2841 38.9732C38.6618 37.0078 39.026 35.2164 39.3755 33.6078C39.7266 31.9934 39.9963 30.7946 40.1867 30.0001H48.9262V56.8271H43.6672V34.2411C43.6672 34.1078 43.5707 34.0427 43.3832 34.0427C43.2763 34.0427 43.2213 34.1078 43.2213 34.2411C43.0064 35.2956 42.7754 36.4786 42.5341 37.7873C42.2888 39.0941 41.9937 40.6255 41.6414 42.3825C41.2912 44.1402 40.8672 46.194 40.3692 48.5434C39.8703 50.8963 39.2827 53.6555 38.6085 56.8271H33.144C32.4711 53.7094 31.8973 51.0146 31.425 48.7418C30.9508 46.4716 30.5401 44.4783 30.1897 42.7588C29.8405 41.043 29.5289 39.5107 29.2592 38.1629C28.9914 36.816 28.7205 35.5081 28.4498 34.2414C28.4498 34.1081 28.3551 34.043 28.1658 34.043C28.0597 34.043 28.0049 34.1081 28.0049 34.2414V56.8273H23.1908V30.0003H31.97C32.1054 30.5807 32.269 31.3324 32.4566 32.2593C32.6431 33.1862 32.8552 34.2201 33.0822 35.3705C33.3132 36.5163 33.547 37.7477 33.7922 39.0519C34.0336 40.3634 34.2769 41.6955 34.5201 43.0573C34.7634 44.4173 34.9849 45.7522 35.1885 47.0609C35.3905 48.3664 35.5733 49.6017 35.7368 50.7632ZM10 30.0003H12.6703V54.8459H20.4388V56.8273H10V30.0003Z" />
</svg>
